<?xml version="1.0" standalone="no"?>
<!DOCTYPE svg PUBLIC "-//W3C//DTD SVG 1.1//EN" "http://www.w3.org/Graphics/SVG/1.1/DTD/svg11.dtd">
<svg xmlns="http://www.w3.org/2000/svg">
<metadata>Copyright (C) 2017 by original authors @ fontello.com</metadata>
<defs>
<font id="fontello" horiz-adv-x="1000" >
<font-face font-family="fontello" font-weight="400" font-stretch="normal" units-per-em="1000" ascent="850" descent="-150" />
<missing-glyph horiz-adv-x="1000" />
<glyph glyph-name="fl-icon-43" unicode="&#xe8b2;" d="M984 842c9 0 16-7 16-16v-952c0-9-7-16-16-16h-968c-9 0-16 7-16 16v952c0 9 7 16 16 16h968z m-15-952l0 920h-938v-920h938z m-52 721c19-9 33-29 33-52 0-23-14-43-33-52v-149-200-201c0-8-7-15-16-15h-192-209-209-192c-8 0-15 7-15 15v146c-25 7-42 29-42 55 0 26 17 48 42 55v145 201 184c0 8 7 15 15 15h192 209 209 192c9 0 16-7 16-15v-132z m-193 116v-153h113c7 22 25 39 48 42v111h-161z m0-184l0-129c4-1 7-3 11-4l109 119c-3 4-5 9-7 14h-113z m-208 184v-153h177v153h-177z m0-184v-169h138c5 19 20 34 39 40v129h-177z m0-200v-130c4-1 9-3 13-5l129 123c-2 4-3 8-4 12h-138z m-209 384v-153h177v153h-177z m0-184v-129c19-6 34-21 40-40h137v169h-177z m35-212l129-123c4 2 9 4 13 5v130h-137c-2-4-3-8-5-12z m107-146l-129 124c-4-3-8-5-13-6v-129h138c1 4 2 7 4 11z m-334 542v-153h161v153h-161z m0-184v-169h121c5 19 21 34 40 40v129h-161z m0-200v-130c5-1 10-4 15-7l112 122c-2 5-4 10-6 15h-121z m-42-185c0-14 12-26 26-26s26 12 26 26c0 6-2 12-6 17 0 0 0 0 0 0-5 6-12 9-20 9-14 0-26-12-26-26z m203-185v169h-122c-5-19-20-34-39-39v-130h161z m0 201l0 129c-4 1-7 3-11 4l-114-124c1-3 3-6 3-9h122z m-2 165c5-4 11-7 17-7 7 0 14 3 19 8l0 0c5 5 7 12 7 18 0 15-11 26-26 26-14 0-26-11-26-26 0-7 3-14 9-19z m210-366v130c-19 5-34 20-39 39h-138v-169h177z m-10 185c0-14 12-26 26-26s26 12 26 26c0 7-2 13-7 18l0 0c-5 5-12 8-19 8s-14-3-19-8l0 0c-4-5-7-11-7-18z m219-185v169h-138c-5-19-20-34-39-39v-130h177z m0 201v129c-5 1-9 3-13 6l-129-124c2-4 3-7 4-11h138z m-3 166c5-5 12-8 19-8 14 0 26 12 26 26 0 8-3 15-9 20l0 0 0 0c-4 4-11 6-17 6-15 0-26-11-26-26 0-6 2-13 7-18z m195-367v169h-161v-169h161z m0 201v169h-121c-5-19-20-34-40-40v-129h161z m0 200v128c-6 1-12 3-18 6l-109-120c2-4 5-9 6-14h121z m13 159c12 3 21 13 21 26 0 12-9 23-21 25l0 0c-2 1-4 1-5 1-15 0-27-12-27-26 0-8 3-14 9-19l0 0 0 0c5-5 11-7 18-7 1 0 3 0 5 0z" horiz-adv-x="1000" />

<glyph glyph-name="fl-icon-41" unicode="&#xe8b3;" d="M950 129c5-15 7-31 7-47 0-6 0-12-1-18-1-8-8-14-15-14-1 0-2 0-2 0-9 1-15 9-14 18 1 4 1 9 1 14 0 13-2 25-6 37-2 8 2 17 10 20 8 3 17-2 20-10z m-880 10c8-3 13-12 10-20-4-12-6-24-6-37 0-5 0-10 1-14 1-9-5-17-14-18 0 0-1 0-2 0-7 0-14 6-15 14-1 6-1 12-1 18 0 16 2 32 7 47 3 8 12 13 20 10z m837 106c57-34 92-96 92-163 0-66-35-128-92-163v-53c0-9-7-16-15-16h-159c-8 0-15 7-15 16v433c0 9 7 16 15 16h24v176c0 142-115 257-257 257-142 0-257-115-257-257v-176h24c8 0 15-7 15-16v-433c0-9-7-16-15-16h-159c-8 0-15 7-15 16v53c-57 35-92 96-92 163 0 67 35 129 92 163v54c0 9 7 16 15 16h33v176c0 198 161 359 359 359s359-161 359-359v-176h33c8 0 15-7 15-16v-54z m-814-288v250c-38-30-61-75-61-125 0-49 23-95 61-125z m158 326h-24-71-32v-47 0-308 0-47h127v402z m249 496c159 0 289-129 289-288v-176h39v176c0 181-147 328-328 328s-328-147-328-328v-176h40v176c0 159 129 288 288 288z m376-543v47h-32-71-24v-402h127v47 0 308 0z m31-279c38 30 61 76 61 125 0 50-23 95-61 125v-250z" horiz-adv-x="1000" />

<glyph glyph-name="fl-icon-39" unicode="&#xe8b4;" d="M980 850c9 0 16-7 16-16v-682-126c0-9-7-16-16-16h-411l11-70h38c32 0 58-25 58-57v-17c0-9-7-16-16-16h-84-152-84c-9 0-16 7-16 16v17c0 32 26 57 58 57h38l11 70h-411c-9 0-16 7-16 16v126 682c0 9 7 16 16 16h960z m-362-941h-51c0 0 0 0 0 0-1 0-1 0-1 0h-132c0 0 0 0 0 0 0 0 0 0 0 0h-52c-14 0-26-12-26-26v-1h68 152 68v1c0 14-12 26-26 26z m-166 31h96l-11 70h-74z m512 102v94h-928v-94h414 101 413z m0 126v650h-928v-650h928z m-439-51c9 0 16-7 16-15s-7-16-16-16h-50c-9 0-16 7-16 16 0 8 7 15 16 15h50z m261 0c9 0 16-7 16-15s-7-16-16-16h-168c-9 0-16 7-16 16 0 8 7 15 16 15h168z m127 0c8 0 15-7 15-15 0-9-7-16-15-16h-59c-9 0-16 7-16 16 0 8 7 15 16 15h59z m-641 361c47-7 84-49 84-98 0-50-37-92-84-99v-45c0-8-7-15-16-15-9 0-16 7-16 15v45c-48 7-84 49-84 99 0 49 36 91 84 98v280c0 9 7 16 16 16 9 0 16-7 16-16v-280z m-16-167c38 0 68 31 68 69 0 37-30 68-68 68-38 0-69-31-69-68 0-38 31-69 69-69z m260 403c48-8 84-49 84-99 0-49-36-91-84-98v-281c0-8-7-15-16-15-9 0-16 7-16 15v281c-47 7-84 49-84 98 0 50 37 91 84 99v44c0 9 7 16 16 16 9 0 16-7 16-16v-44z m-16-167c38 0 68 31 68 68 0 38-30 69-68 69s-68-31-68-69c0-37 30-68 68-68z m260-27c48-7 84-49 84-98 0-50-36-92-84-99v-87c0-8-7-15-16-15-8 0-16 7-16 15v87c-47 7-84 49-84 99 0 49 37 91 84 98v238c0 9 8 16 16 16 9 0 16-7 16-16v-238z m-16-167c38 0 69 31 69 69 0 37-31 68-69 68-37 0-68-31-68-68 0-38 31-69 68-69z" horiz-adv-x="1000" />

<glyph glyph-name="fl-icon-20" unicode="&#xe8b5;" d="M984 842c9 0 16-7 16-16v-200-752c0-9-7-16-16-16h-484-484c-9 0-16 7-16 16v752 200c0 9 7 16 16 16h484 484z m-15-952v720h-469-469v-720h469 469z m0 751v169h-469-469v-169h469 469z m-135 134c9 0 16-7 16-16 0-8-7-15-16-15h-184c-8 0-15 7-15 15 0 9 7 16 15 16h184z m84 0c8 0 15-7 15-16 0-8-7-15-15-15h-34c-8 0-15 7-15 15 0 9 7 16 15 16h34z m-401 17c36 0 66-30 66-66 0-36-30-66-66-66-8 0-15 1-22 4 0 0 0 0 0 0-26 9-44 34-44 62s18 53 44 62c0 0 0 0 0 0 7 2 14 4 22 4z m0-101c19 0 34 16 34 35 0 19-15 34-34 34-4 0-8 0-12-2l0 0c-13-5-23-18-23-32s10-28 23-33l0 0c4-1 8-2 12-2z m-184 101c36 0 66-30 66-66 0-36-30-66-66-66-36 0-66 30-66 66 0 36 30 66 66 66z m0-101c19 0 34 16 34 35 0 19-15 34-34 34-19 0-34-15-34-34 0-19 15-35 34-35z m-184 101c37 0 66-30 66-66 0-36-29-66-66-66-36 0-65 30-65 66 0 36 29 66 65 66z m0-101c19 0 35 16 35 35 0 19-16 34-35 34-19 0-34-15-34-34 0-19 15-35 34-35z m789-260c7-6 7-16 0-22l-118-118-93-94-216-216-10-10c0 0 0 0 0 0l0 0c0 0 0 0 0 0-1 0-1-1-1-1-1 0-1 0-1 0 0-1 0-1-1-1 0 0 0 0 0 0-1 0-1-1-1-1 0 0-1 0-1 0 0 0 0 0 0 0-1 0-1-1-1-1-1 0-1 0-1 0 0 0-1 0-1 0 0 0 0 0 0 0l0 0c0 0 0 0 0 0l-118-24 0 0-1 0-68-14c-3-2-7-4-11-4h-12c0 0 0 0 0 0h0 0c0 0 0 0 0 0h-142c-9 0-16 7-16 16 0 8 7 15 16 15h129l39 194c0 1 0 1 0 1l0 0c0 0 0 0 0 0 0 0 0 1 0 1 0 0 0 0 0 1 1 0 1 0 1 1 0 0 0 0 0 0 0 0 0 1 0 1 1 0 1 0 1 1 0 0 0 0 0 0 0 1 1 1 1 1 0 0 0 0 0 0 0 1 1 1 1 1 0 1 0 1 0 1l0 0c0 0 0 0 0 0l34 33h-206c-9 0-16 7-16 16 0 9 7 16 16 16h237l111 110 125 126h-114-359c-9 0-16 7-16 15s7 16 16 16h359 146l105 105c6 6 16 6 22 0z m-542-234l-50-49 31-31 298 297-31 31-133-133-115-115z m301 195l-297-298 36-37 53 53 109 109 136 136z m-394-431l37 7-30 30z m74 14l81 17-33 32-59 59-32 33-16-81z m327 244l83 83-31 31-136-136-109-109-52-53 31-31z m105 105l96 96-143 143-96-96 42-42 59-59z m-39 196c6-6 6-16 0-22l-38-38c-3-3-7-5-11-5s-8 2-11 5c-6 6-6 16 0 22l38 38c6 6 16 6 22 0z" horiz-adv-x="1000" />

<glyph glyph-name="fl-icon-2" unicode="&#xe8b7;" d="M585 791c9 0 16-8 16-16 0-9-7-16-16-16-155 0-284-116-304-266l21 21c6 6 16 6 22 0 7-6 7-16 0-22l-50-51c-1 0-1 0-1 0 0-1 0-1-1-1 0-1 0-1 0-1 0 0-1 0-1 0 0 0 0-1-1-1 0 0 0 0 0 0 0 0-1 0-1 0 0-1 0-1-1-1 0 0 0 0 0 0-1 0-1 0-1 0 0 0-1 0-1 0 0-1 0-1-1-1 0 0 0 0 0 0-1 0-1 0-1 0-1 0-1 0-2 0s-1 0-1 0c-1 0-1 0-1 0 0 0-1 0-1 0 0 0 0 0-1 1 0 0 0 0 0 0-1 0-1 0-1 0 0 0-1 0-1 0 0 0 0 0-1 1 0 0 0 0 0 0 0 0-1 0-1 0 0 0 0 1-1 1 0 0 0 0 0 0 0 0-1 0-1 1 0 0-1 0-1 1 0 0 0 0 0 0l-51 51c-6 6-6 16 0 22 6 6 16 6 23 0l25-26c19 170 163 303 337 303z m28-107c6-6 6-16 0-22l-51-51c-3-4-7-5-11-5s-8 1-11 5c-6 6-6 16 0 22l22 23c-102-12-182-99-182-204 0-9-7-16-16-16s-16 7-16 16c0 124 95 225 216 236l-24 24c-6 7-6 17 0 23 6 6 16 6 22 0z m-114-708c0-1 0-3-1-4 1-1 1-3 1-4 0-9-7-16-16-16h-51c-9 0-16 7-16 16 0 1 0 3 1 4-1 1-1 3-1 4 0 9 7 16 16 16h51c9 0 16-7 16-16z m306 318c37-1 68-31 68-69v-359c0-9-7-16-16-16h-316c-9 0-16 7-16 16v35h-382c-8 0-16 7-16 16v102 815c0 9 8 16 16 16h646c9 0 16-7 16-16v-540z m-280-335v44h-366v-70h366v26z m0 102l0 14h-49c-38 0-68 30-68 68v12c0 38 30 68 68 68h49v108c-46 23-75 69-75 121 0 74 61 135 135 135 74 0 135-61 135-135 0-44-22-86-58-111v-47h89 22v524h-614v-783h366v26z m68 467c38 0 69-31 69-69v-75c17 18 26 42 26 68 0 57-46 103-103 103-57 0-103-46-103-103 0-34 16-65 43-84v91c0 38 31 69 68 69z m248-646l0 343c0 20-17 37-37 37h-15-22v-54c0-9-7-16-16-16-8 0-16 7-16 16v54h-73v-54c0-9-7-16-16-16s-16 7-16 16v70 72 109c0 20-16 37-37 37-20 0-36-17-36-37v-117 0 0-134c0-9-8-16-16-16h-65c-20 0-36-17-36-37v-12c0-20 16-37 36-37h65c8 0 16-7 16-16v-29-42-60-42-35h284z" horiz-adv-x="1000" />

<glyph glyph-name="fl-icon-21" unicode="&#xe8b8;" d="M908 782c8 0 16-7 16-16v-815c0-9-8-16-16-16h-171v-69c0-9-7-16-16-16h-467c-1 0-1 0-2 0 0 0 0 0-1 0 0 0 0 0 0 0-1 0-1 0-1 0 0 1-1 1-1 1 0 0 0 0-1 0 0 0 0 0 0 0-1 0-1 0-1 0 0 1-1 1-1 1 0 0 0 0 0 0-1 0-1 0-1 1 0 0-1 0-1 0 0 0 0 0 0 1-1 0-1 0-1 1 0 0 0 0 0 0l-162 161c0 0 0 0 0 0 0 0-1 1-1 1 0 0 0 1 0 1-1 0-1 0-1 0 0 1 0 1 0 1 0 0-1 1-1 1 0 0 0 0 0 1 0 0 0 0 0 0 0 0 0 1-1 1 0 0 0 0 0 1 0 0 0 0 0 0 0 1 0 1 0 1 0 1 0 1 0 1 0 0 0 1 0 1 0 0-1 1-1 1v595c0 9 8 16 16 16h129v128c0 9 7 16 16 16h94v10c0 32 26 58 59 58h68c32 0 58-26 58-58v-10h392z m-545 10v-10h121v10c0 14-12 26-26 26h-68c-15 0-27-12-27-26z m0-186v-79h79v79h-79z m73-111h-68c5-6 13-10 22-10h25c9 0 16 4 21 10z m-183 255v-112h78v112h-78z m-15-799v60h-1-106l107-107v47z m467 0l0 655h-231v-79h145c9 0 16-7 16-16s-7-16-16-16h-148c-7-24-29-42-56-42h-25c-27 0-50 18-57 42h-96-34c-9 0-16 8-16 16s7 16 16 16h34 94v79h-94-129v-563h129 17c9 0 16-7 16-16v-76-69h435v69z m187 16l0 783h-529v-112h79v77c0 9 7 16 16 16s16-7 16-16v-77h247c9 0 16-7 16-16v-655h155z m-273 424c9 0 16-7 16-15s-7-16-16-16h-382-34c-9 0-16 7-16 16s7 15 16 15h34 382z m0-135c9 0 16-8 16-16s-7-16-16-16h-382-34c-9 0-16 7-16 16s7 16 16 16h34 382z m0-136c9 0 16-7 16-16s-7-16-16-16h-382-34c-9 0-16 7-16 16s7 16 16 16h34 382z" horiz-adv-x="1000" />

<glyph glyph-name="fl-icon-3" unicode="&#xe8b9;" d="M757 391c8-2 14-10 13-19l-25-142c-1-7-8-13-15-13-1 0-2 1-3 1-8 1-14 9-13 18l25 142c1 8 9 14 18 13z m41 224c7-2 12-10 10-17l-15-92c-2-8-8-13-16-13-1 0-2 0-3 0-8 2-14 10-12 18l13 79-88 31c-8 2-13 11-10 19 3 9 12 13 20 10z m-143 50c9-3 13-12 10-20-2-7-8-11-15-11-1 0-3 0-5 1l-67 23c-8 3-12 12-9 20 3 8 11 13 20 10z m-127-252c78-13 138-81 138-163v-84c0-8-7-15-16-15h-300c-9 0-16 7-16 15v84c0 82 60 150 138 163-46 13-79 55-79 104 0 59 48 108 107 108 59 0 108-49 108-108 0-49-34-91-80-104z m-104 104c0-42 34-76 76-76 42 0 76 34 76 76s-34 76-76 76c-42 0-76-34-76-76z m211-335l0 68c0 74-61 134-135 134-74 0-135-60-135-134v-68h270z m234 475c7-2 11-10 10-17l-87-507c-1-4-3-8-6-10l-277-194c-3-2-6-3-9-3-3 0-6 1-9 3l-277 194c-3 2-5 6-6 10l-87 507c-1 7 3 15 10 17l364 126c3 1 7 1 10 0z m-107-512l84 487-346 120-346-120 84-487 262-184z m177 554c8-3 12-10 11-18l-100-584c-1-4-4-8-7-10l-334-234c-3-2-6-3-9-3-3 0-6 1-9 3l-334 234c-3 2-6 6-6 10l-101 584c-1 8 3 15 11 18l434 150c3 1 7 1 10 0z m-119-590l97 565-417 144-417-144 97-565 320-224z" horiz-adv-x="1000" />

<glyph glyph-name="fl-icon-4" unicode="&#xe8ba;" d="M874 850c9 0 16-7 16-16v-221c0-6-5-12-11-15-6-2-13 0-18 5l-49 62h-160v-87h77c9 0 16-7 16-16v-696c0-9-7-16-16-16h-441c-1 0-1 0-2 0 0 0 0 0-1 0 0 0 0 0 0 0-1 0-1 0-1 0 0 1-1 1-1 1 0 0 0 0-1 0 0 0 0 0 0 0-1 0-1 0-1 0 0 1-1 1-1 1 0 0 0 0 0 0-1 0-1 0-1 1 0 0-1 0-1 0 0 0 0 0 0 1-1 0-1 0-1 1 0 0-1 0-1 0l-161 161c0 0 0 0 0 0 0 0-1 1-1 1 0 0 0 1 0 1-1 0-1 0-1 0 0 1 0 1 0 1 0 0-1 1-1 1 0 0 0 0 0 1 0 0 0 0 0 0 0 0-1 1-1 1 0 0 0 0 0 1 0 0 0 0 0 0 0 1 0 1 0 1 0 1 0 1 0 1 0 0 0 1 0 1-1 0-1 1-1 1v535c0 9 8 16 16 16h341v87h-160l-49-62c-5-5-12-7-18-5-6 3-11 9-11 15v221c0 9 7 16 16 16h629z m-602-946v107h-52-55z m441 642h-61v-111-136-136-42c0-9-7-16-16-16h-153c-9 0-16 7-16 16v26h-247c-9 0-16 7-16 16s7 16 16 16h247v104h-247c-9 0-16 7-16 16 0 9 7 16 16 16h247v104h-247c-9 0-16 7-16 16s7 16 16 16h247v95h-325v-503h78 68 348c9 0 16-7 16-16s-7-16-16-16h-332v-129h409v664z m145 113l0 159h-597v-159l26 32c3 4 8 6 13 6h183c9 0 16-7 16-16v-119-127-136-136-26h121v26 136 136 127 119c0 9 7 16 16 16h183c5 0 10-2 13-6z m-27 132c9 0 16-8 16-16 0-9-7-16-16-16h-110c-9 0-16 7-16 16s7 16 16 16h110z m-170 0c9 0 16-8 16-16 0-9-7-16-16-16h-76c-9 0-16 7-16 16s7 16 16 16h76z" horiz-adv-x="1000" />

<glyph glyph-name="fl-icon-23" unicode="&#xe8bb;" d="M231 229c52 0 94-42 94-94s-42-94-94-94c-52 0-94 42-94 94 0 52 42 94 94 94z m0-157c35 0 63 28 63 63s-28 63-63 63-63-28-63-63 28-63 63-63z m-4-35c64 0 116-53 116-117l0 0-1-55c-1-8-7-15-16-15h-200c-8 0-15 7-15 15v55c0 64 52 117 116 117z m84-156l1 40c0 46-38 85-85 85-47 0-85-39-85-86v-39h169z m458 348c52 0 94-42 94-94s-42-94-94-94c-52 0-94 42-94 94 0 52 42 94 94 94z m0-157c35 0 63 28 63 63s-28 63-63 63c-35 0-63-28-63-63s28-63 63-63z m4-35c64 0 116-53 116-117v-55c0-8-7-15-15-15h-200c-8 0-15 7-16 15l-1 55 0 0c0 64 52 117 116 117z m-84-156l169 0v39c0 47-38 86-85 86-46 0-85-39-85-85z m-186 348c52 0 94-42 94-94s-42-94-94-94-94 42-94 94c0 52 42 94 94 94z m0-157c35 0 63 28 63 63s-28 63-63 63c-35 0-63-28-63-63s28-63 63-63z m-4-35c64 0 116-53 116-117l0 0-1-55c0-8-7-15-16-15h-200c-8 0-15 7-15 15v55c0 64 52 117 116 117z m84-156l1 40c0 46-38 85-85 85-47 0-85-39-85-86v-39h169z m35 807c1-9-5-17-13-18-1 0-2 0-3 0-7 0-14 5-15 13-1 5-2 9-4 14-2 8 2 17 10 20 8 2 17-2 20-10 2-6 4-13 5-19z m-27 57c6-6 5-16-2-22-2-2-6-3-9-3-5 0-9 2-12 5-17 20-42 32-68 32-9 0-15 7-15 15 0 9 6 16 15 16 35 0 69-16 91-43z m166-417c8 0 15-7 15-15v-42c0-8-7-15-15-15s-16 7-16 15v26h-225v-26c0-8-7-15-16-15-9 0-15 7-15 15v26h-243v-26c0-8-7-15-15-15s-16 7-16 15v42c0 8 7 15 16 15h258v44h-51c-9 0-16 7-16 15v58 58c0 2 0 3 1 4-59 30-100 91-100 162 0 100 81 181 181 181s181-81 181-181c0-71-40-132-100-162 1-1 1-2 1-4v-58-58c0-8-7-15-16-15h-50v-44h241z m-206 133v27h-51-51v-27h102z m-77 60c9-1 17-2 26-2s18 1 26 2v116h-52v-116z m-31 156c0 9 7 16 16 16 8 0 15-7 15-16v-9h52v9c0 9 7 16 15 16 9 0 16-7 16-16v-9h18c8 0 15-7 15-16 0-8-7-15-15-15h-18v-107c55 23 93 76 93 139 0 83-67 150-150 150s-150-67-150-150c0-63 39-116 93-139v107h-17c-9 0-16 7-16 15s7 16 16 16h17v9z m57-274h51v27h-102v-27h51z m-250 331c9 0 16-7 16-16s-7-15-16-15h-64c-9 0-16 7-16 15 0 9 7 16 16 16h64z m29-57c6-6 6-16 0-22l-41-41c-3-3-7-5-11-5s-8 2-11 5c-6 6-6 16 0 22l41 41c6 6 16 6 22 0z m0 105c6-6 6-16 0-22-3-3-7-4-11-4s-8 1-11 4l-41 41c-6 6-6 16 0 22 6 6 16 6 22 0z m552-48c9 0 15-7 15-16 0-8-6-15-15-15h-64c-9 0-16 7-16 15 0 9 7 16 16 16h64z m-30-98c6-6 6-16 0-22-4-3-7-5-11-5-4 0-8 2-11 5l-41 41c-6 6-6 16 0 22 6 6 15 6 22 0z m0 187c6-6 6-16 0-22l-41-41c-3-3-7-4-11-4s-8 1-11 4c-6 6-6 16 0 22l41 41c6 6 16 6 22 0z" horiz-adv-x="1000" />

<glyph glyph-name="fl-icon-24" unicode="&#xe8bc;" d="M996 263c5-6 5-15 0-21-2-3-56-64-144-126-82-57-210-126-352-126s-270 69-351 126c-89 62-143 123-145 126-5 6-5 15 0 21 2 2 56 64 145 126 81 57 209 126 351 126s270-69 352-126c88-62 142-124 144-126z m-828-121c62-44 151-94 252-112-91 32-157 120-157 222 0 103 66 190 157 223-101-18-191-69-253-112-64-45-110-91-129-111 19-20 65-65 130-110z m127 110c0-113 92-204 205-204s205 91 205 204-92 205-205 205-205-92-205-205z m538-110c64 45 110 90 129 110-19 20-65 66-129 111-62 43-152 94-253 112 91-33 157-120 157-223s-66-190-157-222c101 18 191 69 253 112z m-173 176c9-21 13-43 13-66 0-8-7-16-16-16-9 0-16 8-16 16 0 19-3 37-10 54-4 8 0 17 8 21 9 3 18-1 21-9z m-37 56c6-6 6-16 0-23-3-3-7-4-11-4-4 0-8 1-12 5-26 27-62 42-100 42-9 0-16 7-16 15 0 9 7 16 16 16 47 0 90-18 123-51z m-37-47c21-11 32-34 32-66 0-59-97-132-109-140-2-2-6-3-9-3s-7 1-9 3c-11 8-109 81-109 140 0 32 12 55 32 66 16 8 43 12 86-13 43 25 70 21 86 13z m-86-174c37 29 86 78 86 108 0 19-5 33-15 38-13 7-35 0-62-17-5-4-12-4-18 0-19 13-37 20-50 20-5 0-9-1-12-3-9-5-15-19-15-38 0-30 49-79 86-108z m0 557c9 0 16-7 16-16v-110c0-9-7-16-16-16s-16 7-16 16v110c0 9 7 16 16 16z m229-61c7-5 10-15 6-22l-56-96c-3-5-8-8-13-8-3 0-6 1-8 2-8 5-11 15-6 22l55 96c4 7 14 10 22 6z m-381-102c5-7 2-17-6-22-2-1-5-2-8-2-5 0-10 3-13 8l-56 96c-4 7-1 17 6 22 8 4 18 1 22-6z" horiz-adv-x="1000" />

<glyph glyph-name="fl-icon-6" unicode="&#xe8bd;" d="M91 633c9 0 16-7 16-16v-16c0-9-7-16-16-16-9 0-16 7-16 16v16c0 9 7 16 16 16z m868 150c9 0 16-7 16-15v-117-618c0-9-7-16-16-16h-452v-85-66c0-9-7-16-15-16s-16 7-16 16v51h-435c-9 0-16 7-16 15v618 117c0 9 7 16 16 16h435v85 66c0 9 7 16 16 16 8 0 15-7 15-16v-51h452z m-483-462v51h-52l-40-107h92v56z m0 82v32h-85c-6 0-12-4-14-11l-145-386 29-11 62 166c3 6 9 10 15 10h138v31h-114c-6 0-10 3-13 7-3 4-4 10-2 14l52 138c2 6 8 10 14 10h63z m0 85v47h-420v-587h420v85 54 63 22h-127l-64-170c-2-7-8-11-15-11-1 0-3 1-5 1l-59 22c-4 2-7 5-8 9-2 3-2 8-1 12l151 400c6 19 24 31 43 31h85v22z m0 163v1h-420v-86h420v85z m31-201v-51h135c20 0 37 16 37 37 0 20-17 36-37 36h-135v-22z m0-263v-22h152c38 0 70 32 70 70s-32 70-70 70h-152v-55-63z m0-53l0-31h152c73 0 132 59 132 132 0 48-25 92-67 116-4 2-7 6-8 10 0 5 1 9 4 13 14 18 21 39 21 62 0 54-44 99-99 99h-135v-32h135c37 0 68-30 68-67s-31-68-68-68h-135v-32h152c56 0 101-45 101-101s-45-101-101-101h-152z m437-86v587h-437v-69h135c72 0 130-58 130-130 0-24-6-47-18-67 43-31 69-81 69-134 0-90-74-164-164-164h-152v-23h437z m0 618v86h-437v-85-1h437z m-35 67c9 0 16-7 16-16v-16c0-9-7-16-16-16-8 0-15 7-15 16v16c0 9 7 16 15 16z" horiz-adv-x="1000" />

<glyph glyph-name="fl-icon-25" unicode="&#xe8be;" d="M979 185c9 0 17-8 17-17v-266c0-9-8-17-17-17h-257-257-166c-32-23-70-35-109-35-102 0-186 83-186 185 0 34 10 67 27 96v188 257 257c0 10 8 17 17 17h266c9 0 16-7 16-17v-257-179l78 78 231 230c3 4 8 5 12 5 5 0 9-1 12-5l188-188c3-3 5-7 5-11s-2-9-5-12l-231-231-78-78h180 257z m-328 485l-158-158 164-165 159 159z m-587 147v-224h233v224h-233z m0-257v-224h206l27 27v197h-233z m0-258v-131c24 22 54 38 86 45l86 86h-172z m219-387c34 27 55 67 58 110v0c0 4 1 7 1 10 0 38-15 75-40 103 0 0 0 0 0 0-6 6-12 12-19 17-27 21-59 32-93 32-10 0-19-1-29-3h0c-40-7-77-32-99-67-16-24-24-53-24-82 0-84 68-152 152-152 34 0 66 11 93 32z m165 4l0 172-17-17-57-57c-4-37-18-70-40-98h114z m-41 178l45 45-15 14-135 136-15 14-86-86c37-2 72-15 102-39 8-6 16-13 23-21 0 0 0 0 0 0 25-27 41-61 47-97z m54 83l15-15 14 15 0 0 107 106 37 38-165 164-37-37-106-106 0 0-15-15 15-15z m244-261l0 233h-196l-22-22 0 0-6-6v-205h224z m257 0v233h-224v-233h224z m-772 230c63 0 114-51 114-114 0-63-51-114-114-114-63 0-115 51-115 114s52 114 115 114z m0-195c44 0 81 36 81 81s-37 81-81 81c-45 0-81-36-81-81s36-81 81-81z m0 147c36 0 65-30 65-66 0-9-7-16-17-16s-16 7-16 16c0 18-15 32-32 32-10 0-17 8-17 17 0 9 7 17 17 17z" horiz-adv-x="1000" />

<glyph glyph-name="fl-icon-45" unicode="&#xe8bf;" d="M820 562c75-79 116-182 116-291 0-232-189-421-421-421s-422 189-422 421c0 216 163 395 373 419v63h-34c-9 0-16 7-16 15v67c0 8 7 15 16 15h165c9 0 16-7 16-15v-67c0-8-7-15-16-15h-34v-63c51-6 100-21 145-44l66 65c2 3 6 5 11 5s8-2 11-5l76-76c6-6 6-16 0-22z m-35 116l-49-48c22-14 43-29 62-47l41 41z m-338 106v0h34 67 34v35h-135v-35z m85-31h-35v-52h35v52z m-17-872c215 0 390 175 390 390 0 106-42 205-118 280l0 0c-25 24-53 45-84 62-57 32-122 49-188 49-216 0-391-175-391-391 0-215 175-390 391-390z m0 497c58 0 106-48 106-107 0-58-48-106-106-106-59 0-107 48-107 106 0 24 7 46 21 64l-60 60c-30-34-46-78-46-124 0-8-7-15-16-15h-91c-8 0-15 7-15 15 0 6 0 11 0 17 1 7 1 15 2 23v0c2 11 4 21 6 31 0 3 1 5 2 8 0 0 0 0 0 0 2 7 4 15 6 22l0 0c1 2 2 5 3 7 0 0 0 0 0 0 3 7 5 15 9 21l0 0c4 10 8 19 13 28l0 0c5 8 11 17 17 25l0 0c3 4 6 8 9 12 0 0 0 0 0 0 3 4 6 8 9 12 4 3 7 7 10 11 0 0 0 0 0 0 6 5 11 11 17 16 5 5 11 10 17 14 0 0 0 0 0 0 8 6 16 12 24 18l0 0c3 1 5 2 7 4l0 0c4 2 9 5 13 7 0 0 0 0 0 0 4 3 9 5 13 7 1 0 1 0 1 0 4 2 9 4 13 6l0 0c17 7 34 13 52 17l0 0c5 1 10 2 15 3l0 0c18 3 37 5 56 5 8 0 15-7 15-15v-92c0-8-7-15-15-15-46 0-90-16-124-46l60-60c18 14 40 21 64 21z m-147 61c37 32 83 51 131 54v61c-12-1-23-2-35-4l0 0c-4-1-9-2-13-3h0c-16-4-32-9-46-15l0 0c-5-2-9-4-13-6l0 0c-4-2-8-4-12-6 0 0 0 0 0 0-4-2-8-5-12-7l0 0 0 0c-2-1-4-2-6-4l0 0c-7-4-15-10-22-15 0 0 0 0 0 0-5-4-10-9-15-13-5-5-10-10-15-15 0 0 0 0 0 0-2-1-3-3-5-5 0 0 0 0-1-1-1-1-2-2-3-4-3-3-6-7-9-10l0 0c-3-4-5-7-8-11l0 0c-5-7-10-15-15-23v0c-4-8-8-16-12-24l0 0c-3-7-6-13-8-19 0 0 0 0 0 0-1-3-2-5-2-7v0c-2-7-4-13-6-20 0 0 0 0 0 0-1-2-1-5-2-7-2-9-4-18-5-28v0c-1-6-1-13-2-20h60c4 48 23 94 55 130l-26 26c-6 6-6 15 0 22 6 6 16 6 22 0z m147-243c41 0 75 34 75 75s-34 76-75 76c-21 0-40-8-54-22l0 0c-14-14-22-33-22-54 0-41 34-75 76-75z m-152 541c3-8-1-17-9-20-65-24-124-61-174-111-35-35-64-75-86-118-3-5-9-9-14-9-3 0-5 1-7 2-8 4-11 13-7 21 24 46 55 89 92 126 53 53 116 93 186 118 8 3 17-1 19-9z m-100 35c4-7 1-16-6-21-62-34-117-79-162-133-4-4-8-6-12-6-4 0-7 1-10 4-7 5-8 15-2 21 48 58 105 106 171 142 8 4 17 1 21-7z" horiz-adv-x="1000" />

<glyph glyph-name="fl-icon-7" unicode="&#xe8c0;" d="M492 519c60 0 109-49 109-110 0-60-49-109-109-109s-110 49-110 109c0 61 49 110 110 110z m0-187c42 0 77 35 77 77 0 43-35 78-77 78s-78-35-78-78c0-42 35-77 78-77z m0-255c46 0 83-37 83-84 0-41-59-121-71-137-3-4-7-6-12-6s-10 2-13 6c-12 16-71 96-71 137 0 47 37 84 84 84z m0-184c24 35 52 81 52 100 0 29-24 52-52 52-29 0-52-23-52-52 0-19 27-65 52-100z m384 231c5-4 6-11 4-17-2-7-8-11-15-11h-161-425-161c-7 0-13 4-15 11-2 6-1 13 4 17l156 140v298c0 1 0 1 0 1 0 0 0 0 0 1 0 0 0 0 0 0 1 1 1 1 1 1 0 1 0 1 0 1 0 0 0 1 0 1 0 0 0 0 0 1 0 0 0 0 0 0 1 1 1 1 1 1 0 0 0 0 0 1 0 0 0 0 1 0 0 1 0 1 0 1 0 0 0 1 0 1 1 0 1 0 1 0l212 272c3 4 8 6 13 6 4 0 9-2 12-6l212-272c1 0 1 0 1 0 0 0 0-1 0-1 0 0 0 0 1-1 0 0 0 0 0 0 0-1 0-1 0-1 0 0 1 0 1-1 0 0 0 0 0 0 0-1 0-1 0-1 0 0 0-1 0-1 0 0 0 0 1-1 0 0 0 0 0-1 0 0 0 0 0 0 0-1 0-1 0-1 0 0 0 0 0-1v-298z m-613 4v93l-103-93h103z m229 680l-180-230h359z m196-680v113h-393v-113h393z m0 145v273h-393v-273h393z m32-145h104l-104 93v-93z m-209 327c7-6 7-17 0-23l-42-42c-3-3-7-5-11-5s-9 2-12 5c-6 6-6 16 0 22l43 43c6 6 16 6 22 0z m26-43c6-6 6-16 0-22l-26-26c-3-3-7-4-11-4s-8 1-11 4c-6 6-6 17 0 23l25 25c6 6 17 6 23 0z m413-55c9 0 16-7 16-15v-289c0-9-7-16-16-16s-16 7-16 16v289c0 8 7 15 16 15z m-102 68c9 0 16-7 16-16v-101c0-9-7-16-16-16s-16 7-16 16v101c0 9 7 16 16 16z m-798-85c9 0 16-7 16-15v-340c0-9-7-16-16-16s-16 7-16 16v340c0 8 7 15 16 15z m102 153c9 0 16-7 16-16v-152c0-9-7-16-16-16s-16 7-16 16v152c0 9 7 16 16 16z" horiz-adv-x="1000" />

<glyph glyph-name="fl-icon-1" unicode="&#xe8c1;" d="M283 36c9 0 16-7 16-16v-83c0-9-7-16-16-16h-92c-9 0-16 7-16 16v83c0 9 7 16 16 16h92z m-16-84v53h-60v-53h60z m191 84c9 0 16-7 16-16v-83c0-9-7-16-16-16h-92c-8 0-15 7-15 16v83c0 9 7 16 15 16h92z m-15-84v53h-61v-53h61z m366 835c9 0 16-7 16-15v-84c0-8-7-15-16-15h-92c-8 0-15 7-15 15v84c0 8 7 15 15 15h92z m-16-83v52h-60v-52h60z m-159-668c8 0 15-7 15-16v-83c0-9-7-16-15-16h-92c-9 0-16 7-16 16v83c0 9 7 16 16 16h92z m-16-84v53h-61v-53h61z m-335 835c9 0 16-7 16-15v-84c0-8-7-15-16-15h-92c-9 0-16 7-16 15v84c0 8 7 15 16 15h92z m-16-83v52h-60v-52h60z m367 83c8 0 15-7 15-15v-84c0-8-7-15-15-15h-92c-9 0-16 7-16 15v84c0 8 7 15 16 15h92z m-16-83v52h-61v-52h61z m-160 83c9 0 16-7 16-15v-84c0-8-7-15-16-15h-92c-8 0-15 7-15 15v84c0 8 7 15 15 15h92z m-15-83v52h-61v-52h61z m541 52h-76v-52h76c9 0 16-7 16-16v-67-542-59c0-8-7-15-16-15h-76v-53h76c9 0 16-7 16-15v-59c0-9-7-16-16-16h-968c-9 0-16 7-16 16v59c0 8 7 15 16 15h76v53h-76c-9 0-16 7-16 15v59 542 67c0 9 7 16 16 16h76v52h-76c-9 0-16 7-16 16v50c0 9 7 16 16 16h968c9 0 16-7 16-16v-50c0-9-7-16-16-16z m-15-720l0 27h-938v-27h77c8 0 15-7 15-16v-83c0-9-7-16-15-16h-77v-27h938v27h-76c-9 0-16 7-16 16v83c0 9 7 16 16 16h76z m0 58l0 512h-938v-512h938z m-76 579c-9 0-16 7-16 15v84c0 8 7 15 16 15h76v19h-938v-19h77c8 0 15-7 15-15v-84c0-8-7-15-15-15h-77v-36h938v36h-76z m-84-637c9 0 16-7 16-16v-83c0-9-7-16-16-16h-92c-8 0-15 7-15 16v83c0 9 7 16 15 16h92z m-16-84v53h-60v-53h60z m-293 622c124 0 224-100 224-224s-100-224-224-224-224 100-224 224 100 224 224 224z m0-417c107 0 193 87 193 193s-86 193-193 193-193-86-193-193 87-193 193-193z m157 248c2-8-2-17-10-20-2 0-3-1-5-1-7 0-13 5-15 11-12 33-36 60-67 76-8 4-11 13-7 21 4 7 13 11 21 7 38-19 68-53 83-94z m-72-41c4-3 6-7 6-12 0-5-2-9-6-12l-127-102c-3-3-6-4-10-4-2 0-4 1-7 2-5 2-8 8-8 14v200c0 6 3 12 8 14 6 3 12 2 17-1z m-121-82l86 70-86 66v0-136z" horiz-adv-x="1000" />

<glyph glyph-name="fl-icon-26" unicode="&#xe8c2;" d="M653 254c0-3 0-7-2-10l-137-274c-2-5-8-9-14-9s-12 4-14 9l-137 274c-2 3-2 7-2 10l43 274c0 2 1 3 1 5l-22 300c0 4 1 9 4 12 3 3 8 5 12 5h236c5 0 9-2 12-5 3-3 5-8 4-12l-27-307z m-49 564h-202l21-276h157z m-104-533c24 0 44 19 44 44 0 24-20 44-44 44s-44-20-44-44c0-25 20-44 44-44z m16-240l104 209-39 256h-161l-40-256 104-209v209c-34 8-60 38-60 75 0 42 34 76 76 76s76-34 76-76c0-37-26-67-60-75v-209z m301-77c9 0 16-7 16-16v-86c0-9-7-16-16-16h-86c-9 0-16 7-16 16v27h-430v-27c0-9-7-16-16-16h-86c-9 0-16 7-16 16v86c0 9 7 16 16 16h86c9 0 16-7 16-16v-27h430v27c0 9 7 16 16 16h86z m-564-86v54h-54v-54h54z m548 0v54h-54v-54h54z m93 471c9 0 16-7 16-16 0-226-184-410-410-410s-410 184-410 410c0 9 7 16 16 16 9 0 16-7 16-16 0-208 170-378 378-378s378 170 378 378c0 9 7 16 16 16z" horiz-adv-x="1000" />

<glyph glyph-name="fl-icon-47" unicode="&#xe8c3;" d="M848 767c8 0 15-7 15-15v-887c0-8-7-15-15-15h-696c-8 0-15 7-15 15v887c0 8 7 15 15 15h182 56c14 49 58 83 110 83s96-34 110-83h56 182z m-498-82v-42h300v42 51h-52l0 0c-1 0-1 0-2 0 0 0 0 0 0 0 0 0-1 0-1 0 0 1 0 1 0 1-1 0-1 0-1 0-1 0-1 0-1 0 0 0 0 0-1 0 0 0 0 0 0 1-1 0-1 0-1 0 0 0 0 0-1 0 0 0 0 0 0 1 0 0-1 0-1 0 0 0 0 0 0 0-1 1-1 1-1 1 0 0-1 0-1 1l0 0c0 0-1 0-1 1 0 0 0 0 0 0 0 0-1 1-1 1 0 0 0 0 0 0 0 1 0 1-1 1 0 0 0 0 0 1 0 0 0 0 0 0 0 1 0 1 0 1-1 0-1 1-1 1 0 0 0 0 0 0 0 1 0 1 0 1 0 0 0 1 0 1 0 0 0 0 0 0-7 41-42 70-83 70-41 0-76-29-83-70 0 0 0 0 0 0 0 0 0-1 0-1 0 0 0 0 0-1 0 0 0 0 0 0 0-1 0-1-1-1 0 0 0-1 0-1 0 0 0 0 0-1 0 0 0 0-1 0 0 0 0-1 0-1 0 0 0 0 0 0 0-1-1-1-1-1 0 0 0 0 0 0 0-1-1-1-1-1 0 0 0 0 0-1 0 0-1 0-1 0 0 0 0 0 0-1-1 0-1 0-1 0 0 0 0 0-1 0 0-1 0-1 0-1-1 0-1 0-1 0 0 0 0 0-1-1 0 0 0 0 0 0-1 0-1 0-1 0 0 0-1 0-1 0 0 0 0 0-1 0 0 0 0-1 0-1 0 0-1 0-1 0 0 0-1 0-1 0 0 0 0 0-1 0l0 0h-52v-51z m-16-73c-8 0-15 7-15 15v43h-85v-731h375v142c0 8 7 15 15 15h142v574h-85v-43c0-8-7-15-15-15h-332z m410-547h-104v-104z m88-184l0 855h-151v-35h101c8 0 15-7 15-16v-604c0-1 0-1 0-2 0 0 0 0 0 0 0-1 0-1 0-1 0 0 0-1 0-1 0 0 0 0-1-1 0 0 0 0 0 0 0-1 0-1 0-1 0 0 0 0 0-1 0 0-1 0-1 0 0-1 0-1 0-1 0 0 0 0 0-1-1 0-1 0-1 0 0-1 0-1 0-1-1 0-1-1-1-1 0 0 0 0 0 0l-158-158c0 0 0 0 0 0 0 0-1 0-1-1 0 0 0 0 0 0-1 0-1 0-1 0 0-1-1-1-1-1 0 0 0 0 0 0-1 0-1 0-1-1 0 0-1 0-1 0 0 0 0 0 0 0-1 0-1 0-1 0 0 0-1-1-1-1 0 0 0 0-1 0 0 0 0 0-1 0 0 0 0 0 0 0-1 0-1 0-2 0h-406c-8 0-15 7-15 15v762c0 9 7 16 15 16h101v35h-151v-855h664z m-332 671c109 0 198-89 198-198s-89-198-198-198-198 89-198 198 89 198 198 198z m0-364c92 0 167 74 167 166s-75 167-167 167-167-75-167-167 75-166 167-166z m94 248c6-7 6-16 0-22l-145-145c-3-3-7-5-11-5s-8 2-11 5l-50 49c-6 6-6 16 0 22 6 6 16 6 22 0l39-38 134 134c6 6 16 6 22 0z" horiz-adv-x="1000" />

<glyph glyph-name="fl-icon-8" unicode="&#xe8c4;" d="M709 321c7-6 8-16 3-22-6-8-13-16-21-23-15-15-31-29-49-40-3-1-6-2-8-2-6 0-11 3-14 7-4 8-2 18 5 22 16 10 31 21 44 35 7 6 13 13 18 20 6 7 16 8 22 3z m46 162c8 0 15-7 15-16 0-37-7-73-21-106-3-6-8-10-14-10-3 0-5 0-7 1-8 4-11 13-8 21 13 29 19 61 19 94 0 9 7 16 16 16z m104 25c78 0 141-64 141-141s-63-141-141-141c-36 0-69 13-95 37-51-66-125-110-207-124v-137c75-13 144-52 194-109 4-5 5-12 3-17-3-6-8-9-14-9h-479c-7 0-12 3-15 9-2 5-1 12 3 17 50 57 119 96 194 109v137c-82 14-156 58-207 124-25-24-59-37-95-37-78 0-141 63-141 141s63 141 141 141c9 0 17-1 26-3v30h-34c-9 0-16 7-16 15v92c0 9 7 16 16 16h50 634 50c9 0 16-7 16-16v-92c0-8-7-15-16-15h-34v-30c9 2 17 3 26 3z m-711 58h35 634 35v61h-35-634-35v-61z m711-156c-14 0-26-7-34-18-3-10-5-20-8-29 1-22 20-39 42-39 24 0 43 19 43 43s-19 43-43 43z m-675-47c-4 9-6 19-8 29-9 11-21 18-35 18-24 0-43-20-43-43s19-43 43-43c22 0 41 17 43 39z m-43-106c29 0 57 12 77 32-6 11-12 22-18 33-13-18-35-29-59-29-41 0-74 33-74 74s33 74 74 74c10 0 19-2 28-5-1 10-2 20-2 31v6c-8 2-17 3-26 3-60 0-110-49-110-109 0-61 50-110 110-110z m561-359c-45 41-102 67-162 75-8 1-14 7-14 15v146h-52v-146c0-8-6-14-14-15-60-8-117-34-162-75h404z m47 398c16 23 28 48 37 74 3 10 6 21 9 32l0 0c4 21 7 43 7 65v18 50h-604v-50-18c0-22 3-44 7-65 0 0 0 0 0 0 3-11 6-22 9-32 9-26 21-51 37-74 0 0 0 0 0 0 56-82 149-131 249-131s193 49 249 131c0 0 0 0 0 0z m110-39c61 0 110 49 110 110 0 60-49 109-110 109-9 0-17-1-26-3v-6c0-11 0-21-1-31 8 3 18 5 27 5 41 0 74-33 74-74s-33-74-74-74c-24 0-45 11-59 29-5-11-11-22-18-33 20-20 48-32 77-32z m-211 140c3-6 1-13-5-17l-75-60 22-82c2-7-1-14-6-17-3-2-6-3-9-3-3 0-7 1-9 3l-66 51-65-51c-6-4-13-4-19 0-5 3-8 10-6 17l22 82-75 60c-6 4-8 11-5 17 2 6 8 10 14 10h90l29 82c3 6 8 10 15 10s13-4 15-10l29-82h90c6 0 12-4 14-10z m-108-59l49 38h-56c-6 0-12 4-14 10l-19 52-19-52c-2-6-8-10-14-10h-56l49-38c5-4 7-11 5-17l-13-46 38 29c3 3 7 4 10 4s7-1 10-4l38-29-13 46c-2 6 1 13 5 17z m2 454c8 0 15-7 15-16s-7-16-15-16h-26v-26c0-8-7-15-16-15-9 0-16 7-16 15v26h-26c-8 0-15 7-15 16 0 9 7 16 15 16h26v26c0 8 7 15 16 15 9 0 16-7 16-15v-26h26z m234 0c8 0 15-7 15-16s-7-16-15-16h-26v-26c0-8-7-15-16-15-9 0-16 7-16 15v26h-26c-9 0-16 7-16 16 0 9 7 16 16 16h26v26c0 8 7 15 16 15 9 0 16-7 16-15v-26h26z m-451 0c8 0 15-7 15-16s-7-16-15-16h-26v-26c0-8-7-15-16-15-9 0-16 7-16 15v26h-26c-8 0-15 7-15 16 0 9 7 16 15 16h26v26c0 8 7 15 16 15 9 0 16-7 16-15v-26h26z" horiz-adv-x="1000" />

<glyph glyph-name="fl-icon-9" unicode="&#xe8c5;" d="M945 169c36-35 55-82 55-132 0-50-19-97-55-132-35-36-82-55-132-55s-97 19-132 55l-176 175c-61 61-72 155-29 228l-18 18c-29-17-62-26-95-26-50 0-97 20-133 55l-175 176c-36 35-55 82-55 132s19 97 55 132c35 36 82 55 132 55s97-19 132-55l176-175c61-61 72-155 29-228l18-18c73 43 167 32 228-29z m-582 162c25 0 50 7 72 18l-23 24c-16-7-33-10-49-10-33 0-65 12-89 36l-175 176c-49 48-49 128 0 176 48 49 128 49 177 0l175-175c36-36 46-91 27-138l23-23c31 60 21 134-28 183l-175 175c-61 61-160 61-221 0-61-60-61-160 0-220l175-176c30-29 69-46 111-46z m-98 188c-8 9-13 20-13 33 0 12 5 24 13 33 18 18 48 18 66 0l122-122c9 32 0 67-24 91l-175 176c-37 36-97 36-133 0-37-37-37-97 0-134l175-175c24-24 59-33 91-24z m206-162l36-36c0 0 0 0 0 0l0 0 0 0 45-45c0 0 0 0 0 0l0 0c0 0 0 0 0 0l110-109c3-3 6-5 11-5s8 2 11 5c2 2 4 6 4 10 0 5-2 9-4 11l-110 110c0 0 0 0 0 0l0 0c0 0 0 0 0 0l-45 45 0 0 0 0c0 0 0 0 0 0l-36 36-45 45 0 0c0 0 0 0 0 0l-139 139c-6 6-16 6-22 0-3-3-4-7-4-11 0-4 1-8 4-11l139-139c0 0 0 0 0 0l0 0z m235-147c8-8 13-20 13-32 0-13-5-25-13-33-9-9-21-14-33-14s-25 5-33 14l-93 92c-9-32 0-67 24-91l175-176c37-36 97-36 134 0 36 37 36 97 0 134l-176 175c-24 24-59 33-91 24z m217-283c30 29 46 68 46 110s-16 81-46 111l-175 175c-49 49-123 59-183 28l23-23c47 19 102 9 138-27l175-175c49-49 49-129 0-177-24-25-56-37-88-37-32 0-64 12-88 37l-176 175c-36 36-46 91-26 138l-24 23c-31-60-21-134 28-183l176-175c29-30 68-46 110-46s81 16 110 46z m-158 696c6-6 6-16 0-22l-87-87c-3-3-7-4-11-4s-8 1-11 4c-6 6-6 16 0 22l87 87c6 6 16 6 22 0z m-164 68c8 0 15-7 15-16v-122c0-9-7-16-15-16-9 0-16 7-16 16v122c0 9 7 16 16 16z m216-217c9 0 16-6 16-15 0-9-7-16-16-16h-123c-8 0-15 7-15 16 0 9 7 15 15 15h123z" horiz-adv-x="1000" />

<glyph glyph-name="fl-icon-48" unicode="&#xe8c6;" d="M918 549c8 0 15-7 15-15v-134c0-8-7-16-15-16-9 0-16 8-16 16v134c0 8 7 15 16 15z m66 268c9 0 16-7 16-16v-668c0-9-7-16-16-16h-133-64l137-136c6-6 6-16 0-22l-71-71c-3-3-7-5-11-5s-8 2-11 5l-230 229h-585c-9 0-16 7-16 16v668c0 9 7 16 16 16h835 133z m-94-847l-151 152-181 180-48-49 109-109 223-223z m-487 418c-3 6-2 13 2 18 5 5 13 6 19 3l60-30v72h-51-68v-119h65z m90-49l-41 21 18-36 22-44 40 40z m342-190v636h-804v-636h539l-94 93c0 0 0 0 0 1 0 0 0 0 0 0-1 0-1 1-1 1 0 0 0 0-1 1 0 0 0 1-1 1 0 0 0 0 0 0l-27 55h-96c-9 0-16 7-16 16v150c0 9 7 16 16 16h68v35h-253v-35h68c8 0 15-7 15-16v-150c0-9-7-16-15-16h-150c-9 0-16 7-16 16v150c0 9 7 16 16 16h51v51c0 8 7 15 15 15h269v11h-85c-9 0-16 7-16 16v167c0 8 7 15 16 15h209c8 0 15-7 15-15v-167c0-9-7-16-15-16h-93v-11h251c9 0 16-7 16-15v-51h51c9 0 16-7 16-16v-150c0-9-7-16-16-16h-150c-9 0-16 7-16 16v150c0 9 7 16 16 16h68v35h-236v-35h51c9 0 16-7 16-16v-104l49-25c0 0 0 0 0 0 1 0 1 0 1 0 0 0 1 0 1-1 0 0 0 0 0 0 1 0 1 0 1-1 0 0 0 0 1 0 0 0 0 0 0-1 0 0 0 0 0 0l187-186h79z m-486 442h177v136h-177v-136z m403-140h-119v-119h119v119z m-535 0h-119v-119h119v119z m752-302v636h-103v-636h103z" horiz-adv-x="1000" />

<glyph glyph-name="fl-icon-10" unicode="&#xe8c7;" d="M998 124c3-6 3-13-1-17-3-4-8-6-13-6-1 0-2 0-4 0l-147 38v-106c0-6-3-10-7-13-3-2-6-3-9-3-2 0-4 0-6 1l-801 334c0 0 0 0 0 0l0 0c0 0-1 0-1 1 0 0 0 0 0 0-1 0-1 0-1 0 0 0 0 0 0 0 0 0-1 1-1 1 0 0 0 0 0 0 0 0 0 0 0 0-1 0-1 0-1 0 0 0 0 0 0 0 0 0 0 0 0 0 0 0 0 0 0 1 0 0 0 0 0 0 0 0-1 0-1 0 0 0 0 0 0 1 0 0 0 0 0 0 0 0 0 0 0 0-1 0-1 0-1 0 0 0 0 0 0 0 0 0 0 0 0 1 0 0 0 0 0 0 0 0-1 0-1 0 0 0 0 0 0 0 0 1 0 1 0 1 0 0 0 0 0 0 0 0 0 0 0 0 0 0 0 0 0 0 0 0-1 0-1 0 0 1 0 1 0 1 0 0 0 0 0 0 0 0 0 0 0 0 0 0 0 0 0 0 0 0 0 0 0 0 0 1 0 1 0 1 0 0 0 0 0 0 0 0 0 0-1 0 0 0 0 0 0 1 0 0 0 0 0 0 0 0 0 0 0 0 0 0 0 0 0 0 0 0 0 0 0 0 0 0 0 1 0 1 0 0 0 0 0 0 0 0 0 0 0 0 0 0 0 0 0 0 0 0 0 0 0 0 0 0 0 1 0 1 0 0 0 0-1 0 0 0 0 0 0 1 0 0 0 0 0 0 0 0 0 0 0 0 0 0 0 0 0 1 0 0 0 0 0 0 0 0 0 0 0 0 0 0 0 0 0 1 0 0 0 0 0 0 0 0 0 0 0 0 0 0 0 1 0 1 0 0 0 0 0 0 0 0 0 0 0 1 0 0 0 0 0 0 0 0 0 0 0 0 0 0 0 0 0 0 0 0 0 1 0 1 0 0 0 0 0 0 0 0 0 0 0 0 0 1 0 1 0 1 0 0 0 0 0 0 0 0 0 0 0 0 1 1 1 1 1 1 0 0 0 0 0 0 0 0 0 0 0 0 0 0 0 1 0 1 0 0 0 0 0 0 0 0 0 0 0 0 0 0 0 1 0 1 0 0 0 0 0 0 1 0 1 0 1 1 0 0 0 0 0 0 0 0 0 0 0 0 0 0 0 0 0 1 0 0 0 0 0 0 0 0 0 0 0 0 1 0 1 0 1 0 0 0 0 0 0 1 0 0 0 0 0 0 0 0 0 0 0 0 0 0 0 0 0 0 0 0 0 0 1 1 0 0 0 0 0 0 0 0 0 0 0 0 0 0 0 0 0 0 0 0 0 0 0 0 0 1 0 1 1 1 0 0 0 0 0 0 0 0 0 0 0 0 0 0 0 0 0 0 0 0 0 0 0 1 0 0 1 0 1 0 0 0 0 0 0 0 0 0 0 0 0 0 0 0 0 0 0 0 1 0 1 0 1 0 0 1 0 1 0 1 0 0 0 0 0 0 0 0 0 0 0 0 0 0 1 0 1 0 0 0 0 0 0 0 0 0 0 0 0 0l0 0c0 1 0 1 0 1l451 250c3 2 7 2 11 2l300-67c0 0 0 0 0 0l1 0c0 0 0 0 0 0 0 0 0 0 1 0 0-1 0-1 0-1 0 0 0 0 0 0 1 0 1 0 1 0 0 0 0 0 1 0 0 0 0 0 0 0 0 0 0-1 0-1 1 0 1 0 1 0 0 0 0 0 0 0 0 0 1 0 1 0 0 0 0-1 0-1 0 0 0 0 1 0 0 0 0 0 0 0 0 0 0 0 0-1 0 0 1 0 1 0 0 0 0 0 0 0 0 0 0 0 0-1 1 0 1 0 1 0 0 0 0 0 0 0 0 0 0-1 0-1 1 0 1 0 1 0 0 0 0 0 0-1 0 0 0 0 0 0 0 0 0 0 1 0 0 0 0-1 0-1 0 0 0 0 0 0 0 0 0 0 0-1 0 0 0 0 1 0 0 0 0 0 0-1 0 0 0 0 0 0 0 0 0 0 0-1 0 0 0 0 0 0 0 0 0 0 0-1 0 0 0 0 0 0 1 0 1 0 1 0 0 0 0 0 0-1 0 0 0 0 0 0 0 0 0 0 0-1 0 0 0 0 0 0 0 0 0 0 0-1 0 0 0 0 0 0l0-1v0 0-168h34 34c6 0 11-3 14-8z m-529 477l-344-191 573 140z m283-70l-606-149h606v149z m50-475v91l-577 149z m19 119l133-35-113 211h-24-50-628z m97 541c8 0 15-7 15-15 0-9-7-16-15-16h-218c-8 0-15 7-15 16s7 15 15 15h218z m-368-701c9 0 16-7 16-16 0-8-7-15-16-15h-217c-9 0-16 7-16 15 0 9 7 16 16 16h217z m284 768c9 0 16-7 16-15s-7-16-16-16h-317c-9 0-16 7-16 16 0 8 7 15 16 15h317z m-67-835c9 0 16-7 16-16 0-8-7-15-16-15h-317c-9 0-16 7-16 15 0 9 7 16 16 16h317z" horiz-adv-x="1000" />

<glyph glyph-name="fl-icon-11" unicode="&#xe8c8;" d="M848 240l49-98c3-5 2-12-2-17-3-4-7-5-12-5-2 0-4 0-5 1l-161 60c-28-7-58-11-87-11v-144c0-9-8-16-16-16h-284l-160-156c-3-3-7-4-11-4-2 0-4 0-6 1-6 3-10 8-10 15v144h-119c-8 0-16 7-16 16v665c0 9 8 16 16 16h305c68 90 179 143 297 143 202 0 366-152 366-340 0-106-54-206-144-270z m-250-198v129c-30 2-58 8-86 16v-18c0-9-7-16-16-16h-354c-9 0-16 7-16 16v51c0 8 7 15 16 15h269c-35 24-65 53-89 87h-180c-9 0-16 7-16 15v51c0 9 7 16 16 16h137c-10 28-15 57-17 86h-120c-9 0-16 7-16 16v50c0 9 7 16 16 16h125c7 36 21 71 40 103h-267v-633h119c9 0 16-7 16-16v-123l137 134c3 3 7 5 11 5h275z m-335 499h-105v-19h103c1 6 1 12 2 19z m29-169h-134v-19h144c-3 6-7 13-10 19z m176-168h-310v-19h322v13c-4 2-8 4-12 6z m256 8l127-48-37 74c-4 7-1 16 6 21 88 57 140 151 140 251 0 170-150 308-334 308-111 0-215-51-277-136-28-39-46-82-53-128v0c-2-15-3-29-3-44 0-1 0-2 0-2l0-2v0 0c0-39 8-76 24-112l0 0c0 0 0 0 0 0 0 0 0 0 0 0 7-16 16-33 27-48l0 0c0 0 0 0 0 0 0 0 0 0 0 0 32-48 79-87 134-112 7-4 15-7 23-10 36-13 74-21 113-22h0c5 0 9 0 12 0 30 0 60 3 88 10 3 1 7 1 10 0z m174 419c20-38 30-79 30-121 0-9-7-16-15-16-9 0-16 7-16 16 0 37-9 73-27 106-4 8-1 18 7 22 7 4 17 1 21-7z m-54 71c6-6 6-16 0-22-3-3-7-5-11-5-4 0-8 2-11 4-52 49-121 76-196 76-8 0-15 7-15 16 0 9 7 16 15 16 83 0 160-30 218-85z m-234-155c34 0 62-28 62-62 0-34-28-62-62-62s-63 28-63 62c0 34 28 62 63 62z m0-93c16 0 30 14 30 31 0 17-14 30-30 30-17 0-31-13-31-30s14-31 31-31z m168 93c34 0 62-28 62-62 0-34-28-62-62-62s-62 28-62 62c0 34 28 62 62 62z m0-93c17 0 30 14 30 31 0 17-13 30-30 30s-31-13-31-30 14-31 31-31z m-337 93c34 0 62-28 62-62 0-34-28-62-62-62-34 0-62 28-62 62 0 34 28 62 62 62z m0-93c17 0 31 14 31 31 0 17-14 30-31 30-17 0-30-13-30-30s13-31 30-31z" horiz-adv-x="1000" />

<glyph glyph-name="fl-icon-30" unicode="&#xe8c9;" d="M500 277c9 0 16-7 16-15v-59c0-9-7-16-16-16-9 0-16 7-16 16v59c0 8 7 15 16 15z m0 236c9 0 16-7 16-16v-59c0-8-7-15-16-15-9 0-16 7-16 15v59c0 9 7 16 16 16z m0-353c9 0 16-7 16-16v-59c0-8-7-15-16-15-9 0-16 7-16 15v59c0 9 7 16 16 16z m0 470c9 0 16-7 16-15v-59c0-9-7-16-16-16-9 0-16 7-16 16v59c0 8 7 15 16 15z m-206-264c9 0 16-7 16-16s-7-16-16-16h-59c-8 0-15 7-15 16s7 16 15 16h59z m118 0c8 0 15-7 15-16s-7-16-15-16h-59c-9 0-16 7-16 16s7 16 16 16h59z m117 0c9 0 16-7 16-16s-7-16-16-16h-13v-13c0-9-7-16-16-16-9 0-16 7-16 16v13h-13c-9 0-16 7-16 16s7 16 16 16h13v13c0 9 7 16 16 16 9 0 16-7 16-16v-13h13z m236 0c8 0 15-7 15-16s-7-16-15-16h-59c-9 0-16 7-16 16s7 16 16 16h59z m-118 0c9 0 16-7 16-16s-7-16-16-16h-59c-8 0-15 7-15 16s7 16 15 16h59z m212 355c9 0 16-7 16-16v-710c0-9-7-16-16-16h-718c-9 0-16 7-16 16v710c0 9 7 16 16 16h718z m-16-355v323h-327v-15c0-9-7-16-16-16-9 0-16 7-16 16v15h-327v-323h19c9 0 16-7 16-16s-7-16-16-16h-19v-323h327v15c0 9 7 16 16 16 9 0 16-7 16-16v-15h327v323h-19c-9 0-16 7-16 16s7 16 16 16h19z m16 472c9 0 16-7 16-16v-67c0-9-7-16-16-16s-16 7-16 16v67c0 9 7 16 16 16z m125-117c9 0 16-7 16-16s-7-16-16-16h-66c-9 0-16 7-16 16s7 16 16 16h66z m-843 117c9 0 16-7 16-16v-67c0-9-7-16-16-16-9 0-16 7-16 16v67c0 9 7 16 16 16z m-58-117c8 0 15-7 15-16s-7-16-15-16h-67c-9 0-16 7-16 16s7 16 16 16h67z m776-760c9 0 16-7 16-16v-67c0-9-7-16-16-16s-16 7-16 16v67c0 9 7 16 16 16z m125 50c9 0 16-7 16-16s-7-16-16-16h-66c-9 0-16 7-16 16s7 16 16 16h66z m-843-50c9 0 16-7 16-16v-67c0-9-7-16-16-16-9 0-16 7-16 16v67c0 9 7 16 16 16z m-58 50c8 0 15-7 15-16s-7-16-15-16h-67c-9 0-16 7-16 16s7 16 16 16h67z" horiz-adv-x="1000" />

<glyph glyph-name="fl-icon-31" unicode="&#xe8ca;" d="M681 72c7-6 6-17-1-23-16-15-33-29-51-43-3-2-6-3-10-3-5 0-10 2-13 6-5 7-4 18 3 23 17 13 34 27 49 41 7 7 17 6 23-1z m87 99c7-6 8-16 3-23-14-18-28-35-43-51-4-4-8-6-12-6-4 0-8 2-11 5-7 6-8 16-1 23 14 16 28 32 41 49 5 7 16 8 23 3z m-189-181c5-7 3-17-5-22-18-12-38-24-57-34-3-1-6-2-8-2-6 0-12 3-15 9-4 8-1 18 7 22 19 10 38 21 56 32 7 5 18 3 22-5z m-114-63c3-8-1-18-9-21-21-9-42-17-63-23-2-1-3-1-5-1-7 0-13 4-16 11-2 9 2 18 11 21 20 6 41 14 60 22 9 3 18-1 22-9z m-124-42c2-9-4-18-13-20-21-4-44-8-66-11 0 0-1 0-2 0-8 0-15 6-16 14-1 9 5 17 14 18 21 3 42 7 63 11 9 2 18-3 20-12z m568 648c9-1 15-9 14-18-3-22-7-44-12-66-2-8-8-13-16-13-1 0-2 0-3 1-9 1-15 10-13 19 5 21 8 42 11 63 1 9 10 15 19 14z m-73-250c8-4 11-14 7-22-11-20-22-39-34-58-3-5-8-8-14-8-3 0-6 1-8 3-8 5-10 15-5 22 11 18 22 37 32 56 4 8 14 11 22 7z m47 122c9-3 14-12 11-21-7-21-15-42-23-63-3-6-9-10-15-10-2 0-4 1-6 2-9 3-13 13-9 21 8 20 15 40 22 60 2 9 12 14 20 11z m67 215c5-3 8-8 8-14 0-5-3-10-8-13l-104-70c0 0 0 0 0 0l0 0c0 0 0 0 0 0-1-1-2-1-2-1 0 0-1 0-1 0 0-1-1-1-2-1 0 0 0 0 0 0-1 0-1-1-2-1 0 0 0 0 0 0-1 0-2 0-2 0 0 0 0 0 0 0l-1 0h-567c-12-14-28-25-45-33v-510c0-9-8-16-17-16h-18l0-95c0-9-8-16-17-16h0c-9 0-16 7-16 16l0 95h-19c-9 0-16 7-16 16v510c-48 20-79 67-79 119 0 53 31 100 79 120v108c0 9 7 16 16 16h70c9 0 17-7 17-16v-108c17-8 33-19 45-33h567 0 1c0 0 0 0 0 0 0 0 1 0 1 0 0 0 0 0 1 0 0 0 0-1 1-1 0 0 0 0 0 0 1 0 1 0 1 0 1 0 1 0 1 0 0 0 1 0 1-1 0 0 0 0 1 0 0 0 0 0 0 0 1 0 1-1 1-1 0 0 1 0 1 0l0 0c0 0 0 0 0 0z m-796 197v-82c12 2 25 2 37 0v82h-37z m37-824h0v485c-6-1-12-2-19-2-6 0-12 1-18 2v-485h19 0 0 18z m58 554c13 17 21 38 21 59 0 22-8 43-21 60l0 0c-12 16-28 27-47 33l0 0c0 0 0 0 0 0l0 0c-19 6-40 6-60 0-40-13-67-50-67-93 0-42 27-79 67-92 20-6 41-6 60 0l0 0c0 0 0 0 0 0 0 0 0 0 0 0 19 6 35 17 47 33z m571 6v37h-519c-1-13-5-25-10-37h529z m0 70l0 37h-529c5-12 9-24 10-37h519z m33-56l59 39-59 40v-40-39z m-681 100c36 0 65-29 65-65s-29-64-65-64c-9 0-16 7-16 16 0 9 7 16 16 16 18 0 32 15 32 32 0 18-14 32-32 32-9 0-16 7-16 16 0 9 7 17 16 17z" horiz-adv-x="1000" />

<glyph glyph-name="fl-icon-13" unicode="&#xe8cb;" d="M950 30c5-5 6-11 4-17-2-6-7-10-13-10l-128-11-11-128c-1-6-5-11-10-13-2-1-4-1-6-1-4 0-8 2-11 5l-275 275-275-275c-3-3-7-5-11-5-2 0-4 0-6 1-5 2-9 7-10 13l-10 128-128 11c-6 1-12 4-14 10-2 6 0 12 4 17l207 207-80 29c-7 3-11 10-10 18l23 126-65 112c-3 6-2 15 4 19l99 83 22 127c1 7 8 13 15 13h129l98 82c6 5 15 5 20 0l99-82h129c7 0 14-6 15-13l22-127 99-83c6-4 7-13 3-19l-64-112 22-126c2-8-2-15-10-18l-83-30z m-723-130l231 232-76-28c-2-1-4-1-6-1-5 0-10 3-13 8l-65 111-8 3-194-194 107-9c8 0 14-6 15-14z m288 276c0 0 0 0 0 0l107-38 60 105c2 3 5 5 9 6l19 8 94 34-21 119c0 4 0 8 2 11l61 105-93 78c-3 2-5 5-5 9l-21 120h-122c-3 0-7 1-10 3l-93 78-92-78c-3-2-7-3-10-3h-122l-21-120c0-4-2-7-5-9l-93-78 61-105c1-3 2-7 1-11l-21-119 91-33 23-9c4-1 7-3 9-6l60-105 103 37 11 4c4 1 7 1 11 0z m282-154l107 9-192 193-5-2-65-111c-3-5-8-8-13-8-2 0-4 0-6 1l-83 30 234-234 9 108c0 8 6 14 14 14z m-297 694c137 0 248-111 248-248s-111-249-248-249-248 112-248 249 111 248 248 248z m0-465c120 0 217 97 217 217s-97 217-217 217c-120 0-217-97-217-217s97-217 217-217z m180 266c2-6-1-13-6-17l-93-68 35-109c2-7 0-14-5-18-6-4-13-4-19 0l-93 68-93-68c-3-2-6-3-9-3-3 0-6 1-9 3-6 4-8 11-6 18l36 109-93 68c-6 4-8 11-6 17 2 7 8 11 15 11h115l35 110c2 6 8 10 15 10 7 0 13-4 15-10l36-110h115c6 0 12-4 15-11z m-127-66l64 46h-79c-6 0-12 4-15 11l-24 74-24-74c-2-7-8-11-15-11h-78l63-46c6-4 8-11 6-18l-24-74 63 46c6 4 13 4 18 0l64-46-24 74c-3 7 0 14 5 18z" horiz-adv-x="1000" />

<glyph glyph-name="fl-icon-15" unicode="&#xe8cc;" d="M984 741c9 0 16-7 16-15v-752c0-8-7-15-16-15h-851c-27 0-53 7-75 22l0 0c-3 3-6 5-10 8 0 0 0 0 0 0-6 5-12 11-18 18 0 0 0 0 0 0-2 3-5 7-7 10 0 0 0 0 0 0-5 7-9 15-13 23 0 0 0 0 0 0-3 8-6 16-7 24v0c-1 3-1 5-1 7 0 0 0 0 0 0-1 4-2 9-2 13 0 3 0 5 0 7 0 2 0 4 0 5v0c0 0 0 0 0 0 0 1 0 1 0 1v0c0 0 0 0 0 0 0 1 0 2 0 3v509c0 73 60 132 133 132h851z m-953-132v-433c25 29 61 48 102 48s76-19 101-48v433c0 56-46 101-101 101s-102-45-102-101z m186-574c0 0 0 0 0 0 3 5 6 11 9 17l0 0c3 6 4 12 6 19v0c0 1 0 3 1 5l0 0c0 3 1 7 1 10 0 2 0 3 0 5 0 2 0 3 0 4 0 1 0 2 0 3v0c-4 53-48 94-101 94s-98-41-101-94v0c0-1 0-2-1-3 0-1 0-2 0-4 0-2 0-3 0-5 1-3 1-7 2-10 0 0 0 0 0 0 0-2 0-4 0-5v0c2-7 4-13 6-19 0 0 0 0 0 0 3-6 6-12 10-17 0 0 0 0 0 0 1-3 3-6 5-8l0 0c5-5 9-10 14-14l0 0c3-2 5-4 8-6 0 0 0 0 0 0 17-11 36-17 57-17s39 6 56 17c0 0 0 0 0 0 3 2 6 4 8 6l0 0c5 4 10 9 14 14l0 0c2 2 4 5 6 8z m752-45v720h-751c29-24 47-61 47-101v-509c0-1 0-2 0-3 0 0 0 0 0 0v0-1l0 0v0c0-1 0-3 0-5 0-2 0-4 0-7 0-4-1-9-1-13l0 0c-1-2-1-4-2-7v0c-1-8-4-16-7-24l0 0c-4-8-8-16-12-23 0 0 0 0 0 0-3-3-5-7-8-10 0 0 0 0 0 0-5-6-11-12-17-17h751z m-836 167c36 0 65-30 65-66 0-36-29-66-65-66s-66 30-66 66c0 36 29 66 66 66z m0-100c19 0 34 15 34 34s-15 35-34 35-35-16-35-35 16-34 35-34z m50 442c8 0 15-7 15-15v-192c0-9-7-16-15-16-9 0-16 7-16 16v192c0 8 7 15 16 15z m243-287l60-59c6-7 6-16 0-23-3-3-7-4-11-4s-8 1-11 4l-60 60-60-60c-3-3-7-4-11-4-4 0-8 1-11 4-6 7-6 16 0 23l60 59-60 60c-6 6-6 16 0 22 6 6 16 6 22 0l60-59 60 59c6 6 16 6 22 0 6-6 6-16 0-22z m34 359l59-59c7-6 7-16 0-22-3-4-7-5-11-5-4 0-8 1-11 5l-59 59-60-59c-3-4-7-5-11-5s-8 1-11 5c-7 6-7 16 0 22l59 59-59 60c-7 6-7 16 0 22 6 7 16 7 22 0l60-59 59 59c6 7 16 7 22 0 7-6 7-16 0-22z m400-442l60-60c6-6 6-16 0-22-3-3-7-5-11-5s-8 2-11 5l-60 60-60-60c-3-3-7-5-11-5-4 0-8 2-11 5-6 6-6 16 0 22l60 60-60 60c-6 6-6 16 0 22 6 6 16 6 22 0l60-60 60 60c6 6 16 6 22 0 6-6 6-16 0-22z m-98 199c6-6 6-16 0-22-3-3-7-5-11-5-4 0-8 2-12 5l-25 25c-18-162-156-289-323-289-8 0-15 7-15 16 0 8 7 15 15 15 152 0 277 115 292 263l-38-39c-3-3-7-4-11-4s-8 1-11 4c-7 6-7 16 0 22l62 63c6 6 16 6 22 0l5-4z m-49 313c57 0 103-46 103-103s-46-103-103-103c-57 0-103 46-103 103s46 103 103 103z m0-175c40 0 72 32 72 72s-32 72-72 72-72-32-72-72 32-72 72-72z" horiz-adv-x="1000" />

<glyph glyph-name="fl-icon-33" unicode="&#xe8cd;" d="M869 455c2-9-3-17-11-20-2 0-3 0-4 0-7 0-13 4-15 11-5 16-11 32-18 48-3 8 0 17 8 21 8 3 17 0 21-8 7-17 14-35 19-52z m-73 139c5-7 4-17-3-22-2-3-6-4-9-4-5 0-9 2-13 6-34 42-78 75-127 97-8 4-11 13-8 21 4 8 13 11 21 8 53-24 101-61 139-106z m188-228c9 0 16-7 16-16 0-9-7-16-16-16h-51c-8-226-191-409-417-417v-51c0-9-7-16-16-16-9 0-16 7-16 16v51c-226 8-409 191-417 417h-51c-9 0-16 7-16 16s7 16 16 16h51c8 226 191 409 417 417v51c0 9 7 16 16 16s16-7 16-16v-51c226-8 409-191 417-417h51z m-468 386v-69c171-8 309-146 317-317h69c-8 209-177 378-386 386z m-32 0c-209-8-377-177-385-386h68c8 171 146 309 317 317v69z m0-804v69c-171 8-309 146-317 317h-68c8-209 176-378 385-386z m16 134c9 0 16-7 16-16v-17c154 8 277 131 285 285h-17c-9 0-16 7-16 16 0 9 7 16 16 16h17c-8 154-131 277-285 285v-17c0-9-7-16-16-16-9 0-16 7-16 16v17c-154-8-277-131-285-285h17c9 0 16-7 16-16 0-9-7-16-16-16h-17c8-154 131-277 285-285v17c0 9 7 16 16 16z m16-134c209 8 378 177 386 386h-69c-8-171-146-309-317-317v-69z m-16 652c138 0 250-112 250-250s-112-249-250-249-249 111-249 249 111 250 249 250z m193-149h-41c8-27 12-56 14-85h52c-3 30-11 59-25 85z m-20 32c-17 23-39 42-65 56 13-16 24-35 33-56h32z m-91-117h52c-1 30-6 59-15 85h-43c4-27 6-56 6-85z m52-32h-52c0-29-2-58-6-85h43c9 26 14 55 15 85z m-27 149c-15 30-34 54-56 69 10-22 16-48 20-69h36z m-107 85c-7 0-26-22-39-85h78c-13 63-32 85-39 85z m-108-29c-26-14-48-33-65-56h32c9 21 20 40 33 56z m26-173c0 29 2 58 6 85h-43c-9-26-14-55-15-85h52z m6-117c-4 27-6 56-6 85h-52c1-30 6-59 15-85h43z m-117 202c-14-26-22-55-25-85h52c2 29 6 58 14 85h-41z m0-202h41c-8 27-12 56-14 85h-52c3-30 11-59 25-85z m20-32c17-22 40-42 65-56-13 16-24 35-33 56h-32z m66 0c15-30 34-54 56-68-9 21-16 47-20 68h-36z m36 266c4 21 11 47 20 69-22-15-41-39-56-69h36z m71-351c7 0 26 22 39 85h-78c13-63 32-85 39-85z m44 117c4 26 6 56 7 85h-102c1-29 3-59 7-85h88z m-95 117h102c-1 30-3 59-7 85h-88c-4-26-6-55-7-85z m102-217c22 14 41 38 56 68h-36c-4-21-10-47-20-68z m57 12c26 14 48 34 65 56h-32c-9-21-20-40-33-56z m85 88c14 26 22 55 25 85h-52c-2-29-6-58-14-85h41z" horiz-adv-x="1000" />

<glyph glyph-name="uniF112" unicode="&#xe8ce;" d="M984 73c9 0 16-7 16-15v-71c0-43-35-79-78-79h-844c-43 0-78 36-78 79v71c0 8 7 15 16 15h17v636 67c0 9 7 16 16 16h902c9 0 16-7 16-16v-67-636h17z m-919 687v-35h870v35h-870z m0-67v-620h352 167 351v620h-870z m503-651h-136v-35h136v35z m401-55l0 55h-18-352v-51c0-9-7-16-15-16h-167c-9 0-16 7-16 16v51h-352-18v-55c0-26 21-47 47-47h844c26 0 47 21 47 47z m-102 3c9 0 16-7 16-16 0-8-7-15-16-15h-183c-9 0-16 7-16 15 0 9 7 16 16 16h183z m-551 0c9 0 16-7 16-16 0-8-7-15-16-15h-183c-9 0-16 7-16 15 0 9 7 16 16 16h183z m430 335c8-2 13-10 11-19-12-45-36-86-69-119-3-3-7-5-11-5s-8 2-11 5l-47 47c-6 6-6 16 0 22 21 21 36 47 43 76 1 4 4 7 8 9 3 2 8 3 12 2z m-69-105c20 24 36 50 45 79l-34 10c-8-23-20-45-36-63z m-296 296c6-6 6-16 0-22-21-21-36-47-43-75-1-4-4-8-8-10-2-1-5-2-7-2-2 0-3 0-4 1l-65 17c-8 2-13 11-11 19 12 45 36 86 69 119 6 6 16 6 22 0z m-69-74c8 23 21 44 36 63l-25 25c-20-23-35-50-45-79z m419 66c23-40 35-86 35-133 0-9-7-16-15-16h-67c-9 0-16 7-16 16 0 30-8 59-22 84-2 4-3 8-2 12 1 4 4 7 7 10l58 33c8 4 17 2 22-6z m-32-117h35c-2 30-10 60-23 88l-31-18c11-22 17-46 19-70v0z m-11 172c6-6 6-16 0-22l-47-47c-3-3-7-5-11-5-4 0-8 2-11 5-21 21-47 36-75 43-4 2-8 4-10 8-2 3-3 8-2 12l18 64c2 9 11 13 19 11 45-12 86-36 119-69z m-58-36l25 25c-23 20-50 36-79 45l-9-34c23-8 44-20 63-36z m-130 114c9 0 16-7 16-15v-67c0-9-7-16-16-16-29 0-59-8-84-22-2-2-5-2-8-2-1 0-3 0-4 0-4 1-7 4-9 7l-34 58c-4 8-2 17 6 22 40 23 86 35 133 35z m-16-67v35c-30-2-60-10-88-23l18-31c22 11 46 17 70 19z m83-233c27 0 49-22 49-49 0-27-22-49-49-49-27 0-49 22-49 49 0 27 22 49 49 49z m0-67c10 0 18 8 18 18 0 9-8 17-18 17s-18-8-18-17c0-10 8-18 18-18z m-142 209c27 0 49-22 49-49 0-27-22-50-49-50-27 0-49 23-49 50 0 27 22 49 49 49z m0-67c10 0 18 8 18 18s-8 17-18 17c-10 0-18-8-18-17s8-18 18-18z m170 54c6-6 6-16 0-22l-167-167c-3-4-7-5-11-5s-8 1-12 5c-6 6-6 16 0 22l167 167c7 6 17 6 23 0z m44-304c4-8 2-17-6-21-40-24-86-36-133-36-9 0-16 7-16 16v66c0 9 7 16 16 16 30 0 59 8 84 23 4 2 8 2 12 1 4-1 7-4 9-7z m-123-25c30 2 60 10 88 23l-18 31c-22-10-46-17-70-19v-35z m-50 64c2-3 3-7 2-11l-18-65c-2-7-8-12-15-12-1 0-2 1-4 1-45 12-86 36-119 69-6 6-6 16 0 22l47 47c6 6 16 6 22 0 21-21 47-36 76-43 4-1 7-4 9-8z m-42-52l9 34c-22 8-44 21-62 36l-26-25c24-20 50-35 79-45z m-70 138c3-4 3-8 2-12-1-4-4-7-7-9l-58-34c-3-1-5-2-8-2-5 0-11 3-14 8-23 40-35 86-35 133 0 9 7 16 16 16h66c9 0 16-7 16-16 0-29 8-58 22-84z m-65-20l31 18c-10 22-17 46-19 70h-35c2-30 10-60 23-88z" horiz-adv-x="1000" />

<glyph glyph-name="fl-icon-35" unicode="&#xe8cf;" d="M801 850c8 0 15-7 15-16v-968c0-9-7-16-15-16h-151c-8 0-15 7-15 16v81l-403 273v-55h34c9 0 16-7 16-15v-84c0-9-7-16-16-16h-34v-118c0-8-7-15-16-15h-133c-8 0-15 5-16 13l-50 317c0 1 0 1 0 1 0 0 0 0 0 1 0 0 0 0 0 0 0 1 0 1 0 1v200c0 9 7 16 15 16h180l423 273v95c0 9 7 16 15 16h151z m-601-700v84h-149l45-286h104v118 84z m0 115v170h-152v-170h152z m51-131h-19v-52h19v52z m384-149v717l-403-260v-184z m150-104v938h-119v-89-774 0 0-75h119z m-619 518c9 0 16-7 16-16 0-8-7-15-16-15h-67c-8 0-15 7-15 15 0 9 7 16 15 16h67z m802-17c8 0 15-7 15-15 0-9-7-16-15-16h-67c-9 0-16 7-16 16 0 8 7 15 16 15h67z m-34 168c5-8 2-17-5-21l-58-34c-3-1-5-2-8-2-6 0-11 3-14 8-4 7-1 17 6 21l58 34c7 4 17 1 21-6z m-5-345c7-4 10-14 5-21-3-5-8-8-13-8-3 0-6 0-8 2l-58 33c-7 5-10 14-6 22 5 7 14 10 22 5z m-178 578c8 0 15-7 15-15v-201c0-8-7-15-15-15s-16 7-16 15v201c0 8 7 15 16 15z m0-267c8 0 15-7 15-16v-83c0-9-7-16-15-16s-16 7-16 16v83c0 9 7 16 16 16z" horiz-adv-x="1000" />

<glyph glyph-name="fl-icon-36" unicode="&#xe8d0;" d="M836 543c7-5 9-15 4-22-3-4-8-6-13-6-3 0-6 1-9 3l-186 135c-7 5-9 15-4 22 5 7 15 8 22 3z m-459 74c1-9-5-17-13-18l-228-36c-1 0-1 0-2 0-8 0-14 5-16 13-1 8 5 16 13 17l228 37c8 1 16-5 18-13z m617-26c7-5 8-15 3-21l-242-334c0-5 1-10 1-15 0-47-17-92-47-128l38-38 12 12c3 3 7 5 11 5 4 0 8-2 11-5l140-140c3-3 4-7 4-11 0-4-1-8-4-11l-47-46c-3-3-7-5-11-5-3 0-7 2-10 5l-140 140c-6 6-6 15 0 22l12 12-38 38c-10-8-20-15-30-21v-43c0-9-7-16-16-16h-428c-8 0-15 7-15 16v165l-97-15c-1 0-2 0-3 0-3 0-6 1-9 3-3 2-6 6-6 10l-83 520c-1 9 5 17 13 18l423 67c4 1 8 0 11-3 4-2 6-6 7-10l20-131 152 208c2 4 6 6 10 7 4 0 8-1 11-3z m-224-557l-24-24 117-118 25 24z m-572 500c0 8 7 15 15 15h202l34 47-23 146-393-62 78-490 87 14v102l-21-3c0 0-1-1-2-1-7 0-14 6-15 13-2 9 4 17 13 18l25 4v102l-41-6c-1 0-2 0-3 0-7 0-14 5-15 13-1 8 5 16 13 17l46 8v63z m428-512l0 14c-21-8-44-12-67-12-71 0-136 38-171 99h-76c-9 0-15 7-15 16s6 15 15 15h62c-8 21-12 44-12 67 0 11 1 23 3 34h-53c-9 0-15 7-15 15s6 16 15 16h61c8 22 20 43 35 61 13 16 29 29 45 40h-141c-9 0-15 7-15 15 0 9 6 15 15 15h231c1 0 2 0 3 0 4 0 9 0 13 0 23 0 46-3 67-11v96 16h-28l0 0 0 0h-124-51l0 0 0 0h-194v-61-133-133-169h397z m50 82c32 31 49 73 49 117 0 6-1 12-1 18l0 0c-6 55-40 104-90 130-23 12-48 18-75 18-49 0-95-22-127-60-15-18-26-38-32-61-5-15-7-30-7-45 0-27 6-52 18-75l0 0c29-56 85-91 148-91 27 0 52 6 75 18 16 8 30 18 42 31z m71 174l216 297-321 234-164-226 0 0-25-34h21 77c-4 6-4 13 0 19 5 7 14 8 21 3l31-22h38c9 0 16-7 16-15v-24l102-74c7-5 8-15 3-22-3-4-7-6-12-6-3 0-7 1-9 3l-84 61v-81c44-25 76-65 90-113z m-188 74c72 0 131-59 131-131 0-72-59-131-131-131s-131 59-131 131 59 131 131 131z m0-231c55 0 100 45 100 100s-45 100-100 100c-55 0-100-45-100-100 0-55 45-100 100-100z m44 103c6-6 6-16 0-22l-41-41c-3-3-7-5-11-5-4 0-8 2-11 5-6 6-6 15 0 21l41 42c6 6 16 6 22 0z m-17 65c6-6 6-15 0-21l-45-46c-3-3-7-4-11-4-4 0-8 1-11 4-6 6-6 16 0 22l46 45c6 6 15 6 21 0z" horiz-adv-x="1000" />

<glyph glyph-name="fl-icon-17" unicode="&#xe8d1;" d="M647 638c120-120 120-315 0-435-60-60-139-90-218-90-79 0-157 30-217 90-59 58-91 136-91 218 0 82 32 159 91 217 120 121 315 121 435 0z m-22-413c107 108 107 283 0 391-54 54-125 81-196 81-71 0-141-27-195-81-52-52-81-121-81-195 0-74 29-143 81-196 108-107 283-107 391 0z m142 337c19-45 28-92 28-141 0-9-7-16-16-16-8 0-15 7-15 16 0 45-9 88-26 129-3 8 0 17 8 20 9 4 18 0 21-8z m-39 70c5-7 3-17-4-22-3-2-6-3-9-3-5 0-10 3-13 7-11 15-23 30-36 43-63 63-147 98-237 98-9 0-16 7-16 16 0 9 7 16 16 16 98 0 190-38 259-107 15-15 28-31 40-48z m267-683c6-7 6-17 0-23l-71-71c-3-4-7-5-11-5-5 0-9 1-12 5l-119 119c-6 6-6 16 0 22l25 25-86 85c-79-74-182-115-292-115-114 0-222 45-303 126-168 168-168 440 0 607 81 81 189 126 303 126 115 0 223-45 304-126 81-81 126-189 126-303 0-110-41-213-115-292l85-86 25 25c6 6 16 6 22 0z m-285 191c76 75 117 175 117 281 0 106-41 206-117 281-75 75-175 116-281 116s-206-41-281-116c-155-155-155-407 0-562 75-76 175-117 281-117s206 41 281 117z m203-252l49 49-97 97-25-24c0 0 0 0 0 0 0 0 0 0 0 0l-24-25z m-266 447c8 0 15-7 15-15 0-9-7-16-15-16h-34-76-76-76-76-76-34c-8 0-15 7-15 16 0 8 7 15 15 15h18v195c0 9 7 16 16 16h76c9 0 16-7 16-16v-195h44v170c0 9 7 16 16 16h76c9 0 16-7 16-16v-170h44v246c0 9 7 16 16 16h76c9 0 16-7 16-16v-246h18z m-354 0v180h-44v-180h44z m152 0v154h-44v-154h44z m152 0v230h-44v-230h44z" horiz-adv-x="1000" />

<glyph glyph-name="fl-icon-37" unicode="&#xe8d2;" d="M984 741c9 0 16-7 16-15v-852c0-9-7-16-16-16h-968c-9 0-16 7-16 16v852c0 8 7 15 16 15h68v85c0 9 7 16 15 16 9 0 16-7 16-16v-85h102v85c0 9 7 16 16 16 8 0 15-7 15-16v-85h103v85c0 9 7 16 15 16s16-7 16-16v-85h102v85c0 9 7 16 16 16 9 0 16-7 16-16v-85h102v85c0 9 7 16 16 16s15-7 15-16v-85h103v85c0 9 7 16 15 16s16-7 16-16v-85h102v85c0 9 7 16 16 16 9 0 16-7 16-16v-85h67z m-15-851l0 820h-52v-34c0-9-7-16-16-16-9 0-16 7-16 16v34h-102v-34c0-9-7-16-16-16-8 0-15 7-15 16v34h-103v-34c0-9-7-16-15-16-9 0-16 7-16 16v34h-102v-34c0-9-7-16-16-16s-16 7-16 16v34h-102v-34c0-9-7-16-16-16s-15 7-15 16v34h-103v-34c0-9-7-16-15-16-9 0-16 7-16 16v34h-102v-34c0-9-7-16-16-16-8 0-15 7-15 16v34h-53v-820h938z m-51 467c8 0 15-7 15-15v-134c0-9-7-16-15-16h-835c-9 0-16 7-16 16v134c0 8 7 15 16 15h835z m-16-133v102h-804v-102h804z m-536 384c9 0 16-7 16-16v-150c0-9-7-16-16-16h-91l-29-43c-3-4-8-7-13-7-5 0-10 3-13 7l-29 43h-92c-8 0-15 7-15 16v150c0 9 7 16 15 16h267z m-15-150l0 119h-236v-119h84c6 0 11-3 13-7l21-31 20 31c3 4 8 7 13 7h85z m-35 100c9 0 16-7 16-16v-50c0-9-7-16-16-16-8 0-15 7-15 16v50c0 9 7 16 15 16z m585 50c9 0 16-7 16-16v-150c0-9-7-16-16-16h-92l-29-43c-3-4-7-7-13-7-5 0-10 3-13 7l-29 43h-91c-9 0-16 7-16 16v150c0 9 7 16 16 16h267z m-16-150l0 119h-236v-119h85c5 0 10-3 13-7l20-31 21 31c3 4 7 7 13 7h84z m-34 100c8 0 15-7 15-16v-50c0-9-7-16-15-16-9 0-16 7-16 16v50c0 9 7 16 16 16z m-217-418c8 0 15-7 15-15v-151c0-8-7-15-15-15h-268c-8 0-15 7-15 15v151c0 8 7 15 15 15h92l29 43c3 5 8 7 13 7s10-2 13-7l29-43h92z m-16-150l0 119h-85c-5 0-10 3-13 7l-20 30-20-30c-3-4-8-7-13-7h-85v-119h236z m-34 100c8 0 15-7 15-16v-50c0-8-7-15-15-15-9 0-16 7-16 15v50c0 9 7 16 16 16z" horiz-adv-x="1000" />

<glyph glyph-name="fl-icon-38" unicode="&#xe8d3;" d="M992 631c3-6 1-13-3-17l-111-111 0 0-105-105c-3-3-7-4-11-4h-10c21-49 32-101 32-155 0-215-174-389-389-389s-388 174-388 389 174 389 388 389c50 0 97-9 142-27v18c0 4 2 8 5 11l105 105 0 0 0 0 110 111c5 4 11 5 17 3 6-3 10-8 10-14v-195h194c6 0 12-3 14-9z m-319 86v-166l80 80v166z m-105-140l0-128c1 0 1-1 1-1l19 18 54 55v166l-74-74v0-36z m-31-143c-41 30-90 46-142 46-133 0-241-108-241-241s108-241 241-241c133 0 242 108 242 241 0 57-20 111-57 155h-21l-38-38c30-32 46-74 46-117 0-95-77-172-172-172-94 0-172 77-172 172s78 172 172 172c38 0 74-12 103-34l39 39h0v18z m-147-187c-6 6-6 16 0 22l32 31c-8 4-17 6-27 6-37 0-67-30-67-67s30-67 67-67c37 0 67 30 67 67 0 16-5 31-15 43l-35-35c-3-3-7-5-11-5-4 0-8 2-11 5z m55 76l31 31c-24 17-52 26-81 26-77 0-141-63-141-141s64-141 141-141 142 63 142 141c0 35-14 69-38 95l-30-30c15-18 24-41 24-65 0-54-44-98-98-98-54 0-97 44-97 98 0 54 43 98 97 98 18 0 35-5 50-14z m308-84c0 54-12 106-35 155h-99c31-46 48-100 48-155 0-150-122-272-272-272-150 0-272 122-272 272s122 272 272 272c51 0 100-14 142-40v96c-45 20-92 30-142 30-197 0-357-161-357-358s160-358 357-358 358 160 358 358z m3 186l74 74h-166l-54-55-18-17c1-1 1-2 2-2h134 28z m105 105l80 79h-166l-80-79h166z" horiz-adv-x="1000" />

<glyph glyph-name="fl-icon-14" unicode="&#xe91e;" d="M998-127c3-5 3-11 0-16-3-4-8-7-14-7h-484c0 0 0 0 0 0h0 0c0 0 0 0 0 0h-484c-6 0-11 3-14 7-3 5-3 11 0 16l242 484 242 484c3 6 8 9 14 9s11-3 14-9l242-484z m-498 926l-217-433h434z m-459-918h434l-217 434z m459 20l217 433h-434z m25-20h434l-217 434z" horiz-adv-x="1000" />

<glyph glyph-name="beaker-1" unicode="&#xecba;" d="M2 354q10 49 55 68l424 170q-12 20-12 41 0 33 23 57l43 43q24 23 56 23t56-23l240-240q23-24 23-56t-23-56l-43-45q-24-21-55-21-23 0-43 12l-168-418q-17-47-68-57-8-2-18-2l-4 0q-37 0-62 27l-398 393q-36 35-26 84z m62-11q-3-16 8-28l397-393q10-10 21-10l8 0q16 4 24 20l146 371q-58 61-123 85t-146 33-123 23l-194-78q-15-6-18-23z m186-24q0 25 19 44t44 18 44-18 18-44-18-44-44-19-44 19-19 44z m31 0q0-14 9-23t23-8 22 8 9 23-9 22-22 9-23-9-9-22z m43 144q30-6 80-13 59-6 93-13t87-33 98-70l41 102 55-55q11-11 21 0l45 45q12 10 0 22l-242 242q-10 10-22 0l-45-45q-9-12 0-22l55-54z m51-332q0 14 9 23t22 9 23-9 9-23-9-22-23-9-22 9-9 22z m63 141q0 33 22 56t56 22 55-22 23-56-23-56-55-22-56 22-22 56z m31 0q0-20 14-33t33-14 33 14 14 33-14 33-33 14-33-14-14-33z m375 500q0 33 22 56t56 22 56-22 22-56-22-56-56-22-56 22-22 56z m31-172q0 14 9 22t22 9 23-9 9-22-9-22-23-9-22 9-9 22z m0 172q0-20 14-33t33-14 33 14 14 33-14 33-33 14-33-14-14-33z" horiz-adv-x="1000" />

<glyph glyph-name="truck-1" unicode="&#xecbb;" d="M0 319l0 343q0 40 27 67t67 27l469 0q39 0 66-27t27-67l0-62 125 0q51 0 78-41l125-187q16-24 16-53l0-188q0-39-27-66t-67-27l-35 0q-12-42-45-68t-76-26-76 26-45 68l-164 0q-12-42-45-68t-76-26-76 26-45 68l-35 0q-40 0-67 27t-27 66l0 94q-39 0-67 27t-27 67z m63 0q0-14 8-23t23-8l469 0q13 0 22 8t9 23l0 343q0 14-9 23t-22 9l-469 0q-14 0-23-9t-8-23l0-343z m93-188q0-13 9-22t23-9l35 0q11 41 45 67t76 27 76-27 45-67l164 0q12 41 45 67t76 27 76-27 45-67l35 0q14 0 23 9t8 22l0 188q0 10-5 17l-125 188q-8 14-26 14l-125 0 0-219q0-39-27-67t-66-27l-407 0 0-94z m125-62q0-26 19-44t44-19 44 19 18 44-18 44-44 18-44-18-19-44z m407 0q0-26 18-44t44-19 44 19 18 44-18 44-44 18-44-18-18-44z m0 219l0 187q0 14 8 22t23 9l31 0q18 0 25-13l94-141q6-8 6-18l0-46q0-14-9-23t-22-9l-125 0q-14 0-23 9t-8 23z m31 0l125 0 0 46-94 141-31 0 0-187z" horiz-adv-x="1000" />

<glyph glyph-name="money-2" unicode="&#xecc0;" d="M3 243q31 97 107 173 59 61 203 145 129 74 178 123 55 55 74 121 6 16 16 27 14 12 29 16 35 8 61-16l312-312q26-27 16-63-31-99-108-173-58-61-203-145-129-74-177-123-55-53-75-121-6-16-15-27-14-12-30-16-35-8-60 16l-313 312q-25 27-15 63z m60-18l99-99 115-115 99-99q25 79 84 140t128 102l138 80t129 101 83 140l-157 157-155 155q-24-78-83-139t-129-102l-139-80t-128-101-84-140z m274-199l21 29q22 27 47 53 22 23 55 49 11 9 21 0 12-12 0-24l-2 0q-31-25-52-47-24-23-43-48l-20-28q-2-2-2-4-12-12-23 0-8 10-2 20z m27 359q2 18 10 33 8 18 19 32 0 2-5 5-4 2-4 7t4 10 8 5 7-4q4-4 8-6 8 8 20 16t28 12 29 1 24-15q8-8 8-18t-8-15q-5-6-15-4-6 2-18 4-9 4-20 3t-23-11q20-20 51-57 14 8 31 14 16 6 32 8t31-3 31-17q14-12 20-25 4-14 2-30 0-15-10-33-8-19-22-37 8-6 16-13 4-2 5-7t-3-9-9-5-9 3q-9 8-15 16-18-18-35-24-16-6-34-6-15 2-28 8t-20 15-8 17 8 16 13 7 13-3 13-8 13-7 17 0 20 12q-21 21-56 62-32-17-65-19-29-2-50 15-14 12-20 26t-4 29z m42 11q-1-7 1-14t8-10q10-10 22-9t33 10q-30 32-49 51-6-8-10-14t-5-14z m112 143q-9 10 0 22 2 2 4 2 32 25 53 47 23 23 43 49l19 27q2 4 4 4 12 12 22 0 10-10 2-22l-22-29q-21-27-47-53-21-23-54-48-12-10-24 1z m4-195q32-35 53-56 6 5 10 13t6 16 0 14-9 14-15 9-15 1-16-5q-4-2-14-6z" horiz-adv-x="1001" />

<glyph glyph-name="food-1" unicode="&#xecc1;" d="M0 116q0 33 23 55t55 23l84 0q22 121 117 201t221 80q102 0 186-55t126-144l143 70q12 6 24 2t17-16 2-23-16-18l-150-76q4-11 6-21l84 0q33 0 56-23t22-55q0-24-16-41l-109-123 0-24q0-33-22-56t-56-22l-594 0q-33 0-55 22t-23 56l0 24-109 123q-16 17-16 41z m63 0l125-141 0-47q0-16 15-16l594 0q15 0 15 16l0 47 125 141q0 15-15 15l-844 0q-15 0-15-15z m130 78l34 0q21 95 97 157t176 62q84 0 153-46t103-120l27 15q-37 82-113 132t-170 50q-111 0-198-72t-109-178z m55 291q-16 39 16 113 25 61 13 90l-2 0 0 6q0 15 16 15 10 0 14-9 17-41-14-114-25-62-12-91l0-4q0-16-15-16-10 0-14 8l0 2-2 0z m10-291l33 0q20 68 77 112t132 44q66 0 120-36t79-95l30 14q-32 66-93 107t-136 41q-86 0-153-52t-89-135z m66 0l33 0q18 43 57 68t86 26 86-26 57-68l5 0 24 11q-22 51-68 83t-104 31q-61 0-108-35t-68-90z m69 0l37 0q29 31 70 31t68-31l39 0q-37 62-107 62t-107-62z m76 429l0 2q-16 39 13 114 28 60 14 90l0 5q0 16 14 16 12 0 15-10 18-41-13-113-26-63-14-92 2-2 2-4 0-15-16-15-9 0-15 7z m160-134l0 2q-16 39 16 111 25 62 11 90l0 6q0 15 16 15 10 0 14-9 17-40-14-114-26-60-14-90l0-2q2-2 2-3 0-16-15-16-10 0-14 10l-2 0z m160-295l18 0q0 2-1 4t-1 4z" horiz-adv-x="1000" />

<glyph glyph-name="shop" unicode="&#xecc6;" d="M0 413l0 31q0 31 20 56l93 125q4 6 12 14l0 148q0 26 19 44t44 19l624 0q26 0 44-19t19-44l0-148q8-8 12-14l93-125q20-25 20-56l0-31q0-40-27-67t-67-27l0-407q0-25-18-43t-44-19l-688 0q-25 0-44 19t-18 43l0 407q-39 0-67 27t-27 67z m63 0q0-14 8-23t23-9l58 0 125 219-89 0q-16 0-26-12l-94-125q-5-9-5-19l0-31z m93-501l203 0 0 313q0 14 9 22t23 9l234 0q14 0 22-9t9-22l0-313 188 0 0 407-688 0 0-407z m32 469l130 0 63 219-68 0z m0 281l624 0 0 125-624 0 0-125z m164-281l132 0 0 219-70 0z m39-469l234 0 0 313-234 0 0-313z m125 469l132 0-62 219-70 0 0-219z m103 219l63-219 130 0-124 219-69 0z m104 0l125-219 58 0q14 0 23 9t8 23l0 31q0 10-5 19l-94 125q-10 12-26 12l-89 0z" horiz-adv-x="1000" />

<glyph glyph-name="diamond-1" unicode="&#xecc7;" d="M0 502q0 28 18 45l160 158q17 20 43 20l558 0q26 0 43-20l160-158q18-17 18-43 0-23-16-43l-437-465q-20-21-47-21t-47 21l-437 465q-16 18-16 41z m63 4l134 0 84 84-72 61z m27-31l307-328-196 328-111 0z m146 0l231-383-76 383-155 0z m4 31l143 0-78 65z m2 156l61-50 51 50-112 0z m84-70l80-66 71 58-86 71z m96-117l78-389 78 389-156 0z m8 31l140 0-70 57z m0 156l70-58 68 58-138 0z m95-78l69-58 80 66-65 63z m8-492l231 383-155 0z m71 55l306 328-111 0z m13 359l143 0-65 65z m29 156l51-50 61 50-112 0z m73-72l84-84 133 0-145 145z" horiz-adv-x="1000" />

<glyph glyph-name="t-shirt" unicode="&#xeccb;" d="M4 580q-14 41 20 69l156 125q17 13 39 13l562 0q22 0 39-13l157-125q33-28 19-69l-62-187q-10-29-39-39-10-4-20-4-18 0-31 8l0-383q0-25-19-44t-44-19l-562 0q-26 0-44 19t-19 44l0 383q-13-8-31-8-10 0-19 4-30 10-39 39z m59 20l62-187 94 62 0-500 562 0 0 500 94-62 63 187-157 125-131 0q-13-41-54-67t-96-27-96 27-54 67l-131 0z m320 125q14-27 45-45t72-18 72 18 45 45l-234 0z" horiz-adv-x="1000" />

<glyph glyph-name="wallet" unicode="&#xeccc;" d="M0 22l0 625q0 70 51 121t121 51l640 0q40 0 67-28t27-66l0-281q94-71 94-188t-94-187l0-47q0-70-51-121t-121-51l-562 0q-70 0-121 51t-51 121z m63 0q0-45 32-77t77-33l562 0q45 0 78 33t32 77l0 47-281 0q-65 0-111 46t-46 110 46 110 111 46l281 0 0 63q0 13-9 22t-23 9l-640 0q-63 0-109 39l0-492z m0 625q0-45 31-76l0 123q0 13 9 22t22 9l656 0q14 0 23-9t9-22l0-156q15 0 31-6l0 193q0 14-9 22t-23 9l-640 0q-45 0-77-32t-32-77z m62-98q23-11 47-11l609 0 0 31-656 0 0-20z m0 51l656 0 0 31-656 0 0-31z m0 62l656 0 0 32-656 0 0-32z m344-437q0-39 27-66t67-28l320 0q54 51 54 125 0 59-35 104l0-2q-4-8-7-14-20-25-51-25l-281 0q-40 0-67-28t-27-66z m31 0q0 25 19 44t44 19 43-19 19-44-19-44-43-18-44 18-19 44z" horiz-adv-x="1000" />

<glyph glyph-name="key-4" unicode="&#xece5;" d="M0-88l0 94q0 20 18 39l379 379q-22 57-22 114 0 128 92 220t221 92 220-92 92-220-92-221-220-92q-57 0-114 22l-74-73 0-74q0-25-19-44t-43-18l-63 0 0-63q0-25-19-44t-43-19l-73 0-45-44q-17-18-39-18l-93 0q-26 0-44 19t-19 43z m63 0l87 0 45 45q18 18 45 18l73 0 0 63q0 25 18 43t44 19l63 0 0 74q0 26 17 43l61 61 35 35 10 10q60-35 127-35 103 0 176 73t73 177-73 176-176 73-177-73-73-176q0-67 35-127l-45-45-365-364 0-90z m562 713q0 4 2 10 23 65 88 88 15 6 27-4 74-53 127-127 6-8 6-17 0-4-2-10-23-65-88-88-15-6-27 4-74 53-127 127-6 8-6 17z m31 0q51-70 119-119 51 18 69 69-49 68-119 119-51-18-69-69z" horiz-adv-x="1000" />

<glyph glyph-name="fl-icon-49" unicode="&#xed15;" d="M500 850c276 0 500-224 500-500 0-276-224-500-500-500s-500 224-500 500c0 276 224 500 500 500z m0-980c265 0 480 215 480 480 0 265-215 480-480 480s-480-215-480-480c0-265 215-480 480-480z m73 693c16-8 27-25 27-43v-345c0-18-11-35-27-43-8-4-17-7-25-7-9 0-18 3-26 8l-229 145c-9-9-21-15-34-15h-13c-27 0-47 24-47 51v61c0 28 20 48 47 48h13c11 0 22-3 31-10l232 149c16 10 35 10 51 1z m7-388h0v345c0 11-7 21-17 26-4 2-10 3-15 3-5 0-11-1-15-4l-230-147c4-7 6-14 6-23v-61c0-7-1-13-4-19l228-145c9-6 21-6 30-1 10 6 17 15 17 26z m-291 137v62c0 16-13 29-29 29h-11c-17 0-30-13-30-29v-62c0-16 13-29 30-29h11c16 0 29 13 29 29z m371 192c80 0 148-69 148-159s-68-159-148-159v20c70 0 128 60 128 139s-58 139-128 139v20z m71-159c0-43-31-76-71-76v20c20 0 51 24 51 56 0 31-31 55-51 55v20c40 0 71-32 71-75z" horiz-adv-x="1000" />

<glyph glyph-name="fl-icon-50" unicode="&#xed16;" d="M273 306c43-5 76-41 76-84 0-44-34-81-77-85l0-98c0-6-5-11-11-11h0c-7 0-12 5-12 11l1 98c-41 7-72 42-72 85 0 42 31 78 72 84l2 342c0 6 5 12 11 12h0c6 0 12-6 12-12z m-72-85c0-34 28-62 62-62s63 28 63 62-28 63-63 63-62-28-62-63z m318 324c42-6 74-42 74-85 0-44-33-80-74-86l-2-344c0-6-5-13-11-13h0c-7 0-12 7-12 13l2 345c-42 6-74 42-74 85 0 43 32 79 74 84l1 96c0 6 5 9 11 9h0c7 0 12-3 12-10z m-12-147c35 0 63 28 63 62s-28 63-63 63c-34 0-62-28-62-63s28-62 62-62z m252 15c42-6 74-41 74-84 0-43-32-79-74-84l-1-207c0-6-5-10-12-10h0c-6 0-11 4-11 10l1 206c-42 6-74 41-74 85 0 43 33 79 75 84l0 225c0 6 6 11 12 11h0c6 0 11-5 11-11z m-12-147c35 0 63 28 63 63s-28 62-63 62-62-28-62-62 28-63 62-63z m253 383v-598c0-108-87-195-195-195h-610c-107 0-195 87-195 195v598c0 108 88 195 195 195h610c108 0 195-87 195-195z m-23-598v598c0 95-77 172-172 172h-610c-95 0-172-77-172-172v-598c0-95 77-172 172-172h610c95 0 172 77 172 172z" horiz-adv-x="1000" />

<glyph glyph-name="fl-icon-51" unicode="&#xed17;" d="M500 850c276 0 500-224 500-500 0-276-224-500-500-500-276 0-500 224-500 500 0 276 224 500 500 500z m0-980c265 0 480 215 480 480 0 265-215 480-480 480s-480-215-480-480 215-480 480-480z m-41 624v-310c0-28-23-50-50-50h-70c-28 0-50 22-50 50v310c0 27 22 50 50 50h70c27 0 50-23 50-50z m-20-310v310c0 16-14 30-30 30h-70c-17 0-30-14-30-30v-310c0-17 13-30 30-30h70c16 0 30 13 30 30z m270 310v-310c0-28-23-50-50-50h-70c-28 0-50 22-50 50v310c0 27 22 50 50 50h70c27 0 50-23 50-50z m-20-310v310c0 16-14 30-30 30h-70c-17 0-30-14-30-30v-310c0-17 13-30 30-30h70c16 0 30 13 30 30z" horiz-adv-x="1000" />

<glyph glyph-name="fl-icon-52" unicode="&#xed18;" d="M500 850c276 0 500-224 500-500s-224-500-500-500c-276 0-500 224-500 500s224 500 500 500z m0-980c265 0 480 215 480 480s-215 480-480 480c-265 0-480-215-480-480s215-480 480-480z m254 634c1-2 1-4 1-6 0-3-1-5-4-7 0-1 0-1-1-1l-26-33c-4-5-10-5-14-2-5 3-5 10-2 14l16 21h-94l-120-140 120-141h94l-16 21c-3 4-3 11 2 14 4 4 10 3 14-1l29-37c2-3 3-7 1-11 0-1-1-2-2-2 0-1 0-1 0-1l-28-35c-2-3-5-4-8-4-2 0-4 1-6 2-4 3-5 10-1 14l16 20h-100c-3 0-5 2-7 4l-121 141-129-151c-2-2-5-4-8-4h-97c-5 0-10 5-10 10 0 6 5 10 10 10h92l129 151-129 150h-92c-5 0-10 4-10 10 0 5 5 10 10 10h97c3 0 6-2 8-4l129-151 121 141c2 2 4 4 7 4h99l-15 19c-4 5-3 11 1 14 5 4 11 3 14-2l26-33c2-1 3-2 4-4z" horiz-adv-x="1000" />

<glyph glyph-name="fl-icon-53" unicode="&#xed19;" d="M500 850c276 0 500-224 500-500 0-276-224-500-500-500-276 0-500 224-500 500 0 276 224 500 500 500z m0-980c265 0 480 215 480 480 0 265-215 480-480 480-265 0-480-215-480-480 0-265 215-480 480-480z m210 662l0-9v-290c0-4-2-7-5-8-4-32-31-56-64-56-36 0-65 29-65 65s29 64 65 64c20 0 38-8 49-22v210l-310-92v-252c1-5 2-10 2-16 0-35-29-65-65-65s-65 30-65 65 29 65 65 65c17 0 32-6 43-16v228 6 74c0 22 16 41 37 48l247 72c15 5 32 2 44-7 13-10 22-24 22-40v-24z m-393-451c22 0 41 17 44 38 0 1-1 2-1 4v16c-5 18-22 32-43 32-25 0-45-20-45-45s20-45 45-45z m373 425v50c0 9-6 18-14 24-5 3-13 5-19 5-3 0-6 0-9-1l-246-73c-12-3-22-15-22-28v-67z m-94-272c0-25 20-45 45-45 25 0 45 20 45 45s-20 44-45 44c-25 0-45-20-45-44z" horiz-adv-x="1000" />

<glyph glyph-name="fl-icon-54" unicode="&#xed1a;" d="M500 850c276 0 500-224 500-500 0-276-224-500-500-500-276 0-500 224-500 500 0 276 224 500 500 500z m0-980c265 0 480 215 480 480 0 265-215 480-480 480-265 0-480-215-480-480 0-265 215-480 480-480z m125 532l20 20v-247c0-18-9-34-25-43-7-4-15-6-23-6-9 0-18 2-26 7l-132 84 14 15 128-82c9-6 20-6 29-1 10 6 15 15 15 26v227z m118 155l-474-467-1-1c-2-2-5-3-7-3-3 0-5 1-7 3-4 4-4 11 0 15l143 141-55 36c-9-9-21-12-34-12h-13c-27 0-51 18-51 45v61c0 28 24 54 51 54h13c12 0 22-6 30-13l232 146c16 10 34 10 50 1 16-8 25-25 25-43v-30l83 81c4 4 11 4 15 0 2-2 3-6 2-9 0-2-1-4-2-5z m-408-239v61c0 17-14 30-30 30h-11c-16 0-30-13-30-30v-61c0-16 14-29 30-29h11c16 0 30 13 30 29z m15 80c4-7 5-14 5-23v-61c0-7-1-13-3-19l59-37 214 212v50c0 11-5 21-15 26-4 2-8 3-13 3-6 0-11-1-16-4z" horiz-adv-x="1000" />

<glyph glyph-name="fl-icon-55" unicode="&#xed1b;" d="M500 850c276 0 500-224 500-500 0-276-224-500-500-500-276 0-500 224-500 500 0 276 224 500 500 500z m0-980c265 0 480 215 480 480 0 265-215 480-480 480-265 0-480-215-480-480 0-265 215-480 480-480z m-201 553c42 0 76-34 76-76s-34-75-76-75-76 34-76 75 34 76 76 76z m0-131c31 0 56 25 56 55s-25 56-56 56-56-25-56-56 25-55 56-55z m204 135c42 0 76-34 76-75s-34-76-76-76-75 34-75 76 34 75 75 75z m0-131c31 0 56 25 56 56 0 30-25 55-56 55-30 0-55-25-55-55 0-31 25-56 55-56z m196 131c41 0 75-34 75-75s-34-76-75-76-76 34-76 76 34 75 76 75z m-56-75c0-31 25-56 56-56s55 25 55 56c0 30-25 55-55 55s-56-25-56-55z" horiz-adv-x="1000" />

<glyph glyph-name="fl-icon-56" unicode="&#xed1c;" d="M741 315c-6 0-10 5-10 10 0 150-103 272-229 272-126 0-228-122-228-272 0-5-5-10-10-10-6 0-10 5-10 10 0 161 111 292 248 292 137 0 249-131 249-292 0-5-5-10-10-10z m11-147c-9 0-17 3-24 8-9 8-14 20-12 32l15 122c2 13 10 23 21 28 11 6 24 5 35-2 32-21 50-60 44-101-5-42-31-74-69-86-3-1-7-1-10-1z m15 174c-2 0-4-1-7-2-5-2-8-7-9-12l-15-122c-1-6 1-11 5-14 4-4 10-5 15-3 30 9 51 35 56 68 4 34-10 65-36 82-3 2-6 3-9 3z m-267-492c-276 0-500 224-500 500 0 276 224 500 500 500 276 0 500-224 500-500 0-276-224-500-500-500z m0 980c-265 0-480-215-480-480 0-265 215-480 480-480 265 0 480 215 480 480 0 265-215 480-480 480z m-245-674c-3 0-7 0-10 1-38 12-64 44-69 86-5 41 12 79 44 101 11 7 24 7 35 2 11-5 19-16 21-28l15-122c2-12-3-24-12-32-7-5-15-8-24-8z m-15 174c-3 0-6-1-9-3-26-17-40-48-35-82 4-33 25-60 55-69 5-1 11 0 15 4 4 3 6 8 5 14l-15 122c-1 5-4 10-9 12-2 1-5 2-7 2z" horiz-adv-x="1000" />

<glyph glyph-name="fl-icon-57" unicode="&#xed1d;" d="M509 80c-2 0-4 1-5 2-4 2-81 50-154 125-62 64-95 144-87 208 5 41 27 74 63 97 84 52 158-26 183-56 24 30 99 108 183 56 35-23 57-56 62-97 8-65-25-144-86-208-70-72-146-120-154-125-2-1-3-2-5-2z m-124 429c-17 0-33-5-49-14-31-20-48-47-53-83-7-58 24-131 81-191 61-63 126-107 145-119 19 13 84 57 144 119 58 60 89 133 81 191-4 36-22 63-53 83-35 22-74 19-113-9-31-22-51-52-51-52-2-3-5-4-8-4-4 0-7 1-9 4 0 0-20 30-51 52-22 15-43 23-64 23z m115-659c-276 0-500 224-500 500 0 276 224 500 500 500 276 0 500-224 500-500 0-276-224-500-500-500z m0 980c-265 0-480-215-480-480 0-265 215-480 480-480 265 0 480 215 480 480 0 265-215 480-480 480z" horiz-adv-x="1000" />

<glyph glyph-name="fl-icon-58" unicode="&#xed1e;" d="M500 850c276 0 500-224 500-500 0-276-224-500-500-500-276 0-500 224-500 500 0 276 224 500 500 500z m0-980c265 0 480 215 480 480 0 265-215 480-480 480-265 0-480-215-480-480 0-265 215-480 480-480z m246 516c13-8 22-23 22-40 0-16-9-31-22-40l-219-139c-8-5-17-7-25-7-8 0-16 2-23 6-9 5-16 12-20 21l-64-41c-9-6-20-8-29-8-9 0-19 2-27 6-18 10-30 27-30 47v325c0 20 12 37 30 47 17 9 40 9 56-2l71-45c3 5 8 8 13 11 15 9 33 8 48-1z m-11-63c8 5 13 14 13 23 0 10-5 18-13 23l-218 140c-5 3-9 4-14 4-5 0-8-1-12-3-9-5-12-14-12-24v-279c0-10 3-19 12-24 9-4 17-4 25 1z m-348-160l72 44v279c0 4-2 9-1 13l-74 45c-6 4-12 6-18 6-6 0-12-2-18-5-10-6-19-17-19-29v-325c0-12 10-23 21-29 10-6 26-6 37 1z" horiz-adv-x="1000" />

<glyph glyph-name="fl-icon-59" unicode="&#xed1f;" d="M500 850c276 0 500-224 500-500s-224-500-500-500c-276 0-500 224-500 500s224 500 500 500z m0-980c265 0 480 215 480 480 0 265-215 480-480 480s-480-215-480-480 215-480 480-480z m162 680c27 0 46-22 46-49v-302c0-27-19-49-46-49h-8c-27 0-46 22-46 49v111c-10-3-6-5-9-7l-233-147c-8-5-17-7-26-7-9 0-17 2-25 6-16 9-27 25-27 43v293c0 19 11 35 27 44 16 8 37 8 52-2l232-147c3-2-1-4 9-6v121c0 27 19 49 46 49h8z m26-352v304c0 15-12 28-28 28h-3c-16 0-29-13-29-28v-304c0-16 13-28 29-28h3c16 0 28 12 28 28z m-363-26c9-5 21-5 30 1l232 147c8 5 13 15 13 25 0 10-5 19-14 24l-230 147c-5 3-11 5-16 5-5 0-11-1-15-4-10-5-17-15-17-26v-293c0-11 7-20 17-26z" horiz-adv-x="1000" />

<glyph glyph-name="fl-icon-60" unicode="&#xed20;" d="M500 850c276 0 500-224 500-500 0-276-224-500-500-500-276 0-500 224-500 500 0 276 224 500 500 500z m0-980c265 0 480 215 480 480s-215 480-480 480c-265 0-480-215-480-480 0-265 215-480 480-480z m201 621v-300c0-27-23-50-50-50h-300c-28 0-50 23-50 50v300c0 28 22 50 50 50h300c27 0 50-22 50-50z m-20-300v300c0 17-14 30-30 30h-300c-17 0-30-13-30-30v-300c0-16 13-30 30-30h300c16 0 30 14 30 30z" horiz-adv-x="1000" />

<glyph glyph-name="fl-icon-61" unicode="&#xed21;" d="M500 850c276 0 500-224 500-500s-224-500-500-500c-276 0-500 224-500 500s224 500 500 500z m0-980c265 0 480 215 480 480s-215 480-480 480-480-215-480-480 215-480 480-480z m242 598c5-2 8-8 6-13l-21-50c-1-4-5-6-9-6-1 0-2 0-4 1 0 0 0 0-1 1 0 0 0 0 0 0l-48 23c-5 3-7 9-4 14 2 5 8 7 13 4l27-13c-16 45-46 83-88 109-47 30-104 39-159 26-79-19-140-76-160-149-2-6-7-9-12-7-6 1-9 7-8 12 22 80 90 143 176 163 60 15 122 4 174-28 44-27 77-68 95-117l10 25c2 5 8 7 13 5z m-24-180c5-1 9-7 7-12-22-81-89-143-175-163-18-4-36-6-53-6-43 0-85 11-122 34-44 28-77 69-94 118l-10-25c-2-4-6-6-10-6-1 0-2 0-3 1-6 2-8 8-6 13l20 49c2 5 8 8 13 6 1 0 1-1 1-1 0 0 1 0 1 0l47-24c5-2 7-8 5-13-3-5-9-7-14-5l-27 14c16-46 47-84 88-110 48-29 104-39 159-26 79 19 141 76 161 149 1 6 7 9 12 7z" horiz-adv-x="1000" />

<glyph glyph-name="fl-icon-62" unicode="&#xed22;" d="M500 850c276 0 500-224 500-500 0-276-224-500-500-500-276 0-500 224-500 500 0 276 224 500 500 500z m0-980c265 0 480 215 480 480 0 265-215 480-480 480-265 0-480-215-480-480 0-265 215-480 480-480z m161 693c18-10 30-27 30-47v-325c0-20-12-37-30-47-8-4-19-6-27-6-10 0-20 2-29 8l-64 41c-4-9-11-16-20-21-7-4-15-6-23-6-8 0-17 2-25 7l-219 139c-13 9-21 24-21 40 0 17 8 32 21 40l219 140c15 9 33 10 48 1 6-3 10-6 14-11l71 45c17 11 38 11 55 2z m10-372l0 325c0 12-8 23-19 29-5 3-12 5-18 5-6 0-12-2-17-6l-71-45c2-4 5-9 5-13v-279l68-44c10-7 22-7 33-1 10 6 19 17 19 29z m-157-8c9 5 17 14 17 24v279c0 10-8 19-17 24-4 2-11 3-15 3-6 0-11-1-15-4l-219-140c-8-5-12-13-12-23 0-9 5-18 13-23l219-139c9-5 20-5 29-1z" horiz-adv-x="1000" />

<glyph glyph-name="fl-icon-63" unicode="&#xed23;" d="M500 850c276 0 500-224 500-500 0-276-224-500-500-500-276 0-500 224-500 500 0 276 224 500 500 500z m0-980c265 0 480 215 480 480 0 265-215 480-480 480-265 0-480-215-480-480 0-265 215-480 480-480z m210 521c14-9 23-24 23-41 0-17-9-33-23-42l-275-174c-8-5-18-8-27-8-8 0-17 2-24 6-16 9-28 25-28 43v350c0 18 12 34 28 43 16 9 36 8 51-2z m-11-66c9 6 13 15 13 25 0 10-5 19-13 25l-275 174c-5 3-10 5-16 5-5 0-10-1-15-4-9-5-17-15-17-25v-350c0-10 8-20 17-25 10-5 23-5 32 1z" horiz-adv-x="1000" />

<glyph glyph-name="fl-icon-64" unicode="&#xed24;" d="M500 850c276 0 500-224 500-500 0-276-224-500-500-500-276 0-500 224-500 500 0 276 224 500 500 500z m0-980c265 0 480 215 480 480 0 265-215 480-480 480-265 0-480-215-480-480 0-265 215-480 480-480z m184 665c16-9 26-25 26-44v-293c0-18-10-34-26-43-7-4-16-6-24-6-9 0-17 2-25 7l-230 147c-3 2-6 4-6 7v-111c0-27-26-45-53-45h-8c-26 0-49 18-49 45v302c0 27 23 54 49 54h8c27 0 53-27 53-54v-121c0 2 3 4 6 6l229 147c15 10 34 10 50 2z m6-337v293c0 11-6 21-16 26-4 3-9 4-14 4-6 0-11-2-16-5l-230-147c-9-5-14-14-14-24s5-20 14-25l230-147c9-6 21-6 30-1 10 6 16 15 16 26z m-321 5v303c0 16-12 29-28 29h-3c-16 0-29-13-29-29v-303c0-16 13-29 29-29h3c16 0 28 13 28 29z" horiz-adv-x="1000" />

<glyph glyph-name="fl-icon-65" unicode="&#xed25;" d="M500-150c-276 0-500 224-500 500 0 276 224 500 500 500 276 0 500-224 500-500 0-276-224-500-500-500z m0 984c-267 0-484-217-484-484 0-267 217-484 484-484 267 0 484 217 484 484 0 267-217 484-484 484z m-8-808v175h16v-175h-16z m8 169c-109 0-197 91-197 198h16c0-101 81-182 181-182 100 0 181 81 181 182h16c0-107-88-198-197-198z m0 82c-60 0-109 51-109 113v181c0 62 49 113 109 113 60 0 109-51 109-113v-181c0-62-49-113-109-113z m0 391c-51 0-93-43-93-97v-181c0-54 42-97 93-97 52 0 93 43 93 97v181c0 54-41 97-93 97z" horiz-adv-x="1000" />

<glyph glyph-name="fl-icon-66" unicode="&#xed26;" d="M500-150c-276 0-500 224-500 500 0 276 224 500 500 500 276 0 500-224 500-500 0-276-224-500-500-500z m0 984c-267 0-484-217-484-484 0-267 217-484 484-484 267 0 484 217 484 484 0 267-217 484-484 484z m-96-702v436h16v-436h-16z m170 0v436h16v-436h-16z" horiz-adv-x="1000" />

<glyph glyph-name="fl-icon-67" unicode="&#xed27;" d="M500-150c-276 0-500 224-500 500 0 276 224 500 500 500 276 0 500-224 500-500 0-276-224-500-500-500z m0 984c-267 0-484-217-484-484 0-267 217-484 484-484 267 0 484 217 484 484 0 267-217 484-484 484z m-61-665h-101v335h101v-335z m-85 16h69v303h-69v-303z m218-98l-143 91v320l143 106z m-127 100l111-71 0 12v445l-111-83v-303z m202-16l-284 429 14 8 283-428z" horiz-adv-x="1000" />

<glyph glyph-name="fl-icon-68" unicode="&#xed28;" d="M500-150c-276 0-500 224-500 500 0 276 224 500 500 500 276 0 500-224 500-500 0-276-224-500-500-500z m0 984c-267 0-484-217-484-484 0-267 217-484 484-484 267 0 484 217 484 484 0 267-217 484-484 484z m-214-691c-40 55-59 110-59 171 0 151 122 274 273 274 151 0 273-123 273-274 0-60-19-116-59-171l-13 9c38 52 56 105 56 162 0 142-115 258-257 258-142 0-257-116-257-258 0-57 18-110 56-162z m17 141l8 4c27 16 61 7 77-20l34-58c16-27 7-62-20-78l-7-4c-27-16-62-7-78 20l-34 58c-16 27-7 62 20 78z m391 0l-8 4c-27 16-61 7-77-20l-34-58c-16-27-7-62 20-78l7-4c27-16 62-7 78 20l34 58c16 27 7 62-20 78z" horiz-adv-x="1000" />

<glyph glyph-name="fl-icon-69" unicode="&#xed29;" d="M500-150c-276 0-500 224-500 500 0 276 224 500 500 500 276 0 500-224 500-500 0-276-224-500-500-500z m0 984c-267 0-484-217-484-484 0-267 217-484 484-484 267 0 484 217 484 484 0 267-217 484-484 484z m221-718l-406 234 406 234v-468h0z m-374 234l358-207v414z m-67-218v436h16v-436h-16z" horiz-adv-x="1000" />

<glyph glyph-name="fl-icon-70" unicode="&#xed2a;" d="M500-150c-276 0-500 224-500 500 0 276 224 500 500 500 276 0 500-224 500-500 0-276-224-500-500-500z m0 984c-267 0-484-217-484-484 0-267 217-484 484-484 267 0 484 217 484 484 0 267-217 484-484 484z m-220-718v468l405-234z m16 440v-413l358 207z m409-424v436h16v-436h-16z" horiz-adv-x="1000" />

<glyph glyph-name="fl-icon-71" unicode="&#xed2b;" d="M500-150c-276 0-500 224-500 500 0 276 224 500 500 500 276 0 500-224 500-500 0-276-224-500-500-500z m0 984c-267 0-484-217-484-484 0-267 217-484 484-484 267 0 484 217 484 484 0 267-217 484-484 484z m-215-590h16v-112h-16v112z m102-112l-4 274 16 0 4-274z m98 0l-1 439 16 0 1-439z m98 271h16v-271h-16v271z m101-48h16v-223h-16v223z" horiz-adv-x="1000" />

<glyph glyph-name="fl-icon-79" unicode="&#xed2c;" d="M500-150c-276 0-500 224-500 500 0 276 224 500 500 500 276 0 500-224 500-500 0-276-224-500-500-500z m0 984c-267 0-484-217-484-484 0-267 217-484 484-484 267 0 484 217 484 484 0 267-217 484-484 484z m-133-718v468l406-234z m16 441v-414l358 207z" horiz-adv-x="1000" />

<glyph glyph-name="fl-icon-80" unicode="&#xed2d;" d="M500-150c-276 0-500 224-500 500 0 276 224 500 500 500 276 0 500-224 500-500 0-276-224-500-500-500z m0 984c-267 0-484-217-484-484 0-267 217-484 484-484 267 0 484 217 484 484 0 267-217 484-484 484z m-125-282v16h341v-16h-341z m0-122v16h341v-16h-341z m0-128v16h341v-16h-341z m0-122v16h341v-16h-341z m-91 384c0 19 9 28 28 28s28-9 28-28-10-27-28-27-28 9-28 27z m0-122c0 19 9 28 28 28s28-9 28-28-10-28-28-28-28 10-28 28z m0-124c0 19 9 28 28 28s28-9 28-28-10-28-28-28-28 10-28 28z m0-126c0 19 9 28 28 28s28-9 28-28-10-27-28-27-28 9-28 27z" horiz-adv-x="1000" />

<glyph glyph-name="fl-icon-40" unicode="&#xf10c;" d="M987-123c5-5 6-11 3-17-2-6-8-10-14-10h-194-126-126-127-126-126-127c-8 0-16 7-16 16v951c0 7 4 13 10 15 6 2 13 1 17-3z m-189 5l140 0-898 897v-897h95v51c0 9 7 16 16 16s15-7 15-16v-51h95v51c0 9 7 16 16 16s16-7 16-16v-51h94v51c0 9 7 16 16 16s16-7 16-16v-51h95v51c0 9 7 16 16 16 8 0 15-7 15-16v-51h95v51c0 9 7 16 16 16 9 0 16-7 16-16v-51h94v51c0 9 7 16 16 16 9 0 16-7 16-16v-51 0z m-114 121c4-4 6-11 3-17-2-6-8-10-14-10h-522c-9 0-16 7-16 16v520c0 7 4 13 10 15 5 3 12 1 17-3z m-518 5h468l-468 466v-466z m189 416c7-6 7-16 0-22-3-3-7-5-11-5s-8 2-11 5l-236 236c-6 6-6 16 0 22 6 6 16 6 23 0z m85-92c6-6 6-16 0-23-3-3-7-4-12-4-4 0-8 1-11 4l-42 43c-6 6-6 16 0 22 6 6 16 6 23 0z m547-20c3-3 5-7 5-11 0-5-2-9-5-12l-167-166c-3-3-7-5-11-5-4 0-8 2-11 5l-119 119-365 364c0 0 0 0 0 1 0 0 0 0-1 0 0 0 0 1 0 1 0 0 0 0 0 1-1 0-1 0-1 0 0 0 0 0 0 1 0 0 0 0 0 0-1 1-1 1-1 1 0 0 0 0 0 1 0 0 0 0 0 0-1 1-1 1-1 1 0 1 0 1 0 1l0 0c0 0 0 0 0 0l-42 209c0 0 0 1 0 1 0 0 0 0 0 1 0 0 0 0 0 0 0 0 0 1 0 1 0 0 0 0 0 0 0 1 0 1 0 1 0 0 0 0 0 0 0 1 0 1 0 1 0 0 0 1 0 1 0 0 1 1 1 1 0 0 0 0 0 0 0 1 0 1 0 2 0 0 0 0 0 0 0 0 1 0 1 0 0 1 0 1 0 1 0 0 0 0 0 0 0 0 0 1 0 1 0 0 0 0 0 0 1 0 1 0 1 1 0 0 0 0 0 0 0 0 0 0 0 0 0 0 0 1 1 1l0 0c0 0 0 0 0 0 0 0 0 0 0 1 1 0 1 0 1 0 0 0 0 0 0 1 1 0 1 0 1 0 0 0 0 0 0 0 0 0 0 0 0 0 0 1 0 1 1 1 0 0 0 0 0 0 0 0 0 0 1 0 0 0 0 0 0 1 0 0 0 0 0 0 1 0 1 0 1 0 0 0 0 0 1 0 1 1 2 1 3 1 0 0 0 0 0 0 1 1 1 1 1 1l1 0 0 0c0 0 0 0 0 0 0 0 1 0 1 0 0 0 0 0 1 0 0 0 0 0 0 0 0 0 0 0 0 0 1 0 2-1 2-1l208-41 0 0 0 0c1 0 1 0 1 0 0 0 1-1 1-1 0 0 0 0 0 0 1 0 1 0 1 0 1 0 1 0 1-1 0 0 0 0 1 0 0 0 0 0 0 0 1 0 1-1 1-1 0 0 1 0 1 0 0 0 0 0 0-1 1 0 1 0 1 0 0-1 0-1 0-1l1 0c0 0 0 0 0 0l364-364z m-495 450l-31-31 342-343 31 32z m289-396l-342 342-19-18c0 0 0 0 0 0l-19-19 343-342z m-470 403l30 29-27 6-10 2z m8-38l16-82 33 33c0 0 0 0 0 0l30 30c0 0 0 0 0 0l62 62-82 17z m29-114l342-342 31 32-342 342z m461-461l145 145-97 96-102-102-43-42z m94 150c6-6 6-16 0-22-3-3-7-4-11-4s-8 1-12 4l-42 42c-6 6-6 16 0 23 7 6 17 6 23 0z m84 348c6-6 6-16 0-22l-113-113c-3-3-7-5-11-5-4 0-8 2-11 5l-120 119-59 60c-23 22-23 59 0 82l53 53c23 23 60 23 82 0l60-59z m-292 66l49-48 90 90-48 49c-10 10-27 10-37 0l-54-54c-10-10-10-27 0-37z m168-167l91 90-97 97-91-91z m53 101c6-6 6-16 0-22-4-3-8-4-12-4-4 0-8 1-11 4l-47 48c-7 6-7 16 0 22 6 6 16 6 22 0z" horiz-adv-x="1000" />

<glyph glyph-name="fl-icon-22" unicode="&#xf10f;" d="M984 842c9 0 16-7 16-16v-200-752c0-9-7-16-16-16h-968c-9 0-16 7-16 16v752 200c0 9 7 16 16 16h968z m-15-952l0 720h-938v-720h938z m0 751l0 169h-938v-169h938z m-135 134c9 0 16-7 16-16 0-8-7-15-16-15h-184c-8 0-15 7-15 15 0 9 7 16 15 16h184z m84 0c8 0 15-7 15-16 0-8-7-15-15-15h-34c-8 0-15 7-15 15 0 9 7 16 15 16h34z m-401 17c36 0 66-30 66-66 0-36-30-66-66-66-37 0-66 30-66 66 0 36 29 66 66 66z m0-101c19 0 34 16 34 35 0 19-15 34-34 34-19 0-35-15-35-34 0-19 16-35 35-35z m-184 101c36 0 66-30 66-66 0-36-30-66-66-66-36 0-66 30-66 66 0 36 30 66 66 66z m0-101c19 0 34 16 34 35 0 19-15 34-34 34-19 0-34-15-34-34 0-19 15-35 34-35z m-184 101c37 0 66-30 66-66 0-36-29-66-66-66-36 0-65 30-65 66 0 36 29 66 65 66z m0-101c19 0 35 16 35 35 0 19-16 34-35 34-19 0-34-15-34-34 0-19 15-35 34-35z m181-294c0-13-6-24-15-33l-121-115 120-108c20-17 21-47 4-67-9-9-22-15-35-15h0c-12 0-23 4-31 12l-159 142c-10 8-16 21-16 34 0 13 5 26 15 35l159 150c9 9 21 13 33 13 13 0 24-6 33-15s13-21 13-33z m-36-10c3 3 4 6 5 11 0 4-2 8-5 11-3 3-6 5-11 5 0 0 0 0 0 0-4 0-8-2-11-5l-159-150c-3-3-4-7-4-11 0-5 2-9 5-12l158-142c3-2 7-4 11-4 4 0 9 2 12 5 5 7 5 17-2 22l-133 120c-3 3-5 7-5 11 0 5 2 9 5 12z m614-105c10-9 15-22 15-35 0-13-6-26-16-34l-159-142c-8-8-19-12-31-12h0c-13 0-26 6-35 15-17 20-15 50 4 67l120 108-121 115c-19 18-20 48-2 66 18 19 48 20 66 2z m-22-46c4 3 5 7 5 12h0v0c1 4-1 8-4 11l-159 150c-3 3-7 5-11 5-4 0-8-2-11-5-6-6-6-16 0-22l134-127c4-3 5-7 5-12 0-4-2-8-5-11l-133-120c-7-5-7-15-1-22 3-3 7-5 11-5h0c4 0 8 2 11 4z m-265 158c3-13 1-25-5-36l-159-276c-8-14-24-23-40-23-9 0-17 2-24 6-22 13-30 42-17 64l158 276c13 22 42 30 65 17l0 0c11-6 18-16 22-28z m-32-20c2 3 2 7 1 11-1 4-3 8-7 10-2 1-5 2-8 2-5 0-10-3-13-8l-159-275c-4-8-2-17 6-22 2-1 5-2 8-2 5 0 10 3 13 8z" horiz-adv-x="1000" />

<glyph glyph-name="fl-icon-5" unicode="&#xf110;" d="M976 850c9 0 16-7 16-16v-791-51-126c0-9-7-16-16-16h-952c-8 0-16 7-16 16v126 59 783c0 9 8 16 16 16h952z m-16-968v94h-920v-94h920z m0 126l0 28-195 187-199-188c-4-3-8-4-13-4s-8 3-11 7l-257 356-245-348v-38h920z m0 72v738h-920v-717l232 330c3 4 8 6 13 6h0c5 0 10-2 13-6l259-360 198 185c6 6 15 6 21 0z m-304 467c74 0 134-60 134-134 0-74-60-133-134-133-74 0-134 59-134 133s60 134 134 134z m0-236c56 0 102 46 102 102s-46 102-102 102-102-45-102-102 46-102 102-102z m177 430c36 0 66-30 66-67 0-8-7-16-16-16-9 0-16 8-16 16 0 19-15 35-34 35-19 0-35-16-35-35 0-8-7-16-16-16s-16 8-16 16c0 19-15 35-34 35-20 0-35-16-35-35 0-8-7-16-16-16-9 0-16 8-16 16 0 19-15 35-34 35-20 0-35-16-35-35 0-8-7-16-16-16-9 0-16 8-16 16 0 37 30 67 67 67 20 0 38-10 50-24 12 14 30 24 51 24 20 0 38-10 50-24 12 14 30 24 51 24z m-548-135c37 0 67-30 67-66 0-9-7-16-16-16-9 0-16 7-16 16 0 19-16 34-35 34-19 0-34-15-34-34 0-9-7-16-16-16-9 0-16 7-16 16 0 19-16 34-35 34-19 0-34-15-34-34 0-9-8-16-16-16-9 0-16 7-16 16 0 36 30 66 66 66 20 0 39-9 51-24 12 15 30 24 50 24z" horiz-adv-x="1000" />

<glyph glyph-name="fl-icon-16" unicode="&#xf111;" d="M920 57c41-15 68-55 68-100 0-59-48-107-107-107-41 0-78 23-96 60h-572c-18-37-55-60-96-60-59 0-107 48-107 107 0 41 22 77 57 96v560c-35 19-57 55-57 96 0 59 48 107 107 107 42 0 80-24 97-62h412c26 0 47-21 47-48 0-26-21-47-47-47h-414c-11-21-28-38-49-48v-223h122c27 0 48-21 48-48 0-26-21-47-48-47h-122v-238c22-11 39-28 50-50h237v157c0 26 22 48 48 48 26 0 48-22 48-48v-157h239c9 18 22 33 40 44v453c0 27 21 48 47 48 27 0 48-21 48-48v-445z m-696 665c0-4 1-9 1-13 0-7-1-13-2-19h403c8 0 16 8 16 16s-8 16-16 16h-402z m61-366l-138 0c-9 0-16 8-16 16v230c-5-1-9-1-14-1-6 0-12 1-18 2v-540c6 1 12 2 18 2 5 0 9 0 14-1v245c0 8 7 16 16 16h138c9 0 16 7 16 15 0 9-7 16-16 16z m-243 353c0-31 18-59 47-71l0 0c9-3 18-5 28-5 8 0 17 1 25 4 20 7 37 23 45 43v0c4 9 6 19 6 29 0 8-2 16-5 24-10 31-39 51-71 51-42 0-75-34-75-75z m146-778c3 8 5 17 5 26 0 9-2 18-5 27-8 21-25 38-46 45-8 3-17 4-25 4-10 0-19-2-28-5 0 0 0 0 0 0-29-12-47-40-47-71 0-41 33-75 75-75 31 0 60 20 71 49z m587 10c-1 6-2 11-2 16s1 11 2 16h-245c-9 0-16 7-16 16v173c0 9-7 16-16 16-9 0-16-7-16-16v-173c0-9-7-16-16-16h-243c1-5 2-10 2-16s-1-10-2-16h552z m81 561l0-440c8 2 17 3 25 3 2 0 5 0 7 0v437c0 9-7 16-16 16-8 0-16-7-16-16z m25-620c42 0 75 34 75 75 0 35-23 65-56 74-6 1-13 2-19 2-12 0-23-3-33-8-18-8-31-23-38-41-3-9-5-18-5-27 0-9 2-18 5-26l0 0c11-29 40-49 71-49z m105 879c6-6 6-16 0-22l-257-257c0 0 0-1 0-1l-211-210c0-1 0-1 0-1-1 0-1 0-1 0 0 0 0-1 0-1 0 0-1 0-1 0 0 0 0 0 0 0 0 0-1-1-1-1 0 0 0 0 0 0 0 0 0 0-1 0 0 0 0 0 0-1 0 0-1 0-1 0 0 0 0 0 0 0 0 0-1 0-1 0 0 0 0 0 0 0l-123-41-24-24c-3-3-7-4-11-4-4 0-8 1-11 4-6 7-6 17 0 23l23 24 20 59 21 63c0 0 0 0 0 0 1 1 1 1 1 1 0 1 0 1 0 1 0 0 0 0 0 0 0 0 0 1 0 1 1 0 1 0 1 0 0 0 0 0 0 1 0 0 0 0 0 0 0 0 1 1 1 1 0 0 0 0 0 0 0 0 0 0 0 0 0 1 1 1 1 1 0 0 0 0 0 0l84 85 384 383c3 3 7 5 11 5 4 0 9-2 12-5z m-580-496l71 24-48 48-13-39z m300 239l246 246-62 62-372-373-73-73 62-62 198 199c0 0 1 0 1 1z" horiz-adv-x="1000" />

<glyph glyph-name="fl-icon-46" unicode="&#xf113;" d="M845 431c42 0 77-34 77-77v-489c0-8-7-15-15-15h-707c-8 0-15 7-15 15v489c0 43 34 77 77 77h465v133c0 46-18 90-52 123-33 33-77 50-123 50-95-1-172-80-172-176v-71c0-9-7-16-15-16h-83c-8 0-15 7-15 16v71c0 158 128 288 285 289l1 0c77 0 148-30 202-83 55-55 85-127 85-203v-133h5z m-148 278c39-39 61-91 61-145v-133h51v133c0 68-27 132-75 181-49 48-113 74-181 74l-1 0c-140-1-254-117-254-258v-56h51v56c0 113 91 206 202 207 55 1 107-21 146-59z m194-828v473c0 26-21 46-46 46h-21-82-480c-26 0-46-20-46-46v-473h675z m-310 285c77-13 136-80 136-161v-82c0-9-7-16-16-16h-295c-9 0-16 7-16 16v82c0 81 59 148 136 161-45 12-78 53-78 102 0 58 47 106 105 106s106-48 106-106c0-49-33-90-78-102z m-103 102c0-41 34-75 75-75s75 34 75 75-33 75-75 75-75-34-75-75z m208-330v67c0 73-60 133-133 133s-132-60-132-133v-67h265z m138 386c9 0 16-7 16-15v-205c0-9-7-16-16-16-8 0-15 7-15 16v205c0 8 7 15 15 15z m0-262c9 0 16-7 16-16v-82c0-9-7-15-16-15-8 0-15 6-15 15v82c0 9 7 16 15 16z m-667 446c9 0 16-7 16-16 0-8-7-15-16-15h-64c-8 0-15 7-15 15 0 9 7 16 15 16h64z m29 47c6-6 6-15 0-21-3-3-7-5-11-5-4 0-8 2-11 5l-40 40c-6 6-6 16 0 22 6 6 15 6 21 0z m0-104c6-6 6-16 0-22l-41-41c-3-3-7-4-11-4-4 0-8 1-11 4-6 6-6 16 0 22l41 41c6 6 16 6 22 0z" horiz-adv-x="1000" />

<glyph glyph-name="fl-icon-32" unicode="&#xf116;" d="M978 593c8 0 15-7 15-15v-176-536c0-9-7-16-15-16h-955c-9 0-16 7-16 16v536 176c0 8 7 15 16 15h84v69c0 8 7 15 16 15h117c9 0 16-7 16-15v-69h80l23 146c1 8 8 14 15 14h252c7 0 14-6 15-14l23-146h314z m-590 128l-20-128h264l-20 128h-224z m-249-75v-53h86v53h-86z m823-765l0 505h-266c40-46 63-106 63-168 0-143-116-259-259-259-46 0-90 12-130 35-13-21-37-35-63-35-41 0-74 33-74 74 0 28 15 52 38 65-19 37-30 78-30 120 0 62 23 122 63 168h-266v-505h924z m-655 217c16-27 39-50 65-68 0 0 0 0 0 0 0 0 0 0 0 0 38-26 82-40 128-40 125 0 227 102 227 228 0 66-29 129-79 172l0 0c-41 35-94 55-148 55s-107-20-148-55l0 0c-50-43-79-106-79-172 0-43 11-84 34-120 0 0 0 0 0 0 0 0 0 0 0 0z m37-87c-22 17-41 37-57 60-14-7-23-22-23-38 0-23 20-43 43-43 16 0 30 8 37 21z m618 407l0 144h-311l0 0 0 0h-302-109-117-85v-144h298c46 37 104 58 164 58 60 0 118-21 164-58h298z m-462-26c96 0 175-78 175-174s-79-175-175-175c-96 0-175 78-175 175s79 174 175 174z m0-318c79 0 144 64 144 144s-65 143-144 143c-79 0-143-64-143-143s64-144 143-144z m80 88c6-6 7-16 0-22-21-22-49-34-80-34-9 0-16 7-16 15 0 9 7 16 16 16 22 0 43 9 58 25 6 6 16 6 22 0z m-80 168c62 0 112-51 112-112 0-10-1-20-4-30-2-7-8-11-15-11-1 0-3 0-4 0-8 3-13 11-11 20 2 6 3 13 3 21 0 44-36 80-81 80-9 0-16 7-16 16 0 9 7 16 16 16z m385 12c9 0 16-7 16-16v-377c0-8-7-15-16-15s-15 7-15 15v377c0 9 7 16 15 16z m0 201c9 0 16-7 16-15v-67c0-9-7-16-16-16s-15 7-15 16v67c0 8 7 15 15 15z m-109 212c9 0 16-7 16-15 0-9-7-16-16-16h-65c-9 0-16 7-16 16 0 8 7 15 16 15h65z m-31-99c6-6 6-16 0-22-3-3-7-5-11-5-4 0-8 2-11 5l-41 41c-7 6-7 16 0 22 6 6 16 6 22 0z m1 189c6-6 6-16 0-22l-42-41c-3-3-7-5-11-5-4 0-8 2-11 5-6 6-6 16 0 22l41 41c7 7 17 7 23 0z" horiz-adv-x="1000" />

<glyph glyph-name="uniF117" unicode="&#xf117;" d="M517 850c82 0 149-67 149-149 0-83-67-149-149-149-83 0-150 66-150 149 0 82 67 149 150 149z m-16-150v52h-19v-52h19z m0 83v35c-58-8-102-57-102-117s44-109 102-117v18h-34c-9 0-16 7-16 15 0 9 7 16 16 16h34v35h-34c-9 0-16 7-16 16v84c0 8 7 15 16 15h34z m31-115v-35h19v35h-19z m0-84c58 8 103 57 103 117s-45 109-103 117v-35h35c9 0 16-7 16-15 0-9-7-16-16-16h-35v-52h35c9 0 16-7 16-16v-67c0-8-7-15-16-15h-35v-18z m278-470c8-4 11-13 7-21-26-56-84-93-146-93-8 0-15 7-15 16 0 9 7 16 15 16 50 0 97 29 118 74 4 8 13 11 21 8z m7 218c9 0 16-7 16-15v-101c0-8-7-15-16-15s-15 7-15 15v101c0 8 7 15 15 15z m67 184c64 0 116-52 116-116 0-58-44-107-100-115v-127c0-105-72-195-173-219l-11-76c-1-7-8-13-16-13h-100c-8 0-14 6-15 13l-10 70h-150l-10-70c-1-7-7-13-15-13h-100c-8 0-15 6-16 13l-10 71c-98 8-180 78-201 174l-60 9c-7 2-13 8-13 16v134c0 7 6 14 13 15l54 9v17c0 110 79 202 184 221v138c0 7 4 13 10 15 6 2 13 1 17-4l129-145h268c121 0 220-96 225-216 39 7 69 42 69 83 0 47-38 85-85 85-8 0-15 7-15 15s7 16 15 16z m-853-370l37-6c-1 6-1 12-1 18v101l-36-6v-107z m251 480v-93h9 74z m104-745l8 52h-88l7-52h73z m301 0l7 53c-6 0-12-1-19-1h-69l8-52h73z m182 419l0 8c0 107-87 193-194 193h-275-109c-106 0-193-86-193-193v-30-120c0-11 1-23 3-34 16-91 95-158 187-159h0 0l0 0c1 0 2 0 3 0h121 176 87c12 0 24 1 35 3 92 17 159 97 159 190v142z m-653 66c36 0 66-30 66-66 0-36-30-66-66-66-36 0-66 30-66 66 0 36 30 66 66 66z m0-101c19 0 35 16 35 35 0 19-16 34-35 34-19 0-34-15-34-34 0-19 15-35 34-35z m434 168c9 0 16-7 16-16v-84c0-8-7-15-16-15h-284c-8 0-15 7-15 15v84c0 9 7 16 15 16h284z m-15-84v52h-253v-52h253z" horiz-adv-x="1000" />

<glyph glyph-name="fl-icon-27" unicode="&#xf118;" d="M865 784c7-7 7-17 0-23l-36-37c-3-3-7-4-12-4s-8 1-11 4c-6 7-6 17 0 23l37 37c6 6 16 6 22 0z m85 36c40-40 40-104 0-144l-61-62 49-49c7-6 7-17 0-23l-61-61c-3-3-7-4-11-4-4 0-8 1-11 4l-50 50-83-83v-186c0-9-7-17-16-17h-186l-55-54h241c9 0 16-8 16-16v-309c0-9-7-16-16-16h-289c-9 0-16 7-16 16v278l-60-39v-239c0-9-7-16-16-16h-289c-9 0-16 7-16 16v309c0 8 7 16 16 16h186l36 54h-222c-9 0-16 8-16 17v308c0 9 7 16 16 16h289c9 0 16-7 16-16v-215l60 60v155c0 9 7 16 16 16h155l89 89-49 49c-7 7-7 17 0 23l60 61c7 6 17 6 23 0l50-49 61 61c40 40 105 40 144 0z m-517-266v-107l107 107h-107z m-381-276l227 0 27 41c0 1 1 2 2 3l1 1v231h-257v-276z m257-396l0 203-66-43c-3-2-6-3-9-3-4 0-8 2-11 5l-49 48c-5 6-6 14-2 21l30 45h-150v-276 0h257z m381 276h-257v-276h257v276z m0 120v138l-138-138h138z m5 188l88 88-99 98-94-93-161-162-92-92-5-5-31-47-56-87-39-60 30-30 80 52 92 59c1 0 1 0 1 0 0 1 0 1 0 1 0 0 0 0 0 0 0 0 1 0 1 0l20 14 72 71z m209 88l-49 49-122 121-49 50-38-38 49-49c0 0 0 0 0 0l122-122 49-49z m24 145c27 27 27 71 0 98-28 28-72 28-99 0l-62-61 99-99z m-488-341c6-6 6-16 0-22l-49-49c-3-3-7-5-11-5s-8 2-11 5c-7 6-7 16 0 23l48 48c6 7 17 7 23 0z m219 219c6-6 6-16 0-23l-170-170c-4-3-8-5-12-5s-8 2-11 5c-7 6-7 17 0 23l170 170c6 6 16 6 23 0z" horiz-adv-x="1000" />

<glyph glyph-name="fl-icon-44" unicode="&#xf119;" d="M146 353c9 0 16-7 16-16v-84c0-9-7-16-16-16h-84c-9 0-16 7-16 16v84c0 9 7 16 16 16h84z m-15-84v53h-53v-53h53z m49-51c9 0 16-7 16-15v-85c0-8-7-15-16-15h-84c-9 0-16 7-16 15v85c0 8 7 15 16 15h84z m-16-84l0 53h-52v-53h52z m378-168c9 0 16-7 16-16v-84c0-9-7-16-16-16h-84c-9 0-16 7-16 16v84c0 9 7 16 16 16h84z m-16-84v52h-52v-52h52z m-144 109c9 0 16-7 16-16v-84c0-9-7-16-16-16h-84c-9 0-16 7-16 16v84c0 9 7 16 16 16h84z m-16-84v52h-52v-52h52z m-119 177c9 0 16-7 16-16v-84c0-9-7-16-16-16h-84c-9 0-16 7-16 16v84c0 9 7 16 16 16h84z m-15-85v53h-53v-53h53z m706 354c9 0 16-7 16-16v-84c0-9-7-16-16-16h-84c-9 0-16 7-16 16v84c0 9 7 16 16 16h84z m-16-84v53h-52v-53h52z m-18-51c9 0 16-7 16-15v-85c0-8-7-15-16-15h-84c-9 0-16 7-16 15v85c0 8 7 15 16 15h84z m-16-84v53h-52v-53h52z m-186-143c9 0 16-7 16-16v-84c0-9-7-16-16-16h-84c-9 0-16 7-16 16v84c0 9 7 16 16 16h84z m-16-84v52h-52v-52h52z m151 177c9 0 16-7 16-16v-84c0-9-7-16-16-16h-84c-9 0-16 7-16 16v84c0 9 7 16 16 16h84z m-16-85v53h-53v-53h53z m-242 426c50-28 80-80 80-138 0-36-25-99-74-189-35-66-71-122-72-123-3-4-8-7-13-7s-10 3-13 7c-1 1-37 57-72 123-49 90-74 153-74 189 0 58 31 110 80 138l-21 408c0 5 1 9 4 12 3 3 8 5 12 5h168c5 0 9-2 12-5 3-3 4-7 4-12z m-11 393h-136l10-187h116z m-12-218h-112l8-162c16 5 32 8 48 8s33-3 48-8z m-56-587c45 74 127 219 127 274 0 49-27 93-71 114 0 0 0 0 0 0-18 9-36 13-56 13s-38-4-56-13c0 0 0 0 0 0-44-21-71-65-71-114 0-55 82-200 127-274z m57 204c8-4 11-13 7-21-9-20-20-43-34-67-3-5-8-8-14-8-2 0-5 0-7 2-8 4-11 13-6 21 12 24 24 46 33 65 4 8 13 12 21 8z m-57 166c53 0 96-43 96-96 0-3-1-17-13-48-2-6-8-10-15-10-2 0-4 0-5 1-9 3-13 12-10 20 10 26 11 36 11 37 0 35-29 64-64 64-9 0-16 7-16 16 0 9 7 16 16 16z" horiz-adv-x="1000" />

<glyph glyph-name="fl-icon-34" unicode="&#xf11a;" d="M678 612c33 0 59-26 59-58 0-30-22-54-51-58l-17-122v-75c0-9-7-16-16-16h-306c-9 0-16 7-16 16v75l-17 122c-29 4-51 28-51 58 0 32 27 58 59 58 32 0 58-26 58-58 0-14-5-28-14-38l72-108h2l35 170c-20 9-33 29-33 52 0 32 26 59 58 59s58-27 58-59c0-23-13-43-33-52l35-170h2l72 108c-9 10-14 24-14 38 0 32 26 58 58 58z m-204 18c0-13 9-24 22-26h0c3 0 5 0 8 0 13 2 23 13 23 26 0 15-12 27-27 27s-26-12-26-27z m26-87l-28-135h56z m-164-11c8 5 12 13 12 22 0 15-12 26-26 26-15 0-27-11-27-26 0-15 12-27 27-27 1 0 2 0 3 1l0 0h0l0 0c4 0 8 2 11 4z m11-45l12-79h41z m290-111l0 1h-66l0 0 0 0h-23l-1 0 0 0h-94l0 0 0 0h-24l0 0 0 0h-66v-1-61h274v61z m5 32l11 79-52-79h41z m36 119c15 0 27 12 27 27 0 15-12 26-27 26-14 0-26-11-26-26 0-9 4-17 12-22l0 0c3-2 7-4 11-4h0 0l0 0c1-1 2-1 3-1z m-178 323c206 0 373-167 373-373 0-200-346-604-361-622-3-3-7-5-12-5s-9 2-12 5c-15 18-361 422-361 622 0 206 168 373 373 373z m0-959c62 74 341 418 341 586 0 188-153 341-341 341s-341-153-341-341c0-168 279-512 341-586z m0 874c159 0 288-129 288-288 0-158-129-287-288-287s-288 129-288 287c0 159 129 288 288 288z m0-543c141 0 256 114 256 255 0 142-115 256-256 256s-256-114-256-256c0-141 115-255 256-255z" horiz-adv-x="1000" />

<glyph glyph-name="fl-icon-12" unicode="&#xf11f;" d="M876 215c8 0 15-7 15-15s-7-16-15-16h-34c-8 0-15 7-15 16 0 8 7 15 15 15h34z m83 318c9 0 16-7 16-16v-267-100c0-9-7-16-16-16h-114c-48-57-114-96-187-110v-76h17c9 0 16-7 16-16v-66c0-9-7-16-16-16h-33-568-33c-9 0-16 7-16 16v66c0 9 7 16 16 16h18v402c0 9 7 16 15 16h185c2 29 7 58 16 85h-151c-8 0-15 7-15 16v367c0 9 7 16 15 16h401 100c9 0 16-7 16-16v-155c46-6 90-23 130-48 39-25 73-59 99-98h89z m-418 127v-177h69v183 0 153h-69v-159z m-401-177h157 212v177 159h-369v-336z m-50-149v-386h536v89 297h-351-185z m570-417h-18-568-18v-36h18 568 18v36z m-2 139c54 12 104 39 144 78h-43c-9 0-16 7-16 16v100 267c0 9 7 16 16 16h73c-47 61-116 102-191 115v-181c0-9-7-16-16-16h-100-217c-10-27-16-56-17-85h351c9 0 16-7 16-16v-294z m286 109v69h-169v-69h63 106z m0 100v236h-82l0 0 0 0h-87v-236h169z m-369 435c9 0 16-7 16-16v-50c0-9-7-16-16-16-8 0-15 7-15 16v50c0 9 7 16 15 16z" horiz-adv-x="1000" />

<glyph glyph-name="fl-icon-28" unicode="&#xf120;" d="M250 535c8 0 15-7 15-15v-134c0-9-7-16-15-16h-134c-9 0-16 7-16 16v134c0 8 7 15 16 15h134z m-16-133v102h-102v-102h102z m216 133c9 0 16-7 16-15v-134c0-9-7-16-16-16h-134c-8 0-15 7-15 16v134c0 8 7 15 15 15h134z m-16-133v102h-102v-102h102z m-184-67c8 0 15-7 15-16v-133c0-9-7-16-15-16h-134c-9 0-16 7-16 16v133c0 9 7 16 16 16h134z m-16-134v103h-102v-103h102z m532 225c134-24 234-141 234-279 0-156-127-283-283-283-70 0-138 26-190 73-48 44-79 102-89 166h-422c-9 0-16 7-16 16v601c0 9 7 16 16 16h68v84c0 9 7 16 15 16h67c9 0 16-7 16-16v-84h152v84c0 9 7 16 16 16h67c8 0 15-7 15-16v-84h153v84c0 9 7 16 15 16h67c9 0 16-7 16-16v-84h68c8 0 15-7 15-16v-294z m-150 294v-84h35v84 85h-35v-85z m-251 0v-84h36v84 85h-36v-85z m-250 0v-84h35v84 85h-35v-85z m335-385c9 0 16-7 16-16v-43c3 8 7 15 12 22 17 28 40 52 66 72h-27c-9 0-16 7-16 16v134c0 8 7 15 16 15h133c9 0 16-7 16-15v-95c17 3 34 5 51 5 6 0 12 0 18-1v275h-52v-84c0-9-7-16-16-16h-67c-8 0-15 7-15 16v84h-153v-84c0-9-7-16-15-16h-67c-9 0-16 7-16 16v84h-152v-84c0-9-7-16-16-16h-67c-8 0-15 7-15 16v84h-53v-569h404c-1 4-1 8-1 12 0 8 1 15 1 23h-119c-8 0-15 7-15 16v133c0 9 7 16 15 16h134z m-16-31h-102v-103h102v103z m201 200h-103v-102h62c13 6 27 11 41 16v86z m82-609c139 0 252 113 252 252 0 127-95 234-220 250h0c-11 1-21 2-32 2-21 0-42-3-63-8l0 0c-17-5-33-11-49-19 0 0 0 0 0 0-86-43-139-129-139-225 0-9 0-18 1-27l0 0c13-128 121-225 250-225z m218 329c8-24 13-50 13-77 0-9-7-16-16-16s-15 7-15 16c0 23-4 45-12 67-3 8 1 17 10 20 8 3 17-2 20-10z m-28 54c5-7 3-17-4-22-3-2-6-2-9-2-5 0-10 2-13 6-26 38-65 66-110 79-8 2-13 11-10 19 2 9 11 13 19 11 51-14 96-47 127-91z m-190 46c98 0 178-79 178-177s-80-178-178-178-177 80-177 178 79 177 177 177z m0-323c81 0 146 65 146 146 0 81-65 146-146 146s-146-65-146-146 66-146 146-146z m92 150c9 0 16-7 16-15 0-9-7-16-16-16h-92c-8 0-15 7-15 16v91c0 9 7 16 15 16 9 0 16-7 16-16v-76h76z" horiz-adv-x="1000" />

<glyph glyph-name="fl-icon-19" unicode="&#xf126;" d="M829 560c4-8 0-17-7-21-2-1-5-1-7-1-6 0-11 3-14 9-13 29-29 56-46 80-5 7-4 17 3 22 7 5 17 3 22-4 19-26 35-55 49-85z m33-94c2-8-3-16-11-19-2 0-3 0-4 0-7 0-14 5-15 12-4 16-9 32-15 48-3 8 2 17 10 20 8 3 17-2 19-10 6-16 11-33 16-51z m-24 194c91-90 141-210 141-338 0-9-7-16-16-16h-4c-7 0-13 5-15 12-9 32-40 55-74 55s-64-23-73-55c-2-7-8-12-15-12h-8c0 0 0 0 0 0-1 0-1 0-1 0-9 0-16 7-16 16l0 1c-11 30-40 50-72 50-31 0-58-18-70-46 0-2 0-4 0-5 0-9-7-16-16-16 0 0-1 0-1 1-1 0-1-1-1-1h-8c-7 0-13 5-15 12-8 27-31 47-58 53v-414c0-42 34-76 76-76s76 34 76 76c0 9 7 16 16 16 8 0 15-7 15-16 0-59-48-107-107-107-55 0-101 42-107 95 0 2 0 3 0 5v7 414c-28-6-51-26-59-53-2-7-8-12-15-12h-7c-1 0-1 0-1 0-1 0-1 0-1 0h-1c-9 0-16 7-16 16 0 1 0 3 0 5-12 28-39 46-70 46-31 0-59-19-71-46 1-2 1-3 1-5 0-9-7-16-16-16h-2c0 0 0 0 0 0-1 0-1 0-1 0h-8c-6 0-13 5-14 12-10 32-40 55-74 55s-65-23-74-55c-2-7-8-12-15-12h-4c-9 0-15 7-15 16 0 128 49 248 140 338 86 87 201 136 323 140v35c0 8 6 15 15 15 9 0 16-7 16-15v-35c122-4 236-53 322-140z m-625-296c6 111 34 215 81 294 23 38 49 69 77 92-168-50-295-197-315-376 19 18 46 30 74 30 32 0 63-15 83-40z m173 13c3 105 13 203 29 278 10 47 22 82 36 106-108-37-192-191-206-383 19 16 44 26 70 26 27 0 52-10 71-27z m114 27c33 0 63-16 83-40-2 108-12 208-29 285-20 95-44 120-54 120-10 0-34-25-54-120-17-77-27-177-29-285 20 24 50 40 83 40z m185 0c27 0 51-10 70-26-14 192-98 346-206 383 14-24 26-59 36-106 16-75 26-173 29-278 19 17 44 27 71 27z m185 0c29 0 55-12 75-30-21 179-148 326-316 376 28-23 54-54 77-92 47-79 75-183 81-294 20 25 51 40 83 40z" horiz-adv-x="1000" />

</font>
</defs>
</svg>
