<?xml version="1.0" encoding="utf-8"?>
<!-- Generator: Adobe Illustrator 23.0.3, SVG Export Plug-In . SVG Version: 6.00 Build 0)  -->
<svg version="1.1" id="レイヤー_1" xmlns="http://www.w3.org/2000/svg" xmlns:xlink="http://www.w3.org/1999/xlink" x="0px"
	 y="0px" viewBox="0 0 139.7 35.9" style="enable-background:new 0 0 139.7 35.9;" xml:space="preserve">
<g>
	<g>
		<path d="M0,0.2h5.4c0.8,0,1.5,0.1,2.2,0.3c0.6,0.2,1.2,0.5,1.7,0.9c0.5,0.4,0.9,0.9,1.1,1.4c0.3,0.6,0.4,1.3,0.4,1.9
			c0,0.7-0.1,1.5-0.5,2.1c-0.3,0.6-0.7,1.1-1.2,1.5C8.7,8.9,8,9.2,7.4,9.4C6.7,9.6,5.9,9.7,5.2,9.7H1.6v5.1H0V0.2z M5.2,8.2
			c0.6,0,1.1-0.1,1.6-0.2c0.5-0.1,0.9-0.4,1.3-0.7c0.4-0.3,0.6-0.6,0.8-1C9.2,5.9,9.3,5.4,9.3,5c0.1-0.9-0.3-1.9-1.1-2.4
			C7.3,2,6.3,1.7,5.3,1.8H1.6v6.4L5.2,8.2z M21.1,15.1c-1,0-2.1-0.2-3-0.6c-1.8-0.8-3.2-2.2-3.9-4c-0.4-0.9-0.5-1.9-0.5-2.9
			c0-1,0.2-2,0.5-2.9C15.3,1.9,18.1,0,21.1,0c2,0,4,0.8,5.4,2.2c0.7,0.7,1.2,1.5,1.5,2.4c0.4,0.9,0.5,1.9,0.5,2.9c0,1-0.2,2-0.5,2.9
			c-0.3,0.9-0.9,1.7-1.5,2.4c-0.7,0.7-1.5,1.3-2.4,1.6C23.2,14.9,22.1,15.1,21.1,15.1z M21.1,13.5c0.8,0,1.6-0.1,2.3-0.5
			c0.7-0.3,1.3-0.7,1.8-1.3c0.5-0.6,0.9-1.2,1.2-1.9c0.3-0.7,0.4-1.5,0.4-2.3c0-0.8-0.1-1.6-0.4-2.3c-0.3-0.7-0.7-1.4-1.2-1.9
			c-0.5-0.6-1.1-1-1.8-1.3c-1.5-0.6-3.1-0.6-4.6,0c-0.7,0.3-1.3,0.7-1.8,1.3c-0.5,0.6-0.9,1.2-1.2,1.9c-0.3,0.7-0.4,1.5-0.4,2.3
			c0,0.8,0.1,1.6,0.4,2.3c0.3,0.7,0.7,1.4,1.2,1.9c0.5,0.5,1.1,1,1.8,1.3C19.5,13.4,20.3,13.6,21.1,13.5L21.1,13.5z M33.4,0.2H35
			v14.6h-1.6V0.2z M41,0.2h1.5l9.2,11.7V0.2h1.6v14.6H52L42.6,2.9v11.9H41V0.2z M62.5,1.8h-4.9V0.2H69v1.5h-4.8v13h-1.7V1.8z
			 M79.2,0.2h10.5v1.5h-8.9v5h8v1.5h-8v5.1h9v1.5H79.2V0.2z M94.4,0.2h5c1.1,0,2.1,0.2,3.1,0.6c0.9,0.3,1.8,0.9,2.5,1.5
			c0.7,0.6,1.2,1.4,1.6,2.3c0.4,0.9,0.6,1.9,0.6,2.9c0,1-0.2,2-0.6,2.9c-0.4,0.9-0.9,1.7-1.6,2.3c-0.7,0.7-1.5,1.2-2.5,1.5
			c-1,0.4-2.1,0.6-3.1,0.6h-5L94.4,0.2z M99.4,13.2c0.9,0,1.7-0.1,2.5-0.4c0.7-0.3,1.4-0.7,1.9-1.2c0.5-0.5,0.9-1.1,1.2-1.8
			c0.3-0.7,0.4-1.5,0.4-2.3c0-0.8-0.1-1.5-0.4-2.3c-0.6-1.4-1.7-2.5-3.1-3c-0.8-0.3-1.6-0.5-2.5-0.5H96v11.5L99.4,13.2z M118.3,15.1
			c-1.1,0-2.1-0.2-3.1-0.6c-0.9-0.4-1.7-0.9-2.3-1.6c-0.6-0.7-1.1-1.5-1.5-2.4c-0.3-0.9-0.5-1.9-0.5-2.9c0-1,0.2-1.9,0.5-2.9
			c0.3-0.9,0.8-1.7,1.5-2.4c1.3-1.5,3.3-2.3,5.3-2.3c0.6,0,1.1,0,1.7,0.1c0.5,0.1,1,0.2,1.4,0.4c0.4,0.2,0.8,0.4,1.2,0.6
			c0.4,0.3,0.8,0.5,1.1,0.8l-1.1,1.2c-0.3-0.2-0.6-0.5-0.9-0.7c-0.3-0.2-0.6-0.4-1-0.5c-0.4-0.2-0.8-0.3-1.2-0.4
			c-0.5-0.1-0.9-0.1-1.4-0.1c-0.8,0-1.5,0.2-2.2,0.5c-0.7,0.3-1.3,0.7-1.8,1.3c-0.5,0.6-0.9,1.2-1.1,1.9c-0.3,0.7-0.4,1.5-0.4,2.3
			c0,0.9,0.1,1.7,0.4,2.5c0.3,0.7,0.6,1.4,1.2,1.9c0.5,0.5,1.1,1,1.8,1.3c0.8,0.3,1.6,0.5,2.4,0.5c0.8,0,1.6-0.1,2.4-0.4
			c0.7-0.2,1.3-0.6,1.8-1V8.5h-4.5V7h6v5.8c-0.7,0.7-1.6,1.2-2.5,1.6C120.5,14.8,119.4,15.1,118.3,15.1z M129.1,0.2h10.5v1.5h-8.9v5
			h8v1.5h-8v5.1h9v1.5h-10.6V0.2z M0.1,27.2h3c0.4,0,0.7,0.1,1.1,0.2c0.3,0.1,0.5,0.2,0.8,0.5c0.3,0.3,0.4,0.7,0.4,1.1
			c0,0.2,0,0.4-0.1,0.6c-0.1,0.2-0.1,0.3-0.2,0.5c-0.1,0.1-0.2,0.2-0.3,0.3c-0.1,0.1-0.3,0.2-0.4,0.2c0.2,0.1,0.4,0.1,0.6,0.2
			c0.2,0.1,0.3,0.2,0.5,0.4c0.1,0.1,0.2,0.3,0.3,0.5c0.1,0.2,0.1,0.4,0.1,0.6c0,0.3-0.1,0.6-0.2,0.8c-0.1,0.2-0.3,0.4-0.5,0.6
			c-0.2,0.2-0.5,0.3-0.8,0.4c-0.3,0.1-0.7,0.1-1,0.1H0.1V27.2z M2.9,30.4c0.4,0,0.8-0.1,1.2-0.4c0.3-0.2,0.5-0.6,0.4-0.9
			c0-0.3-0.1-0.6-0.4-0.8C3.8,28,3.4,28,3,28H0.9v2.4L2.9,30.4z M3.2,33.5c0.4,0,0.9-0.1,1.3-0.3c0.3-0.2,0.5-0.6,0.5-0.9
			c0-0.4-0.2-0.7-0.5-0.9C4,31.2,3.6,31,3.1,31.1H0.9v2.5L3.2,33.5z M9.5,34.3c-0.3,0-0.6,0-0.8-0.2C8.4,34.1,8.2,34,8,33.8
			c-0.2-0.2-0.3-0.4-0.4-0.7c-0.1-0.3-0.1-0.6-0.1-0.8v-3.2h0.8v3c0,0.4,0.1,0.8,0.4,1.1c0.3,0.3,0.7,0.4,1.1,0.4
			c0.2,0,0.4,0,0.6-0.1c0.2-0.1,0.4-0.2,0.5-0.3c0.1-0.2,0.3-0.3,0.3-0.5c0.1-0.2,0.1-0.4,0.1-0.7v-3H12v5.2h-0.8v-0.9
			c-0.2,0.3-0.4,0.5-0.7,0.7C10.2,34.2,9.9,34.3,9.5,34.3z M15.8,34.3c-0.4,0-0.8-0.1-1.1-0.2c-0.4-0.1-0.7-0.3-1-0.6l0.4-0.5
			c0.3,0.2,0.6,0.4,0.9,0.5c0.3,0.1,0.6,0.2,0.9,0.2c0.3,0,0.5-0.1,0.8-0.2c0.2-0.1,0.3-0.4,0.3-0.6c0-0.1,0-0.2-0.1-0.3
			c-0.1-0.1-0.2-0.2-0.3-0.2c-0.1-0.1-0.3-0.1-0.4-0.2L15.7,32l-0.6-0.2c-0.2-0.1-0.4-0.2-0.6-0.3c-0.2-0.1-0.3-0.2-0.4-0.4
			C14,30.9,14,30.7,14,30.5c0-0.2,0-0.4,0.1-0.6c0.1-0.2,0.2-0.3,0.4-0.5c0.2-0.1,0.4-0.2,0.6-0.3c0.2-0.1,0.5-0.1,0.7-0.1
			c0.3,0,0.7,0.1,1,0.2c0.3,0.1,0.6,0.2,0.9,0.4l-0.4,0.6c-0.2-0.1-0.5-0.3-0.8-0.4c-0.2-0.1-0.5-0.1-0.8-0.1
			c-0.3,0-0.5,0.1-0.7,0.2c-0.2,0.1-0.3,0.3-0.3,0.5c0,0.1,0,0.2,0.1,0.3c0.1,0.1,0.2,0.2,0.3,0.2c0.1,0.1,0.3,0.1,0.4,0.2l0.5,0.2
			l0.6,0.2c0.2,0.1,0.4,0.2,0.5,0.3c0.2,0.1,0.3,0.2,0.4,0.4c0.1,0.2,0.2,0.4,0.1,0.6c0,0.2,0,0.5-0.1,0.7c-0.1,0.2-0.2,0.4-0.4,0.5
			c-0.2,0.1-0.4,0.2-0.6,0.3C16.4,34.3,16.1,34.3,15.8,34.3z M18.9,27.1h0.9v0.9h-0.9V27.1z M19,29.1h0.8v5.2H19L19,29.1z
			 M21.9,29.1h0.8V30c0.2-0.3,0.4-0.5,0.7-0.7c0.3-0.2,0.7-0.3,1.1-0.3c0.3,0,0.6,0,0.8,0.1c0.2,0.1,0.5,0.2,0.6,0.4
			c0.2,0.2,0.3,0.4,0.4,0.6c0.1,0.3,0.1,0.6,0.1,0.8v3.2h-0.8v-3c0-0.4-0.1-0.8-0.4-1.1c-0.3-0.3-0.7-0.4-1.1-0.4
			c-0.2,0-0.4,0-0.6,0.1c-0.2,0.1-0.4,0.2-0.5,0.3c-0.1,0.2-0.3,0.3-0.3,0.5c-0.1,0.2-0.1,0.4-0.1,0.7v3h-0.8V29.1z M28.9,32
			c0,0.3,0.1,0.5,0.2,0.7c0.1,0.2,0.2,0.4,0.4,0.5c0.2,0.1,0.4,0.3,0.6,0.3c0.2,0.1,0.4,0.1,0.7,0.1c0.3,0,0.6-0.1,0.9-0.2
			c0.3-0.1,0.5-0.3,0.7-0.5l0.5,0.4c-0.3,0.3-0.6,0.5-0.9,0.7c-0.4,0.2-0.8,0.3-1.2,0.3c-0.7,0-1.3-0.3-1.8-0.7
			c-0.2-0.3-0.4-0.5-0.6-0.9c-0.1-0.4-0.2-0.7-0.2-1.1c0-0.4,0.1-0.7,0.2-1c0.1-0.3,0.3-0.6,0.5-0.9c0.2-0.2,0.5-0.4,0.8-0.6
			c0.3-0.1,0.7-0.2,1-0.2c0.3,0,0.7,0.1,1,0.2c0.3,0.1,0.6,0.3,0.8,0.6c0.2,0.3,0.4,0.6,0.5,0.9C33,31,33,31.4,33,31.7v0.1
			c0,0.1,0,0.1,0,0.2H28.9z M32.3,31.4c0-0.2-0.1-0.4-0.2-0.7c-0.1-0.2-0.2-0.4-0.3-0.5c-0.1-0.2-0.3-0.3-0.5-0.4
			c-0.2-0.1-0.4-0.1-0.7-0.1c-0.2,0-0.4,0-0.6,0.1c-0.2,0.1-0.4,0.2-0.5,0.4c-0.2,0.2-0.3,0.3-0.4,0.5c-0.1,0.2-0.2,0.5-0.2,0.7
			L32.3,31.4z M36.5,34.3c-0.4,0-0.8-0.1-1.1-0.2c-0.4-0.1-0.7-0.3-1-0.6l0.4-0.5c0.3,0.2,0.6,0.4,0.9,0.5c0.3,0.1,0.6,0.2,0.9,0.2
			c0.3,0,0.5-0.1,0.8-0.2c0.2-0.1,0.3-0.4,0.3-0.6c0-0.1,0-0.2-0.1-0.3c-0.1-0.1-0.2-0.2-0.3-0.2c-0.1-0.1-0.3-0.1-0.4-0.2L36.3,32
			l-0.6-0.2c-0.2-0.1-0.4-0.2-0.5-0.3c-0.2-0.1-0.3-0.2-0.4-0.4c-0.1-0.2-0.2-0.4-0.2-0.6c0-0.2,0-0.4,0.1-0.6
			c0.1-0.2,0.2-0.3,0.4-0.5c0.2-0.1,0.4-0.2,0.6-0.3c0.2-0.1,0.5-0.1,0.7-0.1c0.3,0,0.7,0.1,1,0.2c0.3,0.1,0.6,0.2,0.9,0.4l-0.3,0.6
			c-0.2-0.1-0.5-0.3-0.8-0.4c-0.2-0.1-0.5-0.1-0.8-0.1c-0.3,0-0.5,0.1-0.7,0.2c-0.2,0.1-0.3,0.3-0.3,0.5c0,0.1,0,0.2,0.1,0.3
			c0.1,0.1,0.2,0.2,0.3,0.2c0.1,0.1,0.3,0.1,0.4,0.2l0.5,0.2l0.6,0.2c0.2,0.1,0.4,0.2,0.5,0.3c0.2,0.1,0.3,0.2,0.4,0.4
			c0.1,0.2,0.2,0.4,0.2,0.6c0,0.2,0,0.5-0.2,0.7c-0.1,0.2-0.2,0.4-0.4,0.5c-0.2,0.1-0.4,0.2-0.6,0.3C37,34.3,36.8,34.3,36.5,34.3z
			 M41.9,34.3c-0.4,0-0.8-0.1-1.1-0.2c-0.4-0.1-0.7-0.3-1-0.6l0.4-0.5c0.3,0.2,0.6,0.4,0.9,0.5c0.3,0.1,0.6,0.2,0.9,0.2
			c0.3,0,0.5-0.1,0.8-0.2c0.2-0.1,0.3-0.4,0.3-0.6c0-0.1,0-0.2-0.1-0.3c-0.1-0.1-0.2-0.2-0.3-0.2c-0.1-0.1-0.3-0.1-0.4-0.2L41.7,32
			l-0.6-0.2c-0.2-0.1-0.4-0.2-0.5-0.3c-0.2-0.1-0.3-0.2-0.4-0.4c-0.1-0.2-0.2-0.4-0.2-0.6c0-0.2,0-0.4,0.1-0.6
			c0.1-0.2,0.2-0.3,0.4-0.5c0.2-0.1,0.4-0.2,0.6-0.3c0.2-0.1,0.5-0.1,0.7-0.1c0.3,0,0.7,0.1,1,0.2c0.3,0.1,0.6,0.2,0.9,0.4l-0.3,0.6
			c-0.2-0.1-0.5-0.3-0.8-0.4c-0.2-0.1-0.5-0.1-0.8-0.1c-0.3,0-0.5,0.1-0.7,0.2c-0.2,0.1-0.3,0.3-0.3,0.5c0,0.1,0,0.2,0.1,0.3
			c0.1,0.1,0.2,0.2,0.3,0.2c0.1,0.1,0.3,0.1,0.4,0.2l0.5,0.2l0.6,0.2c0.2,0.1,0.4,0.2,0.5,0.3c0.2,0.1,0.3,0.2,0.4,0.4
			c0.1,0.2,0.2,0.4,0.2,0.6c0,0.2,0,0.5-0.2,0.7c-0.1,0.2-0.2,0.4-0.4,0.5c-0.2,0.1-0.4,0.2-0.6,0.3C42.4,34.3,42.1,34.3,41.9,34.3z
			 M49.1,27.2h2.4c0.5,0,1,0.1,1.5,0.3c0.4,0.2,0.8,0.4,1.2,0.7c0.3,0.3,0.6,0.7,0.8,1.1c0.2,0.4,0.3,0.9,0.3,1.4
			c0,0.5-0.1,1-0.3,1.4c-0.2,0.4-0.4,0.8-0.8,1.1c-0.4,0.3-0.8,0.6-1.2,0.8c-0.5,0.2-1,0.3-1.5,0.3h-2.4V27.2z M51.5,33.5
			c0.4,0,0.8-0.1,1.2-0.2c0.3-0.1,0.7-0.3,0.9-0.6c0.3-0.2,0.4-0.5,0.6-0.9c0.1-0.3,0.2-0.7,0.2-1.1c0-0.4-0.1-0.7-0.2-1.1
			c-0.1-0.3-0.3-0.6-0.6-0.9c-0.3-0.3-0.6-0.5-0.9-0.6c-0.4-0.2-0.8-0.2-1.2-0.2h-1.6v5.5L51.5,33.5z M57.6,32
			c0,0.3,0.1,0.5,0.2,0.7c0.1,0.2,0.2,0.4,0.4,0.5c0.2,0.1,0.4,0.3,0.6,0.3c0.2,0.1,0.4,0.1,0.7,0.1c0.3,0,0.6-0.1,0.9-0.2
			c0.3-0.1,0.5-0.3,0.7-0.5l0.5,0.4c-0.3,0.3-0.6,0.5-0.9,0.7c-0.4,0.2-0.8,0.3-1.2,0.3c-0.7,0-1.3-0.3-1.8-0.7
			c-0.2-0.3-0.4-0.5-0.6-0.9c-0.1-0.4-0.2-0.7-0.2-1.1c0-0.4,0-0.7,0.1-1.1c0.1-0.3,0.3-0.6,0.5-0.9c0.2-0.2,0.5-0.4,0.8-0.6
			c0.3-0.1,0.7-0.2,1-0.2c0.3,0,0.7,0.1,1,0.2c0.3,0.1,0.6,0.3,0.8,0.6c0.2,0.3,0.4,0.6,0.5,0.9c0.1,0.3,0.2,0.7,0.2,1.1v0.1
			c0,0,0,0.1,0,0.1L57.6,32z M61,31.3c0-0.2-0.1-0.4-0.2-0.7c-0.1-0.2-0.2-0.4-0.3-0.5c-0.1-0.2-0.3-0.3-0.5-0.4
			c-0.2-0.1-0.4-0.1-0.7-0.1c-0.2,0-0.4,0-0.6,0.1c-0.2,0.1-0.4,0.2-0.5,0.4c-0.2,0.2-0.3,0.3-0.4,0.5c-0.1,0.2-0.2,0.5-0.2,0.7
			L61,31.3z M65.2,34.3c-0.4,0-0.8-0.1-1.1-0.2c-0.4-0.1-0.7-0.3-1-0.6l0.4-0.5c0.3,0.2,0.6,0.4,0.9,0.5c0.3,0.1,0.6,0.2,0.9,0.2
			c0.3,0,0.5-0.1,0.8-0.2c0.2-0.1,0.3-0.4,0.3-0.6c0-0.1,0-0.2-0.1-0.3c-0.1-0.1-0.2-0.2-0.3-0.2c-0.1-0.1-0.3-0.1-0.4-0.2L65,31.9
			l-0.6-0.2c-0.2-0.1-0.4-0.2-0.6-0.3c-0.2-0.1-0.3-0.2-0.4-0.4c-0.1-0.2-0.2-0.4-0.2-0.6c0-0.2,0-0.4,0.1-0.6
			c0.1-0.2,0.2-0.3,0.4-0.5c0.2-0.1,0.4-0.2,0.6-0.3C64.6,29,64.8,29,65,29c0.3,0,0.7,0.1,1,0.2c0.3,0.1,0.6,0.2,0.9,0.4l-0.3,0.6
			c-0.2-0.1-0.5-0.3-0.8-0.4c-0.2-0.1-0.5-0.1-0.8-0.1c-0.3,0-0.5,0.1-0.7,0.2c-0.2,0.1-0.3,0.3-0.3,0.5c0,0.1,0,0.2,0.1,0.3
			c0.1,0.1,0.2,0.2,0.3,0.2c0.1,0.1,0.3,0.1,0.4,0.2l0.5,0.2l0.6,0.2c0.2,0.1,0.4,0.2,0.5,0.3c0.2,0.1,0.3,0.2,0.4,0.4
			c0.1,0.2,0.2,0.4,0.2,0.6c0,0.2,0,0.5-0.2,0.7c-0.1,0.2-0.2,0.4-0.4,0.5c-0.2,0.1-0.4,0.2-0.6,0.3C65.7,34.3,65.5,34.3,65.2,34.3z
			 M68.9,27.1h0.9v0.9h-0.9V27.1z M68.9,29.1h0.8v5.2H69L68.9,29.1z M74.2,35.9c-0.4,0-0.8-0.1-1.2-0.2c-0.4-0.1-0.8-0.3-1.1-0.5
			l0.3-0.6c0.3,0.2,0.6,0.4,0.9,0.5c0.3,0.1,0.7,0.2,1,0.2c0.5,0,1-0.1,1.4-0.5c0.4-0.4,0.5-0.9,0.5-1.4v-0.6
			c-0.2,0.3-0.5,0.6-0.8,0.8c-0.4,0.2-0.8,0.3-1.2,0.3c-0.3,0-0.6-0.1-0.9-0.2c-0.3-0.1-0.5-0.3-0.8-0.5c-0.2-0.2-0.4-0.5-0.6-0.8
			c-0.1-0.3-0.2-0.7-0.2-1c0-0.3,0.1-0.7,0.2-1c0.1-0.3,0.3-0.5,0.6-0.8c0.2-0.2,0.5-0.4,0.8-0.5c0.3-0.1,0.6-0.2,0.9-0.2
			c0.2,0,0.4,0,0.7,0.1c0.2,0,0.4,0.1,0.6,0.2c0.2,0.1,0.3,0.2,0.4,0.3c0.1,0.1,0.2,0.3,0.4,0.4v-0.9h0.8v4.3c0,0.4-0.1,0.7-0.2,1.1
			c-0.1,0.3-0.3,0.6-0.5,0.8c-0.2,0.2-0.5,0.4-0.8,0.5C74.9,35.8,74.6,35.9,74.2,35.9z M74.2,33.2c0.2,0,0.5-0.1,0.7-0.2
			c0.2-0.1,0.4-0.2,0.6-0.4c0.2-0.2,0.3-0.3,0.4-0.6c0.1-0.2,0.2-0.5,0.2-0.7c0-0.2,0-0.5-0.2-0.7c-0.2-0.4-0.6-0.7-1-0.9
			c-0.2-0.1-0.5-0.1-0.7-0.1c-0.2,0-0.5,0-0.7,0.1c-0.2,0.1-0.4,0.2-0.6,0.4c-0.2,0.2-0.3,0.3-0.4,0.5c-0.1,0.2-0.1,0.5-0.1,0.7
			c0,0.2,0,0.5,0.1,0.7c0.1,0.2,0.2,0.4,0.4,0.5c0.2,0.1,0.4,0.3,0.6,0.4C73.7,33.1,74,33.1,74.2,33.2L74.2,33.2z M79,29.1h0.8V30
			c0.2-0.3,0.4-0.5,0.7-0.7c0.3-0.2,0.7-0.3,1.1-0.3c0.3,0,0.6,0,0.8,0.1c0.2,0.1,0.5,0.2,0.6,0.4c0.2,0.2,0.3,0.4,0.4,0.6
			c0.1,0.3,0.1,0.6,0.1,0.8v3.2h-0.8v-3c0-0.4-0.1-0.8-0.4-1.1c-0.3-0.3-0.7-0.4-1.1-0.4c-0.2,0-0.4,0-0.6,0.1
			c-0.2,0.1-0.4,0.2-0.5,0.3c-0.1,0.2-0.3,0.3-0.3,0.5c-0.1,0.2-0.1,0.4-0.1,0.7v3H79V29.1z"/>
	</g>
</g>
</svg>
