<svg xmlns="http://www.w3.org/2000/svg" viewBox="0 0 47.04 14.25"><defs><style>.cls-1{fill:#fff}</style></defs><g id="レイヤー_2" data-name="レイヤー 2"><g id="レイヤー_1-2" data-name="レイヤー 1"><path class="cls-1" d="M6.22 2.32a2.62 2.62 0 0 1 1 .15L7.43.18A8.84 8.84 0 0 0 5.79 0C3.23 0 1.94 1 1.94 3.85v.59H0v2.31h1.88V14h3.2V6.75h2.28V4.44H5.08v-.59c0-.94.32-1.53 1.14-1.53zM9.03.22h3.2v13.8h-3.2zM14.96.44h3.2v2.43h-3.2zM14.96 4.44h3.2v9.59h-3.2zM26 11.82a2.54 2.54 0 0 1-2.63-2.53 2.43 2.43 0 0 1 2.45-2.65 3.38 3.38 0 0 1 1.93.54L28 4.75a5.59 5.59 0 0 0-2.55-.53c-3.05 0-5.38 1.84-5.38 5s2.33 5 5.38 5a8.27 8.27 0 0 0 2.62-.43L28 11.36a4.36 4.36 0 0 1-2 .46zM38.81 4.44h-3.5l-2.67 4.03h-.03V.22h-3.2v13.81h3.2V9.28h.03l2.56 4.75h3.88l-3.49-5.2 3.22-4.39zM46 4.21a2.87 2.87 0 0 0-2.73 2V4.44h-3V14h3.2v-4c0-1.88.83-3 2.32-3a3.61 3.61 0 0 1 1.09.11L47 4.33a6.06 6.06 0 0 0-1-.12z"/></g></g></svg>