<svg xmlns="http://www.w3.org/2000/svg" viewBox="0 0 298.14 59"><title>アセット 2</title><g id="レイヤー_2" data-name="レイヤー 2"><g id="レイヤー_1-2" data-name="レイヤー 1"><path d="M189.69,29.13H168.58V18h12.74a1.73,1.73,0,1,0,0-3.46H168.58V3.47h21.11a1.74,1.74,0,1,0,0-3.47H166.58a1.68,1.68,0,0,0-1.77,1.73h0V30.87h0a1.68,1.68,0,0,0,1.77,1.73h23.11A1.74,1.74,0,1,0,189.69,29.13Z"/><path d="M296.29,29.13H275.18V18h12.75a1.73,1.73,0,1,0,0-3.46H275.18V3.47h21.11a1.74,1.74,0,1,0,0-3.47h-23.1a1.69,1.69,0,0,0-1.78,1.73h0V30.87h0a1.68,1.68,0,0,0,1.77,1.73h23.1A1.74,1.74,0,1,0,296.29,29.13Z"/><path d="M224.89,5.07A15,15,0,0,0,213.13,0h-12a1.63,1.63,0,0,0-1.63,1.63V31a1.63,1.63,0,0,0,1.63,1.63h12c10.28,0,15.66-8.32,15.66-16.34A17.27,17.27,0,0,0,224.89,5.07ZM213.13,29.34h-9.82V3.26h9.82a11.82,11.82,0,0,1,9.29,3.94,14,14,0,0,1,3.11,9.06C225.53,22.46,221.65,29.34,213.13,29.34Z"/><path d="M251.09,33.24A16.62,16.62,0,1,1,262.63,4.66a1.8,1.8,0,1,1-2.5,2.6,13,13,0,1,0,.43,18.27V18.42h-7.85a1.81,1.81,0,1,1,0-3.61h9.66a1.81,1.81,0,0,1,1.81,1.81v9.6a1.79,1.79,0,0,1-.44,1.17A16.57,16.57,0,0,1,251.09,33.24Z"/><path d="M3.62,22.55v8.33c0,2.31-3.62,2.26-3.62.05V1.76A1.77,1.77,0,0,1,1.86,0h10.9c8.69,0,12.76,5.78,12.76,11.55,0,6-4.12,11-12.91,11Zm0-3.26h9c6.68,0,9.44-3.92,9.34-7.74-.05-4.12-3.32-8.29-9.14-8.29H3.62Z"/><path d="M144.3,0a1.74,1.74,0,1,1,0,3.47H133.53c0,9,.05,18.23.05,27.27a1.85,1.85,0,0,1-1.91,1.86,1.78,1.78,0,0,1-1.81-1.86V3.47H119.14a1.74,1.74,0,1,1,0-3.47Z"/><path d="M48.05,33.24A16.62,16.62,0,1,1,64.67,16.62,16.64,16.64,0,0,1,48.05,33.24Zm0-29.63a13,13,0,1,0,13,13A13,13,0,0,0,48.05,3.61Z"/><path d="M73.87,32.59a1.8,1.8,0,0,1-1.81-1.8v-29a1.81,1.81,0,0,1,3.61,0v29A1.8,1.8,0,0,1,73.87,32.59Z"/><path d="M109.1,32.59a1.8,1.8,0,0,1-1.4-.66l-20.28-25V30.79a1.81,1.81,0,0,1-3.61,0v-29A1.81,1.81,0,0,1,87,.67l20.28,25V1.81a1.81,1.81,0,1,1,3.61,0v29a1.8,1.8,0,0,1-1.2,1.7A1.86,1.86,0,0,1,109.1,32.59Z"/><path d="M6.8,47.17A4,4,0,0,1,8,47.78a2.53,2.53,0,0,1,.78.94A2.86,2.86,0,0,1,9.07,50,3.05,3.05,0,0,1,8.91,51a2.86,2.86,0,0,1-.43.79,3,3,0,0,1-.6.58,3.88,3.88,0,0,1-.69.38,5.42,5.42,0,0,1,1,.41,3.25,3.25,0,0,1,.81.59,2.83,2.83,0,0,1,.54.83,2.88,2.88,0,0,1,.2,1.1,3.15,3.15,0,0,1-.3,1.39,2.93,2.93,0,0,1-.88,1,4.09,4.09,0,0,1-1.36.65A6.48,6.48,0,0,1,5.43,59H.15V47H5.21A5.67,5.67,0,0,1,6.8,47.17ZM7,51.77a1.88,1.88,0,0,0,.76-1.62,1.76,1.76,0,0,0-.68-1.45,3.06,3.06,0,0,0-1.95-.54H1.5v4.17H5A3.28,3.28,0,0,0,7,51.77Zm.64,5.46a1.88,1.88,0,0,0,.78-1.61,1.76,1.76,0,0,0-.8-1.55,4.19,4.19,0,0,0-2.35-.54H1.5V57.8h4A3.54,3.54,0,0,0,7.61,57.23Z"/><path d="M31.3,53.67A6.81,6.81,0,0,1,30.94,56a4.38,4.38,0,0,1-1,1.67,4,4,0,0,1-1.56,1,5.69,5.69,0,0,1-2,.34,5.58,5.58,0,0,1-2-.34,4.08,4.08,0,0,1-1.56-1,4.44,4.44,0,0,1-1-1.65,6.73,6.73,0,0,1-.35-2.25v-7h1.34v6.92a4.32,4.32,0,0,0,1,3,3.46,3.46,0,0,0,2.67,1,3.51,3.51,0,0,0,2.62-1,4.11,4.11,0,0,0,1-3v-7H31.3Z"/><path d="M44.14,50.56a1.51,1.51,0,0,0,.49.63,3.49,3.49,0,0,0,1,.51,10,10,0,0,0,1.61.44,7.07,7.07,0,0,1,2.93,1.24,2.7,2.7,0,0,1,.94,2.19A3.24,3.24,0,0,1,50.8,57,3.2,3.2,0,0,1,50,58.07a3.75,3.75,0,0,1-1.28.69,5.31,5.31,0,0,1-1.63.24,7.09,7.09,0,0,1-2.61-.47,7.51,7.51,0,0,1-2.25-1.44l.84-1a6.83,6.83,0,0,0,1.88,1.28,5.19,5.19,0,0,0,2.19.43A3,3,0,0,0,49,57.23a1.82,1.82,0,0,0,.72-1.5,1.89,1.89,0,0,0-.14-.77,1.57,1.57,0,0,0-.47-.61,3.47,3.47,0,0,0-.95-.5,11.81,11.81,0,0,0-1.54-.43,12,12,0,0,1-1.78-.52,4.49,4.49,0,0,1-1.25-.7,2.62,2.62,0,0,1-.73-1,3.23,3.23,0,0,1-.24-1.31A3,3,0,0,1,43,48.6a2.94,2.94,0,0,1,.82-1A3.65,3.65,0,0,1,45,46.87a4.56,4.56,0,0,1,1.56-.25,6.57,6.57,0,0,1,2.28.36,7,7,0,0,1,1.9,1.1L50,49.13a5.78,5.78,0,0,0-1.67-1,4.94,4.94,0,0,0-1.76-.31,3.39,3.39,0,0,0-1,.15,2.88,2.88,0,0,0-.8.42,1.79,1.79,0,0,0-.51.62,1.71,1.71,0,0,0-.18.77A2.13,2.13,0,0,0,44.14,50.56Z"/><path d="M63.79,47V59H62.45V47Z"/><path d="M84.51,47h1.31V59H84.75l-7.68-9.87V59h-1.3V47H77l7.49,9.65Z"/><path d="M106.27,48.2H99v4.11h5.48v1.24H99v4.21h7.33V59H97.67V47h8.6Z"/><path d="M118.71,50.56a1.54,1.54,0,0,0,.5.63,3.29,3.29,0,0,0,1,.51,10.29,10.29,0,0,0,1.61.44,7,7,0,0,1,2.93,1.24,2.71,2.71,0,0,1,1,2.19,3.11,3.11,0,0,1-.31,1.41,3.08,3.08,0,0,1-.83,1.09,3.7,3.7,0,0,1-1.27.69,5.37,5.37,0,0,1-1.64.24,7,7,0,0,1-2.6-.47,7.27,7.27,0,0,1-2.25-1.44l.83-1a6.83,6.83,0,0,0,1.88,1.28,5.27,5.27,0,0,0,2.2.43,3,3,0,0,0,1.92-.57,1.82,1.82,0,0,0,.72-1.5,2.07,2.07,0,0,0-.13-.77,1.51,1.51,0,0,0-.48-.61,3.54,3.54,0,0,0-.94-.5,12.79,12.79,0,0,0-1.54-.43,11.61,11.61,0,0,1-1.78-.52,4.35,4.35,0,0,1-1.25-.7,2.65,2.65,0,0,1-.74-1,3.41,3.41,0,0,1-.23-1.31,3,3,0,0,1,.28-1.32,3.18,3.18,0,0,1,.82-1,3.65,3.65,0,0,1,1.24-.69,4.64,4.64,0,0,1,1.56-.25,6.63,6.63,0,0,1,2.29.36,6.79,6.79,0,0,1,1.89,1.1l-.78,1.05a5.91,5.91,0,0,0-1.67-1,5,5,0,0,0-1.76-.31,3.41,3.41,0,0,0-1,.15,2.81,2.81,0,0,0-.79.42,1.59,1.59,0,0,0-.51.62,1.71,1.71,0,0,0-.18.77A2.13,2.13,0,0,0,118.71,50.56Z"/><path d="M137.9,50.56a1.62,1.62,0,0,0,.5.63,3.42,3.42,0,0,0,1,.51,10.14,10.14,0,0,0,1.62.44,7.13,7.13,0,0,1,2.93,1.24,2.74,2.74,0,0,1,.94,2.19,3.24,3.24,0,0,1-.3,1.41,3.1,3.1,0,0,1-.84,1.09,3.7,3.7,0,0,1-1.27.69,5.35,5.35,0,0,1-1.63.24,7,7,0,0,1-2.61-.47A7.27,7.27,0,0,1,136,57.09l.83-1a6.72,6.72,0,0,0,1.89,1.28,5.19,5.19,0,0,0,2.19.43,3,3,0,0,0,1.92-.57,1.8,1.8,0,0,0,.73-1.5,2.07,2.07,0,0,0-.14-.77,1.51,1.51,0,0,0-.48-.61,3.39,3.39,0,0,0-.94-.5,12.28,12.28,0,0,0-1.54-.43,11.61,11.61,0,0,1-1.78-.52,4.35,4.35,0,0,1-1.25-.7,2.52,2.52,0,0,1-.73-1,3.23,3.23,0,0,1-.24-1.31,2.9,2.9,0,0,1,.29-1.32,3,3,0,0,1,.81-1,3.75,3.75,0,0,1,1.24-.69,4.64,4.64,0,0,1,1.56-.25,6.59,6.59,0,0,1,2.29.36,6.79,6.79,0,0,1,1.89,1.1l-.78,1.05a5.78,5.78,0,0,0-1.67-1,5,5,0,0,0-1.76-.31,3.35,3.35,0,0,0-1,.15,2.74,2.74,0,0,0-.8.42A1.79,1.79,0,0,0,138,49a1.71,1.71,0,0,0-.18.77A2.13,2.13,0,0,0,137.9,50.56Z"/><path d="M179.67,55.35a5.73,5.73,0,0,1-1.3,1.91,6.18,6.18,0,0,1-2,1.28,6.86,6.86,0,0,1-2.56.46h-4.13V47h4.13a6.86,6.86,0,0,1,2.56.46,6,6,0,0,1,2,1.26,5.73,5.73,0,0,1,1.3,1.91,6,6,0,0,1,.46,2.37A6.13,6.13,0,0,1,179.67,55.35Zm-1.28-4.23a4.44,4.44,0,0,0-1-1.52,4.39,4.39,0,0,0-1.55-1,5.33,5.33,0,0,0-2-.37H171v9.52h2.79a5.53,5.53,0,0,0,2-.36,4.4,4.4,0,0,0,2.54-2.51,5,5,0,0,0,.35-1.87A5.11,5.11,0,0,0,178.39,51.12Z"/><path d="M200.05,48.2H192.8v4.11h5.49v1.24H192.8v4.21h7.33V59h-8.67V47h8.59Z"/><path d="M212.5,50.56a1.51,1.51,0,0,0,.49.63,3.42,3.42,0,0,0,1,.51,10.14,10.14,0,0,0,1.62.44,7.13,7.13,0,0,1,2.93,1.24,2.7,2.7,0,0,1,.94,2.19,3.24,3.24,0,0,1-.3,1.41,3.2,3.2,0,0,1-.83,1.09,3.75,3.75,0,0,1-1.28.69,5.31,5.31,0,0,1-1.63.24,7.09,7.09,0,0,1-2.61-.47,7.27,7.27,0,0,1-2.25-1.44l.83-1a6.87,6.87,0,0,0,1.89,1.28,5.19,5.19,0,0,0,2.19.43,3.06,3.06,0,0,0,1.93-.57,1.82,1.82,0,0,0,.72-1.5A2.07,2.07,0,0,0,218,55a1.51,1.51,0,0,0-.48-.61,3.39,3.39,0,0,0-.94-.5,12.28,12.28,0,0,0-1.54-.43,12,12,0,0,1-1.78-.52,4.49,4.49,0,0,1-1.25-.7,2.62,2.62,0,0,1-.73-1,3.26,3.26,0,0,1-.24-1.31,2.9,2.9,0,0,1,.29-1.32,3.06,3.06,0,0,1,.81-1.05,3.91,3.91,0,0,1,1.24-.68,4.64,4.64,0,0,1,1.56-.25,6.59,6.59,0,0,1,2.29.36,6.79,6.79,0,0,1,1.89,1.1l-.78,1.05a5.78,5.78,0,0,0-1.67-1,5,5,0,0,0-1.76-.31,3.39,3.39,0,0,0-1,.15,2.88,2.88,0,0,0-.8.42,1.79,1.79,0,0,0-.51.62,1.71,1.71,0,0,0-.18.77A2.13,2.13,0,0,0,212.5,50.56Z"/><path d="M232.15,47V59h-1.34V47Z"/><path d="M252.36,58.46a6.6,6.6,0,0,1-2.72.54,6.29,6.29,0,0,1-2.52-.48,5.52,5.52,0,0,1-1.91-1.33,5.74,5.74,0,0,1-1.2-2,7,7,0,0,1-.42-2.43,6.73,6.73,0,0,1,.43-2.37,6.36,6.36,0,0,1,1.22-2,5.67,5.67,0,0,1,4.31-1.87,8.23,8.23,0,0,1,1.37.1,5.7,5.7,0,0,1,1.15.31,5.62,5.62,0,0,1,1,.51,8,8,0,0,1,.91.68l-.87,1a6.23,6.23,0,0,0-.71-.56,4.47,4.47,0,0,0-.81-.43,4.57,4.57,0,0,0-.95-.28,5.83,5.83,0,0,0-1.15-.11,4.11,4.11,0,0,0-1.82.4,4.29,4.29,0,0,0-1.42,1.07,5,5,0,0,0-.94,1.57,5.85,5.85,0,0,0,0,3.93,4.64,4.64,0,0,0,.94,1.6,4.52,4.52,0,0,0,1.48,1.05,4.81,4.81,0,0,0,1.95.38,5.12,5.12,0,0,0,1.92-.36,5.57,5.57,0,0,0,1.51-.85v-3H249.5v-1.2h4.91v4.78A7.42,7.42,0,0,1,252.36,58.46Z"/><path d="M274.67,47H276V59h-1.07l-7.67-9.87V59h-1.31V47h1.25l7.49,9.65Z"/></g></g></svg>