<svg xmlns="http://www.w3.org/2000/svg" viewBox="0 0 121.19 13.07"><defs><style>.cls-1{fill:#fff}</style></defs><g id="レイヤー_2" data-name="レイヤー 2"><g id="レイヤー_1-2" data-name="レイヤー 1"><path class="cls-1" d="M0 .22h4.73A6.23 6.23 0 0 1 6.67.5a4.47 4.47 0 0 1 1.5.79 3.44 3.44 0 0 1 .95 1.25 4 4 0 0 1 .34 1.68A3.75 3.75 0 0 1 8 7.35a4.58 4.58 0 0 1-1.58.78 6.65 6.65 0 0 1-1.92.26H1.43v4.46H0zm4.56 6.89A4.87 4.87 0 0 0 6 6.91a3.19 3.19 0 0 0 1.1-.57 2.61 2.61 0 0 0 .71-.88A2.58 2.58 0 0 0 8 4.32a2.42 2.42 0 0 0-.9-2.09 4.06 4.06 0 0 0-2.47-.7h-3.2v5.58zM18.28 13.07a6.39 6.39 0 0 1-2.62-.53 6.11 6.11 0 0 1-2-1.41 6.33 6.33 0 0 1-1.31-2.08 6.7 6.7 0 0 1-.46-2.48A6.84 6.84 0 0 1 12.33 4 6.33 6.33 0 0 1 15.69.53 6.85 6.85 0 0 1 21 .52a6.35 6.35 0 0 1 2 1.42A6.5 6.5 0 0 1 24.29 4a6.87 6.87 0 0 1 .46 2.48A6.85 6.85 0 0 1 24.28 9 6.7 6.7 0 0 1 23 11.11a6.32 6.32 0 0 1-4.68 2zm0-1.32a4.74 4.74 0 0 0 2-.41 4.83 4.83 0 0 0 1.56-1.11 5.28 5.28 0 0 0 1-1.64 5.58 5.58 0 0 0 .37-2 5.67 5.67 0 0 0-.37-2 5.2 5.2 0 0 0-1-1.65 5.1 5.1 0 0 0-1.58-1.12 5.12 5.12 0 0 0-4 0 4.62 4.62 0 0 0-1.56 1.11 5.39 5.39 0 0 0-1.36 3.57 5.43 5.43 0 0 0 .37 2 5 5 0 0 0 1 1.66 4.8 4.8 0 0 0 1.58 1.11 4.67 4.67 0 0 0 2.03.48zM29 .22h1.4v12.63H29zM35.54.22h1.34l8 10.12V.22h1.39v12.63h-1.18L36.93 2.49v10.36h-1.39zM54.22 1.53H50V.22h9.91v1.31h-4.26v11.32h-1.43zM68.72.22h9.13V1.5h-7.71v4.35H77v1.28h-6.9v4.44h7.8v1.28h-9.18zM81.89.22h4.39A7.47 7.47 0 0 1 89 .7 6.29 6.29 0 0 1 91.12 2a6 6 0 0 1 1.39 2A6.34 6.34 0 0 1 93 6.5a6.51 6.51 0 0 1-.49 2.5 6.05 6.05 0 0 1-1.39 2A6.47 6.47 0 0 1 89 12.36a7.27 7.27 0 0 1-2.72.49h-4.39zm4.39 11.31a6 6 0 0 0 2.16-.37 5 5 0 0 0 1.66-1.05 4.58 4.58 0 0 0 1-1.58 5.1 5.1 0 0 0 .37-2 5.05 5.05 0 0 0-.37-1.95 4.62 4.62 0 0 0-1-1.58 4.9 4.9 0 0 0-1.66-1.07 5.77 5.77 0 0 0-2.16-.39h-3v10zM102.6 13.07a6.67 6.67 0 0 1-2.68-.51 5.92 5.92 0 0 1-2-1.39 6.17 6.17 0 0 1-1.28-2.06 7.33 7.33 0 0 1-.44-2.54 6.74 6.74 0 0 1 .46-2.48A6.62 6.62 0 0 1 97.92 2a6.1 6.1 0 0 1 4.59-2 9.2 9.2 0 0 1 1.49.11 6.51 6.51 0 0 1 1.23.32 5.56 5.56 0 0 1 1.06.54 8.87 8.87 0 0 1 1 .71l-.92 1.08a7 7 0 0 0-.76-.59 5.83 5.83 0 0 0-.86-.45 5.7 5.7 0 0 0-1-.29 5.76 5.76 0 0 0-1.22-.11 4.57 4.57 0 0 0-1.93.41A4.84 4.84 0 0 0 99 2.85a5.26 5.26 0 0 0-1 1.65 5.58 5.58 0 0 0-.36 2A6.17 6.17 0 0 0 98 8.63a5 5 0 0 0 1 1.66 4.74 4.74 0 0 0 1.57 1.1 5.32 5.32 0 0 0 2.08.4 5.77 5.77 0 0 0 2-.37 6.15 6.15 0 0 0 1.61-.9V7.38h-3.85V6.1h5.22v5a8.18 8.18 0 0 1-2.18 1.36 7.07 7.07 0 0 1-2.85.61zM112 .22h9.14V1.5h-7.71v4.35h6.9v1.28h-6.9v4.44h7.8v1.28H112z"/></g></g></svg>