<svg xmlns="http://www.w3.org/2000/svg" xmlns:xlink="http://www.w3.org/1999/xlink" viewBox="0 0 186.33 46.84"><g data-name="レイヤー 2"><g data-name="レイヤー 1"><path d="M46.64 11.23h5.45a7.17 7.17 0 0 1 2.24.33 5.18 5.18 0 0 1 1.73.91 4 4 0 0 1 1.1 1.45 4.59 4.59 0 0 1 .38 1.93 4.27 4.27 0 0 1-1.69 3.56 5.46 5.46 0 0 1-1.82.91 8 8 0 0 1-2.21.3h-3.53v5.18h-1.65zm5.25 8a5.6 5.6 0 0 0 1.64-.23 3.7 3.7 0 0 0 1.28-.66 2.92 2.92 0 0 0 .81-1A3 3 0 0 0 55.9 16v-.05a2.77 2.77 0 0 0-1.07-2.36 4.63 4.63 0 0 0-2.83-.84h-3.71v6.43zM67.72 26.05a7.29 7.29 0 0 1-3-.61 7.08 7.08 0 0 1-2.34-1.63 7.41 7.41 0 0 1-1.51-2.39 7.89 7.89 0 0 1-.53-2.86 7.83 7.83 0 0 1 .54-2.88 7.48 7.48 0 0 1 1.52-2.4 7.65 7.65 0 0 1 8.42-1.65 7.08 7.08 0 0 1 2.34 1.63 7.41 7.41 0 0 1 1.51 2.39 7.89 7.89 0 0 1 .53 2.86v.05a7.82 7.82 0 0 1-.54 2.87 7.48 7.48 0 0 1-1.52 2.4 7.36 7.36 0 0 1-5.39 2.26zm0-1.52a5.63 5.63 0 0 0 2.3-.47 5.42 5.42 0 0 0 1.8-1.28A6.1 6.1 0 0 0 73 20.89a6.39 6.39 0 0 0 .42-2.33 6.49 6.49 0 0 0-.42-2.39 6 6 0 0 0-1.2-1.9A5.79 5.79 0 0 0 70 13a5.48 5.48 0 0 0-2.3-.48 5.63 5.63 0 0 0-2.3.47 5.42 5.42 0 0 0-1.8 1.28 6.1 6.1 0 0 0-1.18 1.89 6.39 6.39 0 0 0-.42 2.31v.05a6.48 6.48 0 0 0 .42 2.34 6 6 0 0 0 1.2 1.9 5.79 5.79 0 0 0 1.82 1.29 5.48 5.48 0 0 0 2.32.48zM80 11.23h1.64V25.8H80zM87.61 11.23h1.54l9.17 11.68V11.23h1.61V25.8h-1.31l-9.41-12v12h-1.6zM109.14 12.75h-4.89v-1.52h11.43v1.52h-4.89V25.8h-1.65zM125.85 11.23h10.53v1.48h-8.89v5h8v1.49h-8v5.12h9v1.48h-10.64zM141 11.23h5.06a8.79 8.79 0 0 1 3.13.55 7.38 7.38 0 0 1 2.45 1.53 6.78 6.78 0 0 1 1.59 2.3 7.16 7.16 0 0 1 .57 2.86v.05a7.24 7.24 0 0 1-.57 2.87 6.82 6.82 0 0 1-1.59 2.31 7.56 7.56 0 0 1-2.45 1.54 8.58 8.58 0 0 1-3.13.56H141zm5.06 13.05a6.85 6.85 0 0 0 2.49-.44 5.43 5.43 0 0 0 1.91-1.21 5.25 5.25 0 0 0 1.2-1.82 5.82 5.82 0 0 0 .43-2.25 5.83 5.83 0 0 0-.43-2.26 5.39 5.39 0 0 0-1.2-1.83 5.61 5.61 0 0 0-1.91-1.23 6.65 6.65 0 0 0-2.49-.45h-3.42v11.49zM164.9 26.05a7.77 7.77 0 0 1-3.09-.59 6.92 6.92 0 0 1-2.33-1.6 7 7 0 0 1-1.48-2.38 8.26 8.26 0 0 1-.51-2.92 7.74 7.74 0 0 1 .53-2.87 7.51 7.51 0 0 1 1.49-2.4A7 7 0 0 1 164.8 11a9.71 9.71 0 0 1 1.68.13 7.66 7.66 0 0 1 1.41.37 6.44 6.44 0 0 1 1.23.62 9.32 9.32 0 0 1 1.11.82l-1.06 1.25a7.87 7.87 0 0 0-.87-.68 6.64 6.64 0 0 0-1-.52 5.72 5.72 0 0 0-1.17-.34 6.73 6.73 0 0 0-1.4-.13 5.16 5.16 0 0 0-2.23.48 5.49 5.49 0 0 0-1.75 1.29 6.24 6.24 0 0 0-1.14 1.9 6.38 6.38 0 0 0-.42 2.3v.05a7 7 0 0 0 .41 2.41 5.67 5.67 0 0 0 1.15 1.91 5.29 5.29 0 0 0 1.81 1.27 5.94 5.94 0 0 0 2.4.46 6.37 6.37 0 0 0 2.35-.43 6.66 6.66 0 0 0 1.85-1v-3.67h-4.43V18h6v5.8a9.35 9.35 0 0 1-2.51 1.57 8.13 8.13 0 0 1-3.32.68zM175.7 11.23h10.53v1.48h-8.88v5h7.94v1.49h-7.94v5.12h9v1.48H175.7zM46.72 38.22h3a3.18 3.18 0 0 1 1.06.17 2.1 2.1 0 0 1 .76.45A1.58 1.58 0 0 1 52 40a1.8 1.8 0 0 1-.09.6 1.69 1.69 0 0 1-.61.79 2.38 2.38 0 0 1-.41.23 3.8 3.8 0 0 1 .59.23 2.13 2.13 0 0 1 .47.35 1.4 1.4 0 0 1 .32.47 1.62 1.62 0 0 1 .12.64 1.79 1.79 0 0 1-.18.81 1.82 1.82 0 0 1-.51.6 2.42 2.42 0 0 1-.81.37 3.68 3.68 0 0 1-1 .13h-3.17zm2.86 3.11a2 2 0 0 0 1.16-.33 1.08 1.08 0 0 0 .44-.93 1 1 0 0 0-.4-.83 1.86 1.86 0 0 0-1.14-.31h-2.13v2.4zm.28 3.18a2.09 2.09 0 0 0 1.25-.33 1.05 1.05 0 0 0 .46-.92 1 1 0 0 0-.47-.88 2.47 2.47 0 0 0-1.38-.38h-2.21v2.47zM56.11 45.33a2.16 2.16 0 0 1-.83-.15 1.7 1.7 0 0 1-.62-.42 1.81 1.81 0 0 1-.39-.66 2.47 2.47 0 0 1-.14-.84v-3.21h.77v3a1.65 1.65 0 0 0 .37 1.14 1.37 1.37 0 0 0 1.06.41 1.59 1.59 0 0 0 .62-.11 1.51 1.51 0 0 0 .49-.33 1.64 1.64 0 0 0 .32-.51 1.76 1.76 0 0 0 .12-.66v-3h.76v5.17h-.76v-.9a2.45 2.45 0 0 1-.68.72 1.82 1.82 0 0 1-1.09.35zM62.48 45.32a3.25 3.25 0 0 1-1.13-.2 3.41 3.41 0 0 1-1-.56l.39-.55a3.07 3.07 0 0 0 .88.49 2.41 2.41 0 0 0 .91.17 1.25 1.25 0 0 0 .77-.22.69.69 0 0 0 .3-.6.56.56 0 0 0-.1-.33 1 1 0 0 0-.29-.24 3.14 3.14 0 0 0-.41-.19l-.49-.15-.6-.19a2.17 2.17 0 0 1-.55-.27 1.18 1.18 0 0 1-.4-.4 1 1 0 0 1-.16-.6 1.32 1.32 0 0 1 .13-.6 1.4 1.4 0 0 1 .37-.47 1.58 1.58 0 0 1 .56-.3 2.23 2.23 0 0 1 .7-.11 3.34 3.34 0 0 1 1 .16 3.62 3.62 0 0 1 .89.41l-.35.58a3.69 3.69 0 0 0-.75-.36 2.47 2.47 0 0 0-.78-.14 1.15 1.15 0 0 0-.73.22.65.65 0 0 0-.27.53.52.52 0 0 0 .11.32.8.8 0 0 0 .3.23 2 2 0 0 0 .42.18l.5.16.6.2a3 3 0 0 1 .53.28 1.52 1.52 0 0 1 .39.41 1.2 1.2 0 0 1 .14.59 1.38 1.38 0 0 1-.53 1.14 1.71 1.71 0 0 1-.58.31 2.48 2.48 0 0 1-.77.1zM67.86 45.32a3.25 3.25 0 0 1-1.13-.2 3.41 3.41 0 0 1-1-.56l.39-.55a3.07 3.07 0 0 0 .88.49 2.41 2.41 0 0 0 .91.17 1.25 1.25 0 0 0 .77-.22.69.69 0 0 0 .3-.6.56.56 0 0 0-.1-.33 1 1 0 0 0-.29-.24 3.14 3.14 0 0 0-.41-.19l-.49-.15-.6-.19a2.17 2.17 0 0 1-.55-.27 1.18 1.18 0 0 1-.4-.4 1 1 0 0 1-.16-.6 1.32 1.32 0 0 1 .13-.6 1.4 1.4 0 0 1 .37-.47 1.58 1.58 0 0 1 .56-.3 2.23 2.23 0 0 1 .7-.11 3.34 3.34 0 0 1 1 .16 3.62 3.62 0 0 1 .89.41l-.35.58a3.69 3.69 0 0 0-.75-.36 2.47 2.47 0 0 0-.78-.14 1.15 1.15 0 0 0-.73.22.65.65 0 0 0-.27.53.52.52 0 0 0 .11.32.8.8 0 0 0 .3.23 2 2 0 0 0 .42.18l.5.16.6.2a3 3 0 0 1 .53.28 1.52 1.52 0 0 1 .39.41 1.2 1.2 0 0 1 .14.59 1.38 1.38 0 0 1-.53 1.14 1.71 1.71 0 0 1-.58.31 2.48 2.48 0 0 1-.77.1zM71.55 38.07h.88v.85h-.88zm0 2h.77v5.17h-.72zM74.56 40.05h.77V41a2.42 2.42 0 0 1 .68-.71 1.83 1.83 0 0 1 1.09-.3 2.24 2.24 0 0 1 .84.15 1.82 1.82 0 0 1 .62.43 1.85 1.85 0 0 1 .39.65 2.55 2.55 0 0 1 .13.84v3.21h-.77v-3a1.65 1.65 0 0 0-.37-1.14 1.34 1.34 0 0 0-1.06-.42 1.58 1.58 0 0 0-1.11.45 1.34 1.34 0 0 0-.32.51 1.76 1.76 0 0 0-.12.66v2.95h-.77zM81.58 43a2 2 0 0 0 .2.73 1.61 1.61 0 0 0 .41.54 1.75 1.75 0 0 0 1.21.45 1.93 1.93 0 0 0 .93-.2 2.7 2.7 0 0 0 .7-.53l.48.43a3.17 3.17 0 0 1-.89.71 2.92 2.92 0 0 1-2.24.07 2.42 2.42 0 0 1-.82-.55 2.54 2.54 0 0 1-.55-.86 2.8 2.8 0 0 1-.21-1.1 2.84 2.84 0 0 1 .19-1 2.55 2.55 0 0 1 .51-.86 2.42 2.42 0 0 1 .79-.58 2.31 2.31 0 0 1 1-.21 2.39 2.39 0 0 1 1 .22 2.3 2.3 0 0 1 .76.58 2.61 2.61 0 0 1 .47.87 3.42 3.42 0 0 1 .16 1.07v.12a.86.86 0 0 1 0 .15zm3.33-.63a2.44 2.44 0 0 0-.15-.66 2 2 0 0 0-.32-.55 1.7 1.7 0 0 0-.5-.38 1.65 1.65 0 0 0-.68-.14 1.6 1.6 0 0 0-.62.13 1.67 1.67 0 0 0-.51.37 1.75 1.75 0 0 0-.36.55 2.22 2.22 0 0 0-.19.68zM89.15 45.32a3.25 3.25 0 0 1-1.13-.2 3.41 3.41 0 0 1-1-.56l.38-.56a3.07 3.07 0 0 0 .88.49 2.41 2.41 0 0 0 .91.17 1.25 1.25 0 0 0 .77-.22.69.69 0 0 0 .3-.6.56.56 0 0 0-.1-.33 1 1 0 0 0-.29-.24 3.14 3.14 0 0 0-.41-.19l-.46-.16-.6-.19a2.17 2.17 0 0 1-.55-.27 1.18 1.18 0 0 1-.4-.4 1 1 0 0 1-.16-.6 1.32 1.32 0 0 1 .13-.6 1.4 1.4 0 0 1 .37-.47 1.58 1.58 0 0 1 .56-.3A2.23 2.23 0 0 1 89 40a3.34 3.34 0 0 1 1 .16 3.62 3.62 0 0 1 .89.41l-.35.58a3.69 3.69 0 0 0-.75-.36 2.47 2.47 0 0 0-.78-.14 1.15 1.15 0 0 0-.73.22.65.65 0 0 0-.27.53.52.52 0 0 0 .11.32.8.8 0 0 0 .3.23 2 2 0 0 0 .42.18l.5.16.6.2a3 3 0 0 1 .53.28 1.52 1.52 0 0 1 .39.41 1.2 1.2 0 0 1 .14.59 1.38 1.38 0 0 1-.53 1.14 1.71 1.71 0 0 1-.58.31 2.48 2.48 0 0 1-.74.1zM94.53 45.32a3.25 3.25 0 0 1-1.13-.2 3.41 3.41 0 0 1-1-.56l.39-.55a3.07 3.07 0 0 0 .88.49 2.41 2.41 0 0 0 .91.17 1.25 1.25 0 0 0 .77-.22.69.69 0 0 0 .3-.6.56.56 0 0 0-.1-.33 1 1 0 0 0-.29-.24 3.14 3.14 0 0 0-.41-.19l-.49-.15-.6-.19a2.17 2.17 0 0 1-.55-.27 1.18 1.18 0 0 1-.4-.4 1 1 0 0 1-.16-.6 1.32 1.32 0 0 1 .13-.6 1.4 1.4 0 0 1 .37-.47 1.58 1.58 0 0 1 .56-.3 2.23 2.23 0 0 1 .7-.11 3.34 3.34 0 0 1 1 .16 3.62 3.62 0 0 1 .89.41l-.35.58a3.69 3.69 0 0 0-.75-.36 2.47 2.47 0 0 0-.78-.14 1.15 1.15 0 0 0-.73.22.65.65 0 0 0-.27.53.52.52 0 0 0 .11.32.8.8 0 0 0 .3.23 2 2 0 0 0 .42.18l.5.16.6.2a3 3 0 0 1 .53.28 1.52 1.52 0 0 1 .39.41 1.2 1.2 0 0 1 .14.59 1.38 1.38 0 0 1-.53 1.14 1.71 1.71 0 0 1-.58.31 2.48 2.48 0 0 1-.77.1zM101.73 38.22h2.43a4.1 4.1 0 0 1 1.51.27 3.73 3.73 0 0 1 1.18.73 3.38 3.38 0 0 1 .76 1.11 3.45 3.45 0 0 1 .27 1.37 3.47 3.47 0 0 1-.27 1.38 3.18 3.18 0 0 1-.76 1.11 3.58 3.58 0 0 1-1.18.74 4.1 4.1 0 0 1-1.51.27h-2.43zm2.43 6.27a3.29 3.29 0 0 0 1.2-.21 2.63 2.63 0 0 0 .92-.58 2.51 2.51 0 0 0 .58-.87 3 3 0 0 0 .2-1.09 3 3 0 0 0-.2-1.08 2.59 2.59 0 0 0-1.5-1.47 3.29 3.29 0 0 0-1.2-.22h-1.64v5.54zM110.28 43a2 2 0 0 0 .2.73 1.61 1.61 0 0 0 .41.54 1.75 1.75 0 0 0 1.21.45 1.93 1.93 0 0 0 .93-.2 2.7 2.7 0 0 0 .7-.53l.48.43a3.17 3.17 0 0 1-.89.71 2.92 2.92 0 0 1-2.24.07 2.42 2.42 0 0 1-.82-.55 2.54 2.54 0 0 1-.55-.86 2.8 2.8 0 0 1-.21-1.1 2.84 2.84 0 0 1 .19-1 2.55 2.55 0 0 1 .51-.86 2.42 2.42 0 0 1 .79-.58 2.31 2.31 0 0 1 1-.21 2.39 2.39 0 0 1 1 .22 2.3 2.3 0 0 1 .76.58 2.61 2.61 0 0 1 .47.87 3.42 3.42 0 0 1 .16 1.07v.12a.86.86 0 0 1 0 .15zm3.33-.63a2.44 2.44 0 0 0-.15-.66 2 2 0 0 0-.32-.55 1.7 1.7 0 0 0-.5-.38 1.65 1.65 0 0 0-.68-.14 1.6 1.6 0 0 0-.62.13 1.67 1.67 0 0 0-.51.37 1.75 1.75 0 0 0-.36.55 2.22 2.22 0 0 0-.19.68zM117.85 45.32a3.25 3.25 0 0 1-1.13-.2 3.41 3.41 0 0 1-1-.56l.39-.55a3.07 3.07 0 0 0 .88.49 2.41 2.41 0 0 0 .91.17 1.25 1.25 0 0 0 .77-.22.69.69 0 0 0 .3-.6.56.56 0 0 0-.1-.33 1 1 0 0 0-.29-.24 3.14 3.14 0 0 0-.41-.19l-.49-.15-.6-.19a2.17 2.17 0 0 1-.55-.27 1.18 1.18 0 0 1-.4-.4 1 1 0 0 1-.16-.6 1.32 1.32 0 0 1 .13-.6 1.4 1.4 0 0 1 .37-.47 1.58 1.58 0 0 1 .56-.3 2.23 2.23 0 0 1 .7-.11 3.34 3.34 0 0 1 1 .16 3.62 3.62 0 0 1 .89.41l-.35.58a3.69 3.69 0 0 0-.75-.36 2.47 2.47 0 0 0-.78-.14 1.15 1.15 0 0 0-.73.22.65.65 0 0 0-.27.53.52.52 0 0 0 .11.32.8.8 0 0 0 .3.23 2 2 0 0 0 .42.18l.5.16.6.2a3 3 0 0 1 .53.28 1.52 1.52 0 0 1 .39.41 1.2 1.2 0 0 1 .14.59 1.38 1.38 0 0 1-.53 1.14 1.71 1.71 0 0 1-.58.31 2.48 2.48 0 0 1-.77.1zM121.54 38.07h.88v.85h-.88zm0 2h.77v5.17h-.77zM126.84 46.84a4.23 4.23 0 0 1-1.24-.18 4.07 4.07 0 0 1-1.11-.54l.35-.6a3.38 3.38 0 0 0 .94.49 3 3 0 0 0 1 .17 2 2 0 0 0 1.37-.46 1.77 1.77 0 0 0 .51-1.38v-.61a3.21 3.21 0 0 1-.83.77 2.11 2.11 0 0 1-1.2.32 2.32 2.32 0 0 1-.9-.17 2.42 2.42 0 0 1-.78-.48 2.19 2.19 0 0 1-.54-.76 2.34 2.34 0 0 1-.21-1 2.38 2.38 0 0 1 .21-1 2.19 2.19 0 0 1 .54-.76 2.64 2.64 0 0 1 .78-.49 2.52 2.52 0 0 1 .9-.17 2.41 2.41 0 0 1 .67.09 3 3 0 0 1 .55.22 3 3 0 0 1 .44.33 4.48 4.48 0 0 1 .36.4v-.93h.77v4.27a3.1 3.1 0 0 1-.17 1.06 2.12 2.12 0 0 1-.49.77 2.06 2.06 0 0 1-.85.52 3.29 3.29 0 0 1-1.07.12zm0-2.7a2.12 2.12 0 0 0 .71-.12 1.79 1.79 0 0 0 .61-.36 2 2 0 0 0 .42-.56 1.51 1.51 0 0 0 .16-.71 1.58 1.58 0 0 0-.16-.72 2.06 2.06 0 0 0-.42-.55 1.94 1.94 0 0 0-.61-.35 2.13 2.13 0 0 0-.71-.13 1.93 1.93 0 0 0-.69.13 1.65 1.65 0 0 0-.57.35 1.5 1.5 0 0 0-.39.54 1.89 1.89 0 0 0-.14.72 1.72 1.72 0 0 0 .15.72 1.45 1.45 0 0 0 .39.55 1.54 1.54 0 0 0 .57.36 1.72 1.72 0 0 0 .67.13zM131.59 40.05h.77V41a2.42 2.42 0 0 1 .68-.71 1.83 1.83 0 0 1 1.09-.3 2.24 2.24 0 0 1 .84.15 1.82 1.82 0 0 1 .62.43 1.85 1.85 0 0 1 .39.65 2.55 2.55 0 0 1 .13.84v3.21h-.77v-3a1.65 1.65 0 0 0-.37-1.14 1.34 1.34 0 0 0-1.06-.42 1.58 1.58 0 0 0-1.11.45 1.34 1.34 0 0 0-.32.51 1.76 1.76 0 0 0-.12.66v2.95h-.77z"/><image width="168" height="154" transform="scale(.23)" xlink:href="../../../../../Volumes/GoogleDrive/%E3%83%9E%E3%82%A4%E3%83%88%E3%82%99%E3%83%A9%E3%82%A4%E3%83%95%E3%82%99/ACTBE/0515ai_data/Links/%E3%82%B9%E3%82%AF%E3%83%AA%E3%83%BC%E3%83%B3%E3%82%B7%E3%83%A7%E3%83%83%E3%83%88%202019-03-17%2011.26.21.png" style="mix-blend-mode:multiply"/></g></g></svg>