<?xml version="1.0" encoding="UTF-8"?>
<svg width="24px" height="24px" viewBox="0 0 24 24" version="1.1" xmlns="http://www.w3.org/2000/svg" xmlns:xlink="http://www.w3.org/1999/xlink">
    <!-- Generator: Sketch 45.1 (43504) - http://www.bohemiancoding.com/sketch -->
    <title>icon_fb</title>
    <desc>Created with Sketch.</desc>
    <defs></defs>
    <g id="Page-1" stroke="none" stroke-width="1" fill="none" fill-rule="evenodd">
        <g id="Desktop" transform="translate(-1356.000000, -24.000000)">
            <g id="icon_fb" transform="translate(1356.000000, 24.000000)">
                <path d="M22.462861,23.77892 C23.1873356,23.77892 23.7751322,23.20132 23.7751322,22.48852 L23.7751322,1.69012 C23.7751322,0.97772 23.1873356,0.40012 22.462861,0.40012 L1.31235254,0.40012 C0.587471186,0.40012 -0.000325423729,0.97772 -0.000325423729,1.69012 L-0.000325423729,22.48852 C-0.000325423729,23.20132 0.587471186,23.77892 1.31235254,23.77892 L22.462861,23.77892 Z" id="Fill-1" fill="#3C5998"></path>
                <path d="M16.4044881,23.77892 L16.4044881,14.72532 L19.4947932,14.72532 L19.9573017,11.19692 L16.4044881,11.19692 L16.4044881,8.94452 C16.4044881,7.92292 16.6928949,7.22652 18.182522,7.22652 L20.0825898,7.22572 L20.0825898,4.07012 C19.7539119,4.02732 18.6263186,3.93092 17.3136407,3.93092 C14.5743864,3.93092 12.6991322,5.57532 12.6991322,8.59492 L12.6991322,11.19692 L9.60069153,11.19692 L9.60069153,14.72532 L12.6991322,14.72532 L12.6991322,23.77892 L16.4044881,23.77892 Z" id="Fill-4" fill="#FFFFFF"></path>
            </g>
        </g>
    </g>
</svg>