<?xml version="1.0" encoding="UTF-8"?>
<svg width="202px" height="120px" viewBox="0 0 202 120" version="1.1" xmlns="http://www.w3.org/2000/svg" xmlns:xlink="http://www.w3.org/1999/xlink">
    <!-- Generator: Sketch 45.1 (43504) - http://www.bohemiancoding.com/sketch -->
    <title>Page 1</title>
    <desc>Created with Sketch.</desc>
    <defs>
        <polygon id="path-1" points="0 119.786866 201.546841 119.786866 201.546841 0 0 0"></polygon>
    </defs>
    <g id="Page-1" stroke="none" stroke-width="1" fill="none" fill-rule="evenodd">
        <g>
            <path d="M128.233443,100.171164 C129.896815,100.171164 129.896815,102.518328 128.233443,102.518328 L112.612408,102.518328 C111.816921,102.518328 111.418284,101.934448 111.416496,101.347881 L111.416496,81.6123582 C111.416496,81.025791 111.815134,80.4392239 112.612408,80.4392239 L128.233443,80.4392239 C129.896815,80.4392239 129.896815,82.7863881 128.233443,82.7863881 L113.962948,82.7863881 L113.962948,90.3060896 L122.578337,90.3060896 C124.241709,90.3060896 124.241709,92.6532537 122.578337,92.6532537 L113.962948,92.6532537 L113.962948,100.171164 L128.233443,100.171164 Z" id="Fill-1" fill="#000000"></path>
            <path d="M200.299088,100.171164 L186.028593,100.171164 L186.028593,92.6532537 L194.643982,92.6532537 C196.307354,92.6532537 196.307354,90.3060896 194.643982,90.3060896 L186.028593,90.3060896 L186.028593,82.7863881 L200.299088,82.7863881 C201.96246,82.7863881 201.96246,80.4392239 200.299088,80.4392239 L184.678053,80.4392239 C183.879885,80.4392239 183.481248,81.025791 183.481248,81.6123582 L183.481248,101.347881 L183.482142,101.347881 C183.483035,101.934448 183.881673,102.518328 184.678053,102.518328 L200.299088,102.518328 C201.96246,102.518328 201.96246,100.171164 200.299088,100.171164" id="Fill-3" fill="#000000"></path>
            <path d="M144.081863,100.309343 L137.440889,100.309343 L137.440889,82.6487463 L144.081863,82.6487463 C146.685518,82.6487463 148.857465,83.5720299 150.362633,85.317403 C151.715854,86.8863582 152.460394,89.1565075 152.460394,91.4526269 C152.460394,95.6499403 149.837969,100.309343 144.081863,100.309343 M152.032261,83.8729254 C150.095385,81.6269552 147.34604,80.4394925 144.081863,80.4394925 L135.997394,80.4394925 C135.387819,80.4394925 134.894438,80.9338209 134.894438,81.5445672 L134.894438,81.5893433 L134.894438,101.32397 L134.894438,101.413522 C134.894438,102.024269 135.387819,102.518597 135.997394,102.518597 L144.081863,102.518597 C151.030305,102.518597 154.666305,96.8821791 154.666305,91.4526269 C154.666305,88.6254627 153.730491,85.8430746 152.032261,83.8729254" id="Fill-5" fill="#000000"></path>
            <path d="M169.739527,102.734418 C163.544563,102.734418 158.505288,97.6845672 158.505288,91.478597 C158.505288,85.2717313 163.544563,80.2227761 169.739527,80.2227761 C172.665846,80.2227761 175.437536,81.3439701 177.542448,83.3803881 C178.02689,83.8496418 178.041191,84.6242687 177.572837,85.1096418 C177.104483,85.5950149 176.331342,85.6093433 175.846005,85.1409851 C174.198722,83.5469552 172.03035,82.6693433 169.739527,82.6693433 C164.891527,82.6693433 160.947165,86.6212836 160.947165,91.478597 C160.947165,96.3359104 164.891527,100.288746 169.739527,100.288746 C172.172465,100.288746 174.482058,99.2830746 176.142749,97.516209 L176.142749,92.7018806 L170.832651,92.7018806 C170.157828,92.7018806 169.610819,92.1547164 169.610819,91.478597 C169.610819,90.8033731 170.157828,90.2553134 170.832651,90.2553134 L177.362793,90.2553134 C178.037616,90.2553134 178.584625,90.8033731 178.584625,91.478597 L178.584625,97.9836716 C178.584625,98.2747164 178.480943,98.5559104 178.29235,98.7771045 C176.152581,101.292627 173.034988,102.734418 169.739527,102.734418" id="Fill-7" fill="#000000"></path>
            <path d="M2.44473628,93.5028358 L8.52261239,93.5028358 C13.0390106,93.5028358 14.9061699,90.849403 14.8382407,88.2631343 C14.8051699,85.4735821 12.596577,82.65 8.6584708,82.65 L2.44473628,82.65 L2.44473628,93.5028358 Z M2.44473628,95.7138806 L2.44473628,101.353881 C2.44473628,102.919254 0.000178761062,102.884328 0.000178761062,101.38791 L0.000178761062,81.63 C0.000178761062,80.9153731 0.577576991,80.4389552 1.25686903,80.4389552 L8.62450619,80.4389552 C14.4985947,80.4389552 17.2488336,84.3514925 17.2488336,88.2631343 C17.2488336,92.3467164 14.4655239,95.7138806 8.52261239,95.7138806 L2.44473628,95.7138806 Z" id="Fill-9" fill="#000000"></path>
            <path d="M97.5481239,80.4390448 C99.2114956,80.4390448 99.2114956,82.786209 97.5481239,82.786209 L90.2680796,82.786209 C90.2680796,88.9106866 90.3029381,95.1363582 90.3029381,101.259045 C90.3029381,102.109791 89.5896814,102.518149 89.0122832,102.518149 C88.434885,102.518149 87.7904513,102.109791 87.7904513,101.259045 L87.7904513,82.786209 L80.5443717,82.786209 C78.9489292,82.786209 78.9489292,80.4390448 80.5443717,80.4390448 L97.5481239,80.4390448 Z" id="Fill-11" fill="#000000"></path>
            <path d="M32.4810637,82.6690746 C27.6321699,82.6690746 23.6878071,86.6210149 23.6878071,91.4792239 C23.6878071,96.3374328 27.6321699,100.289373 32.4810637,100.289373 C37.3290637,100.289373 41.2743204,96.3374328 41.2743204,91.4792239 C41.2743204,86.6210149 37.3290637,82.6690746 32.4810637,82.6690746 M32.4810637,102.735045 C26.2860991,102.735045 21.245931,97.6860896 21.245931,91.4792239 C21.245931,85.2723582 26.2860991,80.223403 32.4810637,80.223403 C38.6760283,80.223403 43.7153027,85.2723582 43.7153027,91.4792239 C43.7153027,97.6860896 38.6760283,102.735045 32.4810637,102.735045" id="Fill-13" fill="#000000"></path>
            <path d="M49.9346681,102.516627 C49.2607389,102.516627 48.7137301,101.968567 48.7137301,101.293343 L48.7137301,81.6661791 C48.7137301,80.9900597 49.2607389,80.4428955 49.9346681,80.4428955 C50.6085973,80.4428955 51.1556062,80.9900597 51.1556062,81.6661791 L51.1556062,101.293343 C51.1556062,101.968567 50.6085973,102.516627 49.9346681,102.516627" id="Fill-15" fill="#000000"></path>
            <path d="M73.7553841,102.516627 C73.3942867,102.516627 73.0430212,102.355433 72.8070566,102.063493 L59.096977,85.1166269 L59.096977,101.293343 C59.096977,101.968567 58.5508619,102.516627 57.8760389,102.516627 C57.2021097,102.516627 56.6559947,101.968567 56.6559947,101.293343 L56.6559947,81.6661791 C56.6559947,81.1485672 56.9813398,80.6864776 57.4684637,80.5136418 C57.9555876,80.3399104 58.4990212,80.4930448 58.8243664,80.8951343 L72.534446,97.842 L72.534446,81.6661791 C72.534446,80.9900597 73.0814549,80.4428955 73.7553841,80.4428955 C74.4293133,80.4428955 74.9763221,80.9900597 74.9763221,81.6661791 L74.9763221,101.293343 C74.9763221,101.810955 74.6500832,102.273045 74.1629593,102.445881 C74.0297823,102.494239 73.8912425,102.516627 73.7553841,102.516627" id="Fill-17" fill="#000000"></path>
            <polygon id="Fill-19" fill="#000000" points="49.6165628 119.718716 49.3582531 119.718716 48.7111381 117.392149 48.0747487 119.718716 47.8173327 119.718716 46.9011823 116.892448 47.1737929 116.892448 47.9424655 119.240507 48.5824301 116.892448 48.8434212 116.892448 49.4950053 119.240507 50.2565274 116.892448 50.5291381 116.892448"></polygon>
            <path d="M55.6518938,117.085522 C54.9699204,117.085522 54.379115,117.587015 54.379115,118.291791 C54.379115,119.012687 54.9359558,119.521343 55.6438496,119.521343 C56.3374425,119.521343 56.9085841,119.02791 56.9085841,118.315075 C56.9085841,117.608507 56.3481681,117.085522 55.6518938,117.085522 M55.655469,119.779254 C54.810823,119.779254 54.1252743,119.160448 54.1252743,118.298955 C54.1252743,117.457164 54.810823,116.831194 55.6358053,116.831194 C56.4768761,116.831194 57.166,117.445522 57.166,118.307015 C57.166,119.156866 56.4884956,119.779254 55.655469,119.779254" id="Fill-21" fill="#000000"></path>
            <path d="M63.2243912,117.236776 C63.1260726,117.176776 63.023285,117.14991 62.6979398,117.14991 L61.4144354,117.14991 L61.4144354,118.264836 L62.6979398,118.264836 C62.9973646,118.264836 63.1296478,118.24603 63.2431611,118.162746 C63.3870637,118.057075 63.4594619,117.866328 63.4594619,117.692597 C63.4594619,117.506328 63.3870637,117.335284 63.2243912,117.236776 M63.4022584,118.367821 C63.2512053,118.474388 63.0420549,118.516478 62.9401611,118.523642 L63.6560991,119.718269 L63.3566743,119.718269 L62.6452053,118.523642 L61.4144354,118.523642 L61.4144354,119.718269 L61.1489752,119.718269 L61.1489752,116.887522 L62.8114531,116.887522 C63.0956832,116.887522 63.1788071,116.910806 63.3459487,117.001254 C63.5801257,117.131104 63.7168779,117.457075 63.7168779,117.703343 C63.7168779,117.942448 63.5988956,118.227224 63.4022584,118.367821" id="Fill-23" fill="#000000"></path>
            <polygon id="Fill-25" fill="#000000" points="69.9256965 119.718716 68.8584929 118.117522 67.9941832 118.979015 67.9941832 119.718716 67.733192 119.718716 67.733192 116.892448 67.9941832 116.892448 67.9941832 118.614537 69.7254841 116.892448 70.0847938 116.892448 69.0506611 117.92409 70.2367407 119.718716"></polygon>
            <path d="M80.0618062,117.145881 L78.9865584,117.145881 L78.9865584,119.460806 L80.0618062,119.460806 C80.6570805,119.460806 81.1638681,119.076627 81.1638681,118.307373 C81.1638681,117.544388 80.6910451,117.145881 80.0618062,117.145881 M80.0618062,119.718716 L78.7246735,119.718716 L78.7246735,116.88797 L80.0618062,116.88797 C80.8832133,116.88797 81.4248593,117.449463 81.4248593,118.299313 C81.4248593,119.145582 80.8152841,119.718716 80.0618062,119.718716" id="Fill-27" fill="#000000"></path>
            <polygon id="Fill-29" fill="#000000" points="85.4914053 119.718716 85.4914053 116.892448 87.8197681 116.892448 87.8197681 117.157522 85.745246 117.157522 85.745246 118.129164 86.8776973 118.129164 86.8776973 118.387075 85.745246 118.387075 85.745246 119.460806 87.9109363 119.460806 87.9109363 119.718716"></polygon>
            <path d="M93.0149221,119.783463 C92.7691257,119.783463 92.5269044,119.744955 92.2954088,119.661672 C92.0076035,119.559582 91.844931,119.415403 91.6286301,119.203164 L91.8064973,119.016896 C92.1702761,119.388537 92.5224354,119.521075 93.0372673,119.521075 C93.4162407,119.521075 94.1205593,119.422567 94.1205593,118.910328 C94.1205593,118.542269 93.7460549,118.394507 93.4841699,118.372119 C93.3295416,118.356 92.9541434,118.360478 92.7387363,118.356 C92.3106035,118.348836 91.8333115,118.177791 91.8333115,117.673612 C91.8333115,117.248239 92.189046,116.998388 92.560869,116.895403 C92.7351611,116.847045 92.9166035,116.827343 93.0944708,116.827343 C93.534223,116.827343 93.8711876,116.971522 94.2188779,117.233015 L94.0597805,117.426448 C93.7156655,117.207045 93.4689752,117.080776 93.0488867,117.080776 C92.928223,117.080776 92.8066655,117.088836 92.685108,117.119284 C92.4205416,117.180179 92.0907274,117.354806 92.0907274,117.67003 C92.0907274,118.018388 92.4616566,118.090925 92.7387363,118.09809 C92.9621876,118.106149 93.2991522,118.106149 93.5074088,118.121373 C93.9811257,118.159881 94.3824442,118.42406 94.3824442,118.906746 C94.3824442,119.600776 93.5601434,119.783463 93.0149221,119.783463" id="Fill-31" fill="#000000"></path>
            <mask id="mask-2" fill="white">
                <use xlink:href="#path-1"></use>
            </mask>
            <g id="Clip-34"></g>
            <polygon id="Fill-33" fill="#000000" mask="url(#mask-2)" points="98.3874071 119.718806 98.6376726 119.718806 98.6376726 116.892537 98.3874071 116.892537"></polygon>
            <path d="M104.737447,119.73009 C104.581925,119.767701 104.419252,119.786507 104.260155,119.786507 C103.400314,119.786507 102.700465,119.194567 102.700465,118.307104 C102.700465,117.449194 103.411934,116.831284 104.294119,116.831284 C104.805376,116.831284 105.1915,117.024716 105.46858,117.343522 L105.301438,117.529791 C105.052066,117.263821 104.745491,117.089194 104.294119,117.089194 C103.526341,117.089194 102.961456,117.647104 102.961456,118.310687 C102.961456,119.07009 103.555836,119.525015 104.278925,119.525015 C104.407633,119.525015 104.536341,119.509791 104.657898,119.479343 C104.8885,119.42203 105.279093,119.248299 105.279093,118.95994 L105.279093,118.466507 L104.260155,118.466507 L104.260155,118.208597 L105.536509,118.208597 L105.536509,118.956358 C105.536509,119.384418 105.101226,119.637851 104.737447,119.73009" id="Fill-35" fill="#000000" mask="url(#mask-2)"></path>
            <polygon id="Fill-36" fill="#000000" mask="url(#mask-2)" points="111.928021 119.718716 109.939304 117.298119 109.939304 119.718716 109.681888 119.718716 109.681888 116.892448 109.939304 116.892448 111.931596 119.304985 111.931596 116.892448 112.189012 116.892448 112.189012 119.718716"></polygon>
            <path d="M122.211162,119.783463 C121.965365,119.783463 121.723144,119.744955 121.491649,119.661672 C121.203843,119.559582 121.041171,119.415403 120.825764,119.203164 L121.003631,119.016896 C121.36741,119.388537 121.719569,119.521075 122.234401,119.521075 C122.612481,119.521075 123.316799,119.422567 123.316799,118.910328 C123.316799,118.542269 122.942295,118.394507 122.68041,118.372119 C122.525781,118.356 122.151277,118.360478 121.934976,118.356 C121.506843,118.348836 121.029551,118.177791 121.029551,117.673612 C121.029551,117.248239 121.38618,116.998388 121.757109,116.895403 C121.931401,116.847045 122.112843,116.827343 122.290711,116.827343 C122.730463,116.827343 123.067427,116.971522 123.415118,117.233015 L123.25602,117.426448 C122.911905,117.207045 122.666109,117.080776 122.245127,117.080776 C122.124463,117.080776 122.002905,117.088836 121.882242,117.119284 C121.616781,117.180179 121.286967,117.354806 121.286967,117.67003 C121.286967,118.018388 121.657896,118.090925 121.934976,118.09809 C122.158427,118.106149 122.495392,118.106149 122.703649,118.121373 C123.177365,118.159881 123.578684,118.42406 123.578684,118.906746 C123.578684,119.600776 122.756383,119.783463 122.211162,119.783463" id="Fill-37" fill="#000000" mask="url(#mask-2)"></path>
            <polygon id="Fill-38" fill="#000000" mask="url(#mask-2)" points="128.572106 117.145881 128.572106 119.718716 128.31469 119.718716 128.31469 117.145881 127.231398 117.145881 127.231398 116.88797 129.640204 116.88797 129.640204 117.145881"></polygon>
            <path d="M134.895511,119.786955 C134.194767,119.786955 133.668316,119.444866 133.668316,118.698 L133.668316,116.892627 L133.925732,116.892627 L133.925732,118.698 C133.925732,119.323075 134.361909,119.529045 134.9259,119.529045 C135.232475,119.529045 135.615024,119.441284 135.800935,119.171731 C135.902829,119.02397 135.914449,118.872627 135.914449,118.698 L135.914449,116.892627 L136.171865,116.892627 L136.171865,118.698 C136.171865,119.478896 135.611449,119.786955 134.895511,119.786955" id="Fill-39" fill="#000000" mask="url(#mask-2)"></path>
            <path d="M141.756181,117.145881 L140.680934,117.145881 L140.680934,119.460806 L141.756181,119.460806 C142.350562,119.460806 142.858243,119.076627 142.858243,118.307373 C142.858243,117.544388 142.384527,117.145881 141.756181,117.145881 M141.756181,119.718716 L140.419049,119.718716 L140.419049,116.88797 L141.756181,116.88797 C142.577588,116.88797 143.119235,117.449463 143.119235,118.299313 C143.119235,119.145582 142.509659,119.718716 141.756181,119.718716" id="Fill-40" fill="#000000" mask="url(#mask-2)"></path>
            <polygon id="Fill-41" fill="#000000" mask="url(#mask-2)" points="147.26515 119.718806 147.514522 119.718806 147.514522 116.892537 147.26515 116.892537"></polygon>
            <path d="M153.13039,117.085522 C152.448417,117.085522 151.857612,117.587015 151.857612,118.291791 C151.857612,119.012687 152.414452,119.521343 153.12324,119.521343 C153.815939,119.521343 154.387081,119.02791 154.387081,118.315075 C154.387081,117.608507 153.826665,117.085522 153.13039,117.085522 M153.133965,119.779254 C152.289319,119.779254 151.603771,119.160448 151.603771,118.298955 C151.603771,117.457164 152.289319,116.831194 153.115196,116.831194 C153.955373,116.831194 154.64539,117.445522 154.64539,118.307015 C154.64539,119.156866 153.967886,119.779254 153.133965,119.779254" id="Fill-42" fill="#000000" mask="url(#mask-2)"></path>
            <path d="M79.5459018,41.6535224 C79.5459018,42.6269552 78.7584593,43.4159104 77.7868929,43.4159104 C76.8153265,43.4159104 76.0269903,42.6269552 76.0269903,41.6535224 C76.0269903,40.6800896 76.8153265,39.8902388 77.7868929,39.8902388 C78.7584593,39.8902388 79.5459018,40.6800896 79.5459018,41.6535224" id="Fill-43" fill="#000000" mask="url(#mask-2)"></path>
            <path d="M125.518867,41.6535224 C125.518867,42.6269552 124.731425,43.4159104 123.759858,43.4159104 C122.788292,43.4159104 121.999956,42.6269552 121.999956,41.6535224 C121.999956,40.6800896 122.788292,39.8902388 123.759858,39.8902388 C124.731425,39.8902388 125.518867,40.6800896 125.518867,41.6535224" id="Fill-44" fill="#000000" mask="url(#mask-2)"></path>
            <path d="M102.532161,1.76247761 C102.532161,2.73680597 101.744719,3.52576119 100.773152,3.52576119 C99.8015858,3.52576119 99.0141434,2.73680597 99.0141434,1.76247761 C99.0141434,0.789044776 99.8015858,8.95522388e-05 100.773152,8.95522388e-05 C101.744719,8.95522388e-05 102.532161,0.789044776 102.532161,1.76247761" id="Fill-45" fill="#000000" mask="url(#mask-2)"></path>
            <polygon id="Fill-46" fill="#000000" mask="url(#mask-2)" points="100.773331 54.9498806 108.43503 41.6531642 93.1107381 41.6531642"></polygon>
            <polygon id="Fill-47" fill="#000000" mask="url(#mask-2)" points="123.75959 15.0598209 108.435298 15.0598209 116.097891 28.3565373"></polygon>
            <polygon id="Fill-48" fill="#000000" mask="url(#mask-2)" points="77.7866248 15.0598209 93.1109168 15.0598209 85.4483239 28.3565373"></polygon>
        </g>
    </g>
</svg>