<?xml version="1.0" encoding="UTF-8"?>
<svg width="303px" height="62px" viewBox="0 0 303 62" version="1.1" xmlns="http://www.w3.org/2000/svg" xmlns:xlink="http://www.w3.org/1999/xlink">
    <!-- Generator: Sketch 45.1 (43504) - http://www.bohemiancoding.com/sketch -->
    <title>Page 1</title>
    <desc>Created with Sketch.</desc>
    <defs>
        <polygon id="path-1" points="0 61.8531 302.716 61.8531 302.716 0.0001 0 0.0001"></polygon>
    </defs>
    <g id="Page-1" stroke="none" stroke-width="1" fill="none" fill-rule="evenodd">
        <g>
            <path d="M219.7364,39.6939 C221.6194,39.6939 221.6194,42.3449 219.7364,42.3449 L202.0554,42.3449 C201.1544,42.3449 200.7034,41.6849 200.7024,41.0229 L200.7014,41.0229 L200.7014,18.7289 C200.7014,18.0659 201.1534,17.4029 202.0554,17.4029 L219.7364,17.4029 C221.6194,17.4029 221.6194,20.0539 219.7364,20.0539 L203.5844,20.0539 L203.5844,28.5489 L213.3364,28.5489 C215.2174,28.5489 215.2174,31.2019 213.3364,31.2019 L203.5844,31.2019 L203.5844,39.6939 L219.7364,39.6939 Z" id="Fill-1" fill="#FFFFFF"></path>
            <g id="Group-5" transform="translate(282.000000, 16.853100)" fill="#FFFFFF">
                <path d="M19.3038,22.8408 L3.1518,22.8408 L3.1518,14.3488 L12.9038,14.3488 C14.7848,14.3488 14.7848,11.6958 12.9038,11.6958 L3.1518,11.6958 L3.1518,3.2008 L19.3038,3.2008 C21.1868,3.2008 21.1868,0.5498 19.3038,0.5498 L1.6228,0.5498 C0.7208,0.5498 0.2688,1.2128 0.2688,1.8758 L0.2688,24.1698 L0.2698,24.1698 C0.2708,24.8318 0.7218,25.4918 1.6228,25.4918 L19.3038,25.4918 C21.1868,25.4918 21.1868,22.8408 19.3038,22.8408" id="Fill-3"></path>
            </g>
            <path d="M237.6749,39.8492 L230.1579,39.8492 L230.1579,19.8992 L237.6749,19.8992 C240.6219,19.8992 243.0789,20.9412 244.7829,22.9132 C246.3149,24.6862 247.1569,27.2492 247.1569,29.8442 C247.1569,34.5862 244.1899,39.8492 237.6749,39.8492 M246.6729,21.2812 C244.4809,18.7442 241.3689,17.4032 237.6749,17.4032 L228.5239,17.4032 C227.8339,17.4032 227.2759,17.9612 227.2759,18.6512 L227.2759,18.7022 L227.2759,40.9952 L227.2759,41.0972 C227.2759,41.7862 227.8339,42.3452 228.5239,42.3452 L237.6749,42.3452 C245.5389,42.3452 249.6539,35.9782 249.6539,29.8442 C249.6539,26.6512 248.5959,23.5062 246.6729,21.2812" id="Fill-6" fill="#FFFFFF"></path>
            <path d="M266.715,42.5894 C259.704,42.5894 254,36.8844 254,29.8734 C254,22.8614 259.704,17.1574 266.715,17.1574 C270.028,17.1574 273.164,18.4254 275.547,20.7254 C276.096,21.2554 276.111,22.1304 275.581,22.6794 C275.051,23.2284 274.176,23.2434 273.627,22.7134 C271.763,20.9134 269.308,19.9214 266.715,19.9214 C261.228,19.9214 256.764,24.3864 256.764,29.8734 C256.764,35.3604 261.228,39.8254 266.715,39.8254 C269.469,39.8254 272.083,38.6904 273.962,36.6944 L273.962,31.2554 L267.952,31.2554 C267.189,31.2554 266.57,30.6364 266.57,29.8734 C266.57,29.1104 267.189,28.4914 267.952,28.4914 L275.344,28.4914 C276.108,28.4914 276.726,29.1104 276.726,29.8734 L276.726,37.2224 C276.726,37.5504 276.609,37.8684 276.396,38.1184 C273.974,40.9594 270.445,42.5894 266.715,42.5894" id="Fill-8" fill="#FFFFFF"></path>
            <path d="M77.3614,32.1607 L84.2414,32.1607 C89.3524,32.1607 91.4664,29.1627 91.3894,26.2417 C91.3514,23.0907 88.8524,19.8997 84.3944,19.8997 L77.3614,19.8997 L77.3614,32.1607 Z M77.3614,34.6587 L77.3614,41.0297 C77.3614,42.7977 74.5944,42.7587 74.5944,41.0677 L74.5944,18.7477 C74.5944,17.9407 75.2484,17.4027 76.0164,17.4027 L84.3564,17.4027 C91.0054,17.4027 94.1184,21.8227 94.1184,26.2417 C94.1184,30.8537 90.9664,34.6587 84.2414,34.6587 L77.3614,34.6587 Z" id="Fill-10" fill="#FFFFFF"></path>
            <path d="M185.005,17.4029 C186.888,17.4029 186.888,20.0539 185.005,20.0539 L176.765,20.0539 C176.765,26.9719 176.804,34.0059 176.804,40.9229 C176.804,41.8839 175.997,42.3449 175.344,42.3449 C174.691,42.3449 173.96,41.8839 173.96,40.9229 L173.96,20.0539 L165.759,20.0539 C163.953,20.0539 163.953,17.4029 165.759,17.4029 L185.005,17.4029 Z" id="Fill-12" fill="#FFFFFF"></path>
            <path d="M111.3585,19.9215 C105.8705,19.9215 101.4055,24.3865 101.4055,29.8745 C101.4055,35.3615 105.8705,39.8265 111.3585,39.8265 C116.8455,39.8265 121.3105,35.3615 121.3105,29.8745 C121.3105,24.3865 116.8455,19.9215 111.3585,19.9215 M111.3585,42.5905 C104.3465,42.5905 98.6415,36.8855 98.6415,29.8745 C98.6415,22.8625 104.3465,17.1575 111.3585,17.1575 C118.3705,17.1575 124.0745,22.8625 124.0745,29.8745 C124.0745,36.8855 118.3705,42.5905 111.3585,42.5905" id="Fill-14" fill="#FFFFFF"></path>
            <path d="M131.1134,42.3433 C130.3504,42.3433 129.7314,41.7243 129.7314,40.9613 L129.7314,18.7883 C129.7314,18.0253 130.3504,17.4063 131.1134,17.4063 C131.8764,17.4063 132.4954,18.0253 132.4954,18.7883 L132.4954,40.9613 C132.4954,41.7243 131.8764,42.3433 131.1134,42.3433" id="Fill-16" fill="#FFFFFF"></path>
            <path d="M158.0753,42.3433 C157.6663,42.3433 157.2683,42.1613 157.0013,41.8313 L141.4843,22.6873 L141.4843,40.9613 C141.4843,41.7243 140.8653,42.3433 140.1023,42.3433 C139.3393,42.3433 138.7213,41.7243 138.7213,40.9613 L138.7213,18.7883 C138.7213,18.2033 139.0893,17.6813 139.6403,17.4863 C140.1923,17.2913 140.8073,17.4633 141.1763,17.9183 L156.6933,37.0623 L156.6933,18.7883 C156.6933,18.0253 157.3113,17.4063 158.0753,17.4063 C158.8383,17.4063 159.4563,18.0253 159.4563,18.7883 L159.4563,40.9613 C159.4563,41.5463 159.0883,42.0683 158.5363,42.2633 C158.3853,42.3173 158.2293,42.3433 158.0753,42.3433" id="Fill-18" fill="#FFFFFF"></path>
            <polygon id="Fill-20" fill="#FFFFFF" points="130.753 61.776 130.462 61.776 129.729 59.148 129.009 61.776 128.717 61.776 127.68 58.583 127.988 58.583 128.858 61.236 129.583 58.583 129.879 58.583 130.616 61.236 131.478 58.583 131.786 58.583"></polygon>
            <path d="M137.5841,58.8013 C136.8131,58.8013 136.1441,59.3663 136.1441,60.1643 C136.1441,60.9793 136.7741,61.5533 137.5761,61.5533 C138.3601,61.5533 139.0071,60.9953 139.0071,60.1903 C139.0071,59.3923 138.3731,58.8013 137.5841,58.8013 M137.5891,61.8443 C136.6331,61.8443 135.8561,61.1463 135.8561,60.1733 C135.8561,59.2213 136.6331,58.5143 137.5671,58.5143 C138.5191,58.5143 139.2991,59.2083 139.2991,60.1813 C139.2991,61.1413 138.5311,61.8443 137.5891,61.8443" id="Fill-22" fill="#FFFFFF"></path>
            <path d="M146.1554,58.9722 C146.0444,58.9042 145.9284,58.8732 145.5594,58.8732 L144.1064,58.8732 L144.1064,60.1342 L145.5594,60.1342 C145.8984,60.1342 146.0484,60.1132 146.1764,60.0182 C146.3404,59.8992 146.4214,59.6842 146.4214,59.4872 C146.4214,59.2772 146.3404,59.0842 146.1554,58.9722 M146.3564,60.2492 C146.1854,60.3692 145.9494,60.4172 145.8344,60.4252 L146.6434,61.7762 L146.3054,61.7762 L145.5004,60.4252 L144.1064,60.4252 L144.1064,61.7762 L143.8064,61.7762 L143.8064,58.5782 L145.6884,58.5782 C146.0094,58.5782 146.1044,58.6042 146.2934,58.7062 C146.5584,58.8532 146.7134,59.2212 146.7134,59.4992 C146.7134,59.7702 146.5804,60.0912 146.3564,60.2492" id="Fill-24" fill="#FFFFFF"></path>
            <polygon id="Fill-26" fill="#FFFFFF" points="153.7403 61.776 152.5323 59.967 151.5543 60.94 151.5543 61.776 151.2593 61.776 151.2593 58.583 151.5543 58.583 151.5543 60.529 153.5133 58.583 153.9213 58.583 152.7513 59.749 154.0923 61.776"></polygon>
            <path d="M165.213,58.8697 L163.996,58.8697 L163.996,61.4837 L165.213,61.4837 C165.886,61.4837 166.46,61.0517 166.46,60.1817 C166.46,59.3197 165.925,58.8697 165.213,58.8697 M165.213,61.7757 L163.7,61.7757 L163.7,58.5787 L165.213,58.5787 C166.144,58.5787 166.756,59.2127 166.756,60.1737 C166.756,61.1287 166.067,61.7757 165.213,61.7757" id="Fill-28" fill="#FFFFFF"></path>
            <polygon id="Fill-30" fill="#FFFFFF" points="171.3585 61.776 171.3585 58.583 173.9945 58.583 173.9945 58.882 171.6455 58.882 171.6455 59.98 172.9265 59.98 172.9265 60.271 171.6455 60.271 171.6455 61.484 174.0975 61.484 174.0975 61.776"></polygon>
            <path d="M179.8741,61.8492 C179.5961,61.8492 179.3211,61.8062 179.0601,61.7112 C178.7341,61.5962 178.5501,61.4332 178.3061,61.1932 L178.5071,60.9832 C178.9181,61.4032 179.3161,61.5532 179.8991,61.5532 C180.3281,61.5532 181.1261,61.4412 181.1261,60.8632 C181.1261,60.4472 180.7011,60.2802 180.4051,60.2542 C180.2291,60.2372 179.8061,60.2422 179.5621,60.2372 C179.0771,60.2282 178.5371,60.0362 178.5371,59.4652 C178.5371,58.9862 178.9391,58.7032 179.3591,58.5862 C179.5571,58.5312 179.7631,58.5102 179.9641,58.5102 C180.4611,58.5102 180.8431,58.6722 181.2371,58.9682 L181.0571,59.1872 C180.6671,58.9382 180.3891,58.7962 179.9131,58.7962 C179.7751,58.7962 179.6391,58.8052 179.5011,58.8392 C179.2011,58.9092 178.8281,59.1062 178.8281,59.4612 C178.8281,59.8562 179.2481,59.9372 179.5621,59.9462 C179.8141,59.9542 180.1951,59.9542 180.4321,59.9712 C180.9671,60.0142 181.4221,60.3142 181.4221,60.8592 C181.4221,61.6432 180.4911,61.8492 179.8741,61.8492" id="Fill-32" fill="#FFFFFF"></path>
            <mask id="mask-2" fill="white">
                <use xlink:href="#path-1"></use>
            </mask>
            <g id="Clip-35"></g>
            <polygon id="Fill-34" fill="#FFFFFF" mask="url(#mask-2)" points="185.955 61.7751 186.238 61.7751 186.238 58.5821 185.955 58.5821"></polygon>
            <path d="M193.1427,61.7886 C192.9667,61.8316 192.7827,61.8526 192.6027,61.8526 C191.6287,61.8526 190.8357,61.1846 190.8357,60.1816 C190.8357,59.2126 191.6427,58.5146 192.6407,58.5146 C193.2197,58.5146 193.6567,58.7326 193.9697,59.0926 L193.7817,59.3036 C193.4977,59.0026 193.1507,58.8056 192.6407,58.8056 C191.7707,58.8056 191.1317,59.4346 191.1317,60.1846 C191.1317,61.0436 191.8047,61.5576 192.6227,61.5576 C192.7697,61.5576 192.9147,61.5396 193.0517,61.5056 C193.3137,61.4406 193.7547,61.2446 193.7547,60.9186 L193.7547,60.3606 L192.6027,60.3606 L192.6027,60.0696 L194.0467,60.0696 L194.0467,60.9146 C194.0467,61.3986 193.5537,61.6856 193.1427,61.7886" id="Fill-36" fill="#FFFFFF" mask="url(#mask-2)"></path>
            <polygon id="Fill-37" fill="#FFFFFF" mask="url(#mask-2)" points="201.2804 61.776 199.0304 59.042 199.0304 61.776 198.7394 61.776 198.7394 58.583 199.0304 58.583 201.2854 61.309 201.2854 58.583 201.5764 58.583 201.5764 61.776"></polygon>
            <path d="M212.92,61.8492 C212.642,61.8492 212.367,61.8062 212.106,61.7112 C211.78,61.5962 211.596,61.4332 211.352,61.1932 L211.553,60.9832 C211.964,61.4032 212.363,61.5532 212.946,61.5532 C213.374,61.5532 214.172,61.4412 214.172,60.8632 C214.172,60.4472 213.747,60.2802 213.451,60.2542 C213.275,60.2372 212.852,60.2422 212.608,60.2372 C212.123,60.2282 211.583,60.0362 211.583,59.4652 C211.583,58.9862 211.985,58.7032 212.405,58.5862 C212.603,58.5312 212.809,58.5102 213.01,58.5102 C213.507,58.5102 213.889,58.6722 214.283,58.9682 L214.103,59.1872 C213.713,58.9382 213.435,58.7962 212.958,58.7962 C212.821,58.7962 212.685,58.8052 212.547,58.8392 C212.247,58.9092 211.874,59.1062 211.874,59.4612 C211.874,59.8562 212.294,59.9372 212.608,59.9462 C212.86,59.9542 213.241,59.9542 213.478,59.9712 C214.013,60.0142 214.468,60.3142 214.468,60.8592 C214.468,61.6432 213.537,61.8492 212.92,61.8492" id="Fill-38" fill="#FFFFFF" mask="url(#mask-2)"></path>
            <polygon id="Fill-39" fill="#FFFFFF" mask="url(#mask-2)" points="220.1202 58.8697 220.1202 61.7757 219.8282 61.7757 219.8282 58.8697 218.6022 58.8697 218.6022 58.5787 221.3282 58.5787 221.3282 58.8697"></polygon>
            <path d="M227.2765,61.8531 C226.4835,61.8531 225.8875,61.4671 225.8875,60.6231 L225.8875,58.5821 L226.1795,58.5821 L226.1795,60.6231 C226.1795,61.3301 226.6725,61.5621 227.3115,61.5621 C227.6585,61.5621 228.0905,61.4631 228.3005,61.1591 C228.4175,60.9921 228.4295,60.8201 228.4295,60.6231 L228.4295,58.5821 L228.7215,58.5821 L228.7215,60.6231 C228.7215,61.5051 228.0875,61.8531 227.2765,61.8531" id="Fill-40" fill="#FFFFFF" mask="url(#mask-2)"></path>
            <path d="M235.0421,58.8697 L233.8251,58.8697 L233.8251,61.4837 L235.0421,61.4837 C235.7151,61.4837 236.2891,61.0517 236.2891,60.1817 C236.2891,59.3197 235.7531,58.8697 235.0421,58.8697 M235.0421,61.7757 L233.5291,61.7757 L233.5291,58.5787 L235.0421,58.5787 C235.9721,58.5787 236.5851,59.2127 236.5851,60.1737 C236.5851,61.1287 235.8951,61.7757 235.0421,61.7757" id="Fill-41" fill="#FFFFFF" mask="url(#mask-2)"></path>
            <polygon id="Fill-42" fill="#FFFFFF" mask="url(#mask-2)" points="241.277 61.7751 241.56 61.7751 241.56 58.5821 241.277 58.5821"></polygon>
            <path d="M247.9161,58.8013 C247.1451,58.8013 246.4761,59.3663 246.4761,60.1643 C246.4761,60.9793 247.1051,61.5533 247.9071,61.5533 C248.6911,61.5533 249.3391,60.9953 249.3391,60.1903 C249.3391,59.3923 248.7041,58.8013 247.9161,58.8013 M247.9201,61.8443 C246.9641,61.8443 246.1881,61.1463 246.1881,60.1733 C246.1881,59.2213 246.9641,58.5143 247.8981,58.5143 C248.8511,58.5143 249.6311,59.2083 249.6311,60.1813 C249.6311,61.1413 248.8631,61.8443 247.9201,61.8443" id="Fill-43" fill="#FFFFFF" mask="url(#mask-2)"></path>
            <path d="M3.4796,41.1158 C3.4796,42.0768 2.7006,42.8548 1.7406,42.8548 C0.7796,42.8548 0.0006,42.0768 0.0006,41.1158 C0.0006,40.1548 0.7796,39.3758 1.7406,39.3758 C2.7006,39.3758 3.4796,40.1548 3.4796,41.1158" id="Fill-44" fill="#FFFFFF" mask="url(#mask-2)"></path>
            <path d="M48.9474,41.1158 C48.9474,42.0768 48.1684,42.8548 47.2074,42.8548 C46.2464,42.8548 45.4674,42.0768 45.4674,41.1158 C45.4674,40.1548 46.2464,39.3758 47.2074,39.3758 C48.1684,39.3758 48.9474,40.1548 48.9474,41.1158" id="Fill-45" fill="#FFFFFF" mask="url(#mask-2)"></path>
            <path d="M26.213,1.7398 C26.213,2.7008 25.435,3.4798 24.474,3.4798 C23.513,3.4798 22.734,2.7008 22.734,1.7398 C22.734,0.7788 23.513,-0.0002 24.474,-0.0002 C25.435,-0.0002 26.213,0.7788 26.213,1.7398" id="Fill-46" fill="#FFFFFF" mask="url(#mask-2)"></path>
            <polygon id="Fill-47" fill="#FFFFFF" mask="url(#mask-2)" points="24.4737 54.2408 32.0517 41.1158 16.8957 41.1158"></polygon>
            <polygon id="Fill-48" fill="#FFFFFF" mask="url(#mask-2)" points="47.2071 14.8648 32.0521 14.8648 39.6291 27.9908"></polygon>
            <polygon id="Fill-49" fill="#FFFFFF" mask="url(#mask-2)" points="1.7403 14.8648 16.8953 14.8648 9.3173 27.9908"></polygon>
        </g>
    </g>
</svg>