<svg id="レイヤー_1" data-name="レイヤー 1" xmlns="http://www.w3.org/2000/svg" viewBox="0 0 360 260"><defs><style>.cls-1{font-size:30px;font-family:Courier, Courier;}</style></defs><title>アートボード 1</title><path d="M227.73,183.48H202.55V170.24h15.2a2.07,2.07,0,1,0,0-4.13h-15.2V152.87h25.18a2.07,2.07,0,1,0,0-4.13H200.16a2,2,0,0,0-2.11,2.07h0v34.76h0a2,2,0,0,0,2.11,2.06h27.56A2.07,2.07,0,1,0,227.73,183.48Z"/><path d="M354.9,183.48H329.71V170.24h15.2a2.07,2.07,0,1,0,0-4.13h-15.2V152.87H354.9a2.07,2.07,0,1,0,0-4.13H327.33a2,2,0,0,0-2.11,2.07h0v34.76h0a2,2,0,0,0,2.11,2.06H354.9A2.07,2.07,0,1,0,354.9,183.48Z"/><path d="M269.72,154.78a17.9,17.9,0,0,0-14-6H241.43a2,2,0,0,0-1.95,1.95v35a2,2,0,0,0,1.95,1.95H255.7c12.26,0,18.68-9.93,18.68-19.49A20.64,20.64,0,0,0,269.72,154.78Zm-14,28.95H244v-31.1H255.7a14.12,14.12,0,0,1,11.08,4.7,16.75,16.75,0,0,1,3.7,10.81C270.48,175.52,265.85,183.73,255.7,183.73Z"/><path d="M301,188a19.82,19.82,0,1,1,13.77-34.09,2.15,2.15,0,0,1-3,3.1,15.52,15.52,0,1,0,.52,21.8v-8.48H302.9a2.15,2.15,0,0,1,0-4.31h11.52a2.15,2.15,0,0,1,2.15,2.15v11.46a2.15,2.15,0,0,1-.51,1.4A19.81,19.81,0,0,1,301,188Z"/><path d="M5.76,175.63v9.93c0,2.76-4.31,2.7-4.31.06v-34.8a2.11,2.11,0,0,1,2.22-2.1h13c10.37,0,15.22,6.89,15.22,13.78,0,7.19-4.91,13.12-15.4,13.12Zm0-3.89H16.49c8,0,11.27-4.67,11.15-9.23-.06-4.91-4-9.89-10.91-9.89h-11Z"/><path d="M173.58,148.73a2.07,2.07,0,1,1,0,4.13H160.74c0,10.79.06,21.75.06,32.53a2.21,2.21,0,0,1-2.28,2.22,2.12,2.12,0,0,1-2.16-2.22V152.87H143.58a2.07,2.07,0,1,1,0-4.13Z"/><path d="M58.76,188a19.82,19.82,0,1,1,19.83-19.82A19.85,19.85,0,0,1,58.76,188Zm0-35.34a15.52,15.52,0,1,0,15.52,15.52A15.53,15.53,0,0,0,58.76,152.66Z"/><path d="M89.56,187.61a2.15,2.15,0,0,1-2.15-2.15V150.89a2.15,2.15,0,0,1,4.31,0v34.57A2.15,2.15,0,0,1,89.56,187.61Z"/><path d="M131.6,187.61a2.15,2.15,0,0,1-1.67-.8L105.73,157v28.49a2.15,2.15,0,0,1-4.31,0V150.89a2.15,2.15,0,0,1,3.83-1.36l24.19,29.85V150.89a2.15,2.15,0,0,1,4.31,0v34.57a2.15,2.15,0,0,1-2.15,2.15Z"/><circle cx="138.71" cy="80.42" r="3.1"/><circle cx="219.83" cy="80.42" r="3.1"/><circle cx="179.27" cy="10.16" r="3.1"/><polygon points="179.27 103.84 192.79 80.42 165.75 80.42 179.27 103.84"/><polygon points="219.83 33.58 192.79 33.58 206.31 57 219.83 33.58"/><polygon points="138.71 33.58 165.75 33.58 152.23 57 138.71 33.58"/><text class="cls-1" transform="translate(78.01 247.33)">Shibuya</text><text class="cls-1" transform="translate(204.03 247.33) scale(0.25 1)"> </text><text class="cls-1" transform="translate(208.53 247.33)">BASE</text></svg>