<?xml version="1.0" encoding="UTF-8"?>
<svg width="196px" height="40px" viewBox="0 0 196 40" version="1.1" xmlns="http://www.w3.org/2000/svg" xmlns:xlink="http://www.w3.org/1999/xlink">
    <!-- Generator: Sketch 45.1 (43504) - http://www.bohemiancoding.com/sketch -->
    <title>logo</title>
    <desc>Created with Sketch.</desc>
    <defs>
        <polygon id="path-1" points="0 39.9183889 195.809011 39.9183889 195.809011 5.55555556e-05 0 5.55555556e-05"></polygon>
    </defs>
    <g id="Page-1" stroke="none" stroke-width="1" fill="none" fill-rule="evenodd">
        <g id="Desktop" transform="translate(-100.000000, -16.000000)">
            <g id="logo" transform="translate(100.000000, 16.000000)">
                <g id="Page-1">
                    <path d="M142.134411,25.6174444 C143.35273,25.6174444 143.35273,27.3291111 142.134411,27.3291111 L130.697923,27.3291111 C130.115491,27.3291111 129.823161,26.9024444 129.822048,26.4752222 L129.822048,12.0868889 C129.822048,11.6591111 130.114377,11.2313333 130.697923,11.2313333 L142.134411,11.2313333 C143.35273,11.2313333 143.35273,12.943 142.134411,12.943 L131.686832,12.943 L131.686832,18.4252222 L137.993911,18.4252222 C139.211673,18.4252222 139.211673,20.1363333 137.993911,20.1363333 L131.686832,20.1363333 L131.686832,25.6174444 L142.134411,25.6174444 Z" id="Fill-1" fill="#000000"></path>
                    <path d="M194.895662,25.6174444 L184.448083,25.6174444 L184.448083,20.1363333 L190.755163,20.1363333 C191.972924,20.1363333 191.972924,18.4252222 190.755163,18.4252222 L184.448083,18.4252222 L184.448083,12.943 L194.895662,12.943 C196.113424,12.943 196.113424,11.2313333 194.895662,11.2313333 L183.459174,11.2313333 C182.875072,11.2313333 182.583299,11.6591111 182.583299,12.0868889 L182.583299,26.4752222 L182.583299,26.4752222 C182.584412,26.9024444 182.876185,27.3291111 183.459174,27.3291111 L194.895662,27.3291111 C196.113424,27.3291111 196.113424,25.6174444 194.895662,25.6174444" id="Fill-3" fill="#000000"></path>
                    <path d="M153.737611,25.7178333 L148.876032,25.7178333 L148.876032,12.8422778 L153.737611,12.8422778 C155.644157,12.8422778 157.233873,13.5150556 158.335816,14.7878333 C159.326395,15.9317222 159.87152,17.5867222 159.87152,19.2606111 C159.87152,22.3211667 157.952168,25.7178333 153.737611,25.7178333 M159.558032,13.7345 C158.139816,12.0967222 156.127475,11.2311667 153.737611,11.2311667 L147.818077,11.2311667 C147.372066,11.2311667 147.010691,11.5917222 147.010691,12.0367222 L147.010691,12.0695 L147.010691,26.4578333 L147.010691,26.5233889 C147.010691,26.9683889 147.372066,27.3289444 147.818077,27.3289444 L153.737611,27.3289444 C158.824702,27.3289444 161.48685,23.2189444 161.48685,19.2606111 C161.48685,17.1995 160.801964,15.1706111 159.558032,13.7345" id="Fill-5" fill="#000000"></path>
                    <path d="M172.522374,27.4859444 C167.98709,27.4859444 164.297612,23.8048333 164.297612,19.2798333 C164.297612,14.7542778 167.98709,11.0737222 172.522374,11.0737222 C174.66501,11.0737222 176.694056,11.8909444 178.234772,13.3759444 C178.590022,13.7176111 178.600044,14.2826111 178.257044,14.6365 C177.914044,14.9903889 177.348317,15.0003889 176.993067,14.6587222 C175.786999,13.4970556 174.19951,12.8570556 172.522374,12.8570556 C168.972658,12.8570556 166.084999,15.7381667 166.084999,19.2798333 C166.084999,22.8215 168.972658,25.7026111 172.522374,25.7026111 C174.303635,25.7026111 175.994692,24.9698333 177.209669,23.6815 L177.209669,20.1715 L173.322522,20.1715 C172.828624,20.1715 172.428828,19.7720556 172.428828,19.2798333 C172.428828,18.7870556 172.828624,18.3881667 173.322522,18.3881667 L178.103919,18.3881667 C178.59726,18.3881667 178.997612,18.7870556 178.997612,19.2798333 L178.997612,24.0220556 C178.997612,24.2342778 178.921885,24.4392778 178.783794,24.6009444 C177.217465,26.4342778 174.935067,27.4859444 172.522374,27.4859444" id="Fill-7" fill="#000000"></path>
                    <path d="M50.0408602,20.7557778 L54.4903943,20.7557778 C57.7973375,20.7557778 59.1643261,18.8207778 59.1147693,16.9363333 C59.0897125,14.9018889 57.4738261,12.843 54.5900648,12.843 L50.0408602,12.843 L50.0408602,20.7557778 Z M50.0408602,22.3674444 L50.0408602,26.4791111 C50.0408602,27.6202222 48.2512466,27.5952222 48.2512466,26.5041111 L48.2512466,12.0996667 C48.2512466,11.5785556 48.6733148,11.2313333 49.1711102,11.2313333 L54.565008,11.2313333 C58.8658716,11.2313333 60.8793261,14.0835556 60.8793261,16.9363333 C60.8793261,19.9124444 58.8413716,22.3674444 54.4903943,22.3674444 L50.0408602,22.3674444 Z" id="Fill-9" fill="#000000"></path>
                    <path d="M119.668635,11.2313333 C120.886397,11.2313333 120.886397,12.943 119.668635,12.943 L114.338772,12.943 C114.338772,17.4074444 114.364385,21.9463333 114.364385,26.4107778 C114.364385,27.0307778 113.84209,27.3291111 113.419465,27.3291111 C112.99684,27.3291111 112.524658,27.0307778 112.524658,26.4107778 L112.524658,12.943 L107.219851,12.943 C106.051647,12.943 106.051647,11.2313333 107.219851,11.2313333 L119.668635,11.2313333 Z" id="Fill-11" fill="#000000"></path>
                    <path d="M72.031058,12.8570556 C68.481342,12.8570556 65.5931261,15.7387222 65.5931261,19.2803889 C65.5931261,22.8220556 68.481342,25.7031667 72.031058,25.7031667 C75.5807739,25.7031667 78.4689898,22.8220556 78.4689898,19.2803889 C78.4689898,15.7387222 75.5807739,12.8570556 72.031058,12.8570556 M72.031058,27.4865 C67.4957739,27.4865 63.8057398,23.8053889 63.8057398,19.2803889 C63.8057398,14.7553889 67.4957739,11.0737222 72.031058,11.0737222 C76.5668989,11.0737222 80.2563761,14.7553889 80.2563761,19.2803889 C80.2563761,23.8053889 76.5668989,27.4865 72.031058,27.4865" id="Fill-13" fill="#000000"></path>
                    <path d="M84.809367,27.3269444 C84.3160261,27.3269444 83.9156739,26.9275 83.9156739,26.4352778 L83.9156739,12.1258333 C83.9156739,11.6330556 84.3160261,11.2336111 84.809367,11.2336111 C85.3032648,11.2336111 85.7030602,11.6330556 85.7030602,12.1258333 L85.7030602,26.4352778 C85.7030602,26.9275 85.3032648,27.3269444 84.809367,27.3269444" id="Fill-15" fill="#000000"></path>
                    <path d="M102.249358,27.3269444 C101.984869,27.3269444 101.727619,27.2097222 101.555006,26.9969444 L91.5178011,14.6419444 L91.5178011,26.4352778 C91.5178011,26.9275 91.1174489,27.3269444 90.624108,27.3269444 C90.1302102,27.3269444 89.7304148,26.9275 89.7304148,26.4352778 L89.7304148,12.1258333 C89.7304148,11.7480556 89.968733,11.4113889 90.3250966,11.2852778 C90.682017,11.1591667 91.0795852,11.2708333 91.3184602,11.5636111 L101.355665,23.9191667 L101.355665,12.1258333 C101.355665,11.6330556 101.75546,11.2336111 102.249358,11.2336111 C102.742699,11.2336111 103.143051,11.6330556 103.143051,12.1258333 L103.143051,26.4352778 C103.143051,26.8130556 102.904733,27.1497222 102.547812,27.2758333 C102.449813,27.3102778 102.349028,27.3269444 102.249358,27.3269444" id="Fill-17" fill="#000000"></path>
                    <polygon id="Fill-19" fill="#000000" points="84.576617 39.8685 84.3878557 39.8685 83.9140034 38.1729444 83.4479466 39.8685 83.259742 39.8685 82.5887761 37.8079444 82.788117 37.8079444 83.3510602 39.5201667 83.8199011 37.8079444 84.0108898 37.8079444 84.4875261 39.5201667 85.0449011 37.8079444 85.2447989 37.8079444"></polygon>
                    <path d="M88.9952477,37.949 C88.4963386,37.949 88.0636909,38.314 88.0636909,38.8284444 C88.0636909,39.354 88.4712818,39.7245556 88.9896795,39.7245556 C89.4969409,39.7245556 89.9156682,39.3651111 89.9156682,38.8451111 C89.9156682,38.3306667 89.5052932,37.949 88.9952477,37.949 M88.9980318,39.9128889 C88.3799636,39.9128889 87.8777136,39.4617778 87.8777136,38.834 C87.8777136,38.2201111 88.3799636,37.7634444 88.9835545,37.7634444 C89.5993955,37.7634444 90.1038727,38.2117778 90.1038727,38.8395556 C90.1038727,39.459 89.6077477,39.9128889 88.9980318,39.9128889" id="Fill-21" fill="#000000"></path>
                    <path d="M94.5392636,38.0593889 C94.4674341,38.0149444 94.3922636,37.9955 94.1539455,37.9955 L93.2140364,37.9955 L93.2140364,38.8088333 L94.1539455,38.8088333 C94.372775,38.8088333 94.4702182,38.7955 94.5531841,38.7343889 C94.6584227,38.6571667 94.7113205,38.5188333 94.7113205,38.3916111 C94.7113205,38.2560556 94.6584227,38.1310556 94.5392636,38.0593889 M94.6695591,38.8838333 C94.5587523,38.9616111 94.4061841,38.9916111 94.3310136,38.9971667 L94.8555364,39.8682778 L94.63615,39.8682778 L94.1149682,38.9971667 L93.2140364,38.9971667 L93.2140364,39.8682778 L93.0197068,39.8682778 L93.0197068,37.8049444 L94.2374682,37.8049444 C94.4451614,37.8049444 94.5058545,37.8216111 94.6283545,37.8877222 C94.7998545,37.9821667 94.899525,38.2199444 94.899525,38.3999444 C94.899525,38.5738333 94.813775,38.7816111 94.6695591,38.8838333" id="Fill-23" fill="#000000"></path>
                    <polygon id="Fill-25" fill="#000000" points="99.445667 39.8685 98.6638943 38.7012778 98.0319057 39.3290556 98.0319057 39.8685 97.8403602 39.8685 97.8403602 37.8079444 98.0319057 37.8079444 98.0319057 39.0635 99.298667 37.8079444 99.562042 37.8079444 98.8053261 38.5601667 99.6734057 39.8685"></polygon>
                    <path d="M106.866439,37.9932222 L106.079098,37.9932222 L106.079098,39.6804444 L106.866439,39.6804444 C107.30187,39.6804444 107.673268,39.401 107.673268,38.8393333 C107.673268,38.2832222 107.326927,37.9932222 106.866439,37.9932222 M106.866439,39.8682222 L105.888109,39.8682222 L105.888109,37.8048889 L106.866439,37.8048889 C107.468359,37.8048889 107.864814,38.2143333 107.864814,38.8343333 C107.864814,39.451 107.418245,39.8682222 106.866439,39.8682222" id="Fill-27" fill="#000000"></path>
                    <polygon id="Fill-29" fill="#000000" points="110.841675 39.8685 110.841675 37.8079444 112.546652 37.8079444 112.546652 38.0012778 111.027095 38.0012778 111.027095 38.7096111 111.856198 38.7096111 111.856198 38.8973889 111.027095 38.8973889 111.027095 39.6807222 112.61347 39.6807222 112.61347 39.8685"></polygon>
                    <path d="M116.350055,39.9156667 C116.169645,39.9156667 115.99202,39.8878889 115.823305,39.8267778 C115.61227,39.7523333 115.493111,39.6473333 115.335532,39.4923333 L115.465827,39.3567778 C115.731986,39.6278889 115.989793,39.7245556 116.366759,39.7245556 C116.643498,39.7245556 117.159668,39.6528889 117.159668,39.279 C117.159668,39.0112222 116.885157,38.9028889 116.693611,38.8862222 C116.58002,38.8756667 116.305509,38.8784444 116.147373,38.8756667 C115.834441,38.8701111 115.484759,38.7456667 115.484759,38.3773333 C115.484759,38.0678889 115.745907,37.8851111 116.017077,37.8101111 C116.144589,37.7745556 116.278225,37.7606667 116.407964,37.7606667 C116.729805,37.7606667 116.976475,37.8662222 117.231498,38.0567778 L117.115123,38.1978889 C116.862884,38.0373333 116.682475,37.9462222 116.375111,37.9462222 C116.28602,37.9462222 116.197486,37.9517778 116.108952,37.9734444 C115.914623,38.0178889 115.67352,38.1451111 115.67352,38.3751111 C115.67352,38.6295556 115.945248,38.6817778 116.147373,38.6873333 C116.311077,38.6928889 116.558305,38.6928889 116.710316,38.704 C117.057214,38.7317778 117.350657,38.9251111 117.350657,39.2767778 C117.350657,39.7828889 116.749293,39.9156667 116.350055,39.9156667" id="Fill-31" fill="#000000"></path>
                    <mask id="mask-2" fill="white">
                        <use xlink:href="#path-1"></use>
                    </mask>
                    <g id="Clip-34"></g>
                    <polygon id="Fill-33" fill="#000000" mask="url(#mask-2)" points="120.283307 39.8683889 120.4665 39.8683889 120.4665 37.8078333 120.283307 37.8078333"></polygon>
                    <path d="M124.932349,39.8768889 C124.818758,39.9041111 124.699599,39.9185556 124.583224,39.9185556 C123.953462,39.9185556 123.440633,39.4868889 123.440633,38.8396667 C123.440633,38.2141111 123.961815,37.7635556 124.607724,37.7635556 C124.981906,37.7635556 125.265326,37.9046667 125.467451,38.1368889 L125.345508,38.2724444 C125.162315,38.0785556 124.937917,37.9518889 124.607724,37.9518889 C124.045338,37.9518889 123.632178,38.3585556 123.632178,38.8424444 C123.632178,39.3957778 124.067053,39.7274444 124.596587,39.7274444 C124.691247,39.7274444 124.785349,39.7163333 124.87444,39.6941111 C125.043156,39.653 125.328803,39.5257778 125.328803,39.3152222 L125.328803,38.9557778 L124.583224,38.9557778 L124.583224,38.7674444 L125.517565,38.7674444 L125.517565,39.3124444 C125.517565,39.6252222 125.198508,39.8102222 124.932349,39.8768889" id="Fill-35" fill="#000000" mask="url(#mask-2)"></path>
                    <polygon id="Fill-36" fill="#000000" mask="url(#mask-2)" points="130.196564 39.8685 128.741041 38.1040556 128.741041 39.8685 128.55228 39.8685 128.55228 37.8079444 128.741041 37.8079444 130.199348 39.5673889 130.199348 37.8079444 130.388109 37.8079444 130.388109 39.8685"></polygon>
                    <path d="M137.725581,39.9156667 C137.545172,39.9156667 137.367547,39.8878889 137.198831,39.8267778 C136.987797,39.7523333 136.868637,39.6473333 136.711058,39.4923333 L136.841353,39.3567778 C137.107512,39.6278889 137.365319,39.7245556 137.742285,39.7245556 C138.019024,39.7245556 138.535194,39.6528889 138.535194,39.279 C138.535194,39.0112222 138.260126,38.9028889 138.069137,38.8862222 C137.955547,38.8756667 137.681035,38.8784444 137.523456,38.8756667 C137.209967,38.8701111 136.860285,38.7456667 136.860285,38.3773333 C136.860285,38.0678889 137.121433,37.8851111 137.392603,37.8101111 C137.520115,37.7745556 137.653194,37.7606667 137.78349,37.7606667 C138.105331,37.7606667 138.352001,37.8662222 138.607024,38.0567778 L138.490649,38.1978889 C138.23841,38.0373333 138.058001,37.9462222 137.750081,37.9462222 C137.661547,37.9462222 137.573012,37.9517778 137.484478,37.9734444 C137.290149,38.0178889 137.049047,38.1451111 137.049047,38.3751111 C137.049047,38.6295556 137.320774,38.6817778 137.523456,38.6873333 C137.686603,38.6928889 137.933831,38.6928889 138.085842,38.704 C138.43274,38.7317778 138.726183,38.9251111 138.726183,39.2767778 C138.726183,39.7828889 138.124819,39.9156667 137.725581,39.9156667" id="Fill-37" fill="#000000" mask="url(#mask-2)"></path>
                    <polygon id="Fill-38" fill="#000000" mask="url(#mask-2)" points="142.382362 37.9932222 142.382362 39.8682222 142.194158 39.8682222 142.194158 37.9932222 141.400692 37.9932222 141.400692 37.8048889 143.164135 37.8048889 143.164135 37.9932222"></polygon>
                    <path d="M147.011749,39.9183889 C146.498919,39.9183889 146.113601,39.6695 146.113601,39.1245 L146.113601,37.8078333 L146.302362,37.8078333 L146.302362,39.1245 C146.302362,39.5806111 146.620862,39.7306111 147.034578,39.7306111 C147.258419,39.7306111 147.538499,39.6667222 147.674362,39.4700556 C147.749533,39.3622778 147.757885,39.2517222 147.757885,39.1245 L147.757885,37.8078333 L147.94609,37.8078333 L147.94609,39.1245 C147.94609,39.6945 147.535715,39.9183889 147.011749,39.9183889" id="Fill-39" fill="#000000" mask="url(#mask-2)"></path>
                    <path d="M152.034806,37.9932222 L151.247465,37.9932222 L151.247465,39.6804444 L152.034806,39.6804444 C152.470237,39.6804444 152.841635,39.401 152.841635,38.8393333 C152.841635,38.2832222 152.495294,37.9932222 152.034806,37.9932222 M152.034806,39.8682222 L151.055919,39.8682222 L151.055919,37.8048889 L152.034806,37.8048889 C152.636726,37.8048889 153.032624,38.2143333 153.032624,38.8343333 C153.032624,39.451 152.586612,39.8682222 152.034806,39.8682222" id="Fill-40" fill="#000000" mask="url(#mask-2)"></path>
                    <polygon id="Fill-41" fill="#000000" mask="url(#mask-2)" points="156.068341 39.8683889 156.250977 39.8683889 156.250977 37.8078333 156.068341 37.8078333"></polygon>
                    <path d="M160.362077,37.949 C159.863168,37.949 159.43052,38.314 159.43052,38.8284444 C159.43052,39.354 159.838111,39.7245556 160.356509,39.7245556 C160.86377,39.7245556 161.282498,39.3651111 161.282498,38.8451111 C161.282498,38.3306667 160.87268,37.949 160.362077,37.949 M160.364861,39.9128889 C159.746793,39.9128889 159.2451,39.4617778 159.2451,38.834 C159.2451,38.2201111 159.746793,37.7634444 160.350941,37.7634444 C160.966225,37.7634444 161.471259,38.2117778 161.471259,38.8395556 C161.471259,39.459 160.975134,39.9128889 160.364861,39.9128889" id="Fill-42" fill="#000000" mask="url(#mask-2)"></path>
                    <path d="M2.25071477,26.5348889 C2.25071477,27.1554444 1.74679432,27.6576667 1.12538523,27.6576667 C0.503976136,27.6576667 5.56818182e-05,27.1554444 5.56818182e-05,26.5348889 C5.56818182e-05,25.9148889 0.503976136,25.4121111 1.12538523,25.4121111 C1.74679432,25.4121111 2.25071477,25.9148889 2.25071477,26.5348889" id="Fill-43" fill="#000000" mask="url(#mask-2)"></path>
                    <path d="M31.6609602,26.5348889 C31.6609602,27.1554444 31.1570398,27.6576667 30.5356307,27.6576667 C29.9142216,27.6576667 29.4103011,27.1554444 29.4103011,26.5348889 C29.4103011,25.9148889 29.9142216,25.4121111 30.5356307,25.4121111 C31.1570398,25.4121111 31.6609602,25.9148889 31.6609602,26.5348889" id="Fill-44" fill="#000000" mask="url(#mask-2)"></path>
                    <path d="M16.9558375,1.12283333 C16.9558375,1.74283333 16.451917,2.24561111 15.830508,2.24561111 C15.2090989,2.24561111 14.7051784,1.74283333 14.7051784,1.12283333 C14.7051784,0.502833333 15.2090989,5.55555555e-05 15.830508,5.55555555e-05 C16.451917,5.55555555e-05 16.9558375,0.502833333 16.9558375,1.12283333" id="Fill-45" fill="#000000" mask="url(#mask-2)"></path>
                    <polygon id="Fill-46" fill="#000000" mask="url(#mask-2)" points="15.830508 35.0057222 20.7321784 26.5346111 10.9288375 26.5346111"></polygon>
                    <polygon id="Fill-47" fill="#000000" mask="url(#mask-2)" points="30.5356307 9.59366667 20.7322898 9.59366667 25.6339602 18.0642222"></polygon>
                    <polygon id="Fill-48" fill="#000000" mask="url(#mask-2)" points="1.12538523 9.59366667 10.9287261 9.59366667 6.02705568 18.0642222"></polygon>
                </g>
            </g>
        </g>
    </g>
</svg>