<?xml version="1.0" encoding="UTF-8"?>
<svg width="520px" height="309px" viewBox="0 0 520 309" version="1.1" xmlns="http://www.w3.org/2000/svg" xmlns:xlink="http://www.w3.org/1999/xlink">
    <!-- Generator: Sketch 45.1 (43504) - http://www.bohemiancoding.com/sketch -->
    <title>Page 1</title>
    <desc>Created with Sketch.</desc>
    <defs>
        <polygon id="path-1" points="0.2558 0.168 20.7038 0.168 20.7038 25.6718 0.2558 25.6718 0.2558 0.168"></polygon>
        <polygon id="path-3" points="0 309 520 309 520 0.168 0 0.168"></polygon>
    </defs>
    <g id="Page-1" stroke="none" stroke-width="1" fill="none" fill-rule="evenodd">
        <g transform="translate(0.000000, -1.000000)">
            <path d="M442,249.832 L520,249.832 L520,49.832 L442,49.832 L442,249.832 Z M444,247.832 L518.001,247.832 L518.001,51.832 L444,51.832 L444,247.832 Z" id="Fill-1" fill="#FFFFFF"></path>
            <path d="M232,203.832 L260,203.832 L260,49.832 L232,49.832 L232,203.832 Z M234,201.832 L258,201.832 L258,51.832 L234,51.832 L234,201.832 Z" id="Fill-2" fill="#FFFFFF"></path>
            <path d="M36,309.832 L60,309.832 L60,285.832 L36,285.832 L36,309.832 Z M38,307.832 L58,307.832 L58,287.832 L38,287.832 L38,307.832 Z" id="Fill-3" fill="#FFFFFF"></path>
            <path d="M76,309.832 L100,309.832 L100,285.832 L76,285.832 L76,309.832 Z M78,307.832 L98,307.832 L98,287.832 L78,287.832 L78,307.832 Z" id="Fill-4" fill="#FFFFFF"></path>
            <path d="M115,309.832 L138.999,309.832 L138.999,285.832 L115,285.832 L115,309.832 Z M117,307.832 L137,307.832 L137,287.832 L117,287.832 L117,307.832 Z" id="Fill-5" fill="#FFFFFF"></path>
            <path d="M155,309.832 L179,309.832 L179,285.832 L155,285.832 L155,309.832 Z M157,307.832 L177.001,307.832 L177.001,287.832 L157,287.832 L157,307.832 Z" id="Fill-6" fill="#FFFFFF"></path>
            <path d="M60,248.332 L198,248.332 L198,197.332 L60,197.332 L60,248.332 Z M61.994,246.339 L196.007,246.339 L196.007,199.326 L61.994,199.326 L61.994,246.339 Z" id="Fill-7" fill="#FFFFFF"></path>
            <path d="M95.5,161.832 L162.5,161.832 L162.5,49.832 L95.5,49.832 L95.5,161.832 Z M97.492,159.84 L160.508,159.84 L160.508,51.823 L97.492,51.823 L97.492,159.84 Z" id="Fill-8" fill="#FFFFFF"></path>
            <path d="M0,309.832 L520,309.832 L520,49.832 L0,49.832 L0,309.832 Z M1.999,307.833 L518.001,307.833 L518.001,51.831 L1.999,51.831 L1.999,307.833 Z" id="Fill-9" fill="#FFFFFF"></path>
            <polygon id="Fill-10" fill="#FFFFFF" points="229.6161 1.7044 229.6161 7.0164 233.1371 7.0164 233.1371 25.8314 239.4081 25.8314 239.4081 1.7044"></polygon>
            <g id="Group-43" transform="translate(0.000000, 0.832000)">
                <g id="Group-13" transform="translate(250.000000, 0.000000)">
                    <mask id="mask-2" fill="white">
                        <use xlink:href="#path-1"></use>
                    </mask>
                    <g id="Clip-12"></g>
                    <path d="M6.4648,12.9038 C6.4648,13.9708 6.5608,14.9418 6.7518,15.8158 C6.9438,16.6908 7.2168,17.4478 7.5688,18.0878 C7.9198,18.7278 8.3418,19.2238 8.8318,19.5758 C9.3218,19.9278 9.8768,20.1038 10.4958,20.1038 C11.0938,20.1038 11.6428,19.9278 12.1448,19.5758 C12.6448,19.2238 13.0668,18.7278 13.4078,18.0878 C13.7488,17.4478 14.0158,16.6908 14.2078,15.8158 C14.4008,14.9418 14.4958,13.9708 14.4958,12.9038 C14.4958,11.8588 14.4008,10.8938 14.2078,10.0078 C14.0158,9.1228 13.7488,8.3658 13.4078,7.7358 C13.0668,7.1068 12.6448,6.6158 12.1448,6.2638 C11.6428,5.9118 11.0938,5.7358 10.4958,5.7358 C9.8768,5.7358 9.3218,5.9118 8.8318,6.2638 C8.3418,6.6158 7.9198,7.1068 7.5688,7.7358 C7.2168,8.3658 6.9438,9.1228 6.7518,10.0078 C6.5608,10.8938 6.4648,11.8588 6.4648,12.9038 M0.2558,12.9038 C0.2558,10.9838 0.5068,9.2398 1.0078,7.6718 C1.5098,6.1038 2.2128,4.7658 3.1198,3.6558 C4.0268,2.5468 5.1038,1.6878 6.3518,1.0798 C7.5998,0.4718 8.9818,0.1678 10.4958,0.1678 C11.9888,0.1678 13.3648,0.4718 14.6238,1.0798 C15.8828,1.6878 16.9608,2.5468 17.8568,3.6558 C18.7518,4.7658 19.4508,6.1038 19.9518,7.6718 C20.4528,9.2398 20.7038,10.9838 20.7038,12.9038 C20.7038,14.8238 20.4528,16.5678 19.9518,18.1358 C19.4508,19.7038 18.7518,21.0478 17.8568,22.1678 C16.9608,23.2878 15.8828,24.1518 14.6238,24.7598 C13.3648,25.3678 11.9888,25.6718 10.4958,25.6718 C8.9818,25.6718 7.5998,25.3678 6.3518,24.7598 C5.1038,24.1518 4.0268,23.2878 3.1198,22.1678 C2.2128,21.0478 1.5098,19.7038 1.0078,18.1358 C0.5068,16.5678 0.2558,14.8238 0.2558,12.9038" id="Fill-11" fill="#FFFFFF" mask="url(#mask-2)"></path>
                </g>
                <polygon id="Fill-14" fill="#FFFFFF" points="290.9277 6.1841 283.3747 6.1841 283.3747 10.2161 290.2557 10.2161 290.2557 15.5281 283.3747 15.5281 283.3747 25.0001 277.1037 25.0001 277.1037 0.8721 290.9277 0.8721"></polygon>
                <mask id="mask-4" fill="white">
                    <use xlink:href="#path-3"></use>
                </mask>
                <g id="Clip-17"></g>
                <path d="M0,273 L26,273 L26,49 L0,49 L0,273 Z M1.998,271.002 L24.002,271.002 L24.002,50.998 L1.998,50.998 L1.998,271.002 Z" id="Fill-16" fill="#FFFFFF" mask="url(#mask-4)"></path>
                <path d="M384,179 C384,197.778 368.777,213 350,213 C331.222,213 316,197.778 316,179 C316,160.222 331.222,145 350,145 C368.777,145 384,160.222 384,179" id="Fill-18" fill="#FFFFFF" mask="url(#mask-4)"></path>
                <path d="M334.9687,166.7539 C334.7527,166.9099 334.7397,166.9339 334.4407,167.2579 C333.6857,168.0499 332.6657,168.9249 331.6337,169.6689 L331.6337,174.7769 C331.6337,175.4609 331.6467,175.7259 331.6947,176.0489 L330.6507,176.0489 C330.7107,175.7369 330.7227,175.4609 330.7227,174.8019 L330.7227,170.2439 C329.1637,171.2039 328.2877,171.5999 326.0937,172.3429 C325.9257,171.9589 325.8647,171.8389 325.6257,171.5389 C327.8797,170.9519 329.9547,169.9199 331.8497,168.4339 C332.9657,167.5689 333.8047,166.7309 334.1407,166.1659 L334.9687,166.7539 Z" id="Fill-19" fill="#000000" mask="url(#mask-4)"></path>
                <path d="M346.8008,166.7666 C347.3278,167.3176 347.6398,167.7136 348.0718,168.4206 L347.4368,168.7566 C347.0398,168.0736 346.7398,167.6536 346.1888,167.0666 L346.8008,166.7666 Z M345.6018,167.4016 C346.1288,167.9536 346.4408,168.3616 346.8718,169.0566 L346.2368,169.3926 C345.8408,168.7086 345.5408,168.3016 344.9888,167.7016 L345.6018,167.4016 Z M338.0088,171.8996 C338.1768,171.8036 338.2608,171.7316 338.4048,171.5996 C338.7648,171.2516 339.8678,169.9196 340.4558,169.1406 C341.1398,168.2296 341.4398,168.0006 341.9798,168.0006 C342.4588,168.0006 342.6508,168.1456 343.5268,169.1046 C344.8688,170.5796 346.3088,171.9586 347.6278,173.0266 C348.1918,173.4826 348.3838,173.6256 348.6228,173.7456 L348.1678,174.7296 C347.9048,174.4906 347.8918,174.4776 347.1008,173.8066 C345.9968,172.8826 344.6538,171.5636 343.0338,169.8246 C342.2428,168.9726 342.1958,168.9366 341.9548,168.9366 C341.7148,168.9366 341.6548,168.9966 341.1278,169.7046 C340.6598,170.3396 339.7248,171.4916 338.9568,172.3786 C338.8728,172.4746 338.7768,172.5946 338.6208,172.7986 L338.0088,171.8996 Z" id="Fill-20" fill="#000000" mask="url(#mask-4)"></path>
                <path d="M352.4092,167.21 C353.6922,168.025 354.4352,168.613 355.2992,169.465 L354.6762,170.208 C353.8122,169.273 352.8642,168.493 351.8212,167.857 L352.4092,167.21 Z M351.6412,174.646 C352.5772,174.609 354.0152,174.238 355.1312,173.723 C357.4462,172.69 359.0532,170.928 360.0242,168.385 C360.3012,168.757 360.4212,168.865 360.7562,169.093 C359.7972,171.18 358.6812,172.583 357.0982,173.675 C355.8632,174.514 354.6282,175.006 352.6252,175.461 C352.3012,175.533 352.2052,175.558 351.9052,175.653 L351.6412,174.646 Z" id="Fill-21" fill="#000000" mask="url(#mask-4)"></path>
                <path d="M366.0996,176.0605 C366.1476,175.7375 366.1716,175.4495 366.1716,174.8015 L366.1716,167.3535 C366.1716,166.7175 366.1476,166.4305 366.0996,166.1305 L367.1306,166.1305 C367.0826,166.4425 367.0716,166.6945 367.0716,167.3775 L367.0716,169.6205 C368.9176,170.2805 370.3096,170.9395 372.4086,172.1515 L371.8926,173.0395 C370.7656,172.2475 369.1106,171.3595 367.4186,170.6645 C367.2396,170.5915 367.1556,170.5435 367.0466,170.4595 L367.0236,170.4715 C367.0596,170.7115 367.0716,170.8795 367.0716,171.1795 L367.0716,174.7895 C367.0716,175.4605 367.0826,175.7255 367.1306,176.0605 L366.0996,176.0605 Z" id="Fill-22" fill="#000000" mask="url(#mask-4)"></path>
                <path d="M334.8721,191.7969 C333.9251,190.5859 332.5691,189.2779 331.0341,188.0909 C330.1951,189.0509 329.6071,189.6029 328.7441,190.2379 C327.9161,190.8379 327.2801,191.2339 326.3931,191.6769 C326.2011,191.3179 326.1051,191.1859 325.8061,190.8859 C326.7281,190.5139 327.3161,190.1909 328.2401,189.5069 C330.1591,188.0909 331.6461,186.1959 332.5211,184.0979 C332.5461,184.0259 332.5581,184.0139 332.5821,183.9529 C332.6051,183.9179 332.6051,183.9049 332.6171,183.8689 C332.5101,183.8819 332.4741,183.8819 332.3301,183.8819 L328.3241,183.9419 C327.7841,183.9529 327.4361,183.9779 327.0891,184.0369 L327.0641,183.0669 C327.3891,183.1139 327.6041,183.1259 328.0121,183.1259 L328.3241,183.1259 L332.6051,183.0779 C333.0251,183.0669 333.1691,183.0539 333.3731,182.9829 L333.8771,183.4979 C333.7571,183.6419 333.6731,183.7849 333.5411,184.0849 C332.8691,185.5719 332.3061,186.5209 331.5621,187.4429 C333.1341,188.6429 334.1881,189.5909 335.5561,191.0419 L334.8721,191.7969 Z" id="Fill-23" fill="#000000" mask="url(#mask-4)"></path>
                <path d="M345.8408,184.4932 C345.8408,184.8892 346.1768,185.2242 346.5718,185.2242 C346.9808,185.2242 347.3038,184.9012 347.3038,184.4932 C347.3038,184.0852 346.9808,183.7622 346.5718,183.7622 C346.1648,183.7622 345.8408,184.0852 345.8408,184.4932 L345.8408,184.4932 Z M347.8078,184.4932 C347.8078,185.1772 347.2558,185.7282 346.5718,185.7282 C345.8888,185.7282 345.3368,185.1772 345.3368,184.4932 C345.3368,183.8092 345.8888,183.2582 346.5718,183.2582 C347.2558,183.2582 347.8078,183.8092 347.8078,184.4932 L347.8078,184.4932 Z M337.9968,188.0672 C338.1538,187.9722 338.2488,187.8992 338.3928,187.7672 C338.7528,187.4202 339.8568,186.1002 340.4448,185.3202 C341.1148,184.4092 341.4278,184.1812 341.9668,184.1812 C342.4468,184.1812 342.6508,184.3252 343.5148,185.2852 C344.8338,186.7362 346.2968,188.1272 347.6158,189.1942 C348.1678,189.6502 348.3708,189.7942 348.6118,189.9142 L348.1548,190.8972 C347.8918,190.6582 347.8798,190.6452 347.0878,189.9742 C345.9728,189.0512 344.6298,187.7312 343.0228,186.0042 C342.2308,185.1652 342.1828,185.1172 341.9438,185.1172 C341.7148,185.1172 341.6438,185.1772 341.1148,185.8852 C340.6718,186.4842 339.6528,187.7312 338.9688,188.5232 C338.8008,188.7152 338.7528,188.7742 338.6098,188.9672 L337.9968,188.0672 Z" id="Fill-24" fill="#000000" mask="url(#mask-4)"></path>
                <path d="M350.9932,186.5918 C351.3422,186.6528 351.6652,186.6638 352.4802,186.6638 L359.4492,186.6638 C360.3372,186.6638 360.5282,186.6528 360.9002,186.6048 L360.9002,187.5748 C360.5162,187.5388 360.2402,187.5278 359.4362,187.5278 L352.4802,187.5278 C351.6052,187.5278 351.3532,187.5388 350.9932,187.5748 L350.9932,186.5918 Z" id="Fill-25" fill="#000000" mask="url(#mask-4)"></path>
                <path d="M372.6719,191.7969 C371.7249,190.5859 370.3689,189.2779 368.8339,188.0909 C367.9949,189.0509 367.4069,189.6029 366.5439,190.2379 C365.7159,190.8379 365.0799,191.2339 364.1929,191.6769 C364.0009,191.3179 363.9049,191.1859 363.6059,190.8859 C364.5279,190.5139 365.1159,190.1909 366.0399,189.5069 C367.9589,188.0909 369.4459,186.1959 370.3209,184.0979 C370.3459,184.0259 370.3579,184.0139 370.3819,183.9529 C370.4049,183.9179 370.4049,183.9049 370.4179,183.8689 C370.3099,183.8819 370.2739,183.8819 370.1299,183.8819 L366.1239,183.9419 C365.5839,183.9529 365.2359,183.9779 364.8889,184.0369 L364.8639,183.0669 C365.1889,183.1139 365.4039,183.1259 365.8129,183.1259 L366.1239,183.1259 L370.4049,183.0779 C370.8249,183.0669 370.9689,183.0539 371.1729,182.9829 L371.6769,183.4979 C371.5569,183.6419 371.4729,183.7849 371.3409,184.0849 C370.6689,185.5719 370.1059,186.5209 369.3619,187.4429 C370.9339,188.6429 371.9879,189.5909 373.3559,191.0419 L372.6719,191.7969 Z" id="Fill-26" fill="#000000" mask="url(#mask-4)"></path>
                <path d="M195,119 L63,119 C55.268,119 49,112.732 49,105 C49,97.268 55.268,91 63,91 L195,91 C202.732,91 209,97.268 209,105 C209,112.732 202.732,119 195,119" id="Fill-27" fill="#FFFFFF" mask="url(#mask-4)"></path>
                <path d="M69.7734,104.4004 C69.7734,104.3164 69.7854,104.1364 69.8104,103.6204 C69.5824,104.0644 69.4744,104.2204 68.9104,104.9634 C68.2874,105.7914 67.2304,106.7744 66.0684,107.6144 C65.5294,108.0094 65.0604,108.2974 64.0894,108.8494 C63.8974,108.5024 63.8014,108.3814 63.4894,108.1294 C64.9404,107.4824 66.2964,106.5234 67.5544,105.2634 C68.2264,104.5914 68.8864,103.7644 69.2834,103.0814 L65.3474,103.1044 C64.5934,103.1044 64.4254,103.1044 64.0174,103.1524 L64.0174,102.2534 C64.4484,102.3254 64.6644,102.3374 65.3734,102.3374 L69.7384,102.3134 L69.7264,101.1374 C69.7144,100.5144 69.7144,100.5144 69.6664,100.1664 L70.6254,100.1664 C70.5894,100.4304 70.5784,100.6224 70.5784,100.8264 L70.5784,101.1144 L70.6014,102.3134 L72.1854,102.3134 C72.8554,102.3134 73.0004,102.3014 73.3844,102.2414 L73.3844,103.1174 C73.1324,103.0924 72.8804,103.0814 72.3884,103.0814 L72.2094,103.0814 L70.6014,103.0814 L70.6854,108.9214 C70.6854,109.4374 70.7094,109.8214 70.7464,110.1444 L69.7734,110.1444 C69.8104,109.7964 69.8224,109.6654 69.8224,109.1974 L69.8224,108.9334 L69.7734,104.5204 L69.7734,104.4484 L69.7734,104.4004 Z" id="Fill-28" fill="#000000" mask="url(#mask-4)"></path>
                <path d="M75.6934,104.5918 C76.0414,104.6528 76.3654,104.6638 77.1794,104.6638 L84.1484,104.6638 C85.0374,104.6638 85.2284,104.6528 85.5994,104.6048 L85.5994,105.5748 C85.2164,105.5388 84.9394,105.5278 84.1364,105.5278 L77.1794,105.5278 C76.3044,105.5278 76.0524,105.5388 75.6934,105.5748 L75.6934,104.5918 Z" id="Fill-29" fill="#000000" mask="url(#mask-4)"></path>
                <path d="M96.209,101.0898 C96.209,101.4858 96.545,101.8208 96.939,101.8208 C97.348,101.8208 97.672,101.4978 97.672,101.0898 C97.672,100.6828 97.348,100.3588 96.939,100.3588 C96.533,100.3588 96.209,100.6828 96.209,101.0898 L96.209,101.0898 Z M95.729,101.3058 C95.717,101.2098 95.705,101.1508 95.705,101.0778 C95.705,100.4058 96.256,99.8548 96.939,99.8548 C97.623,99.8548 98.176,100.4058 98.176,101.0898 C98.176,101.7738 97.623,102.3248 96.939,102.3248 C96.855,102.3248 96.785,102.3138 96.676,102.2888 C96.256,103.8488 95.693,105.1548 95.01,106.1268 C94.301,107.1468 93.234,108.1418 92.059,108.8738 C91.375,109.3058 90.836,109.5688 89.852,109.9418 C89.672,109.5578 89.576,109.4258 89.264,109.1128 C90.344,108.7898 91.051,108.4538 91.975,107.8418 C93.941,106.5238 95.082,104.8078 95.752,102.1208 L89.648,102.1208 C89.037,102.1208 88.701,102.1338 88.305,102.1938 L88.305,101.2338 C88.762,101.2938 89,101.3058 89.66,101.3058 L95.561,101.3058 L95.729,101.3058 Z" id="Fill-30" fill="#000000" mask="url(#mask-4)"></path>
                <path d="M101.1094,101.21 C102.3924,102.025 103.1344,102.613 103.9984,103.465 L103.3754,104.208 C102.5114,103.273 101.5644,102.493 100.5214,101.857 L101.1094,101.21 Z M100.3414,108.646 C101.2774,108.609 102.7144,108.238 103.8324,107.723 C106.1464,106.69 107.7524,104.928 108.7244,102.385 C109.0004,102.757 109.1214,102.865 109.4554,103.093 C108.4964,105.18 107.3804,106.583 105.7984,107.675 C104.5624,108.514 103.3284,109.006 101.3244,109.461 C101.0004,109.533 100.9044,109.558 100.6054,109.653 L100.3414,108.646 Z" id="Fill-31" fill="#000000" mask="url(#mask-4)"></path>
                <path d="M120.7715,109.7969 C119.8245,108.5859 118.4685,107.2779 116.9335,106.0909 C116.0955,107.0509 115.5075,107.6029 114.6445,108.2379 C113.8165,108.8379 113.1795,109.2339 112.2925,109.6769 C112.1015,109.3179 112.0055,109.1859 111.7055,108.8859 C112.6285,108.5139 113.2165,108.1909 114.1405,107.5069 C116.0585,106.0909 117.5465,104.1959 118.4215,102.0979 C118.4455,102.0259 118.4575,102.0139 118.4825,101.9529 C118.5055,101.9179 118.5055,101.9049 118.5175,101.8689 C118.4105,101.8819 118.3735,101.8819 118.2305,101.8819 L114.2245,101.9419 C113.6835,101.9529 113.3355,101.9779 112.9885,102.0369 L112.9645,101.0669 C113.2895,101.1139 113.5035,101.1259 113.9125,101.1259 L114.2245,101.1259 L118.5055,101.0779 C118.9255,101.0669 119.0685,101.0539 119.2735,100.9829 L119.7775,101.4979 C119.6565,101.6419 119.5725,101.7849 119.4415,102.0849 C118.7695,103.5719 118.2055,104.5209 117.4625,105.4429 C119.0335,106.6429 120.0875,107.5909 121.4555,109.0419 L120.7715,109.7969 Z" id="Fill-32" fill="#000000" mask="url(#mask-4)"></path>
                <path d="M131.1406,102.4932 C131.1406,102.8892 131.4766,103.2242 131.8726,103.2242 C132.2816,103.2242 132.6036,102.9012 132.6036,102.4932 C132.6036,102.0852 132.2816,101.7622 131.8726,101.7622 C131.4646,101.7622 131.1406,102.0852 131.1406,102.4932 L131.1406,102.4932 Z M133.1076,102.4932 C133.1076,103.1772 132.5566,103.7282 131.8726,103.7282 C131.1896,103.7282 130.6366,103.1772 130.6366,102.4932 C130.6366,101.8092 131.1896,101.2582 131.8726,101.2582 C132.5566,101.2582 133.1076,101.8092 133.1076,102.4932 L133.1076,102.4932 Z M123.2966,106.0672 C123.4536,105.9722 123.5486,105.8992 123.6936,105.7672 C124.0526,105.4202 125.1566,104.1002 125.7446,103.3202 C126.4156,102.4092 126.7286,102.1812 127.2676,102.1812 C127.7476,102.1812 127.9516,102.3252 128.8146,103.2852 C130.1346,104.7362 131.5976,106.1272 132.9156,107.1942 C133.4686,107.6502 133.6716,107.7942 133.9116,107.9142 L133.4546,108.8972 C133.1916,108.6582 133.1796,108.6452 132.3886,107.9742 C131.2736,107.0512 129.9296,105.7312 128.3226,104.0042 C127.5316,103.1652 127.4826,103.1172 127.2446,103.1172 C127.0156,103.1172 126.9436,103.1772 126.4156,103.8852 C125.9726,104.4842 124.9536,105.7312 124.2696,106.5232 C124.1016,106.7152 124.0526,106.7742 123.9106,106.9672 L123.2966,106.0672 Z" id="Fill-33" fill="#000000" mask="url(#mask-4)"></path>
                <path d="M135.6934,104.5918 C136.0414,104.6528 136.3654,104.6638 137.1794,104.6638 L144.1484,104.6638 C145.0374,104.6638 145.2284,104.6528 145.5994,104.6048 L145.5994,105.5748 C145.2164,105.5388 144.9394,105.5278 144.1364,105.5278 L137.1794,105.5278 C136.3044,105.5278 136.0524,105.5388 135.6934,105.5748 L135.6934,104.5918 Z" id="Fill-34" fill="#000000" mask="url(#mask-4)"></path>
                <path d="M156.7715,109.7969 C155.8245,108.5859 154.4685,107.2779 152.9335,106.0909 C152.0955,107.0509 151.5075,107.6029 150.6445,108.2379 C149.8165,108.8379 149.1795,109.2339 148.2925,109.6769 C148.1015,109.3179 148.0055,109.1859 147.7055,108.8859 C148.6285,108.5139 149.2165,108.1909 150.1405,107.5069 C152.0585,106.0909 153.5465,104.1959 154.4215,102.0979 C154.4455,102.0259 154.4575,102.0139 154.4825,101.9529 C154.5055,101.9179 154.5055,101.9049 154.5175,101.8689 C154.4105,101.8819 154.3735,101.8819 154.2305,101.8819 L150.2245,101.9419 C149.6835,101.9529 149.3355,101.9779 148.9885,102.0369 L148.9645,101.0669 C149.2895,101.1139 149.5035,101.1259 149.9125,101.1259 L150.2245,101.1259 L154.5055,101.0779 C154.9255,101.0669 155.0685,101.0539 155.2735,100.9829 L155.7775,101.4979 C155.6565,101.6419 155.5725,101.7849 155.4415,102.0849 C154.7695,103.5719 154.2055,104.5209 153.4625,105.4429 C155.0335,106.6429 156.0875,107.5909 157.4555,109.0419 L156.7715,109.7969 Z" id="Fill-35" fill="#000000" mask="url(#mask-4)"></path>
                <path d="M164.9707,107.7705 L168.1857,107.7705 C168.9047,107.7705 169.1567,107.7575 169.5877,107.6985 L169.5877,108.6335 C169.1797,108.5855 168.8317,108.5745 168.1977,108.5745 L161.0727,108.5745 C160.4497,108.5745 160.1017,108.5855 159.6937,108.6335 L159.6937,107.6985 C160.1247,107.7575 160.3767,107.7705 161.0837,107.7705 L164.0817,107.7705 L164.0817,102.4575 L161.9957,102.4575 C161.3477,102.4575 161.0117,102.4685 160.6057,102.5175 L160.6057,101.5935 C161.0257,101.6535 161.3127,101.6665 162.0077,101.6665 L167.2737,101.6665 C167.9687,101.6665 168.2557,101.6535 168.6757,101.5935 L168.6757,102.5175 C168.2697,102.4685 167.9337,102.4575 167.2847,102.4575 L164.9707,102.4575 L164.9707,107.7705 Z" id="Fill-36" fill="#000000" mask="url(#mask-4)"></path>
                <path d="M179.7773,100.4307 C179.7283,100.7057 179.7163,100.8987 179.7163,101.4737 L179.7163,102.8887 C179.7163,104.7957 179.6323,105.8517 179.4183,106.5467 C179.0683,107.6747 178.3143,108.5497 177.1383,109.2097 C176.5503,109.5447 175.9743,109.7737 174.9553,110.0737 C174.8243,109.7257 174.7523,109.6057 174.4513,109.2447 C175.5313,109.0057 176.1073,108.8017 176.7303,108.4297 C177.8453,107.7827 178.4223,107.0147 178.6503,105.8997 C178.7813,105.2157 178.8183,104.6637 178.8183,102.8407 L178.8183,101.4857 C178.8183,100.8627 178.8043,100.6947 178.7693,100.4307 L179.7773,100.4307 Z M174.4633,100.4307 C174.4273,100.7177 174.4163,100.8737 174.4163,101.4257 L174.4163,104.6527 C174.4163,105.2277 174.4273,105.3597 174.4633,105.6477 L173.4683,105.6477 C173.5043,105.3717 173.5153,105.1197 173.5153,104.6397 L173.5153,101.4377 C173.5153,100.9217 173.5043,100.7177 173.4683,100.4307 L174.4633,100.4307 Z" id="Fill-37" fill="#000000" mask="url(#mask-4)"></path>
                <path d="M193.5879,101.4141 C193.4689,101.5691 193.4429,101.6051 193.3009,101.8931 C192.4729,103.5011 191.3579,104.5921 189.7989,105.3111 C189.6169,105.0121 189.5219,104.9041 189.2109,104.6281 C190.0509,104.3041 190.5409,104.0171 191.1059,103.4881 C191.6559,102.9731 192.1019,102.3851 192.4489,101.7011 L185.6369,101.7011 C184.9769,101.7011 184.6639,101.7141 184.2209,101.7621 L184.2209,100.8381 C184.6289,100.8981 184.9649,100.9221 185.6489,100.9221 L192.0879,100.9221 C192.8929,100.9221 192.8929,100.9221 193.1079,100.8381 L193.5879,101.4141 Z M188.8499,102.9251 C188.8149,103.1411 188.8149,103.1411 188.8029,103.7651 C188.7659,105.7681 188.4319,106.9551 187.6149,107.9861 C186.8829,108.9091 185.9959,109.5101 184.5449,110.0601 C184.3649,109.6771 184.2809,109.5581 183.9939,109.2581 C184.9649,108.9701 185.5649,108.6701 186.1879,108.1541 C187.4589,107.1351 187.9279,105.9111 187.9279,103.5721 C187.9279,103.2361 187.9139,103.1521 187.8789,102.9251 L188.8499,102.9251 Z" id="Fill-38" fill="#000000" mask="url(#mask-4)"></path>
                <path d="M151,161 C151,173.15 141.15,183 129,183 C116.85,183 107,173.15 107,161 C107,148.85 116.85,139 129,139 C141.15,139 151,148.85 151,161" id="Fill-39" fill="#FFFFFF" mask="url(#mask-4)"></path>
                <path d="M117.1436,165.0908 C116.3876,165.0908 116.2076,165.1028 115.8246,165.1508 C115.9566,164.2028 115.9926,164.0238 116.1716,163.5678 C116.4716,162.8118 116.9756,162.1528 117.7306,161.5038 C118.1506,161.1448 118.1746,161.1328 119.5656,160.1858 C120.7526,159.3818 121.1486,158.8538 121.1486,158.1218 C121.1486,157.2108 120.3806,156.6228 119.1586,156.6228 C118.3666,156.6228 117.7786,156.8868 117.4186,157.4028 C117.1916,157.7268 117.0826,158.0148 116.9986,158.6138 L115.9926,158.4458 C116.1716,157.5818 116.3516,157.1628 116.7476,156.7188 C117.2876,156.1078 118.1026,155.7958 119.1586,155.7958 C120.9686,155.7958 122.1326,156.7068 122.1326,158.1218 C122.1326,158.7338 121.8926,159.3098 121.4246,159.8248 C121.0646,160.2338 120.7526,160.4608 119.3856,161.3718 C118.4386,162.0078 118.0546,162.3438 117.6596,162.8478 C117.2876,163.3388 117.1196,163.6628 116.9756,164.2388 L120.8006,164.2388 C121.4006,164.2388 121.8086,164.2148 122.2646,164.1548 L122.2646,165.1618 C121.7846,165.1138 121.3886,165.0908 120.7896,165.0908 L117.1436,165.0908 Z" id="Fill-40" fill="#000000" mask="url(#mask-4)"></path>
                <path d="M125.4346,157.2471 C125.1826,157.5221 124.9916,157.8221 124.8946,158.1221 C124.6436,158.8531 124.5236,159.6691 124.5236,160.5451 C124.5236,161.6601 124.7626,162.8361 125.0866,163.3991 C125.5066,164.0951 126.1296,164.4421 126.9466,164.4421 C127.5456,164.4421 128.0616,164.2511 128.4206,163.8791 C128.6846,163.6031 128.8766,163.2911 128.9846,162.9431 C129.2366,162.2001 129.3566,161.4081 129.3566,160.5201 C129.3566,159.4771 129.1286,158.2901 128.8166,157.7261 C128.4206,157.0071 127.7736,156.6351 126.9336,156.6351 C126.3106,156.6351 125.8186,156.8391 125.4346,157.2471 M124.7396,164.4191 C124.4146,164.0951 124.1636,163.7231 124.0196,163.3151 C123.7196,162.4761 123.5636,161.5281 123.5636,160.5451 C123.5636,159.2731 123.8396,157.9781 124.2596,157.2821 C124.8346,156.3111 125.7586,155.8081 126.9466,155.8081 C127.8326,155.8081 128.6006,156.0961 129.1406,156.6591 C129.4766,156.9951 129.7166,157.3661 129.8606,157.7631 C130.1606,158.5901 130.3166,159.5501 130.3166,160.5451 C130.3166,161.9961 130.0036,163.2791 129.4766,164.0111 C128.8766,164.8511 128.0376,165.2701 126.9336,165.2701 C126.0456,165.2701 125.3026,164.9821 124.7396,164.4191" id="Fill-41" fill="#000000" mask="url(#mask-4)"></path>
                <path d="M136.137,160.113 L138.991,160.113 L138.991,158.805 L136.137,158.805 L136.137,160.113 Z M136.148,160.736 C135.837,160.736 135.621,160.749 135.381,160.772 C135.405,160.521 135.417,160.317 135.417,160.077 L135.417,158.806 L133.223,158.806 C133.175,161.001 133.091,162.176 132.898,163.207 C132.694,164.299 132.419,165.03 131.927,165.882 C131.783,165.678 131.604,165.522 131.304,165.318 C131.735,164.61 131.976,163.999 132.167,163.063 C132.383,162.032 132.503,160.257 132.503,157.99 C132.503,157.055 132.491,156.695 132.443,156.131 C132.827,156.167 133.234,156.191 133.714,156.191 L136.845,156.191 L136.845,155.903 C136.845,155.615 136.82,155.376 136.772,155.136 L137.672,155.136 C137.612,155.34 137.6,155.544 137.6,155.915 L137.6,156.191 L140.874,156.191 C141.426,156.191 141.822,156.167 142.17,156.119 L142.17,156.923 C141.882,156.875 141.594,156.863 140.922,156.863 L133.234,156.863 L133.234,158.146 L135.417,158.146 L135.417,158.002 C135.417,157.618 135.394,157.402 135.357,157.198 L136.185,157.198 C136.148,157.366 136.137,157.606 136.137,158.002 L136.137,158.146 L138.991,158.146 L138.991,158.002 C138.991,157.666 138.968,157.402 138.943,157.211 L139.771,157.211 C139.723,157.402 139.711,157.618 139.711,158.002 L139.711,158.146 L141.066,158.146 C141.642,158.146 141.905,158.134 142.193,158.086 L142.193,158.866 C141.882,158.817 141.618,158.806 141.066,158.806 L139.711,158.806 L139.711,160.077 C139.711,160.329 139.723,160.533 139.747,160.772 C139.471,160.749 139.303,160.736 138.932,160.736 L137.9,160.736 L137.9,161.78 L140.311,161.78 C140.79,161.78 141.078,161.769 141.39,161.732 C141.354,162.008 141.342,162.26 141.342,162.68 L141.342,164.539 C141.342,165.187 141.055,165.354 139.902,165.354 C139.627,165.354 139.436,165.354 139.1,165.33 C139.063,165.055 139.027,164.874 138.919,164.587 C139.399,164.635 139.711,164.658 140.059,164.658 C140.515,164.658 140.61,164.61 140.61,164.347 L140.61,162.439 L137.9,162.439 L137.9,164.839 C137.9,165.414 137.924,165.81 137.972,166.098 L137.084,166.098 C137.133,165.786 137.156,165.366 137.156,164.839 L137.156,162.439 L134.83,162.439 L134.83,164.227 C134.83,164.958 134.842,165.198 134.878,165.45 L134.026,165.45 C134.062,165.15 134.086,164.826 134.086,164.239 L134.086,162.775 C134.086,162.368 134.074,162.056 134.038,161.732 C134.35,161.769 134.674,161.78 135.178,161.78 L137.156,161.78 L137.156,160.736 L136.148,160.736 Z" id="Fill-42" fill="#000000" mask="url(#mask-4)"></path>
            </g>
        </g>
    </g>
</svg>