<svg xmlns="http://www.w3.org/2000/svg" viewBox="0 0 520 312.06"><defs><style>.cls-1,.cls-2{fill:#fff;}.cls-2{font-size:32px;font-family:Futura-Bold, Futura;font-weight:700;letter-spacing:0.1em;}.cls-3,.cls-4{font-size:12px;font-family:HiraKakuStd-W3, HiraKakuStd W3-83pv-RKSJ-H;}.cls-3{letter-spacing:0.05em;}</style></defs><title>アセット 2</title><g id="レイヤー_2" data-name="レイヤー 2"><g id="レイヤー_1-2" data-name="レイヤー 1"><path class="cls-1" d="M518,54.06v196H444v-196h74m2-2H442v200h78v-200Z"/><path class="cls-1" d="M258,54.06v150H234v-150h24m2-2H232v154h28v-154Z"/><path class="cls-1" d="M58,290.06v20H38v-20H58m2-2H36v24H60v-24Z"/><path class="cls-1" d="M98,290.06v20H78v-20H98m2-2H76v24h24v-24Z"/><path class="cls-1" d="M137,290.06v20H117v-20h20m2-2H115v24h24v-24Z"/><path class="cls-1" d="M177,290.06v20H157v-20h20m2-2H155v24h24v-24Z"/><path class="cls-1" d="M196,201.56v47H62v-47H196m2-2H60v51H198v-51Z"/><path class="cls-1" d="M160.51,54.06v108h-63v-108h63m2-2h-67v112h67v-112Z"/><path class="cls-1" d="M518,54.06v256H2v-256H518m2-2H0v260H520v-260Z"/><text class="cls-2" transform="translate(224.66 28.06)">10F</text><path class="cls-1" d="M24,54.06v220H2v-220H24m2-2H0v224H26v-224Z"/><circle class="cls-1" cx="350" cy="182.06" r="34"/><text class="cls-3" transform="translate(324.75 178.75)">イベント<tspan x="0" y="16">スペース</tspan></text><rect class="cls-1" x="49" y="94.06" width="160" height="28" rx="14" ry="14"/><text class="cls-4" transform="translate(86.65 112.75)">一時利用エリア</text><circle class="cls-1" cx="129" cy="164.06" r="22"/><text class="cls-4" transform="translate(116.39 168.23)">20席</text></g></g></svg>