<svg xmlns="http://www.w3.org/2000/svg" viewBox="0 0 520 312.06"><defs><style>.cls-1,.cls-3{fill:#fff;}.cls-2{fill:none;stroke:#fff;stroke-miterlimit:10;stroke-width:2px;}.cls-3{font-size:32px;font-family:Futura-Bold, Futura;font-weight:700;letter-spacing:0.1em;}.cls-4{font-size:14px;letter-spacing:0.05em;}.cls-4,.cls-6,.cls-7,.cls-8{font-family:HiraKakuStd-W3, HiraKakuStd W3-83pv-RKSJ-H;}.cls-5{letter-spacing:0.3em;}.cls-6{font-size:11px;letter-spacing:0.05em;}.cls-7,.cls-8{font-size:12px;}.cls-7{letter-spacing:0.05em;}</style></defs><title>アセット 3</title><g id="レイヤー_2" data-name="レイヤー 2"><g id="レイヤー_1-2" data-name="レイヤー 1"><path class="cls-1" d="M518,54.06v256H2v-256H518m2-2H0v260H520v-260Z"/><line class="cls-2" x1="252" y1="52.06" x2="252" y2="312.06"/><line class="cls-2" x1="252" y1="225.2" x2="520" y2="225.06"/><line class="cls-2" x1="386" y1="52.06" x2="385.96" y2="225.06"/><path class="cls-1" d="M68,81V250.09H23V81H68m2-2H21v173H70v-173Z"/><path class="cls-1" d="M133,81V250.09H90V81H133m2-2H88v173h47v-173Z"/><path class="cls-1" d="M250.55,53.51V236.62H155.45V53.51h95.11M252,52.06H154v186h98v-186Z"/><text class="cls-3" transform="translate(237.14 28.06)">4F</text><rect class="cls-1" x="279" y="126.06" width="80" height="28" rx="14" ry="14"/><text class="cls-4" transform="translate(290.26 144.75)">会議<tspan class="cls-5" x="29.4" y="0">室</tspan><tspan x="47.6" y="0">A</tspan></text><rect class="cls-1" x="413" y="126.06" width="80" height="28" rx="14" ry="14"/><text class="cls-4" transform="translate(424.79 144.75)">会議<tspan class="cls-5" x="29.4" y="0">室</tspan><tspan x="47.6" y="0">B</tspan></text><circle class="cls-1" cx="78" cy="138.06" r="34"/><text class="cls-6" transform="translate(49.05 133.75)">テーブル席<tspan x="11.55" y="20">エリア</tspan></text><circle class="cls-1" cx="203" cy="129.06" r="34"/><text class="cls-7" transform="translate(177.75 127.75)">ブース席<tspan x="6.3" y="16">エリア</tspan></text><circle class="cls-1" cx="203" cy="199.06" r="22"/><text class="cls-8" transform="translate(193.69 203.23)">4席</text><circle class="cls-1" cx="78" cy="213.06" r="22"/><text class="cls-8" transform="translate(65.39 217.23)">18席</text></g></g></svg>