<?xml version="1.0" encoding="UTF-8"?>
<svg width="520px" height="309px" viewBox="0 0 520 309" version="1.1" xmlns="http://www.w3.org/2000/svg" xmlns:xlink="http://www.w3.org/1999/xlink">
    <!-- Generator: Sketch 45.1 (43504) - http://www.bohemiancoding.com/sketch -->
    <title>Page 1</title>
    <desc>Created with Sketch.</desc>
    <defs>
        <polygon id="path-1" points="0 309 520 309 520 0.872 0 0.872"></polygon>
    </defs>
    <g id="Page-1" stroke="none" stroke-width="1" fill="none" fill-rule="evenodd">
        <g transform="translate(0.000000, -1.000000)">
            <path d="M0,309.128 L520,309.128 L520,49.128 L0,49.128 L0,309.128 Z M1.999,307.129 L518.001,307.129 L518.001,51.127 L1.999,51.127 L1.999,307.129 Z" id="Fill-1" fill="#FFFFFF"></path>
            <polygon id="Fill-2" fill="#FFFFFF" points="251 309.128 253 309.128 253 49.128 251 49.128"></polygon>
            <polygon id="Fill-3" fill="#FFFFFF" points="251.9991 221.2682 252.0011 223.2692 520.0001 223.1272 519.9991 221.1282"></polygon>
            <polygon id="Fill-4" fill="#FFFFFF" points="386.9575 222.128 384.9575 222.128 384.9995 49.128 386.9995 49.128"></polygon>
            <path d="M0,309.128 L185,309.128 L185,275.128 L0,275.128 L0,309.128 Z M2.062,307.066 L182.939,307.066 L182.939,277.19 L2.062,277.19 L2.062,307.066 Z" id="Fill-5" fill="#FFFFFF"></path>
            <path d="M0,277.128 L30,277.128 L30,49.128 L0,49.128 L0,277.128 Z M1.999,275.129 L28.001,275.129 L28.001,51.127 L1.999,51.127 L1.999,275.129 Z" id="Fill-6" fill="#FFFFFF"></path>
            <path d="M57,194.128 L99,194.128 L99,49.128 L57,49.128 L57,194.128 Z M58.972,192.155 L97.027,192.155 L97.027,51.1 L58.972,51.1 L58.972,192.155 Z" id="Fill-7" fill="#FFFFFF"></path>
            <path d="M126,194.128 L168,194.128 L168,49.128 L126,49.128 L126,194.128 Z M127.972,192.155 L166.027,192.155 L166.027,51.1 L127.972,51.1 L127.972,192.155 Z" id="Fill-8" fill="#FFFFFF"></path>
            <path d="M195,127.128 L237,127.128 L237,49.128 L195,49.128 L195,127.128 Z M196.447,125.681 L235.553,125.681 L235.553,50.575 L196.447,50.575 L196.447,125.681 Z" id="Fill-9" fill="#FFFFFF"></path>
            <path d="M246.8007,1.0004 L237.5847,16.1354 L237.5847,20.1674 L249.2327,20.1674 L249.2327,25.1274 L255.0567,25.1274 L255.0567,20.1674 L257.9677,20.1674 L257.9677,15.3684 L255.0567,15.3684 L255.0567,1.0004 L246.8007,1.0004 Z M249.2327,5.8644 L249.2327,15.3684 L243.6967,15.3684 L249.2327,5.8644 Z" id="Fill-10" fill="#FFFFFF"></path>
            <polygon id="Fill-11" fill="#FFFFFF" points="264.6243 1.0004 264.6243 25.1274 270.8963 25.1274 270.8963 15.6564 277.7763 15.6564 277.7763 10.3444 270.8963 10.3444 270.8963 6.3124 278.4483 6.3124 278.4483 1.0004"></polygon>
            <g id="Group-69" transform="translate(0.000000, 0.128000)">
                <path d="M345,151 L293,151 C285.268,151 279,144.732 279,137 C279,129.268 285.268,123 293,123 L345,123 C352.732,123 359,129.268 359,137 C359,144.732 352.732,151 345,151 Z" id="Fill-12" fill="#FFFFFF"></path>
                <path d="M293.2417,134.4336 C293.5217,134.4756 293.8307,134.4896 294.3487,134.4896 L298.8737,134.4896 C299.4197,134.4896 299.7417,134.4756 300.0497,134.4336 L300.0497,135.3716 C299.7557,135.3296 299.3907,135.3156 298.8737,135.3156 L294.3347,135.3156 C293.9147,135.3156 293.5217,135.3296 293.2417,135.3716 L293.2417,134.4336 Z M292.3457,137.9206 C291.6597,137.9206 291.1697,137.9496 290.7487,138.0046 L290.7487,136.9966 C291.1827,137.0526 291.6447,137.0806 292.3457,137.0806 L300.9737,137.0806 C301.6887,137.0806 302.1377,137.0526 302.5707,136.9966 L302.5707,138.0046 C302.1377,137.9496 301.6607,137.9206 300.9737,137.9206 L295.9457,137.9206 C295.1757,139.6026 294.9087,140.1206 294.1947,141.2266 C296.1277,141.1006 297.5847,140.9606 299.6577,140.7086 C298.8167,139.7976 298.5647,139.5456 297.9487,138.9716 L298.6777,138.5236 C300.0777,139.8396 301.0157,140.8766 302.0667,142.2216 L301.2967,142.7956 C300.7507,142.0256 300.5677,141.7876 300.2737,141.4226 C297.7807,141.7586 295.6657,141.9836 293.4797,142.1516 C291.7437,142.2916 291.4637,142.3196 291.1127,142.4036 L290.9447,141.3386 C291.1827,141.3676 291.4487,141.3806 291.6597,141.3806 C291.8837,141.3806 291.8837,141.3806 293.1437,141.2966 C293.9287,140.0506 294.3767,139.2096 294.9237,137.9206 L292.3457,137.9206 Z M297.0807,130.1046 C297.7387,131.1136 298.3547,131.7716 299.4327,132.6126 C300.6517,133.5796 301.9967,134.3496 303.2997,134.8536 C303.0187,135.1896 302.8797,135.4276 302.7537,135.7496 C301.3517,135.0916 299.9937,134.2376 298.8587,133.3126 C297.9207,132.5416 297.2757,131.8416 296.6177,130.9166 C295.9307,131.8706 295.3987,132.4446 294.5167,133.2146 C293.2837,134.2796 292.1357,135.0356 290.7347,135.6796 C290.5947,135.3856 290.3707,135.0916 290.1457,134.8816 C291.5897,134.2506 292.6957,133.5646 293.8587,132.5986 C294.8247,131.7866 295.4697,131.0716 296.0857,130.1046 L297.0807,130.1046 Z" id="Fill-14" fill="#000000"></path>
                <path d="M315.5063,135.4834 C316.1223,135.9044 316.4443,136.1564 317.0053,136.6884 L316.4313,137.1654 C315.9413,136.6184 315.5903,136.3244 314.9603,135.8764 L315.5063,135.4834 Z M311.6963,131.2544 C311.5143,130.8474 311.3183,130.5394 310.9683,130.1044 L311.7383,129.8384 C312.1023,130.3844 312.2563,130.6514 312.5363,131.2544 L314.1333,131.2544 C314.4423,130.7914 314.5963,130.4554 314.8333,129.8524 L315.6603,130.0904 C315.4223,130.5954 315.2123,130.9594 315.0023,131.2544 L315.9263,131.2544 C316.5423,131.2544 316.7953,131.2394 317.1453,131.1704 L317.1453,131.9824 C316.7803,131.9254 316.4733,131.9124 315.9263,131.9124 L313.6573,131.9124 L313.6573,132.8374 L315.4643,132.8374 C315.9963,132.8374 316.2773,132.8224 316.6263,132.7664 L316.6263,133.5504 C316.2903,133.4954 315.9543,133.4804 315.4643,133.4804 L313.6573,133.4804 L313.6573,134.4474 L316.1933,134.4474 C316.8513,134.4474 317.0893,134.4334 317.4673,134.3634 L317.4673,135.1894 C317.1313,135.1334 316.8933,135.1204 316.1933,135.1204 L310.6313,135.1204 C309.9313,135.1204 309.7213,135.1334 309.3573,135.1894 L309.3573,134.3634 C309.7213,134.4334 309.9873,134.4474 310.6313,134.4474 L312.9013,134.4474 L312.9013,133.4804 L311.2473,133.4804 C310.7153,133.4804 310.4073,133.4954 310.0853,133.5504 L310.0853,132.7664 C310.4363,132.8224 310.7153,132.8374 311.2473,132.8374 L312.9013,132.8374 L312.9013,131.9124 L310.8693,131.9124 C310.3373,131.9124 309.9593,131.9254 309.6373,131.9824 L309.6373,131.1704 C310.0013,131.2394 310.2673,131.2544 310.8693,131.2544 L311.6963,131.2544 Z M317.1453,138.8594 C316.9903,139.0274 316.8933,139.1544 316.6833,139.4064 C316.2633,139.9524 316.1223,140.1064 315.7163,140.4994 C315.9263,140.8484 316.1933,141.1704 316.4583,141.4094 C316.6123,141.5354 316.8373,141.6614 316.9063,141.6614 C317.0053,141.6614 317.1313,141.5634 317.1873,141.4374 C317.2993,141.1844 317.3693,140.8904 317.4673,140.2324 C317.7193,140.4704 317.8873,140.5964 318.1403,140.7224 C317.8733,142.0254 317.5663,142.5444 317.0473,142.5444 C316.4583,142.5444 315.7863,141.9834 315.1423,140.9744 C314.3433,141.6054 313.7833,141.9694 312.9293,142.4034 C312.8723,142.3194 312.8723,142.3194 312.6623,142.0534 C312.5933,141.9554 312.5083,141.8714 312.3823,141.7454 C313.4333,141.3104 314.0913,140.9194 314.8063,140.3304 C314.4843,139.6294 314.3163,139.1124 314.0913,138.1874 L311.8503,138.2014 L311.8503,139.4204 C312.2423,139.3224 312.3823,139.2804 312.6493,139.1964 C312.6913,139.1964 313.0133,139.0844 313.6293,138.8744 L313.6573,139.5744 C313.1253,139.7704 312.5083,139.9654 311.8503,140.1344 L311.8503,141.6614 C311.8503,142.4314 311.5693,142.6704 310.6733,142.6704 C310.3793,142.6704 310.0433,142.6554 309.7353,142.6134 C309.7073,142.2774 309.6513,142.0674 309.5533,141.8014 C309.9873,141.8854 310.2953,141.9274 310.6593,141.9274 C310.9683,141.9274 311.0793,141.8434 311.0793,141.5774 L311.0793,140.3304 C310.0713,140.5414 309.4973,140.6674 309.3703,140.6944 L309.1473,139.8964 C309.6093,139.8814 310.2813,139.7844 311.0793,139.6024 L311.0793,138.2154 L310.4363,138.2154 C309.8753,138.2154 309.5813,138.2434 309.2173,138.2994 L309.2173,137.4454 C309.4833,137.5014 309.7913,137.5144 310.2673,137.5144 L311.0793,137.5144 L311.0793,136.6324 C310.1693,136.8284 309.9873,136.8564 309.7213,136.8844 C309.6373,136.6324 309.5393,136.4364 309.4123,136.2544 C310.7303,136.1704 312.2423,135.7784 312.8723,135.3574 L313.4043,135.9314 C312.5083,136.2684 312.3683,136.3244 311.8503,136.4644 L311.8503,137.5014 L313.9513,137.4874 C313.8953,137.0664 313.8533,136.7164 313.8113,136.0584 C313.7833,135.7784 313.7693,135.7084 313.7413,135.5404 L314.6233,135.5404 C314.5963,135.6944 314.5813,135.8344 314.5813,136.0444 C314.5813,136.3374 314.6233,136.9264 314.7073,137.4874 L316.2483,137.4724 C316.8793,137.4594 317.1173,137.4454 317.5093,137.3754 L317.5093,138.2434 C317.2153,138.1874 316.9213,138.1724 316.4313,138.1724 L316.2483,138.1724 L314.8193,138.1874 C314.9603,138.8174 315.1003,139.2234 315.3663,139.8124 C315.9263,139.2524 316.1643,138.9294 316.4313,138.3974 L317.1453,138.8594 Z M306.2613,141.2684 L308.0683,141.2684 L308.0683,139.0834 L306.2613,139.0834 L306.2613,141.2684 Z M305.5193,136.4084 C305.7993,136.4504 306.0233,136.4644 306.5133,136.4644 L307.8163,136.4644 C308.3063,136.4644 308.4883,136.4504 308.8113,136.4084 L308.8113,137.2764 C308.4743,137.2344 308.2923,137.2204 307.8163,137.2204 L306.5133,137.2204 C306.0373,137.2204 305.8263,137.2344 305.5193,137.2764 L305.5193,136.4084 Z M305.5193,134.4474 C305.7713,134.4894 306.0233,134.5034 306.5133,134.5034 L307.8163,134.5034 C308.2923,134.5034 308.5443,134.4894 308.8113,134.4474 L308.8113,135.3154 C308.4463,135.2734 308.2643,135.2594 307.8163,135.2594 L306.5133,135.2594 C306.0513,135.2594 305.8263,135.2734 305.5193,135.3154 L305.5193,134.4474 Z M305.4633,130.5524 C305.7713,130.6094 306.0093,130.6234 306.4293,130.6234 L307.9423,130.6234 C308.3763,130.6234 308.6143,130.6094 308.9223,130.5524 L308.9223,131.4354 C308.6013,131.3934 308.3623,131.3794 307.9423,131.3794 L306.4293,131.3794 C306.0233,131.3794 305.7843,131.3934 305.4633,131.4354 L305.4633,130.5524 Z M305.4063,142.7954 C305.4633,142.4314 305.4903,142.0254 305.4903,141.4094 L305.4903,139.6024 C305.4903,139.0554 305.4773,138.6644 305.4213,138.3274 C305.7573,138.3694 305.9673,138.3834 306.3733,138.3834 L307.9143,138.3834 C308.3483,138.3834 308.5583,138.3694 308.8533,138.3274 C308.8113,138.6494 308.8113,138.8324 308.8113,139.5454 L308.8113,141.3104 C308.8113,141.8574 308.8243,142.1514 308.8663,142.4874 L308.0683,142.4874 L308.0683,141.9834 L306.2613,141.9834 L306.2613,142.7954 L305.4063,142.7954 Z M309.1473,133.3964 C308.8243,133.3544 308.6283,133.3404 308.1803,133.3404 L306.0793,133.3404 C305.6033,133.3404 305.3223,133.3544 305.0153,133.3964 L305.0153,132.5004 C305.3223,132.5564 305.5743,132.5704 306.0793,132.5704 L308.0823,132.5704 C308.6433,132.5704 308.8383,132.5564 309.1473,132.5004 L309.1473,133.3964 Z" id="Fill-16" fill="#000000"></path>
                <path d="M323.3569,134.209 C322.5029,134.209 322.1099,134.224 321.7179,134.279 L321.7179,133.383 C322.1249,133.438 322.4609,133.453 323.3149,133.453 L328.7499,133.453 C329.6189,133.453 329.9259,133.438 330.3609,133.383 L330.3609,134.279 C329.9259,134.224 329.6039,134.209 328.7639,134.209 L325.1639,134.209 C324.7569,135.021 324.4629,135.54 324.0289,136.156 C325.5849,136.114 326.7599,136.044 328.6799,135.904 C328.1619,135.456 327.9789,135.315 327.3909,134.896 L328.0629,134.461 C329.2679,135.344 329.7999,135.792 331.0329,136.969 L330.3609,137.543 C329.8979,137.024 329.7299,136.856 329.3939,136.549 C326.9009,136.759 324.0289,136.927 321.4229,137.024 C321.1859,137.039 321.1159,137.039 320.8909,137.081 L320.7519,136.185 C321.0869,136.212 321.2549,136.227 321.6199,136.227 C322.0679,136.227 322.4049,136.212 323.0769,136.198 C323.5389,135.526 323.8609,134.98 324.2249,134.209 L323.3569,134.209 Z M325.4299,130.917 C325.4299,130.596 325.4019,130.287 325.3459,129.965 L326.4239,129.965 C326.3689,130.259 326.3399,130.567 326.3399,130.917 L326.3399,131.281 L329.9969,131.281 C330.9489,131.281 331.3829,131.268 331.8599,131.226 C331.8179,131.548 331.8029,131.73 331.8029,132.22 L331.8029,132.921 C331.8029,133.327 331.8179,133.593 331.8599,133.873 L330.9349,133.873 L330.9349,132.066 L321.1289,132.066 L321.1289,133.873 L320.2059,133.873 L320.2189,133.705 C320.2479,133.438 320.2609,133.257 320.2609,132.906 L320.2609,132.164 C320.2609,131.8 320.2479,131.59 320.2059,131.226 C320.6389,131.268 321.0739,131.281 321.9419,131.281 L325.4299,131.281 L325.4299,130.917 Z M329.3239,138.594 C330.0809,138.594 330.3749,138.579 330.8089,138.523 L330.8089,139.448 C330.4029,139.392 330.0249,139.378 329.3239,139.378 L326.3539,139.378 L326.3539,141.354 L330.4729,141.354 C331.3279,141.354 331.7899,141.325 332.2239,141.255 L332.2239,142.235 C331.7189,142.18 331.2429,142.151 330.4169,142.151 L321.6759,142.151 C320.8489,142.151 320.3869,142.18 319.8689,142.235 L319.8689,141.255 C320.3029,141.325 320.7799,141.354 321.6339,141.354 L325.4719,141.354 L325.4719,139.378 L322.7829,139.378 C322.0539,139.378 321.6899,139.392 321.2839,139.448 L321.2839,138.523 C321.7039,138.579 321.9989,138.594 322.7829,138.594 L325.4719,138.594 L325.4719,138.384 C325.4719,137.978 325.4439,137.641 325.3879,137.276 L326.4389,137.276 C326.3819,137.641 326.3539,137.949 326.3539,138.384 L326.3539,138.594 L329.3239,138.594 Z" id="Fill-18" fill="#000000"></path>
                <path d="M342.7603,132.7803 C342.7183,132.6683 342.7183,132.6543 342.4523,131.8843 C342.3823,132.0933 342.3263,132.2483 342.2983,132.3453 C342.2143,132.5703 342.1723,132.7243 342.1443,132.7803 L340.3513,137.4033 L344.5683,137.4033 L342.7603,132.7803 Z M346.0673,141.6053 C345.9543,141.1003 345.8003,140.6103 345.6323,140.1763 L344.9043,138.3693 L340.0153,138.3693 L339.2863,140.1763 C339.0763,140.7093 338.9503,141.1153 338.8533,141.6053 L337.3963,141.6053 C337.6763,141.1423 337.7743,140.9323 338.1523,139.9943 L341.2893,132.2613 C341.5563,131.6033 341.6683,131.2813 341.7383,130.9593 L343.1533,130.9593 C343.2083,131.2253 343.2793,131.4073 343.6293,132.2613 L346.7673,139.9943 C347.1163,140.8353 347.2993,141.2413 347.5093,141.6053 L346.0673,141.6053 Z" id="Fill-20" fill="#000000"></path>
                <path d="M479,151 L427,151 C419.268,151 413,144.732 413,137 C413,129.268 419.268,123 427,123 L479,123 C486.732,123 493,129.268 493,137 C493,144.732 486.732,151 479,151" id="Fill-22" fill="#FFFFFF"></path>
                <path d="M427.5073,134.4336 C427.7873,134.4756 428.0963,134.4896 428.6143,134.4896 L433.1393,134.4896 C433.6853,134.4896 434.0073,134.4756 434.3153,134.4336 L434.3153,135.3716 C434.0213,135.3296 433.6563,135.3156 433.1393,135.3156 L428.6003,135.3156 C428.1803,135.3156 427.7873,135.3296 427.5073,135.3716 L427.5073,134.4336 Z M426.6113,137.9206 C425.9253,137.9206 425.4353,137.9496 425.0143,138.0046 L425.0143,136.9966 C425.4483,137.0526 425.9103,137.0806 426.6113,137.0806 L435.2393,137.0806 C435.9543,137.0806 436.4033,137.0526 436.8363,136.9966 L436.8363,138.0046 C436.4033,137.9496 435.9263,137.9206 435.2393,137.9206 L430.2113,137.9206 C429.4413,139.6026 429.1743,140.1206 428.4603,141.2266 C430.3933,141.1006 431.8503,140.9606 433.9233,140.7086 C433.0823,139.7976 432.8303,139.5456 432.2143,138.9716 L432.9433,138.5236 C434.3433,139.8396 435.2813,140.8766 436.3323,142.2216 L435.5623,142.7956 C435.0163,142.0256 434.8333,141.7876 434.5393,141.4226 C432.0463,141.7586 429.9313,141.9836 427.7453,142.1516 C426.0093,142.2916 425.7293,142.3196 425.3783,142.4036 L425.2103,141.3386 C425.4483,141.3676 425.7143,141.3806 425.9253,141.3806 C426.1493,141.3806 426.1493,141.3806 427.4093,141.2966 C428.1943,140.0506 428.6423,139.2096 429.1893,137.9206 L426.6113,137.9206 Z M431.3463,130.1046 C432.0043,131.1136 432.6203,131.7716 433.6983,132.6126 C434.9173,133.5796 436.2623,134.3496 437.5653,134.8536 C437.2843,135.1896 437.1453,135.4276 437.0193,135.7496 C435.6173,135.0916 434.2593,134.2376 433.1243,133.3126 C432.1863,132.5416 431.5413,131.8416 430.8833,130.9166 C430.1963,131.8706 429.6643,132.4446 428.7823,133.2146 C427.5493,134.2796 426.4013,135.0356 425.0003,135.6796 C424.8603,135.3856 424.6363,135.0916 424.4113,134.8816 C425.8553,134.2506 426.9613,133.5646 428.1243,132.5986 C429.0903,131.7866 429.7353,131.0716 430.3513,130.1046 L431.3463,130.1046 Z" id="Fill-24" fill="#000000"></path>
                <path d="M449.772,135.4834 C450.388,135.9044 450.71,136.1564 451.271,136.6884 L450.697,137.1654 C450.207,136.6184 449.856,136.3244 449.226,135.8764 L449.772,135.4834 Z M445.962,131.2544 C445.78,130.8474 445.584,130.5394 445.234,130.1044 L446.004,129.8384 C446.368,130.3844 446.522,130.6514 446.802,131.2544 L448.399,131.2544 C448.708,130.7914 448.862,130.4554 449.099,129.8524 L449.926,130.0904 C449.688,130.5954 449.478,130.9594 449.268,131.2544 L450.192,131.2544 C450.808,131.2544 451.061,131.2394 451.411,131.1704 L451.411,131.9824 C451.046,131.9254 450.739,131.9124 450.192,131.9124 L447.923,131.9124 L447.923,132.8374 L449.73,132.8374 C450.262,132.8374 450.543,132.8224 450.892,132.7664 L450.892,133.5504 C450.556,133.4954 450.22,133.4804 449.73,133.4804 L447.923,133.4804 L447.923,134.4474 L450.459,134.4474 C451.117,134.4474 451.355,134.4334 451.733,134.3634 L451.733,135.1894 C451.397,135.1334 451.159,135.1204 450.459,135.1204 L444.897,135.1204 C444.197,135.1204 443.987,135.1334 443.623,135.1894 L443.623,134.3634 C443.987,134.4334 444.253,134.4474 444.897,134.4474 L447.167,134.4474 L447.167,133.4804 L445.513,133.4804 C444.981,133.4804 444.673,133.4954 444.351,133.5504 L444.351,132.7664 C444.702,132.8224 444.981,132.8374 445.513,132.8374 L447.167,132.8374 L447.167,131.9124 L445.135,131.9124 C444.603,131.9124 444.225,131.9254 443.903,131.9824 L443.903,131.1704 C444.267,131.2394 444.533,131.2544 445.135,131.2544 L445.962,131.2544 Z M451.411,138.8594 C451.256,139.0274 451.159,139.1544 450.949,139.4064 C450.529,139.9524 450.388,140.1064 449.982,140.4994 C450.192,140.8484 450.459,141.1704 450.724,141.4094 C450.878,141.5354 451.103,141.6614 451.172,141.6614 C451.271,141.6614 451.397,141.5634 451.453,141.4374 C451.565,141.1844 451.635,140.8904 451.733,140.2324 C451.985,140.4704 452.153,140.5964 452.406,140.7224 C452.139,142.0254 451.832,142.5444 451.313,142.5444 C450.724,142.5444 450.052,141.9834 449.408,140.9744 C448.609,141.6054 448.049,141.9694 447.195,142.4034 C447.138,142.3194 447.138,142.3194 446.928,142.0534 C446.859,141.9554 446.774,141.8714 446.648,141.7454 C447.699,141.3104 448.357,140.9194 449.072,140.3304 C448.75,139.6294 448.582,139.1124 448.357,138.1874 L446.116,138.2014 L446.116,139.4204 C446.508,139.3224 446.648,139.2804 446.915,139.1964 C446.957,139.1964 447.279,139.0844 447.895,138.8744 L447.923,139.5744 C447.391,139.7704 446.774,139.9654 446.116,140.1344 L446.116,141.6614 C446.116,142.4314 445.835,142.6704 444.939,142.6704 C444.645,142.6704 444.309,142.6554 444.001,142.6134 C443.973,142.2774 443.917,142.0674 443.819,141.8014 C444.253,141.8854 444.561,141.9274 444.925,141.9274 C445.234,141.9274 445.345,141.8434 445.345,141.5774 L445.345,140.3304 C444.337,140.5414 443.763,140.6674 443.636,140.6944 L443.413,139.8964 C443.875,139.8814 444.547,139.7844 445.345,139.6024 L445.345,138.2154 L444.702,138.2154 C444.141,138.2154 443.847,138.2434 443.483,138.2994 L443.483,137.4454 C443.749,137.5014 444.057,137.5144 444.533,137.5144 L445.345,137.5144 L445.345,136.6324 C444.435,136.8284 444.253,136.8564 443.987,136.8844 C443.903,136.6324 443.805,136.4364 443.678,136.2544 C444.996,136.1704 446.508,135.7784 447.138,135.3574 L447.67,135.9314 C446.774,136.2684 446.634,136.3244 446.116,136.4644 L446.116,137.5014 L448.217,137.4874 C448.161,137.0664 448.119,136.7164 448.077,136.0584 C448.049,135.7784 448.035,135.7084 448.007,135.5404 L448.889,135.5404 C448.862,135.6944 448.847,135.8344 448.847,136.0444 C448.847,136.3374 448.889,136.9264 448.973,137.4874 L450.514,137.4724 C451.145,137.4594 451.383,137.4454 451.775,137.3754 L451.775,138.2434 C451.481,138.1874 451.187,138.1724 450.697,138.1724 L450.514,138.1724 L449.085,138.1874 C449.226,138.8174 449.366,139.2234 449.632,139.8124 C450.192,139.2524 450.43,138.9294 450.697,138.3974 L451.411,138.8594 Z M440.527,141.2684 L442.334,141.2684 L442.334,139.0834 L440.527,139.0834 L440.527,141.2684 Z M439.785,136.4084 C440.065,136.4504 440.289,136.4644 440.779,136.4644 L442.082,136.4644 C442.572,136.4644 442.754,136.4504 443.077,136.4084 L443.077,137.2764 C442.74,137.2344 442.558,137.2204 442.082,137.2204 L440.779,137.2204 C440.303,137.2204 440.092,137.2344 439.785,137.2764 L439.785,136.4084 Z M439.785,134.4474 C440.037,134.4894 440.289,134.5034 440.779,134.5034 L442.082,134.5034 C442.558,134.5034 442.81,134.4894 443.077,134.4474 L443.077,135.3154 C442.712,135.2734 442.53,135.2594 442.082,135.2594 L440.779,135.2594 C440.317,135.2594 440.092,135.2734 439.785,135.3154 L439.785,134.4474 Z M439.729,130.5524 C440.037,130.6094 440.275,130.6234 440.695,130.6234 L442.208,130.6234 C442.642,130.6234 442.88,130.6094 443.188,130.5524 L443.188,131.4354 C442.867,131.3934 442.628,131.3794 442.208,131.3794 L440.695,131.3794 C440.289,131.3794 440.05,131.3934 439.729,131.4354 L439.729,130.5524 Z M439.672,142.7954 C439.729,142.4314 439.756,142.0254 439.756,141.4094 L439.756,139.6024 C439.756,139.0554 439.743,138.6644 439.687,138.3274 C440.023,138.3694 440.233,138.3834 440.639,138.3834 L442.18,138.3834 C442.614,138.3834 442.824,138.3694 443.119,138.3274 C443.077,138.6494 443.077,138.8324 443.077,139.5454 L443.077,141.3104 C443.077,141.8574 443.09,142.1514 443.132,142.4874 L442.334,142.4874 L442.334,141.9834 L440.527,141.9834 L440.527,142.7954 L439.672,142.7954 Z M443.413,133.3964 C443.09,133.3544 442.894,133.3404 442.446,133.3404 L440.345,133.3404 C439.869,133.3404 439.588,133.3544 439.281,133.3964 L439.281,132.5004 C439.588,132.5564 439.84,132.5704 440.345,132.5704 L442.348,132.5704 C442.909,132.5704 443.104,132.5564 443.413,132.5004 L443.413,133.3964 Z" id="Fill-26" fill="#000000"></path>
                <path d="M457.6226,134.209 C456.7686,134.209 456.3756,134.224 455.9836,134.279 L455.9836,133.383 C456.3906,133.438 456.7266,133.453 457.5806,133.453 L463.0156,133.453 C463.8846,133.453 464.1916,133.438 464.6266,133.383 L464.6266,134.279 C464.1916,134.224 463.8696,134.209 463.0296,134.209 L459.4296,134.209 C459.0226,135.021 458.7286,135.54 458.2946,136.156 C459.8506,136.114 461.0256,136.044 462.9456,135.904 C462.4276,135.456 462.2446,135.315 461.6566,134.896 L462.3286,134.461 C463.5336,135.344 464.0656,135.792 465.2986,136.969 L464.6266,137.543 C464.1636,137.024 463.9956,136.856 463.6596,136.549 C461.1666,136.759 458.2946,136.927 455.6886,137.024 C455.4516,137.039 455.3816,137.039 455.1566,137.081 L455.0176,136.185 C455.3526,136.212 455.5206,136.227 455.8856,136.227 C456.3336,136.227 456.6706,136.212 457.3426,136.198 C457.8046,135.526 458.1266,134.98 458.4906,134.209 L457.6226,134.209 Z M459.6956,130.917 C459.6956,130.596 459.6676,130.287 459.6116,129.965 L460.6896,129.965 C460.6346,130.259 460.6056,130.567 460.6056,130.917 L460.6056,131.281 L464.2626,131.281 C465.2146,131.281 465.6486,131.268 466.1256,131.226 C466.0836,131.548 466.0686,131.73 466.0686,132.22 L466.0686,132.921 C466.0686,133.327 466.0836,133.593 466.1256,133.873 L465.2006,133.873 L465.2006,132.066 L455.3946,132.066 L455.3946,133.873 L454.4716,133.873 L454.4846,133.705 C454.5136,133.438 454.5266,133.257 454.5266,132.906 L454.5266,132.164 C454.5266,131.8 454.5136,131.59 454.4716,131.226 C454.9046,131.268 455.3396,131.281 456.2076,131.281 L459.6956,131.281 L459.6956,130.917 Z M463.5896,138.594 C464.3466,138.594 464.6406,138.579 465.0746,138.523 L465.0746,139.448 C464.6686,139.392 464.2906,139.378 463.5896,139.378 L460.6196,139.378 L460.6196,141.354 L464.7386,141.354 C465.5936,141.354 466.0556,141.325 466.4896,141.255 L466.4896,142.235 C465.9846,142.18 465.5086,142.151 464.6826,142.151 L455.9416,142.151 C455.1146,142.151 454.6526,142.18 454.1346,142.235 L454.1346,141.255 C454.5686,141.325 455.0456,141.354 455.8996,141.354 L459.7376,141.354 L459.7376,139.378 L457.0486,139.378 C456.3196,139.378 455.9556,139.392 455.5496,139.448 L455.5496,138.523 C455.9696,138.579 456.2646,138.594 457.0486,138.594 L459.7376,138.594 L459.7376,138.384 C459.7376,137.978 459.7096,137.641 459.6536,137.276 L460.7046,137.276 C460.6476,137.641 460.6196,137.949 460.6196,138.384 L460.6196,138.594 L463.5896,138.594 Z" id="Fill-28" fill="#000000"></path>
                <path d="M473.7485,140.6523 L477.1245,140.6523 C478.6505,140.6523 479.4635,139.9233 479.4635,138.5793 C479.4635,137.1923 478.6505,136.4783 477.0965,136.4783 L473.7485,136.4783 L473.7485,140.6523 Z M477.0545,135.5263 C478.3565,135.5263 479.1275,134.8403 479.1275,133.6633 C479.1275,132.5003 478.4275,131.9123 477.0405,131.9123 L473.7485,131.9123 L473.7485,135.5263 L477.0545,135.5263 Z M474.0845,141.6053 C473.4685,141.6053 473.0345,141.6193 472.5435,141.6473 C472.6425,141.0873 472.6705,140.7223 472.6705,139.9103 L472.6705,132.4163 C472.6705,131.8133 472.6425,131.4353 472.5585,130.9313 C472.9915,130.9593 473.2715,130.9593 474.0845,130.9593 L477.0675,130.9593 C479.0995,130.9593 480.2335,131.8833 480.2335,133.5373 C480.2335,134.3493 479.9815,134.9653 479.4775,135.4143 C479.1835,135.6663 478.9315,135.7923 478.3705,135.9743 C479.0155,136.1003 479.3525,136.2403 479.7295,136.5623 C480.3045,137.0523 480.5985,137.7673 480.5985,138.6643 C480.5985,140.5413 479.3655,141.6053 477.2225,141.6053 L474.0845,141.6053 Z" id="Fill-30" fill="#000000"></path>
                <path d="M181.9995,123 C181.9995,141.778 166.7775,157 147.9995,157 C129.2215,157 113.9995,141.778 113.9995,123 C113.9995,104.222 129.2215,89 147.9995,89 C166.7775,89 181.9995,104.222 181.9995,123" id="Fill-32" fill="#FFFFFF"></path>
                <mask id="mask-2" fill="white">
                    <use xlink:href="#path-1"></use>
                </mask>
                <g id="Clip-35"></g>
                <path d="M134.901,114.291 L137.828,114.291 L137.828,112.876 L134.901,112.876 L134.901,114.291 Z M134.901,112.204 L137.828,112.204 L137.828,110.817 L134.901,110.817 L134.901,112.204 Z M131.469,114.291 L134.103,114.291 L134.103,112.876 L131.469,112.876 L131.469,114.291 Z M131.469,112.204 L134.103,112.204 L134.103,110.817 L131.469,110.817 L131.469,112.204 Z M134.131,110.116 C133.612,109.71 132.898,109.276 132.268,108.94 L132.898,108.492 C133.626,108.926 134.005,109.178 134.775,109.738 C135.84,109.136 136.189,108.897 136.946,108.268 L131.749,108.268 C131.105,108.268 130.741,108.281 130.349,108.338 L130.349,107.455 C130.741,107.525 131.105,107.539 131.833,107.539 L136.722,107.539 C137.562,107.539 137.871,107.525 138.15,107.483 L138.501,107.987 C138.375,108.071 138.319,108.113 138.15,108.254 C137.282,108.982 136.386,109.57 135.363,110.116 L137.185,110.116 C137.955,110.116 138.389,110.103 138.711,110.047 C138.669,110.438 138.655,110.943 138.655,111.77 L138.655,116.392 C138.655,117.274 138.431,117.471 137.45,117.471 C137.128,117.471 136.89,117.471 136.47,117.442 C136.428,117.106 136.386,116.924 136.273,116.63 C136.736,116.7 137.059,116.729 137.437,116.729 C137.759,116.729 137.828,116.672 137.828,116.336 L137.828,114.978 L134.901,114.978 L134.901,115.859 C134.901,116.574 134.929,116.994 134.985,117.372 L134.019,117.372 C134.074,117.009 134.103,116.546 134.103,115.859 L134.103,114.978 L131.469,114.978 L131.469,116.056 C131.469,116.784 131.497,117.19 131.553,117.526 L130.559,117.526 C130.614,117.177 130.643,116.742 130.643,116.056 L130.643,111.63 C130.643,110.789 130.629,110.396 130.587,110.047 C130.979,110.103 131.441,110.116 132.1,110.116 L134.131,110.116 Z M127.323,107.287 C128.275,108.17 128.836,108.786 129.564,109.767 L128.85,110.411 C128.163,109.389 127.617,108.744 126.679,107.861 L127.323,107.287 Z M126.566,112.582 C126.86,112.638 127.113,112.652 127.562,112.652 L128.205,112.652 C128.626,112.652 128.92,112.638 129.256,112.582 C129.2,113.002 129.186,113.38 129.186,114.053 L129.186,116.798 C129.452,117.372 129.732,117.667 130.32,118.003 C130.937,118.367 131.848,118.493 133.795,118.493 C135.951,118.493 137.717,118.396 139.384,118.199 C139.229,118.577 139.131,118.886 139.062,119.235 C137.534,119.292 135.84,119.334 134.537,119.334 C131.764,119.334 130.937,119.235 130.04,118.773 C129.536,118.507 129.186,118.185 128.695,117.526 C128.262,118.045 128.121,118.185 127.743,118.549 C127.52,118.745 127.463,118.802 127.225,119.025 C127.07,119.151 127.028,119.193 126.833,119.361 L126.356,118.451 C126.875,118.213 127.617,117.597 128.346,116.813 L128.346,113.45 L127.505,113.45 C127.085,113.45 126.847,113.465 126.566,113.521 L126.566,112.582 Z" id="Fill-34" fill="#000000" mask="url(#mask-2)"></path>
                <path d="M144.853,113.086 L150.457,113.086 L150.457,111.602 L144.853,111.602 L144.853,113.086 Z M145.217,113.814 C144.629,113.814 144.265,113.828 143.956,113.871 C143.984,113.591 143.998,113.38 143.998,112.722 L143.998,111.909 C143.998,111.447 143.984,111.111 143.956,110.803 C144.307,110.845 144.797,110.859 145.272,110.859 L150.063,110.859 C150.638,110.859 151.03,110.845 151.353,110.803 C151.324,111.139 151.311,111.405 151.311,111.924 L151.311,112.722 C151.311,113.408 151.324,113.618 151.353,113.871 C150.988,113.828 150.498,113.814 149.979,113.814 L147.935,113.814 L147.935,114.963 L151.156,114.963 C151.87,114.963 152.192,114.949 152.501,114.907 C152.459,115.216 152.444,115.594 152.444,116.14 L152.444,118.003 C152.444,118.759 152.15,118.97 151.1,118.97 C150.708,118.97 150.273,118.955 149.686,118.913 C149.644,118.535 149.602,118.354 149.489,118.073 C150.035,118.143 150.596,118.185 150.96,118.185 C151.464,118.185 151.576,118.129 151.576,117.862 L151.576,115.748 L147.935,115.748 L147.935,118.325 C147.935,118.899 147.962,119.361 148.004,119.754 L146.996,119.754 C147.038,119.306 147.065,118.857 147.065,118.325 L147.065,115.748 L143.718,115.748 L143.718,117.709 C143.718,118.396 143.732,118.787 143.788,119.081 L142.766,119.081 C142.808,118.689 142.836,118.241 142.836,117.694 L142.836,116.126 C142.836,115.636 142.821,115.271 142.779,114.907 C143.144,114.949 143.606,114.963 144.097,114.963 L147.065,114.963 L147.065,113.814 L145.217,113.814 Z M147.065,108.086 C147.065,107.735 147.038,107.357 146.996,107.063 L148.019,107.063 C147.977,107.371 147.948,107.693 147.948,108.086 L147.948,109.122 L149.363,109.122 C149.882,108.492 150.176,108.058 150.554,107.329 L151.395,107.651 C150.946,108.352 150.68,108.716 150.33,109.122 L151.912,109.122 C152.669,109.122 153.033,109.108 153.468,109.066 C153.426,109.431 153.411,109.794 153.411,110.341 L153.411,111.041 C153.411,111.321 153.439,111.602 153.468,111.84 L152.543,111.84 L152.543,109.879 L142.737,109.879 L142.737,111.812 L141.813,111.812 C141.855,111.489 141.869,111.195 141.869,110.957 L141.869,110.215 C141.869,109.752 141.855,109.431 141.813,109.066 C142.149,109.108 142.569,109.122 143.256,109.122 L144.74,109.122 C144.404,108.562 144.097,108.155 143.578,107.567 L144.418,107.273 C144.979,107.974 145.259,108.38 145.693,109.122 L147.065,109.122 L147.065,108.086 Z" id="Fill-36" fill="#000000" mask="url(#mask-2)"></path>
                <path d="M161.486,112.792 L164.819,112.792 L164.819,111.266 L161.486,111.266 L161.486,112.792 Z M161.5,113.521 C161.136,113.521 160.884,113.534 160.604,113.563 C160.632,113.269 160.646,113.03 160.646,112.75 L160.646,111.266 L158.082,111.266 C158.026,113.828 157.928,115.201 157.704,116.406 C157.466,117.681 157.144,118.535 156.569,119.529 C156.401,119.292 156.191,119.109 155.841,118.871 C156.345,118.045 156.625,117.33 156.85,116.238 C157.102,115.033 157.241,112.96 157.241,110.313 C157.241,109.22 157.228,108.8 157.172,108.142 C157.62,108.184 158.096,108.212 158.656,108.212 L162.312,108.212 L162.312,107.875 C162.312,107.539 162.284,107.259 162.229,106.979 L163.279,106.979 C163.209,107.217 163.195,107.455 163.195,107.89 L163.195,108.212 L167.019,108.212 C167.663,108.212 168.125,108.184 168.531,108.128 L168.531,109.066 C168.195,109.01 167.859,108.996 167.075,108.996 L158.096,108.996 L158.096,110.495 L160.646,110.495 L160.646,110.327 C160.646,109.879 160.617,109.626 160.575,109.389 L161.542,109.389 C161.5,109.584 161.486,109.864 161.486,110.327 L161.486,110.495 L164.819,110.495 L164.819,110.327 C164.819,109.935 164.792,109.626 164.764,109.402 L165.73,109.402 C165.674,109.626 165.66,109.879 165.66,110.327 L165.66,110.495 L167.243,110.495 C167.915,110.495 168.224,110.48 168.56,110.425 L168.56,111.335 C168.195,111.279 167.888,111.266 167.243,111.266 L165.66,111.266 L165.66,112.75 C165.66,113.044 165.674,113.282 165.702,113.563 C165.38,113.534 165.184,113.521 164.75,113.521 L163.545,113.521 L163.545,114.739 L166.36,114.739 C166.921,114.739 167.257,114.725 167.621,114.683 C167.579,115.005 167.565,115.3 167.565,115.79 L167.565,117.961 C167.565,118.717 167.229,118.913 165.885,118.913 C165.562,118.913 165.338,118.913 164.945,118.886 C164.903,118.563 164.861,118.354 164.735,118.017 C165.296,118.073 165.66,118.101 166.066,118.101 C166.599,118.101 166.711,118.045 166.711,117.736 L166.711,115.51 L163.545,115.51 L163.545,118.311 C163.545,118.983 163.573,119.445 163.629,119.782 L162.593,119.782 C162.648,119.418 162.677,118.928 162.677,118.311 L162.677,115.51 L159.959,115.51 L159.959,117.597 C159.959,118.451 159.973,118.731 160.015,119.025 L159.021,119.025 C159.062,118.675 159.091,118.297 159.091,117.61 L159.091,115.901 C159.091,115.426 159.076,115.062 159.034,114.683 C159.398,114.725 159.777,114.739 160.365,114.739 L162.677,114.739 L162.677,113.521 L161.5,113.521 Z" id="Fill-37" fill="#000000" mask="url(#mask-2)"></path>
                <path d="M133.332,136.4482 L137.086,136.4482 C137.927,136.4482 138.221,136.4332 138.725,136.3642 L138.725,137.4572 C138.249,137.4002 137.843,137.3862 137.101,137.3862 L128.779,137.3862 C128.052,137.3862 127.645,137.4002 127.169,137.4572 L127.169,136.3642 C127.673,136.4332 127.967,136.4482 128.794,136.4482 L132.296,136.4482 L132.296,130.2422 L129.858,130.2422 C129.102,130.2422 128.71,130.2572 128.233,130.3122 L128.233,129.2342 C128.724,129.3032 129.06,129.3182 129.872,129.3182 L136.021,129.3182 C136.834,129.3182 137.17,129.3032 137.66,129.2342 L137.66,130.3122 C137.185,130.2572 136.792,130.2422 136.035,130.2422 L133.332,130.2422 L133.332,136.4482 Z" id="Fill-38" fill="#000000" mask="url(#mask-2)"></path>
                <path d="M151.3105,127.875 C151.2535,128.197 151.2405,128.422 151.2405,129.094 L151.2405,130.747 C151.2405,132.975 151.1415,134.207 150.8895,135.02 C150.4835,136.336 149.6015,137.358 148.2285,138.129 C147.5415,138.521 146.8705,138.787 145.6785,139.138 C145.5255,138.731 145.4415,138.591 145.0905,138.171 C146.3515,137.891 147.0235,137.652 147.7515,137.219 C149.0545,136.462 149.7275,135.565 149.9935,134.263 C150.1475,133.465 150.1895,132.82 150.1895,130.69 L150.1895,129.108 C150.1895,128.38 150.1755,128.184 150.1335,127.875 L151.3105,127.875 Z M145.1045,127.875 C145.0625,128.212 145.0485,128.394 145.0485,129.038 L145.0485,132.806 C145.0485,133.479 145.0625,133.633 145.1045,133.969 L143.9425,133.969 C143.9845,133.646 143.9985,133.353 143.9985,132.792 L143.9985,129.052 C143.9985,128.449 143.9845,128.212 143.9425,127.875 L145.1045,127.875 Z" id="Fill-39" fill="#000000" mask="url(#mask-2)"></path>
                <path d="M168.125,129.0244 C167.985,129.2064 167.957,129.2484 167.789,129.5844 C166.823,131.4614 165.521,132.7364 163.699,133.5764 C163.489,133.2264 163.377,133.1004 163.013,132.7784 C163.993,132.3994 164.567,132.0634 165.226,131.4474 C165.87,130.8444 166.389,130.1584 166.795,129.3604 L158.839,129.3604 C158.068,129.3604 157.704,129.3744 157.186,129.4304 L157.186,128.3514 C157.662,128.4214 158.054,128.4494 158.853,128.4494 L166.375,128.4494 C167.313,128.4494 167.313,128.4494 167.565,128.3514 L168.125,129.0244 Z M162.593,130.7894 C162.551,131.0414 162.551,131.0414 162.536,131.7694 C162.494,134.1084 162.103,135.4954 161.149,136.7004 C160.295,137.7784 159.259,138.4794 157.563,139.1234 C157.354,138.6744 157.256,138.5354 156.92,138.1844 C158.054,137.8484 158.755,137.4994 159.482,136.8964 C160.968,135.7064 161.514,134.2764 161.514,131.5454 C161.514,131.1534 161.5,131.0544 161.458,130.7894 L162.593,130.7894 Z" id="Fill-40" fill="#000000" mask="url(#mask-2)"></path>
                <path d="M78.9995,264 C78.9995,282.777 63.7775,298 44.9995,298 C26.2215,298 10.9995,282.777 10.9995,264 C10.9995,245.223 26.2215,230 44.9995,230 C63.7775,230 78.9995,245.223 78.9995,264" id="Fill-41" fill="#FFFFFF" mask="url(#mask-2)"></path>
                <path d="M30.5078,252.207 C30.9518,252.747 31.2878,253.25 31.5998,253.838 L30.9878,254.114 C30.6878,253.515 30.3398,252.975 29.9078,252.459 L30.5078,252.207 Z M29.3688,252.675 C29.8128,253.215 30.1488,253.718 30.4478,254.306 L29.8368,254.582 C29.5488,253.982 29.2008,253.442 28.7698,252.927 L29.3688,252.675 Z M29.8718,255.205 C29.7878,255.325 29.7878,255.325 29.6198,255.949 C29.2728,257.221 28.6858,258.516 28.0618,259.415 C27.3538,260.435 26.2858,261.43 25.1118,262.161 C24.4278,262.594 23.8878,262.857 22.9038,263.228 C22.7248,262.845 22.6288,262.713 22.3168,262.401 C23.3968,262.077 24.1038,261.742 25.0278,261.13 C26.9938,259.811 28.1338,258.096 28.8048,255.409 L22.6998,255.409 C22.0888,255.409 21.7528,255.421 21.3578,255.481 L21.3578,254.521 C21.8128,254.582 22.0528,254.594 22.7118,254.594 L28.3848,254.594 C28.8648,254.594 28.9488,254.582 29.1648,254.498 L29.8718,255.205 Z" id="Fill-42" fill="#000000" mask="url(#mask-2)"></path>
                <path d="M33.3926,257.5918 C33.7416,257.6528 34.0646,257.6638 34.8796,257.6638 L41.8486,257.6638 C42.7366,257.6638 42.9276,257.6528 43.2996,257.6048 L43.2996,258.5748 C42.9156,258.5388 42.6396,258.5278 41.8356,258.5278 L34.8796,258.5278 C34.0046,258.5278 33.7526,258.5388 33.3926,258.5748 L33.3926,257.5918 Z" id="Fill-43" fill="#000000" mask="url(#mask-2)"></path>
                <path d="M55.0723,262.7969 C54.1253,261.5859 52.7693,260.2779 51.2343,259.0909 C50.3953,260.0509 49.8073,260.6029 48.9443,261.2379 C48.1163,261.8379 47.4803,262.2339 46.5933,262.6769 C46.4013,262.3179 46.3053,262.1859 46.0063,261.8859 C46.9283,261.5139 47.5163,261.1909 48.4403,260.5069 C50.3593,259.0909 51.8463,257.1959 52.7213,255.0979 C52.7463,255.0259 52.7583,255.0139 52.7823,254.9529 C52.8053,254.9179 52.8053,254.9049 52.8183,254.8689 C52.7103,254.8819 52.6743,254.8819 52.5303,254.8819 L48.5243,254.9419 C47.9843,254.9529 47.6363,254.9779 47.2893,255.0369 L47.2643,254.0669 C47.5893,254.1139 47.8043,254.1259 48.2133,254.1259 L48.5243,254.1259 L52.8053,254.0779 C53.2253,254.0669 53.3693,254.0539 53.5733,253.9829 L54.0773,254.4979 C53.9573,254.6419 53.8733,254.7849 53.7413,255.0849 C53.0693,256.5719 52.5063,257.5209 51.7623,258.4429 C53.3343,259.6429 54.3883,260.5909 55.7563,262.0419 L55.0723,262.7969 Z" id="Fill-44" fill="#000000" mask="url(#mask-2)"></path>
                <path d="M62.803,257.64 L65.657,257.64 L65.657,256.333 L62.803,256.333 L62.803,257.64 Z M62.814,258.264 C62.503,258.264 62.287,258.275 62.047,258.3 C62.071,258.048 62.083,257.844 62.083,257.604 L62.083,256.333 L59.889,256.333 C59.841,258.527 59.757,259.703 59.564,260.734 C59.36,261.826 59.085,262.558 58.593,263.409 C58.449,263.205 58.27,263.049 57.97,262.845 C58.401,262.138 58.642,261.525 58.833,260.591 C59.049,259.559 59.169,257.784 59.169,255.518 C59.169,254.582 59.157,254.222 59.109,253.658 C59.493,253.694 59.9,253.718 60.38,253.718 L63.511,253.718 L63.511,253.431 C63.511,253.143 63.486,252.902 63.438,252.663 L64.338,252.663 C64.278,252.866 64.266,253.07 64.266,253.442 L64.266,253.718 L67.54,253.718 C68.092,253.718 68.488,253.694 68.836,253.646 L68.836,254.45 C68.548,254.401 68.26,254.39 67.588,254.39 L59.9,254.39 L59.9,255.673 L62.083,255.673 L62.083,255.529 C62.083,255.146 62.06,254.93 62.023,254.726 L62.851,254.726 C62.814,254.894 62.803,255.134 62.803,255.529 L62.803,255.673 L65.657,255.673 L65.657,255.529 C65.657,255.193 65.634,254.93 65.609,254.737 L66.437,254.737 C66.389,254.93 66.377,255.146 66.377,255.529 L66.377,255.673 L67.732,255.673 C68.308,255.673 68.571,255.661 68.859,255.613 L68.859,256.393 C68.548,256.345 68.284,256.333 67.732,256.333 L66.377,256.333 L66.377,257.604 C66.377,257.855 66.389,258.06 66.413,258.3 C66.137,258.275 65.969,258.264 65.598,258.264 L64.566,258.264 L64.566,259.307 L66.977,259.307 C67.456,259.307 67.744,259.295 68.056,259.259 C68.021,259.535 68.008,259.787 68.008,260.207 L68.008,262.065 C68.008,262.713 67.721,262.881 66.568,262.881 C66.293,262.881 66.102,262.881 65.766,262.857 C65.729,262.581 65.693,262.401 65.585,262.113 C66.065,262.161 66.377,262.186 66.725,262.186 C67.181,262.186 67.276,262.138 67.276,261.874 L67.276,259.967 L64.566,259.967 L64.566,262.365 C64.566,262.941 64.59,263.337 64.638,263.625 L63.75,263.625 C63.799,263.312 63.822,262.894 63.822,262.365 L63.822,259.967 L61.496,259.967 L61.496,261.754 C61.496,262.485 61.508,262.726 61.544,262.978 L60.692,262.978 C60.729,262.677 60.752,262.354 60.752,261.766 L60.752,260.303 C60.752,259.895 60.74,259.583 60.704,259.259 C61.016,259.295 61.34,259.307 61.844,259.307 L63.822,259.307 L63.822,258.264 L62.814,258.264 Z" id="Fill-45" fill="#000000" mask="url(#mask-2)"></path>
                <path d="M32.3711,276.7705 L35.5861,276.7705 C36.3051,276.7705 36.5571,276.7575 36.9881,276.6985 L36.9881,277.6335 C36.5811,277.5855 36.2331,277.5745 35.5981,277.5745 L28.4741,277.5745 C27.8501,277.5745 27.5021,277.5855 27.0941,277.6335 L27.0941,276.6985 C27.5261,276.7575 27.7771,276.7705 28.4851,276.7705 L31.4831,276.7705 L31.4831,271.4575 L29.3961,271.4575 C28.7491,271.4575 28.4131,271.4685 28.0061,271.5175 L28.0061,270.5935 C28.4261,270.6535 28.7131,270.6665 29.4091,270.6665 L34.6741,270.6665 C35.3701,270.6665 35.6571,270.6535 36.0771,270.5935 L36.0771,271.5175 C35.6701,271.4685 35.3341,271.4575 34.6851,271.4575 L32.3711,271.4575 L32.3711,276.7705 Z" id="Fill-46" fill="#000000" mask="url(#mask-2)"></path>
                <path d="M47.7773,269.4307 C47.7293,269.7057 47.7173,269.8987 47.7173,270.4737 L47.7173,271.8887 C47.7173,273.7957 47.6333,274.8517 47.4183,275.5467 C47.0693,276.6747 46.3143,277.5497 45.1383,278.2097 C44.5503,278.5447 43.9753,278.7737 42.9563,279.0737 C42.8243,278.7257 42.7523,278.6057 42.4523,278.2447 C43.5313,278.0057 44.1073,277.8017 44.7313,277.4297 C45.8463,276.7827 46.4223,276.0147 46.6503,274.8997 C46.7823,274.2157 46.8183,273.6637 46.8183,271.8407 L46.8183,270.4857 C46.8183,269.8627 46.8053,269.6947 46.7693,269.4307 L47.7773,269.4307 Z M42.4643,269.4307 C42.4283,269.7177 42.4163,269.8737 42.4163,270.4257 L42.4163,273.6527 C42.4163,274.2277 42.4283,274.3597 42.4643,274.6477 L41.4683,274.6477 C41.5053,274.3717 41.5163,274.1197 41.5163,273.6397 L41.5163,270.4377 C41.5163,269.9217 41.5053,269.7177 41.4683,269.4307 L42.4643,269.4307 Z" id="Fill-47" fill="#000000" mask="url(#mask-2)"></path>
                <path d="M62.1895,270.4141 C62.0695,270.5691 62.0445,270.6051 61.9015,270.8931 C61.0735,272.5011 59.9585,273.5921 58.3995,274.3111 C58.2185,274.0121 58.1235,273.9041 57.8115,273.6281 C58.6515,273.3041 59.1425,273.0171 59.7065,272.4881 C60.2575,271.9731 60.7025,271.3851 61.0495,270.7011 L54.2375,270.7011 C53.5785,270.7011 53.2655,270.7141 52.8225,270.7621 L52.8225,269.8381 C53.2295,269.8981 53.5655,269.9221 54.2495,269.9221 L60.6895,269.9221 C61.4935,269.9221 61.4935,269.9221 61.7095,269.8381 L62.1895,270.4141 Z M57.4515,271.9251 C57.4165,272.1411 57.4165,272.1411 57.4035,272.7651 C57.3675,274.7681 57.0325,275.9551 56.2155,276.9861 C55.4845,277.9091 54.5965,278.5101 53.1455,279.0601 C52.9655,278.6771 52.8815,278.5581 52.5935,278.2581 C53.5655,277.9701 54.1655,277.6701 54.7895,277.1541 C56.0605,276.1351 56.5285,274.9111 56.5285,272.5721 C56.5285,272.2361 56.5155,272.1521 56.4805,271.9251 L57.4515,271.9251 Z" id="Fill-48" fill="#000000" mask="url(#mask-2)"></path>
                <path d="M325.896,26.2847 C324.997,25.2527 324.625,24.6777 324.229,23.7057 C323.833,22.7467 323.653,21.7987 323.653,20.7557 C323.653,19.7117 323.833,18.7647 324.229,17.8057 C324.625,16.8337 324.997,16.2577 325.896,15.2267 L326.963,15.2267 C325.956,16.2457 325.56,16.7857 325.141,17.7087 C324.709,18.6687 324.493,19.6637 324.493,20.7557 C324.493,21.8467 324.709,22.8427 325.141,23.8017 C325.56,24.7247 325.956,25.2647 326.963,26.2847 L325.896,26.2847 Z" id="Fill-49" fill="#FFFFFF" mask="url(#mask-2)"></path>
                <path d="M332.4512,19.0522 C332.4512,18.4172 332.4632,18.0332 332.5232,17.4212 C332.2712,17.7812 331.9712,18.1772 331.6232,18.6202 L328.8652,22.0982 L332.4512,22.0982 L332.4512,19.0522 Z M327.7972,22.0632 C328.0492,21.7752 328.3252,21.4392 328.5772,21.1392 L331.6112,17.3492 C332.0192,16.8452 332.2352,16.5462 332.5112,16.1262 L333.4102,16.1262 C333.3502,16.8332 333.3382,17.2052 333.3382,18.1532 L333.3382,22.0872 L333.7942,22.0872 C334.2982,22.0872 334.6102,22.0632 335.0412,22.0032 L335.0412,22.9982 C334.5972,22.9382 334.2982,22.9142 333.7822,22.9142 L333.3382,22.9142 L333.3382,23.9462 C333.3382,24.5212 333.3622,24.7972 333.4342,25.2412 L332.3432,25.2412 C332.4152,24.8212 332.4392,24.4852 332.4392,23.9462 L332.4392,22.9142 L329.2242,22.9142 C328.5532,22.9142 328.1932,22.9262 327.7972,22.9622 L327.7972,22.0632 Z" id="Fill-50" fill="#FFFFFF" mask="url(#mask-2)"></path>
                <path d="M337.3247,23.8379 C337.3247,24.4849 337.3487,24.8089 337.4207,25.2409 L336.2817,25.2409 C336.3537,24.8329 336.3777,24.4619 336.3777,23.8379 L336.3777,17.4579 C336.3777,16.9419 336.3537,16.5579 336.2817,16.0899 C336.7007,16.1139 337.0247,16.1259 337.6007,16.1259 L340.7787,16.1259 C341.3667,16.1259 341.7027,16.1019 342.1577,16.0419 L342.1577,17.0619 C341.7617,17.0019 341.4147,16.9779 340.7787,16.9779 L337.3247,16.9779 L337.3247,20.0719 L340.1317,20.0719 C340.7067,20.0719 341.0547,20.0479 341.4987,19.9879 L341.4987,20.9949 C341.1027,20.9359 340.7547,20.9119 340.1317,20.9119 L337.3247,20.9119 L337.3247,23.8379 Z" id="Fill-51" fill="#FFFFFF" mask="url(#mask-2)"></path>
                <path d="M349.3101,22.7822 C348.3741,22.7822 347.7631,23.1782 347.7631,23.7782 C347.7631,24.3652 348.3141,24.7492 349.1541,24.7492 C349.6821,24.7492 350.1491,24.5932 350.3771,24.3292 C350.5331,24.1492 350.6051,23.8622 350.6051,23.3942 C350.6051,23.3102 350.5931,23.0342 350.5931,23.0342 C350.1021,22.8422 349.7891,22.7822 349.3101,22.7822 L349.3101,22.7822 Z M347.0071,18.2842 C347.5951,18.4282 348.1101,18.4762 349.1661,18.4762 C349.6341,18.4762 349.9571,18.4652 350.4491,18.4412 C350.4371,17.3132 350.4371,17.3132 350.4371,16.4022 C350.4371,16.1982 350.4251,16.0302 350.4011,15.9102 L351.3011,15.9102 C351.2411,16.2342 351.2171,16.7982 351.2171,17.7932 C351.2171,17.9252 351.2171,18.1172 351.2291,18.3812 C352.1521,18.2732 352.8481,18.1292 353.3041,17.9372 L353.3401,18.7522 C353.3151,18.7522 353.3151,18.7522 352.5001,18.9202 C352.1881,18.9922 351.8521,19.0402 351.2291,19.1122 C351.2411,20.3002 351.2651,20.9112 351.3611,22.5062 C352.2361,22.9022 352.5721,23.0942 353.3641,23.6812 C353.5071,23.7782 353.5321,23.8022 353.6641,23.8862 L353.2911,24.7252 C352.9201,24.3052 352.4401,23.9692 351.5881,23.4782 C351.5401,23.4542 351.5401,23.4542 351.4691,23.4062 C351.4211,23.3702 351.4211,23.3702 351.3611,23.3342 C351.3851,23.5142 351.3851,23.5382 351.3851,23.6462 C351.3851,23.9572 351.3371,24.2452 351.2411,24.4612 C350.9531,25.0972 350.2211,25.4692 349.2381,25.4692 C347.8471,25.4692 346.9711,24.8092 346.9711,23.7652 C346.9711,22.7702 347.9181,22.0632 349.2501,22.0632 C349.7421,22.0632 350.3051,22.1582 350.5811,22.3032 C350.5451,22.0512 350.4971,20.9232 350.4611,19.1722 C349.9211,19.1962 349.5501,19.2082 349.0941,19.2082 C348.6021,19.2082 348.1591,19.1962 347.7391,19.1722 C347.5351,19.1482 347.4031,19.1482 347.3551,19.1482 C347.2471,19.1362 347.1751,19.1362 347.1511,19.1362 C347.0911,19.1242 347.0551,19.1242 347.0311,19.1242 L346.9831,19.1242 L347.0071,18.2842 Z M345.7961,16.0542 C345.2801,17.2532 344.8721,19.7122 344.8721,21.6792 C344.8721,22.0982 344.8961,22.8062 344.9201,23.3582 C344.9201,23.4542 344.9201,23.4782 344.9321,23.6942 L344.9321,23.9222 L344.9801,23.9332 C345.1961,23.0342 345.2801,22.8062 345.6881,21.8232 C345.7361,21.7152 345.7601,21.6672 345.7841,21.5832 L346.3721,21.8592 C345.8081,23.0342 345.3401,24.5572 345.3401,25.2652 C345.3401,25.3252 345.3401,25.3372 345.3641,25.5052 L344.5131,25.5892 C344.5001,25.4812 344.4881,25.4212 344.4401,25.1452 C344.2251,24.0302 344.1041,22.7942 344.1041,21.5832 C344.1041,19.9882 344.2611,18.7282 344.7281,16.6542 C344.8361,16.1262 344.8481,16.0542 344.8601,15.8982 L345.7961,16.0542 Z" id="Fill-52" fill="#FFFFFF" mask="url(#mask-2)"></path>
                <path d="M356.6084,25.2412 C355.8534,25.2412 355.6724,25.2532 355.2894,25.3012 C355.4214,24.3532 355.4574,24.1742 355.6374,23.7182 C355.9374,22.9622 356.4404,22.3032 357.1964,21.6552 C357.6154,21.2952 357.6394,21.2832 359.0314,20.3362 C360.2184,19.5322 360.6144,19.0042 360.6144,18.2732 C360.6144,17.3612 359.8464,16.7732 358.6234,16.7732 C357.8314,16.7732 357.2444,17.0372 356.8844,17.5532 C356.6564,17.8772 356.5484,18.1652 356.4644,18.7642 L355.4574,18.5962 C355.6374,17.7332 355.8164,17.3132 356.2124,16.8692 C356.7524,16.2582 357.5674,15.9462 358.6234,15.9462 C360.4344,15.9462 361.5974,16.8572 361.5974,18.2732 C361.5974,18.8852 361.3584,19.4602 360.8904,19.9762 C360.5304,20.3842 360.2184,20.6112 358.8514,21.5232 C357.9034,22.1582 357.5204,22.4942 357.1244,22.9982 C356.7524,23.4902 356.5844,23.8142 356.4404,24.3892 L360.2664,24.3892 C360.8664,24.3892 361.2744,24.3662 361.7294,24.3052 L361.7294,25.3132 C361.2504,25.2652 360.8544,25.2412 360.2544,25.2412 L356.6084,25.2412 Z" id="Fill-53" fill="#FFFFFF" mask="url(#mask-2)"></path>
                <path d="M364.8999,17.3975 C364.6479,17.6735 364.4559,17.9735 364.3599,18.2725 C364.1079,19.0045 363.9879,19.8195 363.9879,20.6955 C363.9879,21.8115 364.2289,22.9865 364.5519,23.5495 C364.9719,24.2455 365.5959,24.5935 366.4109,24.5935 C367.0109,24.5935 367.5259,24.4015 367.8859,24.0295 C368.1499,23.7535 368.3419,23.4415 368.4499,23.0945 C368.7019,22.3505 368.8219,21.5595 368.8219,20.6715 C368.8219,19.6275 368.5939,18.4405 368.2819,17.8765 C367.8859,17.1575 367.2389,16.7855 366.3989,16.7855 C365.7749,16.7855 365.2839,16.9895 364.8999,17.3975 M364.2049,24.5695 C363.8799,24.2455 363.6289,23.8745 363.4849,23.4655 C363.1849,22.6265 363.0289,21.6795 363.0289,20.6955 C363.0289,19.4245 363.3049,18.1285 363.7249,17.4335 C364.2999,16.4615 365.2239,15.9585 366.4109,15.9585 C367.2989,15.9585 368.0669,16.2465 368.6059,16.8095 C368.9419,17.1455 369.1819,17.5175 369.3259,17.9135 C369.6259,18.7405 369.7809,19.7005 369.7809,20.6955 C369.7809,22.1465 369.4689,23.4305 368.9419,24.1615 C368.3419,25.0015 367.5029,25.4205 366.3989,25.4205 C365.5119,25.4205 364.7679,25.1335 364.2049,24.5695" id="Fill-54" fill="#FFFFFF" mask="url(#mask-2)"></path>
                <path d="M372.2803,16.0659 C372.5923,16.1139 372.8203,16.1259 373.2753,16.1259 L374.0313,16.1259 C374.4393,16.1259 374.6313,16.1139 375.0263,16.0659 C374.9543,16.7979 374.9183,17.4089 374.9183,18.0569 L374.9183,23.8859 C374.9183,24.4489 374.9423,24.7969 375.0143,25.2409 L373.8753,25.2409 C373.9473,24.8209 373.9713,24.4379 373.9713,23.8859 L373.9713,16.9409 L373.3233,16.9409 C372.9403,16.9409 372.6283,16.9659 372.2803,17.0139 L372.2803,16.0659 Z" id="Fill-55" fill="#FFFFFF" mask="url(#mask-2)"></path>
                <path d="M385.333,16.9414 C385.117,17.1094 384.913,17.3734 384.445,18.0924 C383.366,19.7604 382.862,20.7794 382.395,22.2424 C382.083,23.2384 381.951,23.8494 381.759,25.2414 L380.62,25.2414 C381.003,23.0704 381.327,21.9904 382.071,20.4554 C382.646,19.2564 383.162,18.4284 384.229,16.9774 L380.332,16.9774 C379.768,16.9774 379.432,17.0014 378.977,17.0614 L378.977,16.0424 C379.444,16.1024 379.768,16.1264 380.344,16.1264 L383.942,16.1264 C384.649,16.1264 384.913,16.1144 385.333,16.0664 L385.333,16.9414 Z" id="Fill-56" fill="#FFFFFF" mask="url(#mask-2)"></path>
                <path d="M389.678,22.423 L392.317,22.423 L392.317,20.072 L389.678,20.072 L389.678,22.423 Z M388.899,20.06 C388.899,19.796 388.887,19.592 388.863,19.352 C389.115,19.376 389.379,19.388 389.715,19.388 L392.317,19.388 L392.317,17.433 L389.499,17.433 C388.887,18.453 388.312,19.16 387.508,19.88 C387.316,19.604 387.196,19.484 386.932,19.304 C388.12,18.297 388.767,17.421 389.331,16.078 C389.487,15.73 389.571,15.455 389.631,15.203 L390.482,15.442 C390.434,15.539 390.398,15.622 390.326,15.766 L389.871,16.738 L395.819,16.738 C396.347,16.738 396.599,16.726 396.899,16.678 L396.899,17.493 C396.599,17.445 396.311,17.433 395.819,17.433 L393.109,17.433 L393.109,19.388 L395.28,19.388 C395.771,19.388 396.035,19.376 396.347,19.328 L396.347,20.12 C396.035,20.084 395.748,20.072 395.292,20.072 L393.109,20.072 L393.109,22.422 L396.131,22.422 C396.671,22.422 397.007,22.398 397.342,22.351 L397.342,23.214 C396.995,23.166 396.623,23.142 396.131,23.142 L393.109,23.142 L393.109,25.121 C393.109,25.637 393.133,25.925 393.193,26.236 L392.245,26.236 C392.305,25.937 392.317,25.673 392.317,25.121 L392.317,23.142 L387.988,23.142 C387.496,23.142 387.124,23.166 386.776,23.214 L386.776,22.351 C387.124,22.398 387.46,22.422 387.988,22.422 L388.899,22.422 L388.899,20.06 Z" id="Fill-57" fill="#FFFFFF" mask="url(#mask-2)"></path>
                <path d="M404.1494,19.0283 C404.1494,17.7333 403.1904,16.7613 401.9064,16.7613 C401.1154,16.7613 400.3954,17.1453 399.9994,17.7813 C399.8074,18.0923 399.6884,18.5723 399.6884,19.0403 C399.6884,20.3953 400.5154,21.2473 401.8224,21.2473 C403.1534,21.2473 404.1494,20.2993 404.1494,19.0283 L404.1494,19.0283 Z M399.8794,23.2503 C400.0234,23.6463 400.1194,23.8143 400.3114,24.0173 C400.6474,24.3893 401.1634,24.5813 401.8224,24.5813 C402.6864,24.5813 403.3104,24.2333 403.7534,23.4783 C403.9814,23.0943 404.1734,22.5063 404.2694,21.9433 C404.3174,21.6433 404.3534,21.1513 404.3774,20.5393 C404.2094,20.8633 404.1134,20.9833 403.8974,21.2113 C403.2854,21.7873 402.6144,22.0503 401.7144,22.0503 C400.8274,22.0503 400.0714,21.7753 399.5564,21.2593 C399.0404,20.7433 398.7404,19.9523 398.7404,19.1003 C398.7404,17.1933 400.0234,15.9463 401.9904,15.9463 C403.3344,15.9463 404.4374,16.7143 404.8934,17.9613 C405.1324,18.6093 405.2404,19.4243 405.2404,20.4553 C405.2404,22.1223 404.8934,23.4783 404.2454,24.2813 C403.6454,25.0373 402.8544,25.3973 401.7504,25.3973 C400.9234,25.3973 400.2514,25.1813 399.7354,24.7493 C399.3994,24.4733 399.2084,24.1973 398.8964,23.5623 L399.8794,23.2503 Z" id="Fill-58" fill="#FFFFFF" mask="url(#mask-2)"></path>
                <path d="M414.8994,18.6807 L414.8994,16.6897 L409.5624,16.6897 L409.5504,18.3927 L409.5504,18.6807 L414.8994,18.6807 Z M414.8994,21.5347 L414.8994,19.4007 L409.5504,19.4007 C409.5384,20.0597 409.5144,20.5157 409.4184,21.5347 L414.8994,21.5347 Z M409.3344,22.2547 C409.2264,22.9507 409.0704,23.5497 408.8424,24.1137 C408.5314,24.9057 408.1954,25.4327 407.5234,26.2007 C407.3074,25.9247 407.1394,25.7567 406.8634,25.5647 C407.6074,24.8217 407.9914,24.1857 408.2794,23.2147 C408.6154,22.0747 408.7474,20.5997 408.7474,17.9367 C408.7474,16.8337 408.7344,16.3537 408.6994,15.8977 C409.1304,15.9467 409.4424,15.9577 409.9584,15.9577 L414.4674,15.9577 C414.9954,15.9577 415.3074,15.9467 415.7154,15.8977 C415.6794,16.2227 415.6674,16.5217 415.6674,17.1337 L415.6674,25.0257 C415.6674,25.4567 415.5594,25.7087 415.3314,25.8647 C415.1394,25.9847 414.9114,26.0207 414.3724,26.0207 C413.9764,26.0207 413.4724,26.0087 412.9324,25.9727 C412.8964,25.6607 412.8484,25.4687 412.7404,25.1577 C413.3404,25.2417 413.8804,25.2767 414.4564,25.2767 C414.8034,25.2767 414.8994,25.2047 414.8994,24.9057 L414.8994,22.2547 L409.3344,22.2547 Z" id="Fill-59" fill="#FFFFFF" mask="url(#mask-2)"></path>
                <path d="M425.1245,20.0239 C425.1245,19.9399 425.1365,19.7599 425.1605,19.2439 C424.9325,19.6879 424.8245,19.8439 424.2615,20.5869 C423.6375,21.4149 422.5825,22.3989 421.4185,23.2379 C420.8785,23.6339 420.4115,23.9219 419.4395,24.4739 C419.2475,24.1259 419.1515,24.0059 418.8395,23.7539 C420.2915,23.1069 421.6465,22.1469 422.9055,20.8869 C423.5775,20.2159 424.2365,19.3879 424.6325,18.7049 L420.6995,18.7289 C419.9435,18.7289 419.7755,18.7289 419.3675,18.7759 L419.3675,17.8769 C419.7995,17.9489 420.0155,17.9609 420.7235,17.9609 L425.0885,17.9369 L425.0765,16.7619 C425.0645,16.1379 425.0645,16.1379 425.0165,15.7899 L425.9765,15.7899 C425.9395,16.0539 425.9285,16.2459 425.9285,16.4499 L425.9285,16.7379 L425.9525,17.9369 L427.5355,17.9369 C428.2075,17.9369 428.3505,17.9249 428.7345,17.8649 L428.7345,18.7409 C428.4825,18.7169 428.2305,18.7049 427.7395,18.7049 L427.5595,18.7049 L425.9525,18.7049 L426.0365,24.5449 C426.0365,25.0609 426.0605,25.4449 426.0965,25.7689 L425.1245,25.7689 C425.1605,25.4209 425.1725,25.2889 425.1725,24.8209 L425.1725,24.5579 L425.1245,20.1439 L425.1245,20.0719 L425.1245,20.0239 Z" id="Fill-60" fill="#FFFFFF" mask="url(#mask-2)"></path>
                <path d="M431.0439,20.2158 C431.3919,20.2758 431.7149,20.2878 432.5309,20.2878 L439.4999,20.2878 C440.3869,20.2878 440.5789,20.2758 440.9509,20.2278 L440.9509,21.1988 C440.5669,21.1628 440.2909,21.1518 439.4869,21.1518 L432.5309,21.1518 C431.6559,21.1518 431.4039,21.1628 431.0439,21.1988 L431.0439,20.2158 Z" id="Fill-61" fill="#FFFFFF" mask="url(#mask-2)"></path>
                <path d="M451.5591,16.7139 C451.5591,17.1099 451.8951,17.4449 452.2911,17.4449 C452.6991,17.4449 453.0221,17.1219 453.0221,16.7139 C453.0221,16.3059 452.6991,15.9819 452.2911,15.9819 C451.8831,15.9819 451.5591,16.3059 451.5591,16.7139 L451.5591,16.7139 Z M451.0801,16.9299 C451.0671,16.8339 451.0561,16.7739 451.0561,16.7019 C451.0561,16.0299 451.6071,15.4789 452.2911,15.4789 C452.9751,15.4789 453.5261,16.0299 453.5261,16.7139 C453.5261,17.3979 452.9751,17.9489 452.2911,17.9489 C452.2071,17.9489 452.1351,17.9369 452.0271,17.9129 C451.6071,19.4719 451.0431,20.7789 450.3601,21.7509 C449.6521,22.7709 448.5851,23.7659 447.4101,24.4979 C446.7261,24.9289 446.1861,25.1929 445.2031,25.5649 C445.0231,25.1809 444.9271,25.0489 444.6151,24.7369 C445.6941,24.4139 446.4021,24.0779 447.3261,23.4659 C449.2921,22.1469 450.4321,20.4319 451.1031,17.7449 L444.9991,17.7449 C444.3871,17.7449 444.0511,17.7569 443.6561,17.8169 L443.6561,16.8579 C444.1111,16.9179 444.3511,16.9299 445.0111,16.9299 L450.9121,16.9299 L451.0801,16.9299 Z" id="Fill-62" fill="#FFFFFF" mask="url(#mask-2)"></path>
                <path d="M456.459,16.8335 C457.743,17.6495 458.486,18.2365 459.35,19.0885 L458.726,19.8325 C457.862,18.8965 456.915,18.1175 455.872,17.4815 L456.459,16.8335 Z M455.691,24.2695 C456.627,24.2335 458.066,23.8615 459.182,23.3465 C461.497,22.3145 463.104,20.5515 464.075,18.0085 C464.351,18.3805 464.471,18.4885 464.807,18.7165 C463.847,20.8035 462.732,22.2065 461.148,23.2975 C459.913,24.1375 458.678,24.6295 456.675,25.0845 C456.351,25.1575 456.255,25.1815 455.956,25.2765 L455.691,24.2695 Z" id="Fill-63" fill="#FFFFFF" mask="url(#mask-2)"></path>
                <path d="M476.0747,16.4497 C474.7077,17.6247 474.1317,18.0327 472.8247,18.7407 C473.1607,18.9807 473.3047,19.0757 473.7607,19.4247 L473.4487,19.7357 L475.6187,19.7357 C476.3387,19.7357 476.6387,19.7237 476.8907,19.6767 L477.3587,20.1917 C477.3097,20.2397 477.1667,20.4077 477.0347,20.5877 C476.2067,21.6307 475.9077,21.9307 474.9357,22.6867 C474.7197,22.4707 474.5517,22.3387 474.3117,22.1947 C475.1157,21.6547 475.5477,21.2597 476.2307,20.4557 L472.5847,20.4557 L472.5847,25.1087 C472.5847,25.8767 472.2967,26.0807 471.1817,26.0807 C470.8097,26.0807 470.1747,26.0567 469.7667,26.0207 C469.7187,25.6367 469.6827,25.4807 469.5747,25.1927 C470.2587,25.3007 470.7377,25.3367 471.2537,25.3367 C471.6617,25.3367 471.7817,25.2527 471.7817,24.9897 L471.7817,20.4557 L468.0637,20.4557 C467.5357,20.4557 467.2117,20.4797 466.8277,20.5277 L466.8277,19.6637 C467.1637,19.7117 467.5237,19.7357 468.1587,19.7357 L472.9567,19.7357 C471.9967,18.9807 471.0257,18.3807 469.6467,17.6977 L470.1377,17.1697 C471.1937,17.7207 471.6017,17.9497 472.1777,18.3087 C473.2807,17.7337 473.9157,17.3137 474.7317,16.6057 L469.1787,16.6057 C468.5427,16.6057 468.2907,16.6177 467.9437,16.6657 L467.9437,15.8497 C468.3037,15.9097 468.6157,15.9227 469.2027,15.9227 L474.6957,15.9227 C475.1397,15.9227 475.3317,15.9097 475.5827,15.8867 L476.0747,16.4497 Z" id="Fill-64" fill="#FFFFFF" mask="url(#mask-2)"></path>
                <path d="M483.5054,16.1621 C483.5054,15.8861 483.4814,15.6941 483.4334,15.4061 L484.3694,15.4061 C484.3094,15.6701 484.2854,15.8861 484.2854,16.1501 L484.2854,16.7381 L487.7874,16.7381 C488.2554,16.7381 488.6024,16.7251 488.9864,16.6901 C488.9504,16.9411 488.9384,17.1691 488.9384,17.5051 L488.9384,18.2611 C488.9384,18.6201 488.9504,18.8601 488.9864,19.1121 L488.2074,19.1121 L488.2074,17.4331 L479.8354,17.4331 L479.8354,19.1121 L479.0444,19.1121 C479.0804,18.8491 479.0914,18.6331 479.0914,18.2611 L479.0914,17.5051 C479.0914,17.1931 479.0804,16.9171 479.0444,16.6901 C479.4274,16.7251 479.7754,16.7381 480.2554,16.7381 L483.5054,16.7381 L483.5054,16.1621 Z M483.6854,19.5561 L481.5624,19.5561 C481.0474,19.5561 480.7344,19.5801 480.3754,19.6281 L480.3754,18.8011 C480.6994,18.8491 481.0344,18.8721 481.5624,18.8721 L486.5274,18.8721 C487.0554,18.8721 487.3914,18.8491 487.7154,18.8011 L487.7154,19.6281 C487.3794,19.5801 487.0554,19.5561 486.5274,19.5561 L484.4294,19.5561 L484.4294,21.5111 L486.7434,21.5111 C487.2594,21.5111 487.5834,21.4871 487.8954,21.4391 L487.8954,22.2551 C487.5474,22.1951 487.2354,22.1831 486.7434,22.1831 L484.4294,22.1831 L484.4294,24.8451 C484.9564,24.9411 485.5324,24.9771 486.3834,24.9771 C487.3554,24.9771 488.1834,24.9411 489.1904,24.8571 C489.0344,25.1571 488.9744,25.3491 488.9264,25.6971 C487.8834,25.7211 487.7994,25.7211 487.4754,25.7211 C485.7004,25.7211 485.4604,25.7091 484.8484,25.6251 C482.9774,25.3611 481.8024,24.6411 481.1664,23.3701 C480.6744,24.5091 480.2434,25.1451 479.3434,26.0931 C479.1394,25.8411 479.0564,25.7571 478.7204,25.5291 C479.5474,24.7491 479.9314,24.2451 480.3394,23.3941 C480.7474,22.5551 481.0704,21.3431 481.0704,20.6601 L481.0704,20.5391 L481.9104,20.7071 C481.8744,20.8631 481.8744,20.8631 481.7664,21.3311 C481.7064,21.6191 481.5264,22.3141 481.4424,22.6021 C481.7544,23.2501 481.9704,23.5381 482.3904,23.9221 C482.7374,24.2221 483.1334,24.4491 483.6854,24.6531 L483.6854,19.5561 Z" id="Fill-65" fill="#FFFFFF" mask="url(#mask-2)"></path>
                <path d="M500.1831,18.189 C500.6391,18.741 500.8781,19.101 501.2861,19.868 L500.6861,20.18 C500.3501,19.496 500.0391,19.004 499.5951,18.477 L500.1831,18.189 Z M499.0191,18.752 C499.4751,19.304 499.7151,19.664 500.1231,20.432 L499.5111,20.744 C499.1871,20.06 498.8751,19.568 498.4321,19.041 L499.0191,18.752 Z M491.0801,17.374 C491.3081,17.385 491.4281,17.385 491.5121,17.385 C491.6801,17.385 491.8241,17.374 492.1951,17.35 C493.6221,17.241 497.4601,17.014 499.0071,16.954 C499.6791,16.918 500.2431,16.87 500.4341,16.822 L500.5071,17.709 C500.0271,17.709 499.6191,17.757 499.1631,17.877 C498.3601,18.081 497.5201,18.513 496.8611,19.076 C495.9011,19.88 495.3861,20.852 495.3861,21.847 C495.3861,22.855 495.9971,23.658 497.0641,24.065 C497.6521,24.282 498.4081,24.449 498.8641,24.449 L498.9831,24.449 L498.8281,25.421 C498.6961,25.397 498.6481,25.385 498.4561,25.349 C497.2681,25.145 496.5491,24.893 495.8651,24.425 C495.0141,23.85 494.5341,22.974 494.5341,21.979 C494.5341,20.587 495.3501,19.269 496.7771,18.297 C497.1481,18.045 497.4601,17.877 497.9161,17.661 C497.2081,17.781 496.6091,17.841 495.2781,17.925 C492.7951,18.093 491.7271,18.189 491.1401,18.321 L491.0801,17.374 Z" id="Fill-66" fill="#FFFFFF" mask="url(#mask-2)"></path>
                <path d="M508.0933,19.9878 C507.8653,19.8558 507.6133,19.7958 507.2893,19.7958 C506.5343,19.7958 505.9583,20.3358 505.9583,21.0548 C505.9583,21.7508 506.4623,22.2428 507.1943,22.2428 C508.0213,22.2428 508.5963,21.6668 508.5963,20.8278 C508.5963,20.4318 508.4413,20.1798 508.0933,19.9878 L508.0933,19.9878 Z M508.6093,16.3778 C508.6093,16.0658 508.5963,15.9338 508.5613,15.6818 L509.4603,15.6818 C509.4123,16.0658 509.4003,16.2458 509.4003,17.1818 L509.4003,17.3138 C511.6673,17.3008 512.5913,17.2778 512.9863,17.2298 L512.9863,18.0808 C512.5423,18.0328 512.1233,18.0208 510.6963,18.0208 C510.5153,18.0208 510.3843,18.0208 509.4123,18.0448 L509.4123,20.4198 C509.6163,20.9238 509.7003,21.3068 509.7003,21.8348 C509.7003,23.0818 509.1243,24.1858 508.0933,24.9658 C507.6013,25.3248 507.0733,25.6008 506.1983,25.9368 C505.9943,25.5528 505.9223,25.4448 505.6703,25.1808 C506.6063,24.8818 507.1343,24.6418 507.6133,24.2818 C508.4893,23.6218 508.9083,22.8418 508.9563,21.7508 C508.8483,22.0388 508.7773,22.1708 508.6333,22.3388 C508.2733,22.7708 507.7573,22.9868 507.1213,22.9868 C505.9703,22.9868 505.1553,22.1948 505.1553,21.0918 C505.1553,19.9518 506.0543,19.1128 507.2783,19.1128 C507.8533,19.1128 508.3573,19.3038 508.6693,19.6528 C508.6563,19.4848 508.6563,19.4358 508.6563,18.9928 C508.6563,18.9448 508.6453,18.8248 508.6453,18.6808 L508.6453,18.0568 C506.2343,18.1048 503.8113,18.2248 503.0083,18.3568 L502.9723,17.4818 C503.1883,17.4928 503.2723,17.4928 503.4513,17.4928 C503.7993,17.4928 503.7993,17.4928 505.7303,17.4218 C506.8823,17.3738 507.8173,17.3498 508.6333,17.3248 L508.6093,16.3778 Z" id="Fill-67" fill="#FFFFFF" mask="url(#mask-2)"></path>
                <path d="M514.4561,26.2847 C515.4641,25.2767 515.8591,24.7247 516.2791,23.8017 C516.7111,22.8427 516.9271,21.8467 516.9271,20.7557 C516.9271,19.6637 516.7111,18.6687 516.2791,17.7087 C515.8591,16.7857 515.4641,16.2337 514.4561,15.2267 L515.5231,15.2267 C516.4231,16.2577 516.7951,16.8337 517.1911,17.8057 C517.5861,18.7647 517.7671,19.7117 517.7671,20.7557 C517.7671,21.7987 517.5861,22.7467 517.1911,23.7057 C516.7951,24.6777 516.4231,25.2527 515.5231,26.2847 L514.4561,26.2847 Z" id="Fill-68" fill="#FFFFFF" mask="url(#mask-2)"></path>
            </g>
        </g>
    </g>
</svg>