<svg xmlns="http://www.w3.org/2000/svg" viewBox="0 0 18.94 18.94"><defs><style>.cls-1{fill:#fff;}</style></defs><title>facebook-icon</title><g id="レイヤー_2" data-name="レイヤー 2"><g id="レイヤー_1-2" data-name="レイヤー 1"><path class="cls-1" d="M17.89,0H1.05A1,1,0,0,0,0,1.05V17.89a1,1,0,0,0,1.05,1.05h9.07V11.61H7.66V8.75h2.46V6.64a3.44,3.44,0,0,1,3.67-3.78A21.91,21.91,0,0,1,16,3V5.53H14.49c-1.18,0-1.41.56-1.41,1.39V8.75h2.83l-.37,2.86H13.08v7.33h4.81a1,1,0,0,0,1.05-1.05V1.05A1,1,0,0,0,17.89,0Z"/></g></g></svg>