<svg xmlns="http://www.w3.org/2000/svg" viewBox="0 0 47.04 14.25"><defs><style>.cls-1{fill:#fff;}</style></defs><title>flickr-icon</title><g id="レイヤー_2" data-name="レイヤー 2"><g id="レイヤー_1-2" data-name="レイヤー 1"><path class="cls-1" d="M6.22,2.32a2.62,2.62,0,0,1,1,.15L7.43.18A8.84,8.84,0,0,0,5.79,0C3.23,0,1.94,1,1.94,3.85v.59H0V6.75H1.88V14h3.2V6.75H7.36V4.44H5.08V3.85C5.08,2.91,5.4,2.32,6.22,2.32Z"/><rect class="cls-1" x="9.03" y="0.22" width="3.2" height="13.8"/><rect class="cls-1" x="14.96" y="0.44" width="3.2" height="2.43"/><rect class="cls-1" x="14.96" y="4.44" width="3.2" height="9.59"/><path class="cls-1" d="M26,11.82a2.54,2.54,0,0,1-2.63-2.53,2.43,2.43,0,0,1,2.45-2.65,3.38,3.38,0,0,1,1.93.54L28,4.75a5.59,5.59,0,0,0-2.55-.53c-3.05,0-5.38,1.84-5.38,5s2.33,5,5.38,5a8.27,8.27,0,0,0,2.62-.43L28,11.36A4.36,4.36,0,0,1,26,11.82Z"/><polygon class="cls-1" points="38.81 4.44 35.31 4.44 32.64 8.47 32.61 8.47 32.61 0.22 29.41 0.22 29.41 14.03 32.61 14.03 32.61 9.28 32.64 9.28 35.2 14.03 39.08 14.03 35.59 8.83 38.81 4.44"/><path class="cls-1" d="M46,4.21a2.87,2.87,0,0,0-2.73,2h0V4.44H40.27V14h3.2V10c0-1.88.83-3,2.32-3a3.61,3.61,0,0,1,1.09.11L47,4.33A6.06,6.06,0,0,0,46,4.21Z"/></g></g></svg>