<svg xmlns="http://www.w3.org/2000/svg" viewBox="0 0 139.69 35.86"><title>logo_right</title><g id="レイヤー_2" data-name="レイヤー 2"><g id="レイヤー_1-2" data-name="レイヤー 1"><path d="M0,.25H5.45A7.53,7.53,0,0,1,7.69.57a5.05,5.05,0,0,1,1.72.92,3.93,3.93,0,0,1,1.11,1.44,4.8,4.8,0,0,1,.38,1.94v0A4.39,4.39,0,0,1,10.44,7,4.34,4.34,0,0,1,9.21,8.47a5.44,5.44,0,0,1-1.82.9,8,8,0,0,1-2.21.3H1.64v5.14H0Zm5.25,8A5.6,5.6,0,0,0,6.89,8a3.82,3.82,0,0,0,1.27-.66A2.84,2.84,0,0,0,9,6.3,3.12,3.12,0,0,0,9.26,5v0A2.78,2.78,0,0,0,8.18,2.57a4.64,4.64,0,0,0-2.84-.8H1.64V8.2Z"/><path d="M21.08,15.06a7.45,7.45,0,0,1-3-.6,7.14,7.14,0,0,1-3.85-4,7.85,7.85,0,0,1-.53-2.86v0a7.78,7.78,0,0,1,.54-2.87A7.27,7.27,0,0,1,21.12,0a7.2,7.2,0,0,1,5.37,2.24A7.31,7.31,0,0,1,28,4.63a7.89,7.89,0,0,1,.53,2.86,0,0,0,0,1,0,0A7.56,7.56,0,0,1,28,10.4a7.4,7.4,0,0,1-1.51,2.41,7.51,7.51,0,0,1-2.36,1.64A7.29,7.29,0,0,1,21.08,15.06Zm0-1.52a5.63,5.63,0,0,0,2.3-.46,5.56,5.56,0,0,0,1.8-1.28,5.94,5.94,0,0,0,1.17-1.9,6.15,6.15,0,0,0,.43-2.33v0a6.28,6.28,0,0,0-.43-2.34,5.72,5.72,0,0,0-1.19-1.9A5.9,5.9,0,0,0,23.38,2a5.81,5.81,0,0,0-4.6,0A5.42,5.42,0,0,0,17,3.27,6.1,6.1,0,0,0,15.8,5.16a6.39,6.39,0,0,0-.42,2.33v0a6.48,6.48,0,0,0,.42,2.34A6,6,0,0,0,17,11.78a5.79,5.79,0,0,0,1.82,1.29A5.47,5.47,0,0,0,21.12,13.54Z"/><path d="M33.39.25H35V14.81H33.39Z"/><path d="M41,.25h1.54l9.17,11.67V.25h1.6V14.81H52L42.57,2.87V14.81H41Z"/><path d="M62.5,1.77H57.61V.25H69V1.77H64.15v13H62.5Z"/><path d="M79.21.25H89.74V1.73H80.85v5h8V8.22h-8v5.12h9v1.47H79.21Z"/><path d="M94.4.25h5a8.54,8.54,0,0,1,3.13.55A7.42,7.42,0,0,1,105,2.33a6.69,6.69,0,0,1,1.59,2.3,7.12,7.12,0,0,1,.56,2.86v0a7.17,7.17,0,0,1-.56,2.87A6.63,6.63,0,0,1,105,12.71a7.45,7.45,0,0,1-2.46,1.54,8.34,8.34,0,0,1-3.13.56h-5Zm5,13a6.87,6.87,0,0,0,2.5-.43,5.53,5.53,0,0,0,1.9-1.21,5.28,5.28,0,0,0,1.21-1.82,5.83,5.83,0,0,0,.43-2.26v0a5.87,5.87,0,0,0-.43-2.26,5.39,5.39,0,0,0-3.11-3,6.66,6.66,0,0,0-2.5-.45H96V13.29Z"/><path d="M118.26,15.06a7.77,7.77,0,0,1-3.09-.58,7,7,0,0,1-2.33-1.6,6.85,6.85,0,0,1-1.47-2.38,8.1,8.1,0,0,1-.51-2.93v0a7.68,7.68,0,0,1,.53-2.86,7.56,7.56,0,0,1,1.48-2.4A7,7,0,0,1,118.16,0a10.65,10.65,0,0,1,1.67.12,7.57,7.57,0,0,1,1.42.38,7.41,7.41,0,0,1,1.23.61,12.19,12.19,0,0,1,1.11.82l-1.06,1.25a7,7,0,0,0-.88-.67,5.38,5.38,0,0,0-1-.52,6.67,6.67,0,0,0-1.17-.35,7.53,7.53,0,0,0-1.4-.12,5.16,5.16,0,0,0-2.23.48,5.49,5.49,0,0,0-1.75,1.29A5.94,5.94,0,0,0,113,5.19a6.38,6.38,0,0,0-.42,2.3v0A7,7,0,0,0,113,10a5.67,5.67,0,0,0,1.15,1.91,5.33,5.33,0,0,0,1.81,1.27,6.1,6.1,0,0,0,2.39.46,6.59,6.59,0,0,0,2.36-.43,6.92,6.92,0,0,0,1.85-1V8.51H118.1V7h6v5.81a9.51,9.51,0,0,1-2.51,1.57A8.13,8.13,0,0,1,118.26,15.06Z"/><path d="M129.06.25h10.53V1.73H130.7v5h8V8.22h-8v5.12h9v1.47H129.06Z"/><path d="M.08,27.24h3a3.2,3.2,0,0,1,1.07.17,2.1,2.1,0,0,1,.76.45A1.55,1.55,0,0,1,5.33,29v0a1.61,1.61,0,0,1-.1.6,1.36,1.36,0,0,1-.25.46,1.81,1.81,0,0,1-.35.33,2.32,2.32,0,0,1-.41.22,3,3,0,0,1,.59.24,1.86,1.86,0,0,1,.47.35,1.56,1.56,0,0,1,.32.47,1.59,1.59,0,0,1,.12.64v0a1.71,1.71,0,0,1-.18.8,1.64,1.64,0,0,1-.51.6,2.53,2.53,0,0,1-.81.38,3.75,3.75,0,0,1-1,.13H.08Zm2.85,3.11A2,2,0,0,0,4.1,30a1.08,1.08,0,0,0,.44-.93v0a1,1,0,0,0-.4-.83A1.83,1.83,0,0,0,3,28H.87v2.4Zm.28,3.18a2.12,2.12,0,0,0,1.26-.33,1.06,1.06,0,0,0,.46-.92v0a1,1,0,0,0-.47-.88,2.48,2.48,0,0,0-1.39-.32H.87v2.47Z"/><path d="M9.47,34.35a2.24,2.24,0,0,1-.84-.15A1.79,1.79,0,0,1,8,33.78a2,2,0,0,1-.39-.66,2.47,2.47,0,0,1-.13-.84V29.07h.77v3a1.65,1.65,0,0,0,.37,1.14,1.34,1.34,0,0,0,1.06.42,1.74,1.74,0,0,0,.61-.11,1.41,1.41,0,0,0,.49-.33,1.65,1.65,0,0,0,.33-.52,1.76,1.76,0,0,0,.12-.66v-3H12v5.17h-.76v-.9a2.45,2.45,0,0,1-.68.72A1.9,1.9,0,0,1,9.47,34.35Z"/><path d="M15.84,34.34a3.5,3.5,0,0,1-1.13-.2,3.65,3.65,0,0,1-1-.56l.39-.55a3.44,3.44,0,0,0,.87.49,2.72,2.72,0,0,0,.92.17,1.25,1.25,0,0,0,.77-.22.71.71,0,0,0,.3-.6v0a.52.52,0,0,0-.11-.33,1,1,0,0,0-.28-.24,2,2,0,0,0-.42-.19l-.48-.15-.61-.19a2.56,2.56,0,0,1-.55-.27,1.52,1.52,0,0,1-.4-.4,1.11,1.11,0,0,1-.15-.6v0a1.32,1.32,0,0,1,.13-.6,1.4,1.4,0,0,1,.36-.47,1.77,1.77,0,0,1,.56-.3,2.35,2.35,0,0,1,.71-.11,3,3,0,0,1,1,.16,3.62,3.62,0,0,1,.89.41l-.35.58a3.53,3.53,0,0,0-.76-.36,2.37,2.37,0,0,0-.77-.14,1.1,1.1,0,0,0-.73.22.65.65,0,0,0-.27.53v0a.52.52,0,0,0,.11.32,1,1,0,0,0,.29.23,2.41,2.41,0,0,0,.43.18l.5.16.59.2a2.3,2.3,0,0,1,.54.28,1.24,1.24,0,0,1,.38.41,1.1,1.1,0,0,1,.15.59v0a1.4,1.4,0,0,1-.15.66,1.29,1.29,0,0,1-.39.48,1.69,1.69,0,0,1-.58.31A2.37,2.37,0,0,1,15.84,34.34Z"/><path d="M21.22,34.34a3.5,3.5,0,0,1-1.13-.2,3.65,3.65,0,0,1-1-.56l.39-.55a3.44,3.44,0,0,0,.87.49,2.72,2.72,0,0,0,.92.17,1.25,1.25,0,0,0,.77-.22.71.71,0,0,0,.3-.6v0a.52.52,0,0,0-.11-.33,1,1,0,0,0-.28-.24,2,2,0,0,0-.42-.19L21,31.94l-.61-.19a2.56,2.56,0,0,1-.55-.27,1.52,1.52,0,0,1-.4-.4,1.11,1.11,0,0,1-.15-.6v0a1.32,1.32,0,0,1,.13-.6,1.4,1.4,0,0,1,.36-.47,1.77,1.77,0,0,1,.56-.3,2.35,2.35,0,0,1,.71-.11,3,3,0,0,1,1,.16,3.62,3.62,0,0,1,.89.41l-.35.58a3.53,3.53,0,0,0-.76-.36,2.37,2.37,0,0,0-.77-.14,1.1,1.1,0,0,0-.73.22.65.65,0,0,0-.27.53v0a.52.52,0,0,0,.11.32,1,1,0,0,0,.29.23,2.41,2.41,0,0,0,.43.18l.5.16.59.2a2.3,2.3,0,0,1,.54.28,1.24,1.24,0,0,1,.38.41,1.1,1.1,0,0,1,.15.59v0a1.4,1.4,0,0,1-.15.66,1.29,1.29,0,0,1-.39.48,1.69,1.69,0,0,1-.58.31A2.37,2.37,0,0,1,21.22,34.34Z"/><path d="M24.91,27.09h.88v.85h-.88Zm.05,2h.77v5.17H25Z"/><path d="M27.92,29.07h.77V30a2.3,2.3,0,0,1,.68-.71,1.83,1.83,0,0,1,1.09-.3,2.16,2.16,0,0,1,.83.15,1.61,1.61,0,0,1,.62.43,1.85,1.85,0,0,1,.39.65,2.47,2.47,0,0,1,.14.84v3.21h-.77v-3a1.65,1.65,0,0,0-.37-1.14,1.34,1.34,0,0,0-1.06-.42,1.59,1.59,0,0,0-.62.12,1.34,1.34,0,0,0-.49.32,1.65,1.65,0,0,0-.33.52,2,2,0,0,0-.11.66v3h-.77Z"/><path d="M34.94,32a2.07,2.07,0,0,0,.2.73,1.84,1.84,0,0,0,.41.54,1.79,1.79,0,0,0,.56.34,2,2,0,0,0,.65.11,2,2,0,0,0,.92-.2,2.58,2.58,0,0,0,.71-.53l.48.43a3.36,3.36,0,0,1-.89.71,2.71,2.71,0,0,1-1.24.26,2.5,2.5,0,0,1-1.82-.74,2.84,2.84,0,0,1-.56-.86,3,3,0,0,1-.2-1.1,3,3,0,0,1,.18-1.05,2.75,2.75,0,0,1,.52-.86,2.34,2.34,0,0,1,.78-.58,2.39,2.39,0,0,1,1-.21,2.25,2.25,0,0,1,1,.22,2.17,2.17,0,0,1,.76.58,2.61,2.61,0,0,1,.47.87,3.38,3.38,0,0,1,.16,1.07v.12A.86.86,0,0,1,39,32Zm3.33-.63a2.44,2.44,0,0,0-.15-.66,1.79,1.79,0,0,0-.33-.55,1.36,1.36,0,0,0-.5-.38,1.57,1.57,0,0,0-.67-.14,1.44,1.44,0,0,0-.62.13,1.82,1.82,0,0,0-.51.36,2.12,2.12,0,0,0-.37.55,2.7,2.7,0,0,0-.18.69Z"/><path d="M42.51,34.34a3.5,3.5,0,0,1-1.13-.2,3.65,3.65,0,0,1-1-.56l.39-.55a3.44,3.44,0,0,0,.87.49,2.72,2.72,0,0,0,.92.17,1.25,1.25,0,0,0,.77-.22.71.71,0,0,0,.3-.6v0a.52.52,0,0,0-.11-.33,1,1,0,0,0-.28-.24,2,2,0,0,0-.42-.19l-.48-.15-.61-.19a2.56,2.56,0,0,1-.55-.27,1.52,1.52,0,0,1-.4-.4,1.11,1.11,0,0,1-.15-.6v0a1.32,1.32,0,0,1,.13-.6,1.4,1.4,0,0,1,.36-.47,1.77,1.77,0,0,1,.56-.3,2.35,2.35,0,0,1,.71-.11,3,3,0,0,1,1,.16,3.62,3.62,0,0,1,.89.41l-.35.58a3.53,3.53,0,0,0-.76-.36,2.37,2.37,0,0,0-.77-.14,1.1,1.1,0,0,0-.73.22.65.65,0,0,0-.27.53v0a.52.52,0,0,0,.11.32,1,1,0,0,0,.29.23,2.41,2.41,0,0,0,.43.18l.5.16.59.2a2.3,2.3,0,0,1,.54.28,1.24,1.24,0,0,1,.38.41,1.1,1.1,0,0,1,.15.59v0a1.4,1.4,0,0,1-.15.66,1.29,1.29,0,0,1-.39.48,1.69,1.69,0,0,1-.58.31A2.37,2.37,0,0,1,42.51,34.34Z"/><path d="M47.89,34.34a3.5,3.5,0,0,1-1.13-.2,3.65,3.65,0,0,1-1-.56l.39-.55a3.44,3.44,0,0,0,.87.49,2.72,2.72,0,0,0,.92.17,1.25,1.25,0,0,0,.77-.22.71.71,0,0,0,.3-.6v0a.52.52,0,0,0-.11-.33,1,1,0,0,0-.28-.24,2,2,0,0,0-.42-.19l-.48-.15-.61-.19a2.56,2.56,0,0,1-.55-.27,1.52,1.52,0,0,1-.4-.4,1.11,1.11,0,0,1-.15-.6v0a1.32,1.32,0,0,1,.13-.6,1.4,1.4,0,0,1,.36-.47,1.77,1.77,0,0,1,.56-.3,2.35,2.35,0,0,1,.71-.11,3,3,0,0,1,1,.16,3.62,3.62,0,0,1,.89.41l-.35.58a3.53,3.53,0,0,0-.76-.36,2.37,2.37,0,0,0-.77-.14,1.1,1.1,0,0,0-.73.22.65.65,0,0,0-.27.53v0a.52.52,0,0,0,.11.32,1,1,0,0,0,.29.23,2.41,2.41,0,0,0,.43.18l.5.16.59.2a2.3,2.3,0,0,1,.54.28,1.24,1.24,0,0,1,.38.41,1.1,1.1,0,0,1,.15.59v0a1.4,1.4,0,0,1-.15.66,1.29,1.29,0,0,1-.39.48,1.69,1.69,0,0,1-.58.31A2.37,2.37,0,0,1,47.89,34.34Z"/><path d="M55.09,27.24h2.43a4,4,0,0,1,1.5.27,3.46,3.46,0,0,1,1.18.73A3.21,3.21,0,0,1,61,29.35a3.45,3.45,0,0,1,.27,1.37v0A3.54,3.54,0,0,1,61,32.12a3.21,3.21,0,0,1-.77,1.11A3.64,3.64,0,0,1,59,34a4,4,0,0,1-1.5.27H55.09Zm2.43,6.27a3.29,3.29,0,0,0,1.2-.21,2.58,2.58,0,0,0,.91-.58,2.55,2.55,0,0,0,.58-.87,2.82,2.82,0,0,0,.21-1.09v0a2.74,2.74,0,0,0-.21-1.08,2.5,2.5,0,0,0-.58-.88,2.6,2.6,0,0,0-.91-.59,3.09,3.09,0,0,0-1.2-.22H55.88v5.54Z"/><path d="M63.64,32a2.07,2.07,0,0,0,.2.73,1.84,1.84,0,0,0,.41.54,1.79,1.79,0,0,0,.56.34,2,2,0,0,0,.65.11,2,2,0,0,0,.92-.2,2.58,2.58,0,0,0,.71-.53l.48.43a3.36,3.36,0,0,1-.89.71,2.71,2.71,0,0,1-1.24.26,2.5,2.5,0,0,1-1.82-.74,2.84,2.84,0,0,1-.56-.86,3,3,0,0,1-.2-1.1A3,3,0,0,1,63,30.61a2.75,2.75,0,0,1,.52-.86,2.34,2.34,0,0,1,.78-.58,2.39,2.39,0,0,1,1-.21,2.25,2.25,0,0,1,1,.22,2.17,2.17,0,0,1,.76.58,2.61,2.61,0,0,1,.47.87,3.38,3.38,0,0,1,.16,1.07v.12a.86.86,0,0,1,0,.15ZM67,31.34a2.44,2.44,0,0,0-.15-.66,1.79,1.79,0,0,0-.33-.55,1.36,1.36,0,0,0-.5-.38,1.57,1.57,0,0,0-.67-.14,1.44,1.44,0,0,0-.62.13,1.82,1.82,0,0,0-.51.36,2.12,2.12,0,0,0-.37.55,2.7,2.7,0,0,0-.18.69Z"/><path d="M71.21,34.34a3.5,3.5,0,0,1-1.13-.2,3.65,3.65,0,0,1-1-.56l.39-.55a3.44,3.44,0,0,0,.87.49,2.72,2.72,0,0,0,.92.17,1.25,1.25,0,0,0,.77-.22.71.71,0,0,0,.3-.6v0a.52.52,0,0,0-.11-.33,1,1,0,0,0-.28-.24,2,2,0,0,0-.42-.19L71,31.94l-.61-.19a2.56,2.56,0,0,1-.55-.27,1.52,1.52,0,0,1-.4-.4,1.11,1.11,0,0,1-.15-.6v0a1.32,1.32,0,0,1,.13-.6,1.4,1.4,0,0,1,.36-.47,1.77,1.77,0,0,1,.56-.3,2.35,2.35,0,0,1,.71-.11,3,3,0,0,1,1,.16,3.62,3.62,0,0,1,.89.41l-.35.58a3.53,3.53,0,0,0-.76-.36,2.37,2.37,0,0,0-.77-.14,1.1,1.1,0,0,0-.73.22.65.65,0,0,0-.27.53v0a.52.52,0,0,0,.11.32,1,1,0,0,0,.29.23,2.41,2.41,0,0,0,.43.18l.5.16.59.2a2.3,2.3,0,0,1,.54.28,1.24,1.24,0,0,1,.38.41,1.1,1.1,0,0,1,.15.59v0a1.4,1.4,0,0,1-.15.66,1.29,1.29,0,0,1-.39.48,1.69,1.69,0,0,1-.58.31A2.37,2.37,0,0,1,71.21,34.34Z"/><path d="M74.9,27.09h.88v.85H74.9Zm0,2h.77v5.17H75Z"/><path d="M80.2,35.86A4.23,4.23,0,0,1,79,35.68a4.07,4.07,0,0,1-1.11-.54l.35-.6a3.67,3.67,0,0,0,.94.49,3.3,3.3,0,0,0,1,.17,2,2,0,0,0,1.37-.46,1.77,1.77,0,0,0,.51-1.38v-.61a3.21,3.21,0,0,1-.83.77,2.19,2.19,0,0,1-1.2.32,2.58,2.58,0,0,1-.91-.17,2.38,2.38,0,0,1-.77-.48,2.47,2.47,0,0,1-.55-.76,2.53,2.53,0,0,1-.2-1v0a2.54,2.54,0,0,1,.2-1,2.36,2.36,0,0,1,.55-.76,2.45,2.45,0,0,1,.78-.49A2.52,2.52,0,0,1,80,29a2.29,2.29,0,0,1,.66.09,2.11,2.11,0,0,1,.55.22,1.87,1.87,0,0,1,.45.33,4.48,4.48,0,0,1,.36.4v-.93h.77v4.27a3.14,3.14,0,0,1-.17,1.06,2.12,2.12,0,0,1-.49.77,2.17,2.17,0,0,1-.85.52A3.56,3.56,0,0,1,80.2,35.86Zm0-2.7A2.12,2.12,0,0,0,80.9,33a2,2,0,0,0,.6-.36,2,2,0,0,0,.43-.56,1.51,1.51,0,0,0,.16-.71v0a1.53,1.53,0,0,0-.16-.72,1.85,1.85,0,0,0-1-.9,1.9,1.9,0,0,0-.71-.13,1.82,1.82,0,0,0-.7.13,1.87,1.87,0,0,0-.57.35,1.6,1.6,0,0,0-.38.54,1.81,1.81,0,0,0-.14.72v0a1.89,1.89,0,0,0,.14.72,1.83,1.83,0,0,0,.39.55,2.12,2.12,0,0,0,.57.36A1.8,1.8,0,0,0,80.19,33.16Z"/><path d="M85,29.07h.77V30a2.3,2.3,0,0,1,.68-.71,1.83,1.83,0,0,1,1.09-.3,2.16,2.16,0,0,1,.83.15,1.61,1.61,0,0,1,.62.43,1.85,1.85,0,0,1,.39.65,2.47,2.47,0,0,1,.14.84v3.21H88.7v-3a1.7,1.7,0,0,0-.37-1.14,1.34,1.34,0,0,0-1.06-.42,1.59,1.59,0,0,0-.62.12,1.34,1.34,0,0,0-.49.32,1.65,1.65,0,0,0-.33.52,2,2,0,0,0-.11.66v3H85Z"/></g></g></svg>