<?xml version="1.0" standalone="no"?>
<!DOCTYPE svg PUBLIC "-//W3C//DTD SVG 20010904//EN"
 "http://www.w3.org/TR/2001/REC-SVG-20010904/DTD/svg10.dtd">
<svg version="1.0" xmlns="http://www.w3.org/2000/svg"
 width="16.000000pt" height="16.000000pt" viewBox="0 0 16.000000 16.000000"
 preserveAspectRatio="xMidYMid meet">
<metadata>
Created by potrace 1.11, written by Peter Selinger 2001-2013
</metadata>
<g transform="translate(0.000000,16.000000) scale(0.006154,-0.006154)"
fill="#000000" stroke="none">
<path d="M1254 2328 c-18 -20 -21 -35 -15 -78 2 -17 55 -37 81 -30 14 3 31 18
38 34 34 69 -54 131 -104 74z"/>
<path d="M425 1770 c-2 -3 19 -43 47 -90 47 -79 78 -134 117 -203 9 -16 21
-36 26 -45 6 -9 30 -50 54 -90 23 -41 44 -72 46 -70 7 9 275 475 280 488 5 13
-30 15 -281 15 -157 0 -287 -2 -289 -5z"/>
<path d="M1600 1770 c0 -3 21 -41 46 -85 26 -44 58 -100 72 -125 13 -25 33
-57 43 -72 11 -14 19 -28 19 -31 0 -3 24 -46 54 -97 l54 -92 69 118 c127 215
223 382 223 386 0 2 -130 3 -290 3 -159 0 -290 -2 -290 -5z"/>
<path d="M374 805 c-30 -30 -31 -65 -1 -93 56 -53 129 0 103 75 -6 20 -27 33
-65 39 -7 1 -24 -8 -37 -21z"/>
<path d="M2155 818 c-31 -18 -43 -40 -39 -68 6 -31 39 -60 68 -60 30 0 66 35
66 64 0 48 -56 86 -95 64z"/>
<path d="M1010 753 c0 -3 22 -42 49 -87 51 -86 206 -355 227 -394 12 -23 14
-20 65 65 28 48 63 107 76 131 13 23 52 91 87 151 34 59 65 115 69 124 5 14
-22 16 -284 16 -159 -1 -289 -3 -289 -6z"/>
</g>
</svg>
