<svg xmlns="http://www.w3.org/2000/svg" viewBox="0 0 147.55 21.76"><defs><style>.cls-1{fill:#1e1210}</style></defs><g id="レイヤー_2" data-name="レイヤー 2"><g id="レイヤー_1-2" data-name="レイヤー 1"><path class="cls-1" d="M2.58 2.79V8.6h7.18V11H2.58v10.1H0V.43h10v2.36zM61.62 21.1H59V2.79h-4.9V.43h12.43v2.36h-4.91zM111 20a1.59 1.59 0 1 1-1.59-1.59A1.6 1.6 0 0 1 111 20zM147.55 20a1.59 1.59 0 1 1-1.55-1.64 1.59 1.59 0 0 1 1.55 1.64zM121.37.43h4.28c6.33 0 11.59 3.35 11.59 10.23 0 7-5.15 10.44-11.68 10.44h-4.19zM124 18.74h.9c5.26 0 9.82-2 9.82-8s-4.56-8-9.82-8h-.9zM40.79 11a8.29 8.29 0 1 0-16.58 0h-2.59a10.88 10.88 0 1 1 21.75 0zM99.34 11a10.86 10.86 0 0 1-21.72 0h2.59a8.28 8.28 0 1 0 16.55 0z"/></g></g></svg>